<svg id="Layer_1" data-name="Layer 1" xmlns="http://www.w3.org/2000/svg" viewBox="0 0 16 16"><defs><style>.cls-1{fill:#212121;}</style></defs><title>Icon_</title><rect class="cls-1" y="3" width="7" height="1"/><rect class="cls-1" width="10.99" height="1"/><path class="cls-1" d="M8,16C5.33,16,2.77,14.53.37,11.64l-.42-.51.38-.54C.46,10.41,3.49,6.12,7.88,6c2.73-.06,5.3,1.46,7.68,4.55l.39.5-.36.52c-.12.17-3,4.21-7.29,4.42ZM2,11.06c2,2.26,4.09,3.34,6.22,3.26,2.74-.13,4.85-2.25,5.69-3.23C12,8.77,10,7.67,7.93,7.67,5.14,7.74,2.9,10,2,11.06Z"/><path class="cls-1" d="M8,13.5A2.5,2.5,0,1,1,10.5,11,2.5,2.5,0,0,1,8,13.5Zm0-3.33a.83.83,0,1,0,.83.83A.83.83,0,0,0,8,10.17Z"/></svg>