<svg id="Layer_1" data-name="Layer 1" xmlns="http://www.w3.org/2000/svg" viewBox="0 0 16 16"><defs><style>.cls-1{fill:#212121;}</style></defs><title>Icon_</title><path class="cls-1" d="M8,13C5.38,13,2.82,11.53.42,8.64L0,8.13l.38-.54C.51,7.41,3.54,3.12,7.93,3c2.73-.06,5.3,1.46,7.68,4.55l.39.5-.36.52c-.12.17-3,4.21-7.29,4.42Zm-6-4.94c2,2.26,4.09,3.34,6.22,3.26C11,11.19,13.13,9.07,14,8.08,12.05,5.77,10,4.67,8,4.67,5.19,4.74,2.95,7,2.06,8.06Z"/><path class="cls-1" d="M8,10.5A2.5,2.5,0,1,1,10.5,8,2.5,2.5,0,0,1,8,10.5ZM8,7.17A.83.83,0,1,0,8.83,8,.83.83,0,0,0,8,7.17Z"/></svg>