<svg id="Layer_1" data-name="Layer 1" xmlns="http://www.w3.org/2000/svg" width="16" height="16" viewBox="0 0 16 16"><title>configure</title><path d="M12.6,8.6a4,4,0,0,0,0-1.2l1.3-1A.3.3,0,0,0,14,6L12.7,4a.3.3,0,0,0-.4-.1l-1.5.6-1-.6L9.5,2.3A.3.3,0,0,0,9.2,2H6.8a.3.3,0,0,0-.3.3L6.2,3.8l-1,.6L3.7,3.8a.3.3,0,0,0-.4.1L2,6a.3.3,0,0,0,.1.4l1.3,1a4.6,4.6,0,0,0,0,.6,4.6,4.6,0,0,0,0,.6l-1.3,1A.3.3,0,0,0,2,10L3.3,12a.3.3,0,0,0,.4.1l1.5-.6,1,.6.2,1.6a.3.3,0,0,0,.3.3H9.2a.3.3,0,0,0,.3-.3l.2-1.6,1-.6,1.5.6a.3.3,0,0,0,.4-.1L14,10a.3.3,0,0,0-.1-.4ZM8,10.1A2.1,2.1,0,1,1,10.2,8,2.1,2.1,0,0,1,8,10.1Z"/></svg>