<?xml version="1.0" encoding="utf-8"?>
<!-- Generator: Adobe Illustrator 19.2.0, SVG Export Plug-In . SVG Version: 6.00 Build 0)  -->
<svg version="1.1" id="Layer_1" xmlns="http://www.w3.org/2000/svg" xmlns:xlink="http://www.w3.org/1999/xlink" x="0px" y="0px"
	 width="32px" height="32px" viewBox="0 0 32 32" enable-background="new 0 0 32 32" xml:space="preserve">
<g>
	<path fill="#284C59" d="M22,24H9c-1.7,0-3-1.3-3-3V9c0-1.7,1.3-3,3-3h13c1.7,0,3,1.3,3,3v12C25,22.7,23.7,24,22,24z"/>
	<path fill="#F4F4F4" d="M22,23H9c-1.1,0-2-0.9-2-2V9c0-1.1,0.9-2,2-2h13c1.1,0,2,0.9,2,2v12C24,22.1,23.1,23,22,23z"/>
	<line fill="none" stroke="#284C59" stroke-miterlimit="10" stroke-dasharray="2,2" x1="10" y1="9.5" x2="22" y2="9.5"/>
	<path fill="#284C59" stroke="#F4F4F4" stroke-miterlimit="10" d="M14.5,15.5h-9c-0.6,0-1-0.4-1-1v-2c0-0.6,0.4-1,1-1h9
		c0.6,0,1,0.4,1,1v2C15.5,15.1,15.1,15.5,14.5,15.5z"/>
	<path fill="#284C59" stroke="#F4F4F4" stroke-miterlimit="10" d="M25.5,21.5h-9c-0.6,0-1-0.4-1-1v-2c0-0.6,0.4-1,1-1h9
		c0.6,0,1,0.4,1,1v2C26.5,21.1,26.1,21.5,25.5,21.5z"/>
	<line fill="none" stroke="#284C59" stroke-miterlimit="10" x1="14.6" y1="15.5" x2="16.4" y2="17.5"/>
</g>
</svg>
