<?xml version="1.0" encoding="utf-8"?>
<!-- Generator: Adobe Illustrator 19.2.0, SVG Export Plug-In . SVG Version: 6.00 Build 0)  -->
<svg version="1.1" id="Layer_1" xmlns="http://www.w3.org/2000/svg" xmlns:xlink="http://www.w3.org/1999/xlink" x="0px" y="0px"
	 width="32px" height="32px" viewBox="0 0 32 32" enable-background="new 0 0 32 32" xml:space="preserve">
<g>
	<path fill="#CAF1FA" d="M27.6,29.5H3.4c-1,0-1.9-0.8-1.9-1.9V3.4c0-1,0.8-1.9,1.9-1.9h24.3c1,0,1.9,0.8,1.9,1.9v24.3
		C29.5,28.7,28.7,29.5,27.6,29.5z"/>
	<path fill="none" stroke="#64CBFF" stroke-miterlimit="10" d="M27.6,29.5H3.4c-1,0-1.9-0.8-1.9-1.9V3.4c0-1,0.8-1.9,1.9-1.9h24.3
		c1,0,1.9,0.8,1.9,1.9v24.3C29.5,28.7,28.7,29.5,27.6,29.5z"/>
</g>
<g>
	<g>
		<path fill="#87AFC4" d="M5,11V7c0-1.1,0.9-2,2-2h17c1.1,0,2,0.9,2,2v4"/>
	</g>
	<g>
		<rect x="5" y="16" fill="#365976" width="9" height="3"/>
	</g>
	<g>
		<polygon fill="#365976" points="13,13 13,22 18,17.5 		"/>
	</g>
	<path fill="#365976" d="M7,25h17c1.1,0,2-0.9,2-2V7c0-1.1-0.9-2-2-2H7C5.9,5,5,5.9,5,7v4h1V7c0-0.6,0.4-1,1-1h17c0.6,0,1,0.4,1,1
		v16c0,0.6-0.4,1-1,1H7"/>
</g>
</svg>
