<?xml version="1.0" encoding="utf-8"?>
<!-- Generator: Adobe Illustrator 19.2.0, SVG Export Plug-In . SVG Version: 6.00 Build 0)  -->
<svg version="1.1" id="Layer_1" xmlns="http://www.w3.org/2000/svg" xmlns:xlink="http://www.w3.org/1999/xlink" x="0px" y="0px"
	 width="32px" height="32px" viewBox="0 0 32 32" enable-background="new 0 0 32 32" xml:space="preserve">
<g>
	<g>
		<path fill="#F7F7F7" d="M27.6,29.5H3.4c-1,0-1.9-0.8-1.9-1.9V3.4c0-1,0.8-1.9,1.9-1.9h24.3c1,0,1.9,0.8,1.9,1.9v24.3
			C29.5,28.7,28.7,29.5,27.6,29.5z"/>
		<path fill="none" stroke="#CCCCCC" stroke-miterlimit="10" d="M27.6,29.5H3.4c-1,0-1.9-0.8-1.9-1.9V3.4c0-1,0.8-1.9,1.9-1.9h24.3
			c1,0,1.9,0.8,1.9,1.9v24.3C29.5,28.7,28.7,29.5,27.6,29.5z"/>
	</g>
	<g>
		<polygon fill="#996B4A" points="14,15 14,21 17,23 17,15 23,8 8,8 		"/>
	</g>
</g>
</svg>
