<?xml version="1.0" encoding="utf-8"?>
<!-- Generator: Adobe Illustrator 19.2.0, SVG Export Plug-In . SVG Version: 6.00 Build 0)  -->
<svg version="1.1" id="Layer_1" xmlns="http://www.w3.org/2000/svg" xmlns:xlink="http://www.w3.org/1999/xlink" x="0px" y="0px"
	 width="32px" height="32px" viewBox="0 0 32 32" enable-background="new 0 0 32 32" xml:space="preserve">
<g>
	<path fill="#343434" d="M11,13v5c0,1.1,0.9,2,2,2h5c1.1,0,2-0.9,2-2v-5c0-1.1-0.9-2-2-2h-5C11.9,11,11,11.9,11,13z"/>
	<path fill="#87AFC4" d="M26,13v-1h-3V8h-4V5h-1v3h-2V5h-1v3h-2V5h-1v3H8v4H5v1h3v2H5v1h3v2H5v1h3v4h4v3h1v-3h2v3h1v-3h2v3h1v-3h4
		v-4h3v-1h-3v-2h3v-1h-3v-2H26z M22,22H9V9h13V22z"/>
</g>
</svg>
