<?xml version="1.0" encoding="utf-8"?>
<!-- Generator: Adobe Illustrator 19.2.0, SVG Export Plug-In . SVG Version: 6.00 Build 0)  -->
<svg version="1.1" id="Layer_1" xmlns="http://www.w3.org/2000/svg" xmlns:xlink="http://www.w3.org/1999/xlink" x="0px" y="0px"
	 width="32px" height="32px" viewBox="0 0 32 32" enable-background="new 0 0 32 32" xml:space="preserve">
<g>
	<g>
		<path fill="#F7F7F7" d="M29.4,31.5H2.6c-1.1,0-2.1-0.9-2.1-2.1V2.6c0-1.1,0.9-2.1,2.1-2.1h26.9c1.1,0,2.1,0.9,2.1,2.1v26.9
			C31.5,30.6,30.6,31.5,29.4,31.5z"/>
		<path fill="none" stroke="#CCCCCC" stroke-miterlimit="10" d="M29.4,31.5H2.6c-1.1,0-2.1-0.9-2.1-2.1V2.6c0-1.1,0.9-2.1,2.1-2.1
			h26.9c1.1,0,2.1,0.9,2.1,2.1v26.9C31.5,30.6,30.6,31.5,29.4,31.5z"/>
	</g>
	<g>
		<path fill="#95D7F4" d="M27.3,22h-16c-2.3,0-4.7-1.8-5.2-4.1c0-0.1,0-0.1,0-0.2C5.9,16.8,6,15.8,6.3,15c0.4-0.8,1.1-1.7,2.5-2.2
			c0.3-0.1,0.5-0.3,0.6-0.7c0.1-1,0.6-2.9,3.2-2.9c0.3,0.1,0.7-4.1,5.7-4.2c0.1,0,3-0.4,5.7,3.4c0.1,0.2,0.4,0.3,0.6,0.4
			c1,0.1,3.7,0.4,3.7,3.4c0,0.3-0.1,1.1,0.6,1.5c1,0.6,1.8,1.5,2.1,2.7C31.3,18.4,31,21.2,27.3,22z"/>
		<g>
			<path fill="#FFFFFF" stroke="#365976" stroke-miterlimit="10" d="M10.5,25.5h-8c-0.6,0-1-0.4-1-1v-5c0-0.6,0.4-1,1-1h8
				c0.6,0,1,0.4,1,1v5C11.5,25.1,11.1,25.5,10.5,25.5z"/>
			<line fill="none" stroke="#365976" stroke-miterlimit="10" x1="2" y1="19.5" x2="11" y2="19.5"/>
			<path fill="#FFFFFF" stroke="#365976" stroke-miterlimit="10" d="M22.5,18.5h-8c-0.6,0-1-0.4-1-1v-5c0-0.6,0.4-1,1-1h8
				c0.6,0,1,0.4,1,1v5C23.5,18.1,23.1,18.5,22.5,18.5z"/>
			<line fill="none" stroke="#365976" stroke-miterlimit="10" x1="14" y1="12.5" x2="23" y2="12.5"/>
			<path fill="none" stroke="#365976" stroke-miterlimit="10" d="M11.7,21.1c0,0,1.3-0.3,3.1-2.6"/>
		</g>
	</g>
</g>
</svg>
