<svg id="Layer_1" data-name="Layer 1" xmlns="http://www.w3.org/2000/svg" width="18" height="18" viewBox="0 0 18 18"><defs><style>.cls-1{fill:#2f80d1;}.cls-2{fill:#606060;}</style></defs><title>AttributesToJSON</title><path class="cls-1" d="M4,9.7a1.2,1.2,0,0,1-.9.3A1.4,1.4,0,0,1,2,9.5L2.3,9l.4.3h.8a.6.6,0,0,0,.1-.4V6.9H2.3V6.3h2V8.8A1.2,1.2,0,0,1,4,9.7Z"/><path class="cls-1" d="M6.9,7H5.9a.3.3,0,0,0-.1.3.3.3,0,0,0,.1.3l.3.2h.4l.6.2.4.3a.9.9,0,0,1,.2.6,1,1,0,0,1-.2.6l-.5.4H6.3l-.8-.2-.7-.4.3-.6.6.4H6.8a.4.4,0,0,0,.1-.6l-.3-.2H6.2l-.6-.2-.4-.3A.9.9,0,0,1,5,7.3a.9.9,0,0,1,.2-.6l.5-.4H7.1l.6.3-.3.6Z"/><path class="cls-1" d="M11.1,6.5a1.9,1.9,0,0,1,.7,2.6,1.9,1.9,0,0,1-.7.7l-1,.3-1-.3a1.9,1.9,0,0,1-.7-.7,1.9,1.9,0,0,1,.7-2.6l1-.2Zm-1.6.5L9,7.5A1.3,1.3,0,0,0,9,8.8l.5.5.6.2.6-.2.4-.5a1.3,1.3,0,0,0,.2-.6,1.2,1.2,0,0,0-.2-.6l-.4-.5-.6-.2Z"/><path class="cls-1" d="M15.2,6.3h.7V10h-.7L13.4,7.5V10h-.7V6.3h.7l1.9,2.5Z"/><path class="cls-2" d="M17,1V17H1V1H17m1-1H0V18H18V0Z"/></svg>