<svg id="Layer_1" data-name="Layer 1" xmlns="http://www.w3.org/2000/svg" width="18" height="18" viewBox="0 0 18 18"><defs><style>.cls-1{fill:#606060;}.cls-2{fill:#47b747;}</style></defs><title>ConsumeMQTT</title><path class="cls-1" d="M10.1,8.4a1.8,1.8,0,0,0-1.4.7L5.6,7.5A1.8,1.8,0,0,0,5.6,7a1.8,1.8,0,0,0-.1-.5L8.6,4.9a1.9,1.9,0,1,0-.3-.6L5.2,5.9a1.8,1.8,0,1,0,0,2.2L8.4,9.7a1.8,1.8,0,0,0-.1.5,1.8,1.8,0,1,0,1.8-1.8Z"/><polygon class="cls-2" points="18 13 15 10 12 13 14 13 14 18 16 18 16 13 18 13"/><path class="cls-1" d="M17.9,0H0V17.9H11V17H1V1H17V9h1V.1Z"/></svg>