<svg id="Layer_1" data-name="Layer 1" xmlns="http://www.w3.org/2000/svg" width="18" height="18" viewBox="0 0 18 18"><defs><style>.cls-1{fill:none;}.cls-2{fill:#606060;}.cls-3{fill:#47b747;}</style></defs><title>ConsumeWindowsEventLog</title><circle class="cls-1" cx="11" cy="4" r="1"/><circle class="cls-1" cx="8" cy="4" r="1"/><circle class="cls-1" cx="14" cy="4" r="1"/><path class="cls-2" d="M17.9,1H0V16.9H11V16H1V6H17V9h1V1.1ZM8,5A1,1,0,1,1,9,4,1,1,0,0,1,8,5Zm3,0a1,1,0,1,1,1-1A1,1,0,0,1,11,5Zm3,0a1,1,0,1,1,1-1A1,1,0,0,1,14,5Z"/><polygon class="cls-3" points="18 13 17 12 15 10 12 13 14 13 14 15.6 14 16.8 14 18 16 18 16 16.8 16 15.6 16 13 17 13 18 13"/></svg>