<svg id="Layer_1" data-name="Layer 1" xmlns="http://www.w3.org/2000/svg" width="18" height="18" viewBox="0 0 18 18"><defs><style>.cls-1{fill:#fff;}.cls-2{fill:#606060;}.cls-3{fill:#2f80d1;}.cls-4{fill:#47b747;}</style></defs><title>ConsumeAMQP</title><path class="cls-1" d="M18,18h0Z"/><path class="cls-2" d="M18,0H0V18H11V17H1V1H17V9h1V0Z"/><rect class="cls-3" x="11" y="2" width="1" height="9"/><rect class="cls-3" x="8" y="2" width="1" height="9"/><rect class="cls-3" x="5" y="2" width="1" height="9"/><polygon class="cls-3" points="3 5 2 5 2 8 3 8 3 7 4 7 4 6 3 6 3 5"/><polygon class="cls-3" points="15 6 15 5 14 5 14 8 15 8 15 7 16 7 16 6 15 6"/><polygon class="cls-4" points="18 13 15 10 12 13 14 13 14 18 16 18 16 13 18 13"/></svg>