<svg id="Layer_1" data-name="Layer 1" xmlns="http://www.w3.org/2000/svg" width="18" height="18" viewBox="0 0 18 18"><defs><style>.cls-1{fill:none;}.cls-2{fill:#606060;}.cls-3{fill:#47b747;}</style></defs><title>ConsumePOP3</title><path class="cls-1" d="M9,8.5h.3L16.1,3H1.9L8.7,8.4Z"/><path class="cls-1" d="M7.7,8.9,1,3.5V14.4L7.6,9Z"/><path class="cls-2" d="M1.8,15,8.2,9.8,9,9.5H9l.7.3,1.2,1V9.5L10.4,9h-.1L17,3.5V9h1V2H0V16H11V15ZM16.1,3,9.3,8.4H8.7L1.9,3ZM1,3.5,7.7,8.9H7.6L1,14.4Z"/><rect class="cls-3" x="14" y="13" width="2" height="4.98"/><polygon class="cls-3" points="15 10 12 13 18 13 15 10"/></svg>