<svg id="Layer_1" data-name="Layer 1" xmlns="http://www.w3.org/2000/svg" width="18" height="18" viewBox="0 0 18 18"><defs><style>.cls-1{fill:#47b747;}.cls-2{fill:#2f80d1;}.cls-3{fill:#606060;}</style></defs><title>ConvertJSONToSQL</title><path class="cls-1" d="M16.6,10.8l-.5.9a2.5,2.5,0,0,1,.9,1.9,2.5,2.5,0,0,1-1.7,2.4v-.7l-1.4,1.4L15.3,18V17a3.5,3.5,0,0,0,1.3-6.2Z"/><path class="cls-1" d="M13.9,11.2V12l1.4-1.4L13.9,9.2v.9h0a3.5,3.5,0,0,0-1.1,6.5l.5-.8a2.5,2.5,0,0,1,.5-4.7h0Z"/><path class="cls-2" d="M4,6.7a1.2,1.2,0,0,1-.9.3A1.4,1.4,0,0,1,2,6.5L2.3,6l.4.3h.8a.6.6,0,0,0,.1-.4V3.9H2.3V3.3h2V5.8A1.2,1.2,0,0,1,4,6.7Z"/><path class="cls-2" d="M6.9,4H6a.3.3,0,0,0-.1.3.3.3,0,0,0,.1.3l.3.2h.4l.6.2.4.3a.9.9,0,0,1,.2.6,1,1,0,0,1-.2.6l-.5.4H6.4l-.8-.2-.7-.4.3-.6.6.4H6.8a.4.4,0,0,0,.1-.6l-.3-.2H6.2l-.6-.2-.4-.3A.9.9,0,0,1,5,4.3a.9.9,0,0,1,.2-.6l.5-.4H7.1l.6.3-.3.6Z"/><path class="cls-2" d="M11.1,3.5a1.9,1.9,0,0,1,.7,2.6,1.9,1.9,0,0,1-.7.7l-1,.3-1-.3a1.9,1.9,0,0,1-.7-.7,1.9,1.9,0,0,1,.7-2.6l1-.2Zm-1.6.5L9,4.5A1.3,1.3,0,0,0,9,5.8l.5.5.6.2.6-.2.4-.5a1.3,1.3,0,0,0,.2-.6,1.2,1.2,0,0,0-.2-.6l-.4-.5-.6-.2Z"/><path class="cls-2" d="M15.3,3.3h.7V7h-.7L13.4,4.5V7h-.7V3.3h.7l1.9,2.5Z"/><polygon class="cls-3" points="0 0 0 18 9 18 9 17 1 17 1 1 17 1 17 9 18 9 18 0 0 0"/></svg>