<svg id="Layer_1" data-name="Layer 1" xmlns="http://www.w3.org/2000/svg" width="18" height="18" viewBox="0 0 18 18"><defs><style>.cls-1{fill:#606060;}.cls-2{fill:#47b747;}.cls-3{fill:#2f80d1;}</style></defs><title>ConvertAvroToJSON</title><polygon class="cls-1" points="0 0 0 18 11 18 11 17 1 17 1 1 17 1 17 9 18 9 18 0 0 0"/><path class="cls-2" d="M16.6,10.8l-.5.9a2.5,2.5,0,0,1,.9,1.9,2.5,2.5,0,0,1-1.7,2.4v-.7l-1.4,1.4L15.3,18V17a3.5,3.5,0,0,0,1.3-6.2Z"/><path class="cls-2" d="M13.9,11.2V12l1.4-1.4L13.9,9.2v.9h0a3.5,3.5,0,0,0-1.1,6.5l.5-.8a2.5,2.5,0,0,1,.5-4.7h0Z"/><path class="cls-3" d="M4.9,6.3l-.3-.7H3l-.3.7H2L3.5,3h.7L5.6,6.3ZM3.2,5.1H4.4L3.8,3.7Z"/><path class="cls-3" d="M5.4,3H6L7,5.6,8,3h.7L7.3,6.3H6.7Z"/><path class="cls-3" d="M11.2,6.3l-.6-1H9.7v1H9.1V3h1.4a1.5,1.5,0,0,1,1,.3,1.1,1.1,0,0,1,.4.8,1.3,1.3,0,0,1-.2.7l-.5.4.7,1.1ZM9.7,4.8h.8l.6-.2a.6.6,0,0,0,.2-.5.6.6,0,0,0-.2-.5l-.6-.2H9.7Z"/><path class="cls-3" d="M15,3.2a1.7,1.7,0,0,1,.6,2.4,1.7,1.7,0,0,1-.6.6l-.9.2-.9-.2a1.7,1.7,0,0,1-.6-.6,1.7,1.7,0,0,1,.6-2.4l.9-.2Zm-1.5.5-.4.4a1.2,1.2,0,0,0,0,1.2l.4.4.6.2.6-.2.4-.4a1.2,1.2,0,0,0,0-1.2l-.4-.4-.6-.2Z"/></svg>