<svg id="Layer_1" data-name="Layer 1" xmlns="http://www.w3.org/2000/svg" width="18" height="18" viewBox="0 0 18 18"><defs><style>.cls-1{fill:#47b747;}.cls-2{fill:#2f80d1;}.cls-3{fill:#606060;}</style></defs><title>ConvertCharacterSet</title><path class="cls-1" d="M16.6,10.8l-.5.9a2.5,2.5,0,0,1,.9,1.9,2.5,2.5,0,0,1-1.7,2.4v-.7l-1.4,1.4L15.3,18V17a3.5,3.5,0,0,0,1.3-6.2Z"/><path class="cls-1" d="M15.3,10.6,13.9,9.2v.9a3.5,3.5,0,0,0-1.1,6.5l.5-.8a2.5,2.5,0,0,1,.6-4.7V12Z"/><path class="cls-2" d="M8.7,4.4,7.5,4.1a2.8,2.8,0,0,0-1.4.4,2.7,2.7,0,0,0-1,1,2.9,2.9,0,0,0,0,2.8,2.7,2.7,0,0,0,1,1,2.7,2.7,0,0,0,1.4.4l1.2-.3,1.1-.7.9,1a4.9,4.9,0,0,1-1.5,1,4.3,4.3,0,0,1-1.7.4,4.3,4.3,0,0,1-2.2-.6A4.2,4.2,0,0,1,3.7,9.1a4.2,4.2,0,0,1-.6-2.2,4.1,4.1,0,0,1,.6-2.2A4.2,4.2,0,0,1,5.3,3.2a4.6,4.6,0,0,1,4-.2,4.3,4.3,0,0,1,1.5,1L9.8,5.2A3.1,3.1,0,0,0,8.7,4.4Z"/><polygon class="cls-3" points="0 0 0 18 9 18 9 17 1 17 1 1 17 1 17 9 18 9 18 0 0 0"/></svg>