<svg id="Layer_1" data-name="Layer 1" xmlns="http://www.w3.org/2000/svg" width="18" height="18" viewBox="0 0 18 18"><defs><style>.cls-1{fill:#606060;}</style></defs><title>Debug Flow</title><path class="cls-1" d="M9,1.8a4,4,0,0,0-4,4h8A4,4,0,0,0,9,1.8Z"/><path class="cls-1" d="M16.3,10.1H13.9a12.4,12.4,0,0,0,.4-2.3l1.4-1.4a.5.5,0,1,0-.7-.7L13.5,7.3H4.5L3,5.7a.5.5,0,0,0-.7.7L3.7,7.9a12.4,12.4,0,0,0,.4,2.3H1.7a.5.5,0,1,0,0,1H4.4A12.4,12.4,0,0,0,5.8,14L3.9,15.8a.5.5,0,0,0,.7.7l1.7-1.7A3.6,3.6,0,0,0,9,16.3a3.8,3.8,0,0,0,2.8-1.7l1.9,1.9a.5.5,0,0,0,.7-.7l-2.1-2.1a12.7,12.7,0,0,0,1.2-2.6h2.7a.5.5,0,0,0,0-1Z"/></svg>