<svg id="Layer_1" data-name="Layer 1" xmlns="http://www.w3.org/2000/svg" width="18" height="18" viewBox="0 0 18 18"><defs><style>.cls-1{fill:#ff6364;}.cls-2{fill:#606060;}</style></defs><title>Delete S3 Object</title><polygon class="cls-1" points="18 12 17 11 14.5 13.5 12 11 11 12 13.5 14.5 11 17 12 18 14.5 15.5 17 18 18 17 15.5 14.5 18 12"/><polygon class="cls-2" points="0 14.4 7 16 7 7.4 0 5 0 14.4"/><polygon class="cls-2" points="7.9 0 0 2.5 7.9 5 15 2.5 7.9 0"/><polygon class="cls-2" points="8 9 8 9 8 14 9 14 9 9 15 9 15 5 8 7.4 8 9"/></svg>