<svg id="Layer_1" data-name="Layer 1" xmlns="http://www.w3.org/2000/svg" width="18" height="18" viewBox="0 0 18 18"><defs><style>.cls-1{fill:#606060;}.cls-2{fill:#2f80d1;}</style></defs><title>Detect Duplicate</title><polygon class="cls-1" points="9 2 2 2 2 17 8 17 8 16 3 16 3 3 9 3 9 7 13 7 13 11.2 13 12 14 12 14 11.2 14 7 9 2"/><polygon class="cls-1" points="16 10 15 10 15 6.2 10.1 1.4 10.9 0.6 16 5.8 16 10"/><path class="cls-2" d="M11.2,12.8A3.4,3.4,0,0,0,8.4,7.5H8V7H4V8H6.7A3.4,3.4,0,0,0,5.6,9H4v1H5.1a3.4,3.4,0,0,0-.1.9H4v1H5.2a3.4,3.4,0,0,0,.5,1H4v1H7a3.4,3.4,0,0,0,3.4-.3l2.8,2.8.9-.9ZM8.4,13a2,2,0,1,1,2-2A2,2,0,0,1,8.4,13Z"/></svg>