<svg id="Layer_1" data-name="Layer 1" xmlns="http://www.w3.org/2000/svg" width="18" height="18" viewBox="0 0 18 18"><defs><style>.cls-1{fill:none;}.cls-2{fill:#606060;}.cls-3{fill:#2f80d1;}</style></defs><title>Encrypt Content copy</title><path class="cls-1" d="M10,4.5a2.6,2.6,0,0,0-.9-1.8,2.8,2.8,0,0,0-2-.7A3.1,3.1,0,0,0,5,2.7,2.6,2.6,0,0,0,4,4.5V6h6Z"/><path class="cls-2" d="M12.7,6.5c-.2-.2-.4-.5-.7-.5h0V4.5a4.4,4.4,0,0,0-1.5-3.1A4.8,4.8,0,0,0,7.1,0,5.1,5.1,0,0,0,3.6,1.3,4.4,4.4,0,0,0,2,4.5V6H2c-.3,0-.5.3-.7.5a1.3,1.3,0,0,0-.3.9V13a.9.9,0,0,0,.3.7A1,1,0,0,0,2,14H9.1a4.4,4.4,0,0,1-.1-.5,4.5,4.5,0,0,1,4-4.4V7.3A1.3,1.3,0,0,0,12.7,6.5ZM10,6H4V4.5a2.6,2.6,0,0,1,.9-1.8,2.8,2.8,0,0,1,2-.7A3.1,3.1,0,0,1,9,2.7a2.6,2.6,0,0,1,1,1.8Z"/><path class="cls-3" d="M13.3,13.7,10,17v1h2V17h1V16h1v-1l.4-.4A2.5,2.5,0,0,1,13.3,13.7Z"/><path class="cls-3" d="M15.5,10A2.5,2.5,0,1,0,18,12.5,2.5,2.5,0,0,0,15.5,10Zm.5,3a1,1,0,1,1,1-1A1,1,0,0,1,16,13Z"/></svg>