<svg xmlns="http://www.w3.org/2000/svg" width="18" height="18" viewBox="0 0 18 18"><defs><style>.cls-1{fill:none;}.cls-2{fill:#606060;}.cls-3{fill:#47b747;}</style></defs><title>Asset 13</title><g id="Layer_2" data-name="Layer 2"><g id="Layer_1-2" data-name="Layer 1"><path class="cls-1" d="M4.4,13.8H8.9A5.3,5.3,0,0,1,9,13a6.6,6.6,0,0,1,.4-1.2L7.6,8.7Z"/><rect class="cls-1" x="12.3" y="4.6" width="2.6" height="1.58"/><path class="cls-1" d="M12.3,6.7V8.2H14l1-.2V6.7Z"/><rect class="cls-1" x="12.3" y="2.5" width="2.6" height="1.58"/><polygon class="cls-1" points="2.9 10 3.8 10 4.6 8.2 5.4 10.2 5.4 10.2 6.6 10.2 5.3 7.3 6.5 4.7 5.5 4.7 4.7 6.7 4 4.9 2.9 4.9 4 7.5 2.9 10"/><path class="cls-1" d="M12.3,9l.4-.3h-.4Z"/><path class="cls-2" d="M0,13.6l9.2,1.6V0L0,1.5ZM4,4.9l.8,1.8.8-2H6.5L5.3,7.3l1.4,2.8H5.4l-.8-2L3.8,10H2.9L4,7.5,2.9,4.9Z"/><path class="cls-2" d="M9.5,12.3v1h.1a6,6,0,0,1,.2-1Z"/><path class="cls-2" d="M9.5,10.3v.5h1.1l.3-.5Z"/><path class="cls-3" d="M16.6,10.6l-.5.9a2.6,2.6,0,0,1-.8,4.3v-.8l-1.4,1.4L15.3,18V16.9a3.6,3.6,0,0,0,1.3-6.3Z"/><path class="cls-3" d="M13.9,11v.9l1.4-1.4L13.9,9v.9h0a3.6,3.6,0,0,0-1.1,6.7l.5-.9a2.6,2.6,0,0,1,.5-4.8h0Z"/><rect class="cls-1" x="12.3" y="2.5" width="2.6" height="1.58"/><path class="cls-1" d="M12.3,6.7V8.2h.1a6.1,6.1,0,0,1,2.5-.6v-1Z"/><rect class="cls-1" x="12.3" y="4.6" width="2.6" height="1.58"/><path class="cls-2" d="M12.3,8.2V6.7h2.6v1H16V2.4c0-.6-.4-.7-.5-.7h-6v.8h2.3V4.1H9.5v.5h2.3V6.2H9.5v.5h2.3V8.2H9.5v.5h2.2l.7-.5Zm0-5.7h2.6V4.1H12.3Zm0,2.1h2.6V6.2H12.3Z"/></g></g></svg>