<svg id="Layer_1" data-name="Layer 1" xmlns="http://www.w3.org/2000/svg" width="18" height="18" viewBox="0 0 18 18"><defs><style>.cls-1{fill:#2f80d1;}.cls-2{fill:#606060;}.cls-3{fill:#47b747;}</style></defs><title>Execute Flume Source</title><polygon class="cls-1" points="9 6 9 5 6 5 5 5 5 12 6 12 6 9 9 9 9 8 6 8 6 6 9 6"/><polygon class="cls-2" points="18 18 18 15 17 15 17 17 1 17 1 8 1 1 8 1 10 1 17 1 17 4 18 4 18 0 10 0 8 0 0 0 0 8 0 18 18 18"/><polygon class="cls-3" points="13 11.9 18 8.4 13 4.9 13 11.9"/></svg>