<svg id="Layer_1" data-name="Layer 1" xmlns="http://www.w3.org/2000/svg" width="18" height="18" viewBox="0 0 18 18"><defs><style>.cls-1{fill:#606060;}.cls-2{fill:#2f80d1;}.cls-3{fill:#47b747;}</style></defs><title>Execute SQL</title><polygon class="cls-1" points="18 0 0 0 0 18 10 18 10 17 1 17 1 1 17 1 17 10 18 10 18 0"/><path class="cls-2" d="M4.7,4H3.5a.4.4,0,0,0-.2.4.5.5,0,0,0,.1.3l.3.2.6.2.8.3.5.4a1.2,1.2,0,0,1,.2.8,1.3,1.3,0,0,1-.2.8L5,7.9,4,8.1,2.9,7.8l-1-.6.4-.8.8.5.9.2.6-.2a.5.5,0,0,0,.2-.4.5.5,0,0,0-.1-.3l-.3-.2-.6-.2L3,5.6l-.5-.4a1.2,1.2,0,0,1-.2-.7,1.2,1.2,0,0,1,.2-.7l.6-.5,1-.2H5l.8.4-.4.8Z"/><path class="cls-2" d="M12.1,8.6l-.6.4h-.7l-.9-.3a2.2,2.2,0,0,1-.7-.8,2.6,2.6,0,0,1-1.3-.3,2.5,2.5,0,0,1-.9-.9,2.5,2.5,0,0,1,.9-3.5,2.8,2.8,0,0,1,2.7,0,2.4,2.4,0,0,1,1.3,2.2,2.5,2.5,0,0,1-.2,1,2.5,2.5,0,0,1-.6.8l-.9.5a1,1,0,0,0,.7.4,1.5,1.5,0,0,0,.9-.4ZM7.8,6.4a1.7,1.7,0,0,0,.6.6l.8.2L10,7a1.6,1.6,0,0,0,.6-.6,1.7,1.7,0,0,0,.2-.8,1.7,1.7,0,0,0-.2-.8,1.6,1.6,0,0,0-.6-.6l-.8-.2-.8.2a1.6,1.6,0,0,0-.6.6,1.7,1.7,0,0,0,0,1.7Z"/><path class="cls-2" d="M12.9,3.1h.9V7.2H16V8H12.9Z"/><polygon class="cls-3" points="13 17.9 18 14.4 13 10.9 13 17.9"/></svg>