<svg id="Layer_1" data-name="Layer 1" xmlns="http://www.w3.org/2000/svg" width="18" height="18" viewBox="0 0 18 18"><defs><style>.cls-1{fill:#606060;}.cls-2{fill:#2f80d1;}.cls-3{fill:#47b747;}</style></defs><title>Execute Stream Command</title><polygon class="cls-1" points="0 0 0 1 0 17 0 18 10 18 10 17 1 17 1 1 17 1 17 10 18 10 18 1 18 0 0 0"/><polygon class="cls-2" points="5.1 8.9 2.3 6 5.1 3.1 5.9 3.9 3.7 6 5.9 8.1 5.1 8.9"/><polygon class="cls-2" points="12.9 8.9 12.1 8.1 14.3 6 12.1 3.9 12.9 3.1 15.7 6 12.9 8.9"/><rect class="cls-2" x="5.3" y="5.5" width="7.5" height="1" transform="translate(-0.4 11.4) rotate(-63.4)"/><polygon class="cls-3" points="13 17.9 18 14.4 13 10.9 13 17.9"/></svg>