<svg id="Layer_1" data-name="Layer 1" xmlns="http://www.w3.org/2000/svg" width="18" height="18" viewBox="0 0 18 18"><defs><style>.cls-1{font-size:2.48px;font-family:MyriadPro-Regular, Myriad Pro;}.cls-2{letter-spacing:2.58em;}.cls-3{letter-spacing:0.01em;}.cls-4{letter-spacing:0em;}.cls-5{letter-spacing:0em;}.cls-6{letter-spacing:-0.08em;}.cls-7{letter-spacing:-0.01em;}.cls-8{letter-spacing:0em;}.cls-9{fill:#2f80d1;}.cls-10{fill:#606060;}</style></defs><title>ExtractTNEFAttachments</title><text class="cls-1" transform="translate(-3.8 19.3)"> <tspan class="cls-2" x="0.5" y="0">	</tspan><tspan x="0" y="3">E</tspan><tspan class="cls-3" x="1.2" y="3">x</tspan><tspan x="2.4" y="3">t</tspan><tspan class="cls-4" x="3.2" y="3">r</tspan><tspan class="cls-5" x="4" y="3">a</tspan><tspan class="cls-3" x="5.2" y="3">c</tspan><tspan x="6.4" y="3">tTNE</tspan><tspan class="cls-6" x="11.3" y="3">F</tspan><tspan class="cls-7" x="12.3" y="3">A</tspan><tspan x="13.8" y="3">ttachme</tspan><tspan class="cls-8" x="22.4" y="3">n</tspan><tspan x="23.8" y="3">ts</tspan></text><polygon class="cls-9" points="18 3 15 0 15 2 10 2 10 4 15 4 15 6 18 3"/><path class="cls-10" d="M17,7v9.4L10.4,11h-.1L12.7,9H11L9.3,10.4H8.7L1.9,5H9V4H0V18H18V7ZM1,5.5l6.7,5.4H7.6L1,16.4ZM1.8,17l6.4-5.2.7-.3H9l.7.3L16.2,17Z"/></svg>