<svg id="Layer_1" data-name="Layer 1" xmlns="http://www.w3.org/2000/svg" width="18" height="18" viewBox="0 0 18 18"><defs><style>.cls-1{fill:none;}.cls-2{fill:#606060;}.cls-3{fill:#2f80d1;}</style></defs><title> FetchSFTP</title><path class="cls-1" d="M10.1,5.4a3,3,0,0,0-.9-2.2A3,3,0,0,0,7,2.3a3,3,0,0,0-2.2.9,3,3,0,0,0-.9,2.2V7.7h6.2Z"/><path class="cls-2" d="M14,9h0a1.1,1.1,0,0,0-.3-.8,1.1,1.1,0,0,0-.8-.3h-.4V5.4a5.2,5.2,0,0,0-1.6-3.8A5.3,5.3,0,0,0,7,0,5.3,5.3,0,0,0,3.2,1.6,5.2,5.2,0,0,0,1.6,5.4V7.7H1.2a1.1,1.1,0,0,0-.8.3,1.1,1.1,0,0,0-.3.8v7a1.1,1.1,0,0,0,.3.8,1.1,1.1,0,0,0,.8.3H7V9ZM3.9,5.4a3,3,0,0,1,.9-2.2A3,3,0,0,1,7,2.3a3,3,0,0,1,2.2.9,3,3,0,0,1,.9,2.2V7.7H3.9Z"/><polygon class="cls-3" points="11 10 10 10 10 15 8 15 8 16 9 16 9 17 10 17 10 18 11 18 11 17 12 17 12 16 13 16 13 15 11 15 11 10"/><polygon class="cls-3" points="17 12 17 11 16 11 16 10 15 10 15 11 14 11 14 12 13 12 13 13 15 13 15 18 16 18 16 13 18 13 18 12 17 12"/></svg>