<svg id="Layer_1" data-name="Layer 1" xmlns="http://www.w3.org/2000/svg" width="18" height="18" viewBox="0 0 18 18"><defs><style>.cls-1{fill:#2f80d1;}.cls-2{fill:#47b747;}</style></defs><title>GetHTMLElement</title><polygon class="cls-1" points="13.4 16 12.8 15.3 16.6 12.3 12.8 9.3 13.4 8.6 18 12.3 13.4 16"/><polygon class="cls-1" points="4.6 16 0 12.3 4.6 8.6 5.2 9.3 1.4 12.3 5.2 15.3 4.6 16"/><polygon class="cls-1" points="6.7 17 5.8 16.7 9 8 9.9 8.3 6.7 17"/><polygon class="cls-2" points="7 1 6 1 6 0 5 0 5 2 0 2 0 4 5 4 5 6 6 6 6 5 7 5 7 4 8 4 8 2 7 2 7 1"/></svg>