<svg id="Layer_1" data-name="Layer 1" xmlns="http://www.w3.org/2000/svg" width="18" height="18" viewBox="0 0 18 18"><defs><style>.cls-1{fill:#606060;}.cls-2{fill:#47b747;}</style></defs><title>GetIgniteCache</title><path class="cls-1" d="M9.3,6.2a2.8,2.8,0,0,0,.3,2.8,9.7,9.7,0,0,0,3,3l.9.6a3.6,3.6,0,0,1,1.4,3.6,5.2,5.2,0,0,1-.7,1.8,3.3,3.3,0,0,0-1.5-2.1L9.5,13.7a8.6,8.6,0,0,1-2.2-1.8,3,3,0,0,1-.7-1.8,3.6,3.6,0,0,1,.3-1.5A6.1,6.1,0,0,1,9.3,6.2Z"/><path class="cls-1" d="M16.7,14.1A4.2,4.2,0,0,0,15,10.6L12.7,8.8a5.4,5.4,0,0,1-1.4-1.9A2.8,2.8,0,0,1,11.5,4a6.6,6.6,0,0,1,2.9-2.1v.3a3.7,3.7,0,0,0,.1,3.3,12.3,12.3,0,0,0,2.2,2.9A5.3,5.3,0,0,1,17.8,10a3.2,3.2,0,0,1,.1,2.1A4.9,4.9,0,0,1,16.7,14.1Z"/><polygon class="cls-2" points="7 1 6 1 6 0 5 0 5 2 0 2 0 4 5 4 5 6 6 6 6 5 7 5 7 4 8 4 8 2 7 2 7 1"/></svg>