<svg id="Layer_1" data-name="Layer 1" xmlns="http://www.w3.org/2000/svg" width="18" height="18" viewBox="0 0 18 18"><defs><style>.cls-1{fill:#2f80d1;}.cls-2{fill:#606060;}.cls-3{fill:#47b747;}</style></defs><title>GetJMSQueue</title><path class="cls-1" d="M4.6,13.6a1.6,1.6,0,0,1-1.1.4A1.9,1.9,0,0,1,2,13.3l.4-.7.5.4h.5l.5-.2a.8.8,0,0,0,.2-.5V9.9H2.4V9.1H5.1v3.4A1.6,1.6,0,0,1,4.6,13.6Z"/><path class="cls-1" d="M6.2,9.1H7.2l1.6,3.2,1.6-3.2h1.1V14h-.9V10.5l-1.5,3H8.6L7,10.5V14H6.2Z"/><path class="cls-1" d="M15.1,10H13.8a.4.4,0,0,0-.2.3.5.5,0,0,0,.1.3l.3.2.6.2.8.3.5.4a1.2,1.2,0,0,1,.2.8,1.3,1.3,0,0,1-.2.8l-.7.5-1,.2-1.1-.2-1-.6.4-.8.8.5.9.2.6-.2a.5.5,0,0,0,.1-.8l-.3-.2-.6-.2-.8-.3-.5-.4a1.2,1.2,0,0,1-.2-.7,1.3,1.3,0,0,1,.2-.7l.6-.5,1-.2h.9l.8.4-.4.8Z"/><polygon class="cls-2" points="9 0 18 0 18 18 0 18 0 7.9 1 7.9 1 17 17 17 17 1 9 1 9 0.1 9 0.1 9 0"/><polygon class="cls-3" points="7 1 6 1 6 0 5 0 5 2 0 2 0 4 5 4 5 6 6 6 6 5 7 5 7 4 8 4 8 2 7 2 7 1"/></svg>