<svg id="Layer_1" data-name="Layer 1" xmlns="http://www.w3.org/2000/svg" width="18" height="18" viewBox="0 0 18 18"><defs><style>.cls-1{fill:#606060;}.cls-2{fill:#47b747;}</style></defs><title>GetKafka</title><path class="cls-1" d="M16.5,11a1.5,1.5,0,0,0-1,.4l-1.9-.9A2.9,2.9,0,0,0,13.8,8l1.9-1.3.8.2a1.5,1.5,0,1,0-1.4-1L13.4,7.2A3,3,0,0,0,11,6V2.9a1.5,1.5,0,1,0-1,0V6.2a3,3,0,0,0,0,5.6v3.3a1.5,1.5,0,1,0,1,0V12a3,3,0,0,0,1.9-.7l2.1,1v.2A1.5,1.5,0,1,0,16.5,11ZM9,9a2,2,0,1,1,2,2A2,2,0,0,1,9,9Z"/><polygon class="cls-2" points="7 1 6 1 6 0 5 0 5 2 0 2 0 4 5 4 5 6 6 6 6 5 7 5 7 4 8 4 8 2 7 2 7 1"/></svg>