<svg id="Layer_1" data-name="Layer 1" xmlns="http://www.w3.org/2000/svg" width="18" height="18" viewBox="0 0 18 18"><defs><style>.cls-1{fill:#2f80d1;}.cls-2{fill:#606060;}.cls-3{fill:#47b747;}</style></defs><title>GetSQ</title><path class="cls-1" d="M4.9,10H3.7a.4.4,0,0,0-.2.3.5.5,0,0,0,.1.3l.3.2.6.2.8.3.5.4a1.2,1.2,0,0,1,.2.8,1.3,1.3,0,0,1-.2.8l-.7.5-1,.2-1.1-.2-1-.6.4-.8.8.5.9.2.6-.2a.5.5,0,0,0,.1-.8l-.3-.2L4,11.9l-.8-.3-.5-.4a1.2,1.2,0,0,1-.2-.7,1.3,1.3,0,0,1,.2-.7l.6-.5,1-.2h.9l.8.4-.4.8Z"/><path class="cls-1" d="M12.1,14.6l-.6.4h-.7l-.9-.3a2.2,2.2,0,0,1-.7-.8,2.6,2.6,0,0,1-1.3-.3,2.5,2.5,0,0,1-.9-.9,2.5,2.5,0,0,1,.9-3.5,2.8,2.8,0,0,1,2.7,0,2.4,2.4,0,0,1,1.3,2.2,2.5,2.5,0,0,1-.2,1,2.4,2.4,0,0,1-.6.8l-.9.5a1,1,0,0,0,.7.4,1.5,1.5,0,0,0,.9-.4ZM7.8,12.4a1.7,1.7,0,0,0,.6.6l.8.2.8-.2a1.6,1.6,0,0,0,.6-.6,1.7,1.7,0,0,0,0-1.7,1.6,1.6,0,0,0-.6-.6l-.8-.2-.8.2a1.7,1.7,0,0,0-.6,2.3Z"/><path class="cls-1" d="M15,10H13.8a.4.4,0,0,0-.2.3.5.5,0,0,0,.1.3l.3.2.6.2.8.3.5.4a1.2,1.2,0,0,1,.2.8,1.3,1.3,0,0,1-.2.8l-.7.5-1,.2-1.1-.2-1-.6.4-.8.8.5.9.2.6-.2a.5.5,0,0,0,.1-.8l-.3-.2-.6-.2-.8-.3-.5-.4a1.2,1.2,0,0,1-.2-.7,1.3,1.3,0,0,1,.2-.7l.6-.5,1-.2h.9l.8.4-.4.8Z"/><polygon class="cls-2" points="9 0 18 0 18 18 0 18 0 7.9 1 7.9 1 17 17 17 17 1 9 1 9 0.1 9 0.1 9 0"/><polygon class="cls-3" points="7 2 7 1 6 1 6 0 5 0 5 2 0 2 0 4 5 4 5 6 6 6 6 5 7 5 7 4 8 4 8 2 7 2"/></svg>