<svg id="Layer_1" data-name="Layer 1" xmlns="http://www.w3.org/2000/svg" width="18" height="18" viewBox="0 0 18 18"><defs><style>.cls-1{fill:#47b747;}.cls-2{fill:#606060;}</style></defs><title>GetSNMP</title><polygon class="cls-1" points="6 1 5 1 5 0 4 0 4 2 0 2 0 4 4 4 4 6 5 6 5 5 6 5 6 4 7 4 7 2 6 2 6 1"/><path class="cls-2" d="M16.5,10.3a1.5,1.5,0,0,0-1.4,1H13a3,3,0,0,0-.9-2.1l1.1-1.9h.3a1.5,1.5,0,1,0-1.1-.5L11.3,8.6A3,3,0,0,0,10,8.3H9.3l-.8-1-.8-1-.8.6.4.6h0l1,1.2A3,3,0,0,0,7,11.3H4.9a1.5,1.5,0,1,0,0,1H7.2a3,3,0,0,0,1,1.4L7.4,15H7.1a1.5,1.5,0,1,0,1.1.5l.8-1.3.9.2,1-.2,1.2,1.5a1.5,1.5,0,0,0-.2.7,1.5,1.5,0,1,0,1.5-1.5h-.6l-1-1.3a3,3,0,0,0,.9-1.3h2.3a1.5,1.5,0,1,0,1.4-2Z"/></svg>