<svg xmlns="http://www.w3.org/2000/svg" width="18" height="18" viewBox="0 0 18 18"><defs><style>.cls-1{fill:#606060;}.cls-2{fill:#2f80d1;}.cls-3{fill:#47b747;}</style></defs><title>Infer Avro Schema</title><g id="Layer_2" data-name="Layer 2"><polygon class="cls-1" points="2 0 2 1 2 17 2 18 10 18 10 17 3 17 3 1 15 1 15 10 16 10 16 1 16 0 2 0"/><path class="cls-2" d="M6.4,7.6c0-1.1,0-2.1.6-2.7a5.4,5.4,0,0,1,2.8-.6V5.7l2.2-1.9L9.8,2V3.4c-.8,0-2.6.1-3.4.9s-1,2.2-1,3.4v.3h.9Z"/><path class="cls-2" d="M13,6h-.9v.3c0,1.1,0,2.1-.6,2.7a5.4,5.4,0,0,1-2.8.6V8.3L6.4,10.2l2.2,1.7V10.6c.8,0,2.6-.1,3.4-.9s1-2.2,1-3.4Z"/><path class="cls-3" d="M14,16a2.7,2.7,0,0,1,.1-.8l.5-.7.6-.6a1.3,1.3,0,0,0,.4-.9,1,1,0,0,0-.2-.7.9.9,0,0,0-.7-.3l-.7.2a.8.8,0,0,0-.3.6h-.8a1.5,1.5,0,0,1,.5-1.2,1.9,1.9,0,0,1,1.3-.4,1.8,1.8,0,0,1,1.3.5,1.6,1.6,0,0,1,.5,1.2,2.2,2.2,0,0,1-.7,1.5l-.5.5a1.5,1.5,0,0,0-.3,1Zm0,1.4a.5.5,0,0,1,.1-.3h.7a.5.5,0,0,1,.1.3.5.5,0,0,1-.1.3h-.7A.5.5,0,0,1,14,17.5Z"/></g></svg>