<svg xmlns="http://www.w3.org/2000/svg" width="18" height="18" viewBox="0 0 18 18"><defs><style>.cls-1{fill:#606060;}.cls-2{fill:#2f80d1;}</style></defs><title>Invoke HTTP</title><g id="Layer_1" data-name="Layer 1"><polygon class="cls-1" points="18 0 0 0 0 18 10 18 10 17 1 17 1 1 17 1 17 10 18 10 18 0"/><path class="cls-2" d="M2.4,3.6h.7V5H4.8V3.6h.7V7H4.8V5.6H3.1V7H2.4Z"/><path class="cls-2" d="M6.2,3.6H9v.6H7.9V7H7.3V4.2H6.2Z"/><path class="cls-2" d="M9.4,3.6h2.8v.6H11.1V7h-.7V4.2H9.4Z"/><path class="cls-2" d="M15.3,3.9a1.1,1.1,0,0,1,.4.9,1.2,1.2,0,0,1-.4.9,1.4,1.4,0,0,1-1,.3h-.7V7h-.7V3.6h1.4A1.5,1.5,0,0,1,15.3,3.9Zm-.5,1.4a.6.6,0,0,0,.2-.5.6.6,0,0,0-.2-.5l-.6-.2h-.7V5.4h.7Z"/></g><g id="Layer_2" data-name="Layer 2"><polygon class="cls-1" points="17.4 17.5 16.5 18 14.6 14.8 13 16.7 12.2 9.5 18 13.8 15.5 14.2 17.4 17.5"/></g></svg>