<svg id="Layer_1" data-name="Layer 1" xmlns="http://www.w3.org/2000/svg" width="18" height="18" viewBox="0 0 18 18"><defs><style>.cls-1{fill:#606060;}.cls-2{fill:#2f80d1;}.cls-3{fill:#47b747;}</style></defs><title> ListenRELP</title><polygon class="cls-1" points="0 0 0 18 9 18 9 17 1 17 1 1 17 1 17 10 18 10 18 0 0 0"/><path class="cls-2" d="M4.5,6.6,3.9,5.5H2.9V6.6H2.2V3H3.7a1.6,1.6,0,0,1,1.1.3,1.1,1.1,0,0,1,.4.9,1.4,1.4,0,0,1-.2.7l-.5.4.8,1.2ZM2.9,4.9h.8l.6-.2a.6.6,0,0,0,.2-.5.6.6,0,0,0-.2-.5l-.6-.2H2.9Z"/><path class="cls-2" d="M6.2,3H8.9v.6H6.9v.9H8.7v.6H6.9V6h2v.6H6.2Z"/><path class="cls-2" d="M9.9,3h.7v3h1.5v.6H9.9Z"/><path class="cls-2" d="M15.6,3.3a1.1,1.1,0,0,1,.4.9,1.2,1.2,0,0,1-.4,1,1.5,1.5,0,0,1-1,.3h-.8V6.6H13V3h1.5A1.5,1.5,0,0,1,15.6,3.3Zm-.5,1.4a.6.6,0,0,0,.2-.5.6.6,0,0,0-.2-.5l-.6-.2h-.7V4.9h.7Z"/><path class="cls-3" d="M16,14a7,7,0,0,0-1.3-4l-.7.6a6.1,6.1,0,0,1,0,6.9l.7.6A7,7,0,0,0,16,14Z"/><path class="cls-3" d="M13.1,14a5.1,5.1,0,0,0-.9-2.9l-.7.6a4.3,4.3,0,0,1,0,4.6l.7.6A5.1,5.1,0,0,0,13.1,14Z"/></svg>