<svg id="Layer_1" data-name="Layer 1" xmlns="http://www.w3.org/2000/svg" width="18" height="18" viewBox="0 0 18 18"><defs><style>.cls-1{fill:#606060;}.cls-2{fill:#2f80d1;}.cls-3{fill:#47b747;}</style></defs><title>ListenSyslog</title><polygon class="cls-1" points="15 10 14 10 14 5.9 9.6 0.6 10.4 0 15 5.5 15 10"/><rect class="cls-2" x="2" y="8" width="5" height="1"/><rect class="cls-2" x="2" y="10" width="4" height="1"/><rect class="cls-2" x="2" y="12" width="3" height="1"/><polygon class="cls-1" points="7.4 1 7.4 1 7.4 1 6.7 1 6.7 1 1 1 0 1 0 2 0 17 0 18 1 18 6 18 6 17 1 17 1 2 6.9 2 11 6.9 11 7 11 7 11 11.2 11 12 12 12 12 11.2 12 11 12 7 12 6.5 7.4 1"/><path class="cls-3" d="M18,14a7,7,0,0,0-1.3-4l-.7.6a6.1,6.1,0,0,1,0,6.9l.7.6A7,7,0,0,0,18,14Z"/><path class="cls-3" d="M15.1,14a5.1,5.1,0,0,0-.9-2.9l-.7.6a4.3,4.3,0,0,1,0,4.6l.7.6A5.1,5.1,0,0,0,15.1,14Z"/></svg>