<svg id="Layer_1" data-name="Layer 1" xmlns="http://www.w3.org/2000/svg" width="18" height="18" viewBox="0 0 18 18"><defs><style>.cls-1{fill:#606060;}.cls-2{fill:#2f80d1;}.cls-3{fill:#47b747;}</style></defs><title>ListenTCP</title><polygon class="cls-1" points="0 0 0 18 9 18 9 17 1 17 1 1 17 1 17 10 17 10.1 17 11 18 11 18 10.1 18 10 18 0 0 0"/><path class="cls-2" d="M3.1,3.9H6.3v.7H5.1V7.9H4.3V4.6H3.1Z"/><path class="cls-2" d="M9.4,4.7H8.8l-.7.2-.5.5a1.4,1.4,0,0,0,0,1.4l.5.5.7.2h.6l.5-.3.5.5-.7.5-.8.2a2.1,2.1,0,0,1-1.1-.3A2,2,0,0,1,7,6.9a2,2,0,0,1-.3-1,2,2,0,0,1,.3-1,2,2,0,0,1,.8-.7l1.1-.3.8.2.7.5L9.9,5Z"/><path class="cls-2" d="M14.1,4.2a1.3,1.3,0,0,1,.4,1,1.4,1.4,0,0,1-.4,1.1,1.7,1.7,0,0,1-1.2.4h-.9V7.9h-.8v-4H13A1.7,1.7,0,0,1,14.1,4.2Zm-.5,1.6a.7.7,0,0,0,.2-.6.7.7,0,0,0-.2-.5l-.7-.2h-.8V6h.8Z"/><path class="cls-3" d="M16,14a7,7,0,0,0-1.3-4l-.7.6a6.1,6.1,0,0,1,0,6.9l.7.6A7,7,0,0,0,16,14Z"/><path class="cls-3" d="M13.1,14a5.1,5.1,0,0,0-.9-2.9l-.7.6a4.3,4.3,0,0,1,0,4.6l.7.6A5.1,5.1,0,0,0,13.1,14Z"/></svg>