<?xml version="1.0" encoding="utf-8"?>
<!-- Generator: Adobe Illustrator 21.0.0, SVG Export Plug-In . SVG Version: 6.00 Build 0)  -->
<svg version="1.1" id="Layer_1" xmlns="http://www.w3.org/2000/svg" xmlns:xlink="http://www.w3.org/1999/xlink" x="0px" y="0px"
	 width="18px" height="18px" viewBox="0 0 18 18" style="enable-background:new 0 0 18 18;" xml:space="preserve">
<style type="text/css">
	.st0{fill:#FFFFFF;}
	.st1{fill:#2F80D1;}
	.st2{fill:#606060;}
	.st3{fill:#47B747;}
	.st4{fill:none;}
	.st5{fill:#FF6364;}
	.st6{fill:#F2ADAD;}
	.st7{fill:#020201;}
	.st8{fill:#FEFEFE;}
	.st9{fill:#FCED21;}
</style>
<g>
	<g>
		<rect x="2" y="3" class="st1" width="2" height="2"/>
	</g>
	<g>
		<rect x="2" y="8" transform="matrix(6.123234e-17 -1 1 6.123234e-17 -6 12)" class="st1" width="2" height="2"/>
	</g>
	<g>
		<rect x="2" y="13" class="st1" width="2" height="2"/>
	</g>
	<g>
		<path class="st2" d="M9,0H0v18h9h9v-7v-0.9V10V8V0H9z M17,8v2v0.1V11v6H9H1V1h8h8V8z"/>
	</g>
	<g>
		<path class="st2" d="M6,7c0.2,0.2,0.4,0.3,0.6,0.4C7,7.6,7.4,7.7,7.8,7.8c0.3,0.1,0.6,0.1,1,0.1C9.1,7.9,9.4,8,9.6,8
			c0.5,0,1,0,1.5,0c0.4,0,0.9,0,1.3,0c0.7,0,1.3-0.1,1.9-0.3c0.4-0.1,0.8-0.2,1.1-0.4C15.7,7.3,15.9,7.2,16,7c0,0.2-0.1,0.4-0.1,0.6
			c-0.2,0.9-0.4,1.7-0.6,2.6c-0.2,0.8-0.4,1.7-0.6,2.5c-0.1,0.5-0.2,1.1-0.4,1.6c0,0.2-0.2,0.3-0.3,0.4c-0.3,0.1-0.6,0.2-0.9,0.3
			c-0.3,0.1-0.6,0.1-0.9,0.1c-0.6,0.1-1.2,0.1-1.8,0.1c-0.3,0-0.6,0-0.9-0.1c-0.4,0-0.8-0.1-1.2-0.2c-0.2-0.1-0.4-0.1-0.6-0.3
			c-0.1-0.1-0.2-0.2-0.2-0.4c-0.3-1.3-0.6-2.5-0.9-3.8C6.5,9.2,6.3,8.1,6,7C6,7,6,7,6,7z"/>
	</g>
	<g>
		<path class="st2" d="M11.1,6c-0.4,0-0.7,0-1,0C9.8,6,9.5,5.9,9.2,5.9c-0.5-0.1-1-0.1-1.5-0.3C7.2,5.5,6.9,5.4,6.5,5.1
			C6.4,5.1,6.3,5,6.2,4.9c-0.2-0.2-0.2-0.5,0-0.7c0.2-0.2,0.3-0.3,0.5-0.4c0.4-0.2,0.8-0.3,1.2-0.4C8.2,3.3,8.6,3.2,9,3.1
			c0.3,0,0.5-0.1,0.8-0.1C10.4,3,11,3,11.6,3c0.4,0,0.7,0,1.1,0.1c0.3,0,0.6,0.1,0.9,0.1c0.6,0.1,1.2,0.3,1.8,0.6
			c0.2,0.1,0.3,0.2,0.4,0.3C15.9,4.2,16,4.3,16,4.5c0,0.1-0.1,0.3-0.1,0.4c-0.1,0.1-0.2,0.2-0.4,0.3c-0.3,0.2-0.7,0.3-1.1,0.4
			c-0.4,0.1-0.7,0.2-1.1,0.2c-0.4,0.1-0.7,0.1-1.1,0.1C11.8,6,11.4,6,11.1,6z"/>
	</g>
</g>
</svg>
