<?xml version="1.0" encoding="utf-8"?>
<!-- Generator: Adobe Illustrator 21.0.0, SVG Export Plug-In . SVG Version: 6.00 Build 0)  -->
<svg version="1.1" id="Layer_1" xmlns="http://www.w3.org/2000/svg" xmlns:xlink="http://www.w3.org/1999/xlink" x="0px" y="0px"
	 width="18px" height="18px" viewBox="0 0 18 18" style="enable-background:new 0 0 18 18;" xml:space="preserve">
<style type="text/css">
	.st0{fill:#FFFFFF;}
	.st1{fill:#2F80D1;}
	.st2{fill:#606060;}
	.st3{fill:#47B747;}
	.st4{fill:none;}
	.st5{fill:#FF6364;}
	.st6{fill:#F2ADAD;}
	.st7{fill:#020201;}
	.st8{fill:#FEFEFE;}
	.st9{fill:#FCED21;}
</style>
<g>
	<g>
		<path class="st3" d="M2.6,2.1H6l0,0.8H3.5v1.3h2.2v0.8H3.5V7H2.6V2.1z"/>
		<path class="st3" d="M6.1,2.1h4v0.8H8.6V7H7.7V2.9H6.1V2.1z"/>
		<path class="st3" d="M14.2,2.5c0.3,0.3,0.5,0.7,0.5,1.2c0,0.6-0.2,1-0.5,1.3c-0.3,0.3-0.8,0.5-1.4,0.5h-1.1V7h-0.9V2.1h2
			C13.4,2.1,13.9,2.2,14.2,2.5z M13.6,4.5c0.2-0.2,0.3-0.4,0.3-0.7c0-0.3-0.1-0.5-0.3-0.7s-0.5-0.2-0.8-0.2h-1v1.8h1
			C13.1,4.7,13.4,4.7,13.6,4.5z"/>
	</g>
	<g>
		<rect x="3" y="9" class="st1" width="1" height="1"/>
	</g>
	<g>
		<rect x="3" y="12" class="st1" width="1" height="1"/>
	</g>
	<g>
		<rect x="3" y="15" class="st1" width="1" height="1"/>
	</g>
	<g>
		<rect x="6" y="9" class="st1" width="9" height="1"/>
	</g>
	<g>
		<rect x="6" y="12" class="st1" width="9" height="1"/>
	</g>
	<g>
		<rect x="6" y="15" class="st1" width="9" height="1"/>
	</g>
	<g>
		<path class="st2" d="M9,0H0v18h9h9v-7v-0.9V10V8V0H9z M17,8v2v0.1V11v6H9H1V1h8h8V8z"/>
	</g>
</g>
</svg>
