<?xml version="1.0" encoding="utf-8"?>
<!-- Generator: Adobe Illustrator 21.0.0, SVG Export Plug-In . SVG Version: 6.00 Build 0)  -->
<svg version="1.1" id="Layer_1" xmlns="http://www.w3.org/2000/svg" xmlns:xlink="http://www.w3.org/1999/xlink" x="0px" y="0px"
	 width="18px" height="18px" viewBox="0 0 18 18" style="enable-background:new 0 0 18 18;" xml:space="preserve">
<style type="text/css">
	.st0{fill:#FFFFFF;}
	.st1{fill:#2F80D1;}
	.st2{fill:#606060;}
	.st3{fill:#47B747;}
	.st4{fill:none;}
	.st5{fill:#FF6364;}
	.st6{fill:#F2ADAD;}
	.st7{fill:#020201;}
	.st8{fill:#FEFEFE;}
	.st9{fill:#FCED21;}
</style>
<g>
	<path class="st2" d="M7,2H0v16h5h0.8H6h1h0.8H10h1h1v-0.8V17v-4v-0.8V7L7,2z M11,12.2V13v4h-1H7.8H7H6H5.8H5H1V3h6v4h4V12.2z"/>
	<g>
		<g>
			<polygon class="st2" points="16,16 15,16 15,5.4 10.3,0.7 11,0 16,5 			"/>
		</g>
	</g>
	<g>
		<rect x="4" y="8" class="st1" width="5" height="1"/>
	</g>
	<g>
		<rect x="2" y="8" class="st1" width="1" height="1"/>
	</g>
	<g>
		<rect x="2" y="11" class="st1" width="1" height="1"/>
	</g>
	<g>
		<rect x="2" y="14" class="st1" width="1" height="1"/>
	</g>
	<g>
		<rect x="4" y="11" class="st1" width="5" height="1"/>
	</g>
	<g>
		<rect x="4" y="14" class="st1" width="5" height="1"/>
	</g>
</g>
</svg>
