<?xml version="1.0" encoding="utf-8"?>
<!-- Generator: Adobe Illustrator 21.0.0, SVG Export Plug-In . SVG Version: 6.00 Build 0)  -->
<svg version="1.1" id="Layer_1" xmlns="http://www.w3.org/2000/svg" xmlns:xlink="http://www.w3.org/1999/xlink" x="0px" y="0px"
	 width="18px" height="18px" viewBox="0 0 18 18" style="enable-background:new 0 0 18 18;" xml:space="preserve">
<style type="text/css">
	.st0{fill:#FFFFFF;}
	.st1{fill:#2F80D1;}
	.st2{fill:#606060;}
	.st3{fill:#47B747;}
	.st4{fill:none;}
	.st5{fill:#FF6364;}
	.st6{fill:#F2ADAD;}
	.st7{fill:#020201;}
	.st8{fill:#FEFEFE;}
	.st9{fill:#FCED21;}
</style>
<g>
	<g>
		<rect x="3" y="3" class="st1" width="2" height="2"/>
	</g>
	<g>
		<rect x="3" y="8" transform="matrix(6.123234e-17 -1 1 6.123234e-17 -4.9933 12.9933)" class="st1" width="2" height="2"/>
	</g>
	<g>
		<rect x="3" y="13" class="st1" width="2" height="2"/>
	</g>
	<g>
		<path class="st2" d="M9,0H0v18h9h9v-7v-0.9V10V8V0H9z M17,8v2v0.1V11v6H9H1V1h8h8V8z"/>
	</g>
	<g>
		<rect x="9" y="8" class="st1" width="4" height="1"/>
	</g>
	<g>
		<rect x="8" y="4" class="st1" width="1" height="9"/>
	</g>
	<g>
		<rect x="13" y="4" class="st1" width="1" height="9"/>
	</g>
</g>
</svg>
