<svg id="Layer_1" data-name="Layer 1" xmlns="http://www.w3.org/2000/svg" width="16" height="16" viewBox="0 0 16 16"><title>Upstream Connection</title><path d="M2.9,1A1.3,1.3,0,0,0,1.6,2.3V4.8A1.3,1.3,0,0,0,2.9,6.1H1V7.4H8.6V6.1H6.7A1.3,1.3,0,0,0,8,4.8V2.3A1.3,1.3,0,0,0,6.7,1H2.9m0,1.3H6.7V4.8H2.9V2.3M9.3,8.6A1.3,1.3,0,0,0,8,9.9v2.5a1.3,1.3,0,0,0,1.3,1.3H7.4V15H15V13.7H13.1a1.3,1.3,0,0,0,1.3-1.3V9.9a1.3,1.3,0,0,0-1.3-1.3H9.3m0,1.3h3.8v2.5H9.3Z"/><polygon points="6.1 11.8 3.5 11.8 3.5 9.3 4.2 9.3 2.9 8.1 1.6 9.3 2.3 9.3 2.3 11.8 2.3 13.1 3.5 13.1 6.1 13.1 6.7 13.1 6.7 11.8 6.1 11.8"/></svg>