<?xml version="1.0" encoding="utf-8"?>
<!-- Generator: Adobe Illustrator 21.0.0, SVG Export Plug-In . SVG Version: 6.00 Build 0)  -->
<svg version="1.1" id="Layer_1" xmlns="http://www.w3.org/2000/svg" xmlns:xlink="http://www.w3.org/1999/xlink" x="0px" y="0px"
	 width="18px" height="18px" viewBox="0 0 18 18" style="enable-background:new 0 0 18 18;" xml:space="preserve">
<style type="text/css">
	.st0{fill:#FFFFFF;}
	.st1{fill:#2F80D1;}
	.st2{fill:#606060;}
	.st3{fill:#47B747;}
	.st4{fill:none;}
	.st5{fill:#FF6364;}
	.st6{fill:#F2ADAD;}
	.st7{fill:#020201;}
	.st8{fill:#FEFEFE;}
	.st9{fill:#FCED21;}
</style>
<g>
	<g>
		<circle class="st4" cx="13.9" cy="3" r="1"/>
	</g>
	<g>
		<circle class="st4" cx="7.9" cy="3" r="1"/>
	</g>
	<g>
		<circle class="st4" cx="10.9" cy="3" r="1"/>
	</g>
	<g>
		<path class="st2" d="M0,0h-0.1v0.1C-0.1,0.1,0,0,0,0z"/>
	</g>
	<g>
		<path class="st2" d="M17.8,0c0.1,0,0.1,0.1,0.1,0.1V0H17.8z"/>
	</g>
	<g>
		<path class="st1" d="M11.5,14c0.1-0.1,0.1-0.2,0.1-0.2c0.4-0.8,0.8-1.5,1.2-2.3c0.1-0.2,0.2-0.2,0.4-0.2c0.5,0,1,0,1.5,0
			c0.1,0,0.2,0,0.3,0.2c0.1,0.2,0,0.4-0.3,0.4c-0.4,0-0.9,0-1.3,0c-0.1,0-0.2,0-0.3,0.2c-0.5,1-1,1.9-1.4,2.9c0,0.1-0.1,0.2-0.2,0.2
			c-0.2,0.1-0.3,0-0.4-0.2c-0.2-0.8-0.4-1.7-0.6-2.5c-0.2-0.9-0.5-1.8-0.7-2.8c0,0,0-0.1,0-0.1c-0.1,0.4-0.2,0.7-0.3,1
			c-0.4,1.4-0.7,2.9-1.1,4.3c0,0.1-0.1,0.3-0.3,0.3c-0.2,0-0.2-0.1-0.3-0.2c-0.4-1.6-0.8-3.3-1.2-4.9C6.6,9.6,6.5,9.3,6.5,9
			c0,0.1-0.1,0.1-0.1,0.2C6,10,5.6,10.8,5.2,11.5c-0.1,0.2-0.2,0.2-0.4,0.2c-0.5,0-1,0-1.5,0c-0.2,0-0.3-0.1-0.3-0.3
			c0-0.2,0.1-0.3,0.3-0.3c0.4,0,0.8,0,1.2,0c0.1,0,0.2,0,0.2-0.2c0.5-1,1-1.9,1.4-2.9C6.3,8.1,6.4,8,6.5,8c0.1,0,0.3,0.1,0.3,0.2
			c0.3,1.3,0.7,2.7,1,4c0.1,0.4,0.2,0.9,0.4,1.3c0.1-0.4,0.2-0.9,0.3-1.3c0.3-1.3,0.7-2.7,1-4C9.6,8.1,9.7,8,9.8,8
			C10,8,10,8.1,10.1,8.3c0.4,1.4,0.7,2.8,1.1,4.2C11.3,13,11.4,13.5,11.5,14z"/>
	</g>
	<path class="st2" d="M17.9,0H9H0.1C0.1,0,0,0.1,0,0.1v15.7V18h9h1h8v-7v-0.9V10V8V0.1C18,0.1,17.9,0,17.9,0z M14,2c0.6,0,1,0.4,1,1
		c0,0.6-0.4,1-1,1s-1-0.4-1-1C13,2.4,13.4,2,14,2z M11,2c0.6,0,1,0.4,1,1c0,0.6-0.4,1-1,1s-1-0.4-1-1C10,2.4,10.4,2,11,2z M8,2
		c0.6,0,1,0.4,1,1c0,0.6-0.4,1-1,1S7,3.6,7,3C7,2.4,7.4,2,8,2z M17,10L17,10v1v6h-7H9H1v-1v-1V5h16v3V10z"/>
</g>
</svg>
