<?xml version="1.0" encoding="utf-8"?>
<!-- Generator: Adobe Illustrator 21.0.0, SVG Export Plug-In . SVG Version: 6.00 Build 0)  -->
<svg version="1.1" id="Layer_1" xmlns="http://www.w3.org/2000/svg" xmlns:xlink="http://www.w3.org/1999/xlink" x="0px" y="0px"
	 width="18px" height="18px" viewBox="0 0 18 18" style="enable-background:new 0 0 18 18;" xml:space="preserve">
<style type="text/css">
	.st0{fill:#FFFFFF;}
	.st1{fill:#2F80D1;}
	.st2{fill:#606060;}
	.st3{fill:#47B747;}
	.st4{fill:none;}
	.st5{fill:#FF6364;}
	.st6{fill:#F2ADAD;}
	.st7{fill:#020201;}
	.st8{fill:#FEFEFE;}
	.st9{fill:#FCED21;}
</style>
<g>
	<g>
		<path class="st3" d="M17.2,4.2l-3.6,2.8l-0.2,0.1l0-2.1c0,0,0,0-0.1,0c-0.8,0-1.5,0-2.3,0.2c-0.7,0.1-1.4,0.5-1.9,1
			C8.8,6.7,8.5,7.3,8.3,7.9C8.2,8.2,8.1,8.5,8,8.8c0-0.3,0-0.6,0-0.9c0.1-1,0.3-2,0.7-3c0.6-1.3,1.7-2.2,3.1-2.6
			c0.5-0.1,1-0.2,1.6-0.3l0-2.1l0.2,0.1l4.1,3.2L18,3.6L17.2,4.2z"/>
	</g>
	<g>
		<path class="st2" d="M7.6,11.8c-0.4,0-0.7,0.1-0.9,0.4L5,11.3c0.2-0.4,0.4-0.8,0.4-1.3c0-0.3-0.1-0.6-0.2-0.8L6.9,8
			c0.2,0.1,0.4,0.2,0.7,0.2c0.7,0,1.3-0.6,1.3-1.3S8.3,5.6,7.6,5.6S6.2,6.2,6.2,6.9c0,0.2,0,0.3,0.1,0.4l-1.5,1
			c-0.5-0.6-1.2-1-2.1-1V4.6c0.5-0.2,0.9-0.7,0.9-1.3C3.6,2.6,3,2,2.2,2S0.9,2.6,0.9,3.3c0,0.6,0.4,1.1,0.9,1.3v2.9
			C0.7,7.9,0,8.8,0,10s0.7,2.1,1.8,2.5v2.9c-0.5,0.2-0.9,0.7-0.9,1.3c0,0.7,0.6,1.3,1.3,1.3s1.3-0.6,1.3-1.3c0-0.6-0.4-1.1-0.9-1.3
			v-2.7c0.7,0,1.3-0.2,1.7-0.6l1.9,0.9c0,0.1,0,0.1,0,0.2c0,0.7,0.6,1.3,1.3,1.3s1.3-0.6,1.3-1.3C8.9,12.4,8.3,11.8,7.6,11.8z
			 M0.9,10c0-1,0.8-1.8,1.8-1.8S4.4,9,4.4,10c0,1-0.8,1.8-1.8,1.8S0.9,11,0.9,10z"/>
	</g>
</g>
</svg>
