<?xml version="1.0" encoding="utf-8"?>
<!-- Generator: Adobe Illustrator 21.0.0, SVG Export Plug-In . SVG Version: 6.00 Build 0)  -->
<svg version="1.1" id="Layer_1" xmlns="http://www.w3.org/2000/svg" xmlns:xlink="http://www.w3.org/1999/xlink" x="0px" y="0px"
	 width="18px" height="18px" viewBox="0 0 18 18" style="enable-background:new 0 0 18 18;" xml:space="preserve">
<style type="text/css">
	.st0{fill:#FFFFFF;}
	.st1{fill:#2F80D1;}
	.st2{fill:#606060;}
	.st3{fill:#47B747;}
	.st4{fill:none;}
	.st5{fill:#FF6364;}
	.st6{fill:#F2ADAD;}
	.st7{fill:#020201;}
	.st8{fill:#FEFEFE;}
	.st9{fill:#FCED21;}
</style>
<g>
	<g>
		<polygon class="st2" points="0,18 18,18 18,9 17,9 17,17 1,17 1,1 9,1 9,0 0,0 		"/>
	</g>
	<g>
		<path class="st1" d="M5.3,13H12v-0.3V11V6.2c-0.2,0-0.4,0-0.6,0.1c-0.1,0.1-0.1,0.2-0.2,0.4c-0.1,0.2-0.1,0.3-0.2,0.5l-0.1,0.2
			L10,10.1V11H5.3H2.5H2v2h0.5H5.3z"/>
		<path class="st1" d="M7,8.9c0-0.3,0-0.6,0-1c0.1-1.3,0.4-2.4,0.8-3.3C8.1,4,8.5,3.4,8.9,3H2v7h5.1L7,8.9z"/>
		<polygon class="st1" points="14.2,7.9 14.1,8.1 13,8.9 13,14 2,14 2,16 13,16 15,16 15,14 15,7.3 		"/>
	</g>
	<g>
		<path class="st3" d="M17.7,3.5l-4.1-3.2l-0.2-0.1l0,2.1c-0.5,0.1-1.1,0.1-1.6,0.3C10.6,2.8,9.6,3.5,9,4.6C8.9,4.7,8.8,4.9,8.7,5
			C8.3,6,8.1,7,8,8c0,0.3,0,0.6,0,0.9C8.1,8.6,8.2,8.3,8.3,8C8.5,7.5,8.7,7.1,9,6.7c0.1-0.1,0.2-0.3,0.3-0.4c0.5-0.6,1.1-0.9,1.9-1
			c0.6-0.1,1.2-0.1,1.9-0.1V5.1c0.1,0,0.2,0,0.4,0l0,0.1c0,0,0,0,0,0c0,0,0,0,0.1,0l0,2.1l0.2-0.1l3.6-2.8L18,3.7L17.7,3.5z"/>
	</g>
	<g>
		<path class="st3" d="M13,5.1L13,5.1c0.1,0.1,0.2,0.1,0.4,0.1l0-0.1C13.2,5,13.1,5,13,5.1z"/>
	</g>
</g>
</svg>
