<?xml version="1.0" encoding="utf-8"?>
<!-- Generator: Adobe Illustrator 21.0.0, SVG Export Plug-In . SVG Version: 6.00 Build 0)  -->
<svg version="1.1" id="Layer_1" xmlns="http://www.w3.org/2000/svg" xmlns:xlink="http://www.w3.org/1999/xlink" x="0px" y="0px"
	 width="18px" height="18px" viewBox="0 0 18 18" style="enable-background:new 0 0 18 18;" xml:space="preserve">
<style type="text/css">
	.st0{fill:#FFFFFF;}
	.st1{fill:#2F80D1;}
	.st2{fill:#606060;}
	.st3{fill:#47B747;}
	.st4{fill:none;}
	.st5{fill:#FF6364;}
	.st6{fill:#F2ADAD;}
	.st7{fill:#020201;}
	.st8{fill:#FEFEFE;}
	.st9{fill:#FCED21;}
</style>
<g>
	<polygon class="st3" points="11,9 11,5 9,5 9,9 7,9 10,12 13,9 	"/>
	<g>
		<path class="st1" d="M10.4,4c2.4,0,4.3,1.9,4.3,4.3l0,0.8l0.8,0.2c0.9,0.2,1.5,1,1.5,1.9c0,1-0.9,1.9-1.9,1.9H3.3
			C2,13,1,12,1,10.7c0-1.1,0.8-2,1.8-2.2l0.7-0.1l0.1-0.7C3.7,7,4.2,6.6,4.9,6.6c0.2,0,0.3,0,0.5,0.1L6.2,7l0.4-0.8
			C7.4,4.9,8.9,4,10.4,4 M10.4,3c-2,0-3.8,1.1-4.7,2.7C5.5,5.6,5.2,5.6,4.9,5.6c-1.2,0-2.1,0.9-2.2,2C1.1,7.8,0,9.2,0,10.7
			C0,12.5,1.5,14,3.3,14c0.5,0,11.5,0,11.8,0c1.6,0,2.9-1.3,2.9-2.9c0-1.4-1-2.5-2.2-2.8C15.7,5.4,13.4,3,10.4,3L10.4,3z"/>
	</g>
</g>
</svg>
