<?xml version="1.0" encoding="utf-8"?>
<!-- Generator: Adobe Illustrator 21.0.0, SVG Export Plug-In . SVG Version: 6.00 Build 0)  -->
<svg version="1.1" id="Layer_1" xmlns="http://www.w3.org/2000/svg" xmlns:xlink="http://www.w3.org/1999/xlink" x="0px" y="0px"
	 width="18px" height="18px" viewBox="0 0 18 18" style="enable-background:new 0 0 18 18;" xml:space="preserve">
<style type="text/css">
	.st0{fill:#FFFFFF;}
	.st1{fill:#2F80D1;}
	.st2{fill:#606060;}
	.st3{fill:#47B747;}
	.st4{fill:none;}
	.st5{fill:#FF6364;}
	.st6{fill:#F2ADAD;}
	.st7{fill:#020201;}
	.st8{fill:#FEFEFE;}
	.st9{fill:#FCED21;}
</style>
<g>
	<path class="st0" d="M0.1,9L0.1,9L0,10h0.1C0.1,9.7,0.1,9.4,0.1,9C0.1,9,0.1,9,0.1,9z"/>
</g>
<g>
	<path class="st1" d="M10,16.9c0,0,0.1,0,0.1,0C10.1,16.9,10,16.9,10,16.9L10,16.9z"/>
</g>
<g>
	<path class="st1" d="M10.3,0.1c-0.1,0-0.2,0-0.3-0.1v0C10.1,0.1,10.2,0.1,10.3,0.1z"/>
</g>
<g>
	<path class="st1" d="M10,18c0.1,0,0.2,0,0.3-0.1C10.2,17.9,10.1,17.9,10,18L10,18z"/>
</g>
<g>
	<path class="st1" d="M0,10L0,10c0-0.3,0-0.7,0-1V10z"/>
</g>
<g>
	<path class="st1" d="M10,0H9.5C9.7,0,9.8,0,10,0L10,0z"/>
</g>
<g>
	<path class="st1" d="M10,18L10,18c-0.2,0-0.3,0-0.5,0H10z"/>
</g>
<g>
	<path class="st1" d="M9.5,0H9c0.1,0,0.2,0,0.3,0C9.4,0,9.4,0,9.5,0z"/>
</g>
<g>
	<path class="st1" d="M9,18h0.5c-0.1,0-0.1,0-0.2,0C9.2,18,9.1,18,9,18z"/>
</g>
<g>
	<path class="st1" d="M9,0L9,0c0.1,0,0.2,0,0.3,0C9.2,0,9.1,0,9,0z"/>
</g>
<g>
	<path class="st1" d="M9,18L9,18c0.1,0,0.2,0,0.3,0C9.2,18,9.1,18,9,18z"/>
</g>
<g>
	<path class="st1" d="M9.3,17c0.1,0,0.1,0,0.2,0c0.2,0,0.3,0,0.5-0.1v0C9.8,17,9.6,17,9.3,17z"/>
</g>
<g>
	<path class="st1" d="M9,17c0.1,0,0.2,0,0.3,0C9.2,17,9.1,17,9,17L9,17z"/>
</g>
<g>
	<path class="st1" d="M9.3,18c0.1,0,0.1,0,0.2,0c0.2,0,0.3,0,0.5,0v0C9.8,18,9.5,18,9.3,18z"/>
</g>
<g>
	<path class="st1" d="M10,0.1L10,0.1C9.8,0,9.7,0,9.5,0C9.4,0,9.4,0,9.3,0C9.5,0,9.8,0,10,0.1z"/>
</g>
<g>
	<path class="st4" d="M9,17c0.1,0,0.2,0,0.3,0C9.2,17,9.1,17,9,17L9,17z"/>
</g>
<g>
	<path class="st4" d="M9,17c0.1,0,0.2,0,0.3,0C9.2,17,9.1,17,9,17L9,17z"/>
</g>
<g>
	<path class="st4" d="M9,17c0.1,0,0.2,0,0.3,0C9.2,17,9.1,17,9,17L9,17z"/>
</g>
<g>
	<path class="st4" d="M9,17c0.1,0,0.2,0,0.3,0C9.2,17,9.1,17,9,17L9,17z"/>
</g>
<g>
	<polygon class="st3" points="16,5 16,0 14,0 14,5 12,5 15,8 18,5 	"/>
	<g>
		<path class="st4" d="M4,10h-3C1.3,11.6,2,13.1,3,14.3c0.5-0.4,1-0.8,1.6-1.2C4.3,12.2,4.1,11.1,4,10z"/>
	</g>
	<g>
		<path class="st4" d="M4.4,5.7C3.7,5.3,3.1,4.8,2.6,4.3C1.6,5.6,1,7.2,1,9h3C4,7.8,4.1,6.7,4.4,5.7z"/>
	</g>
	<g>
		<path class="st4" d="M5,14.1c-0.4,0.3-0.9,0.6-1.2,0.9c0.8,0.7,1.8,1.3,2.9,1.6C6,16,5.4,15.1,5,14.1z"/>
	</g>
	<g>
		<path class="st4" d="M9,7C7.7,7,6.4,6.7,5.3,6.2C5.1,7.1,5,8,5,9h4V7z"/>
	</g>
	<g>
		<path class="st4" d="M9,1.1C7.5,1.4,6.3,3,5.6,5.2C6.6,5.7,7.8,6,9,6V1.1z"/>
	</g>
	<g>
		<path class="st4" d="M13,15.9c0.4-0.3,0.9-0.6,1.2-0.9c-0.2-0.1-0.3-0.3-0.5-0.4C13.6,15.1,13.3,15.5,13,15.9z"/>
	</g>
	<g>
		<path class="st4" d="M10,16.9c0,0,0.1,0,0.1,0c1.1-0.3,2.1-1.3,2.8-2.9c-0.9-0.5-1.9-0.9-3-1V16.9z"/>
	</g>
	<g>
		<path class="st4" d="M4.7,4.7c0.5-1.4,1.1-2.5,1.9-3.3C5.3,1.8,4.1,2.5,3.2,3.5C3.6,4,4.1,4.4,4.7,4.7z"/>
	</g>
	<g>
		<path class="st4" d="M10,12.1c1.2,0.1,2.3,0.5,3.3,1.1c0.3-0.9,0.5-2,0.6-3.1h-4V12.1z"/>
	</g>
	<g>
		<path class="st4" d="M5.9,13.6c0.7,1.8,1.9,3,3.1,3.3V13C7.9,13,6.8,13.2,5.9,13.6z"/>
	</g>
	<g>
		<path class="st4" d="M14.2,13.7c0.3,0.2,0.5,0.4,0.8,0.6c1-1.2,1.7-2.7,1.9-4.3h-2C14.9,11.3,14.6,12.6,14.2,13.7z"/>
	</g>
	<g>
		<path class="st4" d="M9,10H5c0.1,1,0.2,1.9,0.5,2.7C6.6,12.2,7.8,12,9,12V10z"/>
	</g>
	<g>
		<path class="st1" d="M10,1.1c0,0,0.1,0,0.1,0C10.1,1.1,10,1.1,10,1.1L10,1.1z"/>
	</g>
	<g>
		<path class="st1" d="M18,10V9C18,9.3,18,9.7,18,10L18,10z"/>
	</g>
	<g>
		<path class="st1" d="M10,1.1C9.8,1,9.7,1,9.5,1C9.4,1,9.4,1,9.3,1C9.6,1,9.8,1,10,1.1L10,1.1z"/>
	</g>
	<g>
		<path class="st1" d="M9,1L9,1c0.1,0,0.2,0,0.3,0C9.2,1,9.1,1,9,1z"/>
	</g>
	<g>
		<path class="st4" d="M4.4,5.7C3.7,5.3,3.1,4.8,2.6,4.3C1.6,5.6,1,7.2,1,9h3C4,7.8,4.1,6.7,4.4,5.7z"/>
	</g>
	<g>
		<path class="st4" d="M5,9h4V7C7.7,7,6.4,6.7,5.3,6.2C5.1,7.1,5,8,5,9z"/>
	</g>
	<g>
		<path class="st4" d="M9,12v-2H5c0.1,1,0.2,1.9,0.5,2.7C6.6,12.2,7.8,12,9,12z"/>
	</g>
	<g>
		<path class="st4" d="M6.6,1.4C5.3,1.8,4.1,2.5,3.2,3.5C3.6,4,4.1,4.4,4.7,4.7C5.1,3.3,5.8,2.2,6.6,1.4z"/>
	</g>
	<g>
		<path class="st4" d="M14,10h-4v2.1c1.2,0.1,2.3,0.5,3.3,1.1C13.7,12.2,13.9,11.1,14,10z"/>
	</g>
	<g>
		<path class="st4" d="M5.6,5.2C6.6,5.7,7.8,6,9,6V1.1C7.5,1.4,6.3,3,5.6,5.2z"/>
	</g>
	<g>
		<path class="st4" d="M9,1.1c0.1,0,0.2,0,0.3,0C9.2,1,9.1,1,9,1.1L9,1.1z"/>
	</g>
	<g>
		<path class="st4" d="M10,16.9c-0.2,0-0.4,0-0.7,0.1c0.1,0,0.1,0,0.2,0C9.7,17,9.8,17,10,16.9c0,0,0.1,0,0.1,0
			c1.1-0.3,2.1-1.3,2.8-2.9c-0.9-0.5-1.9-0.9-3-1V16.9z"/>
	</g>
	<g>
		<path class="st4" d="M13,15.9c0.4-0.3,0.9-0.6,1.2-0.9c-0.2-0.1-0.3-0.3-0.5-0.4C13.6,15.1,13.3,15.5,13,15.9z"/>
	</g>
	<g>
		<path class="st4" d="M14.2,13.7c0.3,0.2,0.5,0.4,0.8,0.6c1-1.2,1.7-2.7,1.9-4.3h-2C14.9,11.3,14.6,12.6,14.2,13.7z"/>
	</g>
	<g>
		<path class="st4" d="M5.9,13.6c0.7,1.8,1.9,3,3.1,3.3V13C7.9,13,6.8,13.2,5.9,13.6z"/>
	</g>
	<g>
		<path class="st4" d="M4,10h-3C1.3,11.6,2,13.1,3,14.3c0.5-0.4,1-0.8,1.6-1.2C4.3,12.2,4.1,11.1,4,10z"/>
	</g>
	<g>
		<path class="st4" d="M3.7,15c0.8,0.7,1.8,1.3,2.9,1.6C6,16,5.4,15.1,5,14.1C4.5,14.4,4.1,14.7,3.7,15z"/>
	</g>
	<g>
		<path class="st6" d="M13,4L13,4C13,4,13,4,13,4L13,4z"/>
	</g>
	<g>
		<polygon class="st1" points="9.6,4 10,4.4 10,4 		"/>
	</g>
	<g>
		<path class="st4" d="M9,12v-2H5c0.1,1,0.2,1.9,0.5,2.7C6.6,12.2,7.8,12,9,12z"/>
	</g>
	<g>
		<path class="st4" d="M5,9h4V7C7.7,7,6.4,6.7,5.3,6.2C5.1,7.1,5,8,5,9z"/>
	</g>
	<g>
		<path class="st4" d="M6.6,1.4C5.3,1.8,4.1,2.5,3.2,3.5C3.6,4,4.1,4.4,4.7,4.7C5.1,3.3,5.8,2.2,6.6,1.4z"/>
	</g>
	<g>
		<path class="st4" d="M14,10h-4v2.1c1.2,0.1,2.3,0.5,3.3,1.1C13.7,12.2,13.9,11.1,14,10z"/>
	</g>
	<g>
		<path class="st4" d="M4.4,5.7C3.7,5.3,3.1,4.8,2.6,4.3C1.6,5.6,1,7.2,1,9h3C4,7.8,4.1,6.7,4.4,5.7z"/>
	</g>
	<g>
		<path class="st4" d="M9,1.1c0.1,0,0.2,0,0.3,0C9.2,1,9.1,1,9,1.1L9,1.1z"/>
	</g>
	<g>
		<path class="st4" d="M14.2,13.7c0.3,0.2,0.5,0.4,0.8,0.6c1-1.2,1.7-2.7,1.9-4.3H15h0C14.9,11.3,14.6,12.6,14.2,13.7z"/>
	</g>
	<g>
		<path class="st4" d="M5.6,5.2C6.6,5.7,7.8,6,9,6V1.1C7.5,1.4,6.3,3,5.6,5.2z"/>
	</g>
	<g>
		<path class="st4" d="M10,16.9c-0.2,0-0.4,0-0.7,0.1c0.1,0,0.1,0,0.2,0C9.7,17,9.8,17,10,16.9c0,0,0.1,0,0.1,0
			c1.1-0.3,2.1-1.3,2.8-2.9c-0.9-0.5-1.9-0.9-3-1V16.9z"/>
	</g>
	<g>
		<path class="st4" d="M4,10h-3C1.3,11.6,2,13.1,3,14.3c0.5-0.4,1-0.8,1.6-1.2C4.3,12.2,4.1,11.1,4,10z"/>
	</g>
	<g>
		<path class="st4" d="M13,15.9c0.4-0.3,0.9-0.6,1.2-0.9c-0.2-0.1-0.3-0.3-0.5-0.4C13.6,15.1,13.3,15.5,13,15.9z"/>
	</g>
	<g>
		<path class="st4" d="M5.9,13.6c0.7,1.8,1.9,3,3.1,3.3V13C7.9,13,6.8,13.2,5.9,13.6z"/>
	</g>
	<g>
		<path class="st4" d="M3.7,15c0.8,0.7,1.8,1.3,2.9,1.6C6,16,5.4,15.1,5,14.1C4.5,14.4,4.1,14.7,3.7,15z"/>
	</g>
	<g>
		<path class="st4" d="M9,1.1c0.1,0,0.2,0,0.3,0C9.2,1,9.1,1,9,1.1L9,1.1z"/>
	</g>
	<g>
		<path class="st4" d="M6.6,1.4C5.3,1.8,4.1,2.5,3.2,3.5C3.6,4,4.1,4.4,4.7,4.7C5.1,3.3,5.8,2.2,6.6,1.4z"/>
	</g>
	<g>
		<path class="st4" d="M5,9h4V7C7.7,7,6.4,6.7,5.3,6.2C5.1,7.1,5,8,5,9z"/>
	</g>
	<g>
		<path class="st4" d="M9,12v-2H5c0.1,1,0.2,1.9,0.5,2.7C6.6,12.2,7.8,12,9,12z"/>
	</g>
	<g>
		<path class="st4" d="M14,10h-4v2.1c1.2,0.1,2.3,0.5,3.3,1.1C13.7,12.2,13.9,11.1,14,10z"/>
	</g>
	<g>
		<path class="st4" d="M5.6,5.2C6.6,5.7,7.8,6,9,6V1.1C7.5,1.4,6.3,3,5.6,5.2z"/>
	</g>
	<g>
		<path class="st4" d="M14.2,13.7c0.3,0.2,0.5,0.4,0.8,0.6c1-1.2,1.7-2.7,1.9-4.3H15h0C14.9,11.3,14.6,12.6,14.2,13.7z"/>
	</g>
	<g>
		<path class="st4" d="M5.9,13.6c0.7,1.8,1.9,3,3.1,3.3V13C7.9,13,6.8,13.2,5.9,13.6z"/>
	</g>
	<g>
		<path class="st4" d="M13,15.9c0.4-0.3,0.9-0.6,1.2-0.9c-0.2-0.1-0.3-0.3-0.5-0.4C13.6,15.1,13.3,15.5,13,15.9z"/>
	</g>
	<g>
		<path class="st4" d="M10,16.9c-0.2,0-0.4,0-0.7,0.1c0.1,0,0.1,0,0.2,0C9.7,17,9.8,17,10,16.9c0,0,0.1,0,0.1,0
			c1.1-0.3,2.1-1.3,2.8-2.9c-0.9-0.5-1.9-0.9-3-1V16.9z"/>
	</g>
	<g>
		<path class="st4" d="M4.4,5.7C3.7,5.3,3.1,4.8,2.6,4.3C1.6,5.6,1,7.2,1,9h3C4,7.8,4.1,6.7,4.4,5.7z"/>
	</g>
	<g>
		<path class="st4" d="M3.7,15c0.8,0.7,1.8,1.3,2.9,1.6C6,16,5.4,15.1,5,14.1C4.5,14.4,4.1,14.7,3.7,15z"/>
	</g>
	<g>
		<path class="st4" d="M4,10h-3C1.3,11.6,2,13.1,3,14.3c0.5-0.4,1-0.8,1.6-1.2C4.3,12.2,4.1,11.1,4,10z"/>
	</g>
	<g>
		<path class="st4" d="M5.6,5.2C6.6,5.7,7.8,6,9,6V1.1C7.5,1.4,6.3,3,5.6,5.2z"/>
	</g>
	<g>
		<path class="st4" d="M4.4,5.7C3.7,5.3,3.1,4.8,2.6,4.3C1.6,5.6,1,7.2,1,9h3C4,7.8,4.1,6.7,4.4,5.7z"/>
	</g>
	<g>
		<path class="st4" d="M4,10h-3C1.3,11.6,2,13.1,3,14.3c0.5-0.4,1-0.8,1.6-1.2C4.3,12.2,4.1,11.1,4,10z"/>
	</g>
	<g>
		<path class="st4" d="M9,12v-2H5c0.1,1,0.2,1.9,0.5,2.7C6.6,12.2,7.8,12,9,12z"/>
	</g>
	<g>
		<path class="st4" d="M6.6,1.4C5.3,1.8,4.1,2.5,3.2,3.5C3.6,4,4.1,4.4,4.7,4.7C5.1,3.3,5.8,2.2,6.6,1.4z"/>
	</g>
	<g>
		<path class="st4" d="M9,1.1c0.1,0,0.2,0,0.3,0C9.2,1,9.1,1,9,1.1L9,1.1z"/>
	</g>
	<g>
		<path class="st4" d="M5,9h4V7C7.7,7,6.4,6.7,5.3,6.2C5.1,7.1,5,8,5,9z"/>
	</g>
	<g>
		<path class="st4" d="M3.7,15c0.8,0.7,1.8,1.3,2.9,1.6C6,16,5.4,15.1,5,14.1C4.5,14.4,4.1,14.7,3.7,15z"/>
	</g>
	<g>
		<path class="st4" d="M14.2,13.7c0.3,0.2,0.5,0.4,0.8,0.6c1-1.2,1.7-2.7,1.9-4.3H15h0C14.9,11.3,14.6,12.6,14.2,13.7z"/>
	</g>
	<g>
		<path class="st4" d="M10,12.1c1.2,0.1,2.3,0.5,3.3,1.1c0.3-0.9,0.5-2,0.6-3.1h-4V12.1z"/>
	</g>
	<g>
		<path class="st4" d="M13,15.9c0.4-0.3,0.9-0.6,1.2-0.9c-0.2-0.1-0.3-0.3-0.5-0.4C13.6,15.1,13.3,15.5,13,15.9z"/>
	</g>
	<g>
		<path class="st4" d="M10,16.9c-0.2,0-0.4,0-0.7,0.1c0.1,0,0.1,0,0.2,0C9.7,17,9.8,17,10,16.9c0,0,0.1,0,0.1,0
			c1.1-0.3,2.1-1.3,2.8-2.9c-0.9-0.5-1.9-0.9-3-1V16.9z"/>
	</g>
	<g>
		<path class="st4" d="M5.9,13.6c0.7,1.8,1.9,3,3.1,3.3V13C7.9,13,6.8,13.2,5.9,13.6z"/>
	</g>
	<path class="st1" d="M17.8,7.2l-0.9,0.9C17,8.4,17,8.7,17,9h-1l-1,1h1.9c-0.2,1.6-0.9,3.1-1.9,4.3c-0.3-0.2-0.5-0.4-0.8-0.6
		c0.4-1.1,0.7-2.3,0.8-3.7h0l-1-1h-4V6.9c0.6-0.1,1.1-0.2,1.6-0.4l-0.8-0.8c-0.3,0.1-0.5,0.1-0.8,0.2V5V4.4V4V1.1C9.8,1,9.6,1,9.3,1
		C9.2,1,9.1,1,9,1.1V6C7.8,6,6.6,5.7,5.6,5.2C6.3,3,7.5,1.4,9,1.1V1c0.1,0,0.2,0,0.3,0c0.1,0,0.1,0,0.2,0C9.7,1,9.8,1,10,1.1
		c0,0,0.1,0,0.1,0C11.3,1.4,12.3,2.5,13,4l0,0V0.9c-0.8-0.4-1.8-0.7-2.7-0.8c-0.1,0-0.2,0-0.3,0C9.8,0,9.5,0,9.3,0C9.2,0,9.1,0,9,0
		v0C6.5,0,4.2,1,2.6,2.7C2.3,3,2.1,3.2,1.9,3.5C0.7,5,0,6.9,0,9c0,0.3,0,0.7,0.1,1c0.2,1.9,1,3.6,2.2,5c0.2,0.2,0.5,0.5,0.7,0.7
		C4.6,17.1,6.7,18,9,18v0c0.1,0,0.2,0,0.3,0c0.2,0,0.5,0,0.7,0c0.1,0,0.2,0,0.3,0c1.8-0.3,3.4-1,4.7-2.2c0.3-0.2,0.5-0.5,0.7-0.7
		c1.2-1.4,2-3.1,2.2-5C18,9.7,18,9.3,18,9C18,8.4,17.9,7.8,17.8,7.2z M10,10h4c-0.1,1.1-0.3,2.2-0.6,3.1c-1-0.6-2.1-0.9-3.3-1.1V10z
		 M9,7v2H5c0-1,0.1-1.9,0.3-2.8C6.4,6.7,7.7,7,9,7z M9,10v2c-1.2,0-2.4,0.2-3.5,0.7C5.3,11.9,5.1,11,5,10H9z M6.6,1.4
		c-0.8,0.8-1.5,2-1.9,3.3C4.1,4.4,3.6,4,3.2,3.5C4.1,2.5,5.3,1.8,6.6,1.4z M2.6,4.3c0.5,0.6,1.2,1,1.8,1.4C4.1,6.7,4,7.8,4,9H1
		C1,7.2,1.6,5.6,2.6,4.3z M1.1,10h3c0.1,1.1,0.3,2.2,0.6,3.1C4,13.5,3.5,13.9,3,14.3C2,13.1,1.3,11.6,1.1,10z M3.7,15
		c0.4-0.3,0.8-0.6,1.2-0.9c0.4,1,1,1.9,1.6,2.5C5.5,16.3,4.6,15.7,3.7,15z M10.1,16.9c0,0-0.1,0-0.1,0C9.8,17,9.7,17,9.5,17
		c-0.1,0-0.1,0-0.2,0c-0.1,0-0.2,0-0.3,0v-0.1c-1.3-0.3-2.4-1.5-3.1-3.3c1-0.4,2-0.6,3.1-0.6v3.9c0.1,0,0.2,0,0.3,0
		c0.2,0,0.5,0,0.7-0.1v-3.9c1.1,0.1,2.1,0.5,3,1C12.2,15.6,11.2,16.6,10.1,16.9z M13,15.9c0.3-0.4,0.5-0.8,0.8-1.3
		c0.2,0.1,0.3,0.3,0.5,0.4C13.9,15.3,13.5,15.6,13,15.9z"/>
</g>
</svg>
