<?xml version="1.0" encoding="utf-8"?>
<!-- Generator: Adobe Illustrator 21.0.0, SVG Export Plug-In . SVG Version: 6.00 Build 0)  -->
<svg version="1.1" id="Layer_1" xmlns="http://www.w3.org/2000/svg" xmlns:xlink="http://www.w3.org/1999/xlink" x="0px" y="0px"
	 width="18px" height="18px" viewBox="0 0 18 18" style="enable-background:new 0 0 18 18;" xml:space="preserve">
<style type="text/css">
	.st0{fill:#FFFFFF;}
	.st1{fill:#2F80D1;}
	.st2{fill:#606060;}
	.st3{fill:#47B747;}
	.st4{fill:none;}
	.st5{fill:#FF6364;}
	.st6{fill:#F2ADAD;}
	.st7{fill:#020201;}
	.st8{fill:#FEFEFE;}
	.st9{fill:#FCED21;}
</style>
<g>
	<polygon class="st3" points="16,5 16,0 14,0 14,5 12,5 15,8 18,5 	"/>
	<g>
		<path class="st1" d="M7.7,7c-1.8,0-3.3,1.5-3.3,3.3c0,1,0.5,2,1.3,2.6L4,15.4L4.9,16l1.8-2.7c0.3,0.1,0.7,0.2,1,0.2
			c1.8,0,3.3-1.5,3.3-3.3S9.5,7,7.7,7z M7.7,12.4c-1.2,0-2.2-1-2.2-2.2s1-2.2,2.2-2.2s2.2,1,2.2,2.2S8.9,12.4,7.7,12.4z"/>
	</g>
	<g>
		<path class="st2" d="M17,12v-2V9h-1v1v2v1v4H2V7c0,0,0-0.3-0.3-0.5C2,6.3,2,6,2,6V1h2V0H1v1v5H0v1h1v11h1h15v-1v-4h1v-1H17z"/>
	</g>
</g>
</svg>
