<?xml version="1.0" encoding="utf-8"?>
<!-- Generator: Adobe Illustrator 21.0.0, SVG Export Plug-In . SVG Version: 6.00 Build 0)  -->
<svg version="1.1" id="Layer_1" xmlns="http://www.w3.org/2000/svg" xmlns:xlink="http://www.w3.org/1999/xlink" x="0px" y="0px"
	 width="18px" height="18px" viewBox="0 0 18 18" style="enable-background:new 0 0 18 18;" xml:space="preserve">
<style type="text/css">
	.st0{fill:#FFFFFF;}
	.st1{fill:#2F80D1;}
	.st2{fill:#606060;}
	.st3{fill:#47B747;}
	.st4{fill:none;}
	.st5{fill:#FF6364;}
	.st6{fill:#F2ADAD;}
	.st7{fill:#020201;}
	.st8{fill:#FEFEFE;}
	.st9{fill:#FCED21;}
</style>
<g>
	<polygon class="st1" points="17,17 1,17 1,1 9,1 9,0 0,0 0,18 18,18 18,9 17,9 	"/>
	<polygon class="st1" points="18.1,5 16,5 16,0 14.1,0 14.1,5 12.1,5 15.1,8 	"/>
	<polygon class="st1" points="12.5,15.2 16,12.4 12.5,9.5 12,10 14.9,12.4 12,14.7 	"/>
	<polygon class="st1" points="5.6,9.5 2,12.4 5.6,15.2 6,14.7 3.1,12.4 6,10 	"/>
	<polygon class="st1" points="7.6,15.3 11,9.9 10.5,9.5 7.1,14.9 	"/>
</g>
</svg>
