<?xml version="1.0" encoding="utf-8"?>
<!-- Generator: Adobe Illustrator 21.0.0, SVG Export Plug-In . SVG Version: 6.00 Build 0)  -->
<svg version="1.1" id="Layer_1" xmlns="http://www.w3.org/2000/svg" xmlns:xlink="http://www.w3.org/1999/xlink" x="0px" y="0px"
	 width="18px" height="18px" viewBox="0 0 18 18" style="enable-background:new 0 0 18 18;" xml:space="preserve">
<style type="text/css">
	.st0{fill:#FFFFFF;}
	.st1{fill:#2F80D1;}
	.st2{fill:#606060;}
	.st3{fill:#47B747;}
	.st4{fill:none;}
	.st5{fill:#FF6364;}
	.st6{fill:#F2ADAD;}
	.st7{fill:#020201;}
	.st8{fill:#FEFEFE;}
	.st9{fill:#FCED21;}
</style>
<g>
	<polygon class="st3" points="16,5 16,0 14,0 14,5 12,5 15,8 18,5 	"/>
	<path class="st2" d="M11.5,11.9c-0.4,0.4-0.7,0.9-1.1,1.3c-0.1,0.1-0.1,0.3-0.3,0.3c0-1.5,0-3,0-4.5c0.3,0.2,0.5,0.5,0.7,0.8
		c0.3,0.3,0.5,0.6,0.7,0.8c0.1,0.1,0.2,0.3,0.4,0.4c0.1,0.1,0.1,0.2,0,0.3C11.8,11.5,11.6,11.7,11.5,11.9z"/>
	<path class="st2" d="M7,5.9C6,5.8,5,5.7,4,5.5c0,0.1,0,0.1,0,0.2c0,3.5,0,7,0,10.6c0,0,0,0.1,0,0.1c1-0.1,2-0.3,3-0.4
		c0-0.1,0-0.2,0-0.3C7,12.5,7,9.2,7,5.9z"/>
	<polyline class="st2" points="0,6.5 3,7 3,15 0,15.6 0,7 	"/>
	<path class="st2" d="M10,5L10,5C9.4,4.7,8.7,4.4,8.1,4.1C8,4,7.9,4,7.8,4c0,4.7,0,9.3,0,14c0.1,0,0.2,0,0.2-0.1
		c1.9-0.9,3.8-1.8,5.7-2.7c0.2-0.1,0.2-0.2,0.2-0.3c0-2,0-3.9,0-5.9L10,5z M12.9,13.8c0,0.1,0,0.2-0.2,0.2c0,0.1-0.1,0.1-0.2,0.1
		c-0.9,0.3-1.9,0.5-2.8,0.8C9.4,15,9.4,15,9.4,14.6c0-0.1,0-0.1,0-0.2c0-0.3,0-0.7,0-1c0-1.4,0-2.8,0-4.2c-0.1-0.4,0-0.7,0-1.1
		c0-0.5,0-0.5,0.5-0.4c1,0.3,2,0.6,3,0.8c0.1,0.1,0.1,0.1,0.1,0.2C12.9,10.5,12.9,12.1,12.9,13.8z"/>
</g>
</svg>
