<?xml version="1.0" encoding="utf-8"?>
<!-- Generator: Adobe Illustrator 21.0.0, SVG Export Plug-In . SVG Version: 6.00 Build 0)  -->
<svg version="1.1" id="Layer_1" xmlns="http://www.w3.org/2000/svg" xmlns:xlink="http://www.w3.org/1999/xlink" x="0px" y="0px"
	 width="18px" height="18px" viewBox="0 0 18 18" style="enable-background:new 0 0 18 18;" xml:space="preserve">
<style type="text/css">
	.st0{fill:#FFFFFF;}
	.st1{fill:#2F80D1;}
	.st2{fill:#606060;}
	.st3{fill:#47B747;}
	.st4{fill:none;}
	.st5{fill:#FF6364;}
	.st6{fill:#F2ADAD;}
	.st7{fill:#020201;}
	.st8{fill:#FEFEFE;}
	.st9{fill:#FCED21;}
</style>
<path class="st2" d="M5.5,17.5c0,0.1,0,0.1,0,0.2l0,0C5.5,17.6,5.5,17.5,5.5,17.5C5.5,17.4,5.5,17.5,5.5,17.5L5.5,17.5z"/>
<g>
	<polygon class="st3" points="16,5 16,0 14,0 14,5 12,5 15,8 18,5 	"/>
	<path class="st2" d="M10,7.9c0-0.4-0.2-1.3-0.5-2.2c0,0,0,0,0,0c0,0,0,0,0,0C9.4,5.3,9.2,5,9.1,4.7C8.7,3.5,7.6,2.3,7.6,2.3
		s0,0,0,0C7.5,2.2,7.4,2,7.2,1.9C7.1,1.8,7,1.7,6.9,1.7C6.8,1.5,6.7,1.4,6.6,1.3c0,0,0-0.1-0.1-0.1C6.3,1.1,6.2,1,6.1,0.9
		C5.8,0.7,5.6,0.4,5.6,0C5.5,0.1,5.4,0.2,5.4,0.3C5.1,0.9,4.6,1.4,4,1.9C3.8,2.2,3.5,2.4,3.3,2.7C2.9,3.3,2.5,3.8,2.2,4.5
		C1.7,5.2,1.4,6,1.2,6.9C1.1,7.4,1,7.9,1,8.4c0,0.1,0,0.1,0,0.2c0,0,0,0.1,0,0.1C1,9,1,9.2,1,9.5c0,0.2,0,0.4,0.1,0.6
		c0.1,0.6,0.2,1.2,0.5,1.7c0.1,0.2,0.1,0.4,0.3,0.6c0.5,1.1,1.3,2,2.3,2.8c0.2,0.1,0.4,0.3,0.6,0.4C4.9,15.9,5,16.1,5,16.3
		c0,0.3,0.1,0.6,0.1,0.9c0,0.2,0,0.3,0,0.5c0,0.3,0,0.3,0.4,0.2c0.1-0.1,0.1-0.2,0.1-0.3c0-0.1,0-0.1,0-0.2l0,0c0,0,0,0,0,0
		c0-0.1,0-0.3,0-0.4c0-0.1,0-0.2,0-0.3c0-0.1,0-0.1,0-0.1c0.1-0.5,0.2-0.7,0.2-0.8c0,0,0,0,0,0c0.4-0.3,0.7-0.5,1.1-0.9
		c0,0,0.1,0,0.1-0.1c0.6-0.5,1.1-1.1,1.5-1.7c0.3-0.4,0.6-0.9,0.8-1.4c0.1-0.1,0.1-0.2,0.1-0.4c0.1-0.1,0.1-0.2,0.2-0.4
		c0.2-0.4,0.3-0.8,0.3-1.2c0,0,0-0.1,0-0.1c0-0.1,0-0.1,0-0.2C10,8.6,10,7.9,10,7.9z"/>
</g>
</svg>
