<?xml version="1.0" encoding="utf-8"?>
<!-- Generator: Adobe Illustrator 21.0.0, SVG Export Plug-In . SVG Version: 6.00 Build 0)  -->
<svg version="1.1" id="Layer_1" xmlns="http://www.w3.org/2000/svg" xmlns:xlink="http://www.w3.org/1999/xlink" x="0px" y="0px"
	 width="18px" height="18px" viewBox="0 0 18 18" style="enable-background:new 0 0 18 18;" xml:space="preserve">
<style type="text/css">
	.st0{fill:#FFFFFF;}
	.st1{fill:#2F80D1;}
	.st2{fill:#606060;}
	.st3{fill:#47B747;}
	.st4{fill:none;}
	.st5{fill:#FF6364;}
	.st6{fill:#F2ADAD;}
	.st7{fill:#020201;}
	.st8{fill:#FEFEFE;}
	.st9{fill:#FCED21;}
</style>
<g>
	<path class="st2" d="M0.2,0H0.1v0.1C0.1,0.1,0.1,0,0.2,0z"/>
	<g>
		<circle class="st4" cx="8" cy="3" r="1"/>
	</g>
	<g>
		<path class="st4" d="M10,3c0,0.6,0.4,1,1,1V2C10.4,2,10,2.4,10,3z"/>
	</g>
	<path class="st3" d="M17.9,0C17.9,0,18,0.1,18,0.1V0H17.9z"/>
	<polygon class="st3" points="16,5 16,0 14,0 14,5 12,5 15,8 18,5 	"/>
	<g>
		<polygon class="st4" points="1,15 1,16 1,17 9,17 10,17 17,17 17,10 17,9 17,8.9 11,8.9 11,5 1,5 		"/>
	</g>
	<g>
		<circle class="st4" cx="8" cy="3" r="1"/>
	</g>
	<g>
		<path class="st4" d="M10,3c0,0.6,0.4,1,1,1V2C10.4,2,10,2.4,10,3z"/>
	</g>
	<path class="st3" d="M17.9,0C17.9,0,18,0.1,18,0.1V0H17.9z"/>
	<polygon class="st2" points="17,8.9 17,9 17,10 17,17 10,17 9,17 1,17 1,16 1,15 1,5 6,5 11,5 11,4 11,2 11,1 11,0 9,0 0.1,0 0,0 
		0,0.1 0,15.9 0,18 9,18 10,18 18,18 18,10 18,9 18,8.9 	"/>
	<g>
		<rect x="2" y="15" class="st1" width="13" height="1"/>
	</g>
	<g>
		<rect x="2" y="7" class="st1" width="5" height="1"/>
	</g>
	<g>
		<rect x="2" y="11" class="st1" width="10" height="1"/>
	</g>
</g>
</svg>
