<?xml version="1.0" encoding="utf-8"?>
<!-- Generator: Adobe Illustrator 21.0.0, SVG Export Plug-In . SVG Version: 6.00 Build 0)  -->
<svg version="1.1" id="Layer_1" xmlns="http://www.w3.org/2000/svg" xmlns:xlink="http://www.w3.org/1999/xlink" x="0px" y="0px"
	 width="18px" height="18px" viewBox="0 0 18 18" style="enable-background:new 0 0 18 18;" xml:space="preserve">
<style type="text/css">
	.st0{fill:#FFFFFF;}
	.st1{fill:#2F80D1;}
	.st2{fill:#606060;}
	.st3{fill:#47B747;}
	.st4{fill:none;}
	.st5{fill:#FF6364;}
	.st6{fill:#F2ADAD;}
	.st7{fill:#020201;}
	.st8{fill:#FEFEFE;}
	.st9{fill:#FCED21;}
</style>
<g>
	<g>
		<polygon class="st2" points="0,18 18,18 18,9 17,9 17,17 1,17 1,1 9,1 9,0 0,0 		"/>
	</g>
	<polygon class="st3" points="16,5 16,0 14,0 14,5 12,5 15,8 18,5 	"/>
	<g>
		<path class="st1" d="M4.5,14.1c0.2,0.2,0.4,0.3,0.7,0.3c0.3,0,0.5-0.1,0.7-0.3c0.2-0.2,0.3-0.4,0.3-0.7V11h0.8v2.4
			c0,0.3-0.1,0.6-0.2,0.9c-0.1,0.3-0.3,0.5-0.6,0.6c-0.3,0.1-0.6,0.2-0.9,0.2c-0.4,0-0.7-0.1-0.9-0.2c-0.3-0.1-0.5-0.3-0.6-0.6
			c-0.1-0.3-0.2-0.6-0.2-0.9V11h0.8v2.4C4.2,13.7,4.3,13.9,4.5,14.1z"/>
		<path class="st1" d="M10.9,11.3c0.3,0.2,0.6,0.4,0.7,0.7c0.2,0.3,0.3,0.6,0.3,1c0,0.4-0.1,0.7-0.3,1c-0.2,0.3-0.4,0.5-0.8,0.7
			c-0.3,0.2-0.7,0.3-1.1,0.3H8.2v-4h1.7C10.2,11,10.6,11.1,10.9,11.3z M10.5,14.2c0.2-0.1,0.3-0.3,0.5-0.5s0.2-0.4,0.2-0.7
			c0-0.3-0.1-0.5-0.2-0.7s-0.3-0.4-0.5-0.5s-0.4-0.2-0.7-0.2H8.9v2.7h0.9C10.1,14.3,10.3,14.3,10.5,14.2z"/>
		<path class="st1" d="M15.7,11.4c0.3,0.2,0.4,0.6,0.4,1c0,0.5-0.1,0.8-0.4,1.1c-0.3,0.3-0.7,0.4-1.2,0.4h-0.9V15h-0.8v-4h1.6
			C15.1,11,15.5,11.1,15.7,11.4z M15.2,13c0.2-0.1,0.2-0.3,0.2-0.6c0-0.2-0.1-0.4-0.2-0.5c-0.2-0.1-0.4-0.2-0.7-0.2h-0.8v1.5h0.8
			C14.8,13.1,15,13.1,15.2,13z"/>
	</g>
</g>
</svg>
