<?xml version="1.0" encoding="utf-8"?>
<!-- Generator: Adobe Illustrator 21.0.0, SVG Export Plug-In . SVG Version: 6.00 Build 0)  -->
<svg version="1.1" id="Layer_1" xmlns="http://www.w3.org/2000/svg" xmlns:xlink="http://www.w3.org/1999/xlink" x="0px" y="0px"
	 width="18px" height="18px" viewBox="0 0 18 18" style="enable-background:new 0 0 18 18;" xml:space="preserve">
<style type="text/css">
	.st0{fill:#FFFFFF;}
	.st1{fill:#2F80D1;}
	.st2{fill:#606060;}
	.st3{fill:#47B747;}
	.st4{fill:none;}
	.st5{fill:#FF6364;}
	.st6{fill:#F2ADAD;}
	.st7{fill:#020201;}
	.st8{fill:#FEFEFE;}
	.st9{fill:#FCED21;}
</style>
<g>
	<polygon class="st3" points="16,5 16,0 14,0 14,5 12,5 15,8 18,5 	"/>
	<path class="st2" d="M16.8,17.9c-0.6-0.6-1.2-1.2-1.7-1.8c-0.1-0.1-0.2-0.2-0.4-0.2c-2.3,0-4.6,0-6.9,0c-0.2,0-0.3-0.1-0.4-0.2
		c-0.5-0.5-0.9-1-1.4-1.5c-0.1-0.1-0.1-0.1-0.1-0.1c0.3-0.3,0.5-0.5,0.8-0.8c0.4,0.4,0.8,0.9,1.3,1.3c0.1,0.1,0.2,0.2,0.4,0.2
		c0.7,0,1.4,0,2.2,0c0.2,0,0.4,0,0.5,0c0,0,0,0,0-0.1c-1-1-1.9-2-2.9-3c0.2-0.2,0.5-0.5,0.7-0.8c1,1,1.9,2,2.9,3c0-0.8,0-1.5,0-2.3
		c0-0.5-0.1-1-0.5-1.3c-0.3-0.3-0.6-0.6-0.9-0.9C10.6,9.3,10.8,9,11,8.8c0.5,0.5,1,1.1,1.6,1.6c0.1,0.1,0.2,0.2,0.2,0.4
		c0,1.3,0,2.5,0,3.8c0,0.1,0,0.2,0,0.3c0.7,0,1.4,0,2.1,0c0-0.1,0-0.1,0-0.2c0-1.6,0-3.2,0-4.8c0-0.1-0.1-0.2-0.1-0.3
		c-0.7-0.7-1.4-1.4-2.1-2.2c0,0-0.1-0.1-0.2-0.1c-0.5,0.5-1,1-1.5,1.6c-0.1-0.1-0.1-0.2-0.2-0.2C9.7,7.4,8.6,6.3,7.5,5.2
		C7.4,5.1,7.3,5,7.1,5C4.8,5,2.5,5,0.2,5C0.1,5,0.1,5,0,5c0.7,0.7,1.3,1.3,1.9,2C2,7.1,2.2,7.2,2.3,7.2c1,0,2.1,0,3.1,0
		c0.3,0,0.7-0.1,1,0c0.3,0.1,0.5,0.5,0.7,0.7C7.5,8.2,7.7,8.5,8,8.7C7.6,9.1,7.2,9.5,6.9,9.9c-0.4,0.4-0.7,0.8-1.1,1.2
		c-0.3-0.3-0.6-0.6-0.9-0.9C4.6,9.9,4.3,9.7,4.2,9.5c-0.1-0.3,0-0.6,0-1c0,0,0,0,0,0c0-0.2,0-0.2-0.2-0.2c-0.6,0-1.1,0-1.7,0
		c-0.1,0-0.2,0-0.3,0c0,0.1,0,0.2,0,0.3c0,0.5,0,1.1,0,1.6c0,0.2,0,0.3,0.2,0.5c1.1,1.1,2.2,2.3,3.3,3.4c0.1,0.1,0.1,0.1,0.2,0.2
		c-0.5,0.5-1,1-1.5,1.5c0.1,0,0.1,0.1,0.2,0.1c0.7,0.7,1.4,1.4,2,2.1c0.1,0.1,0.2,0.2,0.4,0.2c3.3,0,6.6,0,9.8,0c0.1,0,0.2,0,0.3,0
		C16.9,18,16.9,17.9,16.8,17.9z"/>
</g>
</svg>
