<?xml version="1.0" encoding="utf-8"?>
<!-- Generator: Adobe Illustrator 21.0.0, SVG Export Plug-In . SVG Version: 6.00 Build 0)  -->
<svg version="1.1" id="Layer_1" xmlns="http://www.w3.org/2000/svg" xmlns:xlink="http://www.w3.org/1999/xlink" x="0px" y="0px"
	 width="18px" height="18px" viewBox="0 0 18 18" style="enable-background:new 0 0 18 18;" xml:space="preserve">
<style type="text/css">
	.st0{fill:#FFFFFF;}
	.st1{fill:#2F80D1;}
	.st2{fill:#606060;}
	.st3{fill:#47B747;}
	.st4{fill:none;}
	.st5{fill:#FF6364;}
	.st6{fill:#F2ADAD;}
	.st7{fill:#020201;}
	.st8{fill:#FEFEFE;}
	.st9{fill:#FCED21;}
</style>
<g>
	<g>
		<path class="st1" d="M5.6,2.4C6,2.6,6.2,2.9,6.4,3.2c0.2,0.3,0.3,0.7,0.3,1.2S6.6,5.2,6.4,5.5S6,6.1,5.6,6.3
			C5.2,6.5,4.8,6.6,4.4,6.6H2.5V2.1h1.9C4.9,2.1,5.3,2.2,5.6,2.4z M5.2,5.7c0.2-0.1,0.4-0.3,0.5-0.5c0.1-0.2,0.2-0.5,0.2-0.8
			c0-0.3-0.1-0.5-0.2-0.8C5.5,3.4,5.4,3.2,5.1,3.1S4.7,2.9,4.4,2.9h-1v3h1C4.7,5.8,4.9,5.8,5.2,5.7z"/>
		<path class="st1" d="M10.6,2.1h0.8v4.5h-0.8L8.3,3.5v3.1H7.5V2.1h0.8l2.3,3.1V2.1z"/>
		<path class="st1" d="M14.6,2.9c-0.2-0.1-0.5-0.1-0.6-0.1c-0.2,0-0.4,0-0.5,0.1c-0.1,0.1-0.2,0.2-0.2,0.3c0,0.1,0,0.2,0.1,0.3
			s0.2,0.2,0.3,0.2c0.1,0.1,0.3,0.1,0.5,0.2C14.6,4,14.8,4.1,15,4.2c0.2,0.1,0.4,0.2,0.5,0.4c0.1,0.2,0.2,0.4,0.2,0.7
			c0,0.3-0.1,0.5-0.2,0.7c-0.1,0.2-0.3,0.4-0.6,0.5c-0.3,0.1-0.6,0.2-0.9,0.2c-0.3,0-0.7-0.1-1-0.2c-0.3-0.1-0.6-0.3-0.9-0.5
			l0.4-0.7c0.2,0.2,0.5,0.4,0.8,0.5c0.3,0.1,0.5,0.2,0.8,0.2c0.2,0,0.4,0,0.6-0.1c0.1-0.1,0.2-0.2,0.2-0.4c0-0.1,0-0.2-0.1-0.3
			s-0.2-0.2-0.3-0.2s-0.3-0.1-0.5-0.2c-0.3-0.1-0.5-0.2-0.7-0.3c-0.2-0.1-0.4-0.2-0.5-0.4c-0.1-0.2-0.2-0.4-0.2-0.7
			c0-0.3,0.1-0.5,0.2-0.7c0.1-0.2,0.3-0.3,0.6-0.5c0.3-0.1,0.5-0.2,0.9-0.2c0.3,0,0.6,0,0.9,0.1c0.3,0.1,0.5,0.2,0.8,0.3l-0.3,0.7
			C15.1,3.1,14.9,3,14.6,2.9z"/>
	</g>
	<g>
		<polygon class="st2" points="0,0 18,0 18,9 17,9 17,1 1,1 1,17 9,17 9,18 0,18 		"/>
	</g>
	<g>
		<path class="st3" d="M14.2,15.6c0-0.4,0.1-0.8,0.2-1.1s0.3-0.5,0.6-0.9l0.8-0.8c0.3-0.4,0.5-0.7,0.5-1.1c0-0.4-0.1-0.7-0.3-0.9
			c-0.2-0.2-0.6-0.3-1-0.3c-0.4,0-0.8,0.1-1,0.3c-0.3,0.2-0.4,0.5-0.4,0.8h-1.1c0-0.6,0.2-1.1,0.7-1.5c0.5-0.4,1.1-0.6,1.8-0.6
			c0.8,0,1.4,0.2,1.8,0.6c0.4,0.4,0.7,0.9,0.7,1.6c0,0.7-0.3,1.3-1,1.9l-0.7,0.6c-0.3,0.3-0.5,0.7-0.5,1.3H14.2z M14.2,17.3
			c0-0.2,0.1-0.3,0.2-0.4c0.1-0.1,0.3-0.2,0.5-0.2c0.2,0,0.4,0.1,0.5,0.2c0.1,0.1,0.2,0.3,0.2,0.4c0,0.2-0.1,0.3-0.2,0.4
			c-0.1,0.1-0.3,0.2-0.5,0.2c-0.2,0-0.4-0.1-0.5-0.2C14.2,17.7,14.2,17.5,14.2,17.3z"/>
	</g>
</g>
</svg>
