<?xml version="1.0" encoding="utf-8"?>
<!-- Generator: Adobe Illustrator 21.0.0, SVG Export Plug-In . SVG Version: 6.00 Build 0)  -->
<svg version="1.1" id="Layer_1" xmlns="http://www.w3.org/2000/svg" xmlns:xlink="http://www.w3.org/1999/xlink" x="0px" y="0px"
	 width="18px" height="18px" viewBox="0 0 18 18" style="enable-background:new 0 0 18 18;" xml:space="preserve">
<style type="text/css">
	.st0{fill:#FFFFFF;}
	.st1{fill:#2F80D1;}
	.st2{fill:#606060;}
	.st3{fill:#47B747;}
	.st4{fill:none;}
	.st5{fill:#FF6364;}
	.st6{fill:#F2ADAD;}
	.st7{fill:#020201;}
	.st8{fill:#FEFEFE;}
	.st9{fill:#FCED21;}
</style>
<g>
	<g>
		<path class="st3" d="M10.4,11.4L7.5,9L7.4,8.9l0,1.8c0,0,0,0,0,0c-0.6,0-1.2,0-1.8-0.1C4.9,10.4,4.4,10.2,4,9.7
			C3.6,9.3,3.4,8.8,3.2,8.3C3.2,8.1,3.1,7.8,3,7.6c0,0.2,0,0.5,0,0.7c0.1,0.8,0.2,1.7,0.6,2.4c0.5,1.1,1.3,1.8,2.5,2.1
			C6.5,13,6.9,13,7.3,13.1l0,1.7l0.1-0.1l3.3-2.7l0.2-0.2L10.4,11.4z"/>
	</g>
	<g>
		<path class="st2" d="M5.6,7L5,5.6H1.8L1.3,7H0l2.8-6.6h1.3L6.9,7H5.6z M2.3,4.6h2.3L3.4,1.8L2.3,4.6z"/>
	</g>
	<g>
		<path class="st2" d="M16.8,9.7c0.4,0.3,0.6,0.6,0.6,1.1c0,0.3-0.1,0.6-0.3,0.9c-0.2,0.2-0.5,0.4-0.8,0.5c0.4,0.1,0.7,0.2,1,0.5
			c0.2,0.3,0.4,0.6,0.4,1c0,0.5-0.2,0.9-0.6,1.2c-0.4,0.3-1,0.4-1.7,0.4h-2.8V9.3h2.8C15.9,9.3,16.4,9.4,16.8,9.7z M15.9,11.6
			c0.2-0.1,0.3-0.3,0.3-0.6c0-0.2-0.1-0.4-0.3-0.5c-0.2-0.1-0.4-0.2-0.7-0.2h-1.5v1.5h1.5C15.5,11.8,15.7,11.7,15.9,11.6z M16,14.1
			c0.2-0.1,0.3-0.3,0.3-0.6c0-0.2-0.1-0.4-0.3-0.6c-0.2-0.1-0.5-0.2-0.9-0.2h-1.5v1.6h1.5C15.5,14.4,15.8,14.3,16,14.1z"/>
	</g>
</g>
</svg>
