<?xml version="1.0" encoding="utf-8"?>
<!-- Generator: Adobe Illustrator 21.0.0, SVG Export Plug-In . SVG Version: 6.00 Build 0)  -->
<svg version="1.1" id="Layer_1" xmlns="http://www.w3.org/2000/svg" xmlns:xlink="http://www.w3.org/1999/xlink" x="0px" y="0px"
	 width="18px" height="18px" viewBox="0 0 18 18" style="enable-background:new 0 0 18 18;" xml:space="preserve">
<style type="text/css">
	.st0{fill:#FFFFFF;}
	.st1{fill:#2F80D1;}
	.st2{fill:#606060;}
	.st3{fill:#47B747;}
	.st4{fill:none;}
	.st5{fill:#FF6364;}
	.st6{fill:#F2ADAD;}
	.st7{fill:#020201;}
	.st8{fill:#FEFEFE;}
	.st9{fill:#FCED21;}
</style>
<g>
	<g>
		<polygon class="st2" points="0,0 0,18 9,18 9,17 1,17 1,1 17,1 17,9 18,9 18,0 		"/>
	</g>
	<g>
		<path class="st1" d="M2.6,1.9h1v2.2h2.5V1.9h1V7h-1V4.9H3.6V7h-1V1.9z"/>
		<path class="st1" d="M8.4,1.9h1v4.2h2.2V7H8.4V1.9z"/>
		<path class="st1" d="M11.7,1.9h3.9v0.7L13.5,7h-1l2-4.2h-2l0,0.7h-0.9V1.9z"/>
	</g>
	<polygon class="st3" points="18,10 13.8,10 15.3,11.4 13,13.7 10.8,11.5 12.2,10.1 8,10.1 8,14.3 9.4,12.8 12,15.4 12,18 14,18 
		14,15.3 16.6,12.8 18,14.1 	"/>
</g>
</svg>
