<?xml version="1.0" encoding="utf-8"?>
<!-- Generator: Adobe Illustrator 21.0.0, SVG Export Plug-In . SVG Version: 6.00 Build 0)  -->
<svg version="1.1" id="Layer_1" xmlns="http://www.w3.org/2000/svg" xmlns:xlink="http://www.w3.org/1999/xlink" x="0px" y="0px"
	 width="18px" height="18px" viewBox="0 0 18 18" style="enable-background:new 0 0 18 18;" xml:space="preserve">
<style type="text/css">
	.st0{fill:#FFFFFF;}
	.st1{fill:#2F80D1;}
	.st2{fill:#606060;}
	.st3{fill:#47B747;}
	.st4{fill:none;}
	.st5{fill:#FF6364;}
	.st6{fill:#F2ADAD;}
	.st7{fill:#020201;}
	.st8{fill:#FEFEFE;}
	.st9{fill:#FCED21;}
</style>
<g>
	<polygon class="st1" points="3,8 3,11 2,11 2,12 3,12 3,13 4,13 4,12 5,12 5,11 4,11 4,8 	"/>
	<rect x="1" y="14" class="st1" width="5" height="4"/>
	<rect x="14" y="1" class="st1" width="4" height="5"/>
	<polygon class="st1" points="12,2 11,2 11,3 8,3 8,4 11,4 11,5 12,5 12,4 13,4 13,3 12,3 	"/>
	<polygon class="st1" points="0,3.5 3.5,7 7,3.5 3.5,0 	"/>
</g>
<g>
	<polygon class="st3" points="16.6,12.8 18,14.1 18,10 13.9,10 15.3,11.4 13,13.7 10.8,11.5 12.3,10.1 8,10.1 8,14.3 9.5,12.8 
		12,15.4 12,18 14,18 14,15.3 	"/>
</g>
</svg>
