<?xml version="1.0" encoding="utf-8"?>
<!-- Generator: Adobe Illustrator 21.0.0, SVG Export Plug-In . SVG Version: 6.00 Build 0)  -->
<svg version="1.1" id="Layer_1" xmlns="http://www.w3.org/2000/svg" xmlns:xlink="http://www.w3.org/1999/xlink" x="0px" y="0px"
	 width="18px" height="18px" viewBox="0 0 18 18" style="enable-background:new 0 0 18 18;" xml:space="preserve">
<style type="text/css">
	.st0{fill:#FFFFFF;}
	.st1{fill:#2F80D1;}
	.st2{fill:#606060;}
	.st3{fill:#47B747;}
	.st4{fill:none;}
	.st5{fill:#FF6364;}
	.st6{fill:#F2ADAD;}
	.st7{fill:#020201;}
	.st8{fill:#FEFEFE;}
	.st9{fill:#FCED21;}
</style>
<g>
	<g>
		<path class="st1" d="M6.2,8.3c-1.5,0-2.8,1.3-2.8,2.8c0,0.9,0.4,1.7,1.1,2.2L3,15.5L3.8,16l1.5-2.3c0.3,0.1,0.6,0.2,0.9,0.2
			c1.5,0,2.8-1.3,2.8-2.8S7.7,8.3,6.2,8.3z M6.2,12.9c-1,0-1.9-0.8-1.9-1.9s0.8-1.9,1.9-1.9s1.9,0.8,1.9,1.9S7.2,12.9,6.2,12.9z"/>
	</g>
	<g>
		<rect x="11" y="5" class="st3" width="6" height="1"/>
	</g>
	<g>
		<polygon class="st3" points="17,8 11,8 14,11 		"/>
	</g>
	<g>
		<polygon class="st3" points="11,3 17,3 14,0 		"/>
	</g>
	<g>
		<path class="st2" d="M16,11v1c0,0,0,0.3,0.3,0.5C16,12.8,16,13,16,13v4H2V7c0,0,0-0.3-0.3-0.5C2,6.3,2,6,2,6V1h2V0H1v1v5H0v1h1v11
			h1h15v-1v-4h1v-1h-1v-1H16z"/>
	</g>
</g>
</svg>
