<?xml version="1.0" encoding="utf-8"?>
<!-- Generator: Adobe Illustrator 21.0.0, SVG Export Plug-In . SVG Version: 6.00 Build 0)  -->
<svg version="1.1" id="Layer_1" xmlns="http://www.w3.org/2000/svg" xmlns:xlink="http://www.w3.org/1999/xlink" x="0px" y="0px"
	 width="18px" height="18px" viewBox="0 0 18 18" style="enable-background:new 0 0 18 18;" xml:space="preserve">
<style type="text/css">
	.st0{fill:#FFFFFF;}
	.st1{fill:#2F80D1;}
	.st2{fill:#606060;}
	.st3{fill:#47B747;}
	.st4{fill:none;}
	.st5{fill:#FF6364;}
	.st6{fill:#F2ADAD;}
	.st7{fill:#020201;}
	.st8{fill:#FEFEFE;}
	.st9{fill:#FCED21;}
</style>
<g>
	<g>
		<path class="st3" d="M16.5,6.9c-0.4-0.2-0.9-0.6-1.3-1.3c0-0.1-0.1-0.1-0.1-0.2c-0.5-1.4-0.6-2.9-0.4-4.4C14.8,0.4,15,0,15,0
			l-0.6,0c0,0,0,0,0,0c-0.5,0-1,0-1.5,0c-0.2,0-0.3,0-0.5,0l-1.5,0c0,0,0.1,0.2,0.1,0.5C11.3,2,11.4,3.5,10.8,5
			c0,0.1-0.1,0.2-0.1,0.3c-0.4,0.8-0.9,1.2-1.3,1.4L8,5.4v3.6h3.6l-1.3-1.3c0.8-0.7,1.5-1.9,1.8-2.5c0,0,0,0,0,0
			c0.1-0.3,0.2-0.5,0.2-0.5l0,0c0-0.1,0.1-0.2,0.1-0.3c0.1-0.2,0.1-0.4,0.2-0.6c0-0.1,0.1-0.1,0.1-0.1c0,0,0.1,0.1,0.2,0.1
			C13,3.9,13.1,4,13.1,4.1c0.2,0.4,0.4,0.8,0.6,1.2c0.3,0.7,1,1.8,1.8,2.5l0,0L14.4,9H18V5.4L16.5,6.9z"/>
	</g>
	<g>
		<polygon class="st2" points="17,17 1,17 1,1 9,1 9,0 0,0 0,18 18,18 18,11 17,11 		"/>
	</g>
	<g>
		<path class="st1" d="M2.3,11.8h0.9l1,1.4l1-1.4h1l-1.4,2L6.2,16h-1l-1.1-1.5L3.1,16H2.2l1.5-2.2L2.3,11.8z"/>
		<path class="st1" d="M7.1,11.8h0.9l1.4,2.7l1.4-2.7h0.9V16H11v-3l-1.3,2.6H9.2L7.9,13v3H7.1V11.8z"/>
		<path class="st1" d="M13.1,11.8h0.8v3.5h1.8V16h-2.6V11.8z"/>
	</g>
</g>
</svg>
