<?xml version="1.0" encoding="utf-8"?>
<!-- Generator: Adobe Illustrator 21.0.0, SVG Export Plug-In . SVG Version: 6.00 Build 0)  -->
<svg version="1.1" id="Layer_1" xmlns="http://www.w3.org/2000/svg" xmlns:xlink="http://www.w3.org/1999/xlink" x="0px" y="0px"
	 width="18px" height="18px" viewBox="0 0 18 18" style="enable-background:new 0 0 18 18;" xml:space="preserve">
<style type="text/css">
	.st0{fill:#FFFFFF;}
	.st1{fill:#2F80D1;}
	.st2{fill:#606060;}
	.st3{fill:#47B747;}
	.st4{fill:none;}
	.st5{fill:#FF6364;}
	.st6{fill:#F2ADAD;}
	.st7{fill:#020201;}
	.st8{fill:#FEFEFE;}
	.st9{fill:#FCED21;}
</style>
<g>
	<g>
		<path class="st3" d="M6.1,12.3l1.6-3.5l0.1-0.2L6,9.1c0,0,0,0,0,0C5.9,8.4,5.7,7.8,5.7,7.2c0-0.6,0.1-1.2,0.5-1.7
			c0.3-0.4,0.7-0.8,1.2-1.1C7.6,4.3,7.8,4.1,8,4C7.8,4.1,7.5,4.1,7.3,4.2C6.5,4.5,5.7,4.8,5.1,5.4c-0.9,0.8-1.5,1.8-1.5,3
			c0,0.4,0.1,0.8,0.1,1.3L2,10.1l0.2,0.1l3.4,2.6L5.8,13L6.1,12.3z"/>
	</g>
	<g>
		<path class="st3" d="M12.5,5.4l-2.4,3l-0.1,0.1l1.8,0c0,0,0,0,0,0c0,0.6,0,1.2-0.1,1.8c-0.1,0.6-0.4,1.1-0.9,1.5
			c-0.4,0.4-0.9,0.6-1.4,0.8C9.2,12.8,9,12.9,8.7,13c0.2,0,0.5,0,0.7,0c0.9-0.1,1.7-0.2,2.5-0.6c1.1-0.5,1.8-1.4,2.1-2.6
			c0.1-0.4,0.1-0.8,0.2-1.3l1.7,0l-0.1-0.2L13.2,5L13,4.8L12.5,5.4z"/>
	</g>
	<g>
		<path class="st2" d="M9,0H0v18h9h9v-7v-0.9V10V8V0H9z M17,8v2v0.1V11v6H9H1V1h8h8V8z"/>
	</g>
</g>
</svg>
