<?xml version="1.0" encoding="utf-8"?>
<!-- Generator: Adobe Illustrator 21.0.0, SVG Export Plug-In . SVG Version: 6.00 Build 0)  -->
<svg version="1.1" id="Layer_1" xmlns="http://www.w3.org/2000/svg" xmlns:xlink="http://www.w3.org/1999/xlink" x="0px" y="0px"
	 width="18px" height="18px" viewBox="0 0 18 18" style="enable-background:new 0 0 18 18;" xml:space="preserve">
<style type="text/css">
	.st0{fill:#FFFFFF;}
	.st1{fill:#2F80D1;}
	.st2{fill:#606060;}
	.st3{fill:#47B747;}
	.st4{fill:none;}
	.st5{fill:#FF6364;}
	.st6{fill:#F2ADAD;}
	.st7{fill:#020201;}
	.st8{fill:#FEFEFE;}
	.st9{fill:#FCED21;}
</style>
<g>
	<g>
		<path class="st2" d="M7.8,14.3c-1.1,1-2.4,1-3.5,0c0,0,0,0-0.1,0l0,0c0-0.1,0-0.1-0.1-0.1c0,0,0-0.1,0-0.1
			c-0.4-0.5-0.7-1.1-0.9-1.8C3,11.2,2.9,10,2.8,8.8c0-0.2-0.1-0.3-0.2-0.4C2.3,8.1,2,7.9,1.8,7.6C1,6.8,0.3,6,0.1,4.8
			c0,0,0,0-0.1-0.1c0-0.3,0-0.6,0.1-1c0.1-0.9,0.7-1.5,1.7-1.7c0.1,0,0.1,0,0.2,0C2,2.6,2.2,3,2.5,3.4C3,4.2,3.6,4.8,4.3,5.3
			c0.1,0.1,0.2,0,0.3-0.1c0.7-0.7,1.4-1.4,2.2-2C7.7,2.6,8.8,2,10,2c0.3,0,0.6,0.1,0.9,0.2c0.7,0.4,1.1,1.1,1.1,2c0,0.1,0,0.2,0,0.3
			c-0.5,0-0.9,0.1-1.4,0.3C8.8,5.7,7.5,6.9,6.2,8.5C6.2,8.5,6.2,8.6,6.2,8.7c0,1,0.1,2,0.2,2.9C6.6,12.7,6.7,13.7,7.8,14.3z"/>
	</g>
	<g>
		<g>
			<polygon class="st1" points="10,15 10,16 15,16 15,18 16,18 16,17 17,17 17,16 18,16 18,15 17,15 17,14 16,14 16,13 15,13 15,15 
							"/>
		</g>
		<g>
			<polygon class="st1" points="12,9 11,9 11,10 10,10 10,11 11,11 11,12 12,12 12,13 13,13 13,11 18,11 18,10 13,10 13,8 12,8 			
				"/>
		</g>
	</g>
</g>
</svg>
