<svg id="Layer_1" data-name="Layer 1" xmlns="http://www.w3.org/2000/svg" width="18" height="18" viewBox="0 0 18 18"><defs><style>.cls-1{fill:#e0e0e0;}.cls-2{fill:#2f80d1;}.cls-3{fill:#606060;}.cls-4{fill:#47b747;}</style></defs><title>ConsumeJMS</title><path class="cls-1" d="M18,18h0Z"/><path class="cls-2" d="M4.5,7.6A1.5,1.5,0,0,1,3.4,8,1.8,1.8,0,0,1,2,7.3l.4-.7.5.4h.5L3.9,7A.7.7,0,0,0,4,6.5V4.1H2.4V3.3H4.9V6.5A1.5,1.5,0,0,1,4.5,7.6Z"/><path class="cls-2" d="M6,3.3H7l1.6,3,1.5-3h1V8h-.8V4.6L8.9,7.5H8.3L6.8,4.6V8H6Z"/><path class="cls-2" d="M14.6,4.2H13.4a.4.4,0,0,0-.2.3.4.4,0,0,0,.1.3l.3.2.5.2.8.3.5.4a1.2,1.2,0,0,1,.2.7,1.2,1.2,0,0,1-.2.8l-.6.5-.9.2-1.1-.2-.9-.5.4-.8.8.5.8.2h.6a.5.5,0,0,0,.1-.7l-.3-.2L13.7,6l-.8-.3-.5-.4a1.1,1.1,0,0,1-.2-.7,1.2,1.2,0,0,1,.2-.7l.6-.5.9-.2h.9l.8.4-.4.8Z"/><path class="cls-3" d="M17.9,0H0V17.9H11V17H1V1H17V9h1V.1Z"/><polygon class="cls-4" points="18 13 15 10 12 13 14 13 14 18 16 18 16 13 18 13"/></svg>