<svg id="Layer_1" data-name="Layer 1" xmlns="http://www.w3.org/2000/svg" width="18" height="18" viewBox="0 0 18 18"><defs><style>.cls-1{fill:#606060;}.cls-2{fill:#47b747;}</style></defs><title>ConsumeKafka_0_10</title><path class="cls-1" d="M8.5,11a1.5,1.5,0,0,0-1,.4l-1.9-.9A2.9,2.9,0,0,0,5.8,8L7.7,6.8l.8.2A1.5,1.5,0,1,0,7.1,6L5.4,7.2A3,3,0,0,0,3,6V2.9a1.5,1.5,0,1,0-1,0V6.2a3,3,0,0,0,0,5.6v3.3a1.5,1.5,0,1,0,1,0V12a3,3,0,0,0,1.9-.7l2.1,1v.2A1.5,1.5,0,1,0,8.5,11ZM3,11A2,2,0,1,1,5,9,2,2,0,0,1,3,11Z"/><polygon class="cls-2" points="18 13 15 10 12 13 14 13 14 18 16 18 16 13 18 13"/></svg>