<svg id="Layer_1" data-name="Layer 1" xmlns="http://www.w3.org/2000/svg" width="18" height="18" viewBox="0 0 18 18"><defs><style>.cls-1{fill:#2f80d1;}.cls-2{fill:#47b747;}</style></defs><title>ConvertAvroSchema</title><polygon class="cls-1" points="16 7 9 7 9 3 10 3 10 0 7 0 7 3 8 3 8 7 2 7 1 7 1 10 0 10 0 13 3 13 3 10 2 10 2 8 8 8 8 10 7 10 7 13 10 13 10 10 9 10 9 8 16 8 16 9 17 9 17 7 16 7"/><path class="cls-2" d="M16.6,10.8l-.5.9a2.5,2.5,0,0,1,.9,1.9,2.5,2.5,0,0,1-1.7,2.4v-.7l-1.4,1.4L15.3,18V17a3.5,3.5,0,0,0,1.3-6.2Z"/><path class="cls-2" d="M13.9,11.2V12l1.4-1.4L13.9,9.2v.9h0a3.5,3.5,0,0,0-1.1,6.5l.5-.8a2.5,2.5,0,0,1,.5-4.7h0Z"/></svg>