<svg id="Layer_1" data-name="Layer 1" xmlns="http://www.w3.org/2000/svg" width="18" height="18" viewBox="0 0 18 18"><defs><style>.cls-1{fill:#2f80d1;}.cls-2{fill:#ff6364;}.cls-3{fill:#606060;}</style></defs><title>Delete HDFS</title><polygon class="cls-1" points="11 3 11 6 7 6 7 3 6 3 6 10 7 10 7 7 11 7 11 10 12 10 12 3 11 3"/><polygon class="cls-2" points="18 12 17 11 14.5 13.5 12 11 11 12 13.5 14.5 11 17 12 18 14.5 15.5 17 18 18 17 15.5 14.5 18 12"/><polygon class="cls-3" points="1 0 0 0 0 1 0 17 0 18 10 18 10 17 1 17 1 1 17 1 17 10 18 10 18 1 18 0 1 0"/></svg>