<svg id="Layer_1" data-name="Layer 1" xmlns="http://www.w3.org/2000/svg" width="18" height="18" viewBox="0 0 18 18"><defs><style>.cls-1{fill:#ff6364;}.cls-2{fill:#606060;}</style></defs><title>Delete Dynamo DB</title><polygon class="cls-1" points="18 12 17 11 14.5 13.5 12 11 11 12 13.5 14.5 11 17 12 18 14.5 15.5 17 18 18 17 15.5 14.5 18 12"/><path class="cls-2" d="M0,7V9H0C0,9.4,2,10,5,10s5-.6,5-.9h0V7a15.1,15.1,0,0,1-5,.7A15.1,15.1,0,0,1,0,7Z"/><path class="cls-2" d="M10,2.4C10,1.5,7.4,1,5,1S0,1.5,0,2.4H0v.2H0V5H0C0,5.4,2,6,5,6s5-.6,5-1h0V2.4ZM5,4C2.8,4,1.1,3.6,1.1,3S2.8,1.9,5,1.9,8.9,2.4,8.9,3,7.1,4,5,4Z"/><path class="cls-2" d="M0,11v1.6H0C0,13.5,2.6,14,5,14s5-.5,5-1.4h0V11a15.2,15.2,0,0,1-5,.7A15.2,15.2,0,0,1,0,11Z"/></svg>