<svg id="Layer_1" data-name="Layer 1" xmlns="http://www.w3.org/2000/svg" width="18" height="18" viewBox="0 0 18 18"><defs><style>.cls-1{fill:#2f80d1;}</style></defs><title>DuplicateFlowFile</title><path class="cls-1" d="M2,4V17H12V8L8,4Zm9,4v8H3V5H8V8Z"/><polygon class="cls-1" points="12 1 6 1 6 3 7 3 7 2 12 2 12 5 15 5 15 9 15 13 13 13 13 14 16 14 16 13.2 16 9 16 5 12 1"/><rect class="cls-1" x="5" y="10" width="4" height="1"/><rect class="cls-1" x="5" y="12" width="4" height="1"/><rect class="cls-1" x="13" y="8" width="1" height="1"/><rect class="cls-1" x="13" y="10" width="1" height="1"/></svg>