<svg id="Layer_1" data-name="Layer 1" xmlns="http://www.w3.org/2000/svg" width="18" height="18" viewBox="0 0 18 18"><defs><style>.cls-1{fill:#606060;}.cls-2{fill:#2f80d1;}</style></defs><title>Evaluate X Path</title><polygon class="cls-1" points="2 0 2 1 2 17 2 18 10 18 10 17 3 17 3 1 15 1 15 8 16 8 16 1 16 0 2 0"/><path class="cls-1" d="M18,17.2l-2.5-2.5a3,3,0,1,0-.8.8L17.2,18Zm-5-2.3A1.8,1.8,0,1,1,14.9,13,1.8,1.8,0,0,1,13,14.9Z"/><polygon class="cls-2" points="13 4 12 3 8.9 6.1 5.9 3 5 3.9 8.1 6.9 5 10 6 11 9.1 7.9 10.1 9 11 8.1 9.9 7.1 13 4"/></svg>