<svg id="Layer_1" data-name="Layer 1" xmlns="http://www.w3.org/2000/svg" width="18" height="18" viewBox="0 0 18 18"><defs><style>.cls-1{font-size:2.48px;font-family:MyriadPro-Regular, Myriad Pro;}.cls-2{letter-spacing:2.58em;}.cls-3{letter-spacing:-0.03em;}.cls-4{letter-spacing:-0.01em;}.cls-5{letter-spacing:0em;}.cls-6{letter-spacing:-0.01em;}.cls-7{fill:#606060;}.cls-8{fill:#2f80d1;}.cls-9{fill:#47b747;}</style></defs><title>FetchElasticsearch5</title><text class="cls-1" transform="translate(-1 19.5)"> <tspan class="cls-2" x="0.5" y="0">	</tspan><tspan class="cls-3" x="0" y="3">F</tspan><tspan x="1.1" y="3">e</tspan><tspan class="cls-4" x="2.4" y="3">t</tspan><tspan class="cls-5" x="3.2" y="3">chElasticsea</tspan><tspan class="cls-6" x="15.6" y="3">r</tspan><tspan x="16.4" y="3">ch5</tspan></text><path class="cls-7" d="M17,12V7H15V8h1v4a.8.8,0,0,0,.3.5.8.8,0,0,0-.2.5v4H2V7a.8.8,0,0,0-.2-.5A.8.8,0,0,0,2,6V1H4V0H1V6H0V7H1V18H17V13h1V12Z"/><path class="cls-8" d="M10,1A3,3,0,0,0,8.2,6.4L6.6,8.7l.8.6L9,6.8,10,7a3,3,0,1,0,0-6Zm0,5a2,2,0,1,1,2-2A2,2,0,0,1,10,6Z"/><path class="cls-9" d="M7.9,13.4l.6.5a1.2,1.2,0,0,1,.2.7,1.4,1.4,0,0,1-.2.8,1.4,1.4,0,0,1-.6.5l-.9.2H6.1l-.8-.4.3-.7.6.3h.6l.7-.2a.6.6,0,0,0,.2-.5.6.6,0,0,0-.2-.5l-.7-.2H5.6V11.6H8.4v.7h-2v.9H7Z"/><path class="cls-9" d="M9.9,15.3a.4.4,0,0,1,.1.3.5.5,0,0,1-.1.3H9.3a.5.5,0,0,1-.1-.3.4.4,0,0,1,.1-.3h.6Z"/><path class="cls-9" d="M13.9,12.1a2.5,2.5,0,0,1,.5,1.7,2.5,2.5,0,0,1-.5,1.7,1.7,1.7,0,0,1-1.4.6,1.7,1.7,0,0,1-1.4-.6,2.5,2.5,0,0,1-.5-1.7,2.5,2.5,0,0,1,.5-1.7,1.7,1.7,0,0,1,1.4-.6A1.7,1.7,0,0,1,13.9,12.1Zm-2.2.5a2.2,2.2,0,0,0-.3,1.2,2.2,2.2,0,0,0,.3,1.2,1,1,0,0,0,1.5,0,2.2,2.2,0,0,0,.3-1.2,2.2,2.2,0,0,0-.3-1.2,1,1,0,0,0-1.5,0Z"/></svg>