<svg id="Layer_1" data-name="Layer 1" xmlns="http://www.w3.org/2000/svg" width="18" height="18" viewBox="0 0 18 18"><defs><style>.cls-1{fill:#606060;}.cls-2{fill:#2f80d1;}</style></defs><title>FetchFTP</title><path class="cls-1" d="M3.3,11.9a2.2,2.2,0,0,1-.4-4.4h.7V6.6A1.3,1.3,0,0,1,4.9,5.6h.5l.8.4.4-.8a4.3,4.3,0,0,1,8.1,2V8l.8.2a1.9,1.9,0,0,1,1.1.8h1.1a2.9,2.9,0,0,0-2-1.8,5.3,5.3,0,0,0-10-2.5l-.9-.2A2.3,2.3,0,0,0,2.6,6.5a3.2,3.2,0,0,0,.6,6.4H8v-1Z"/><polygon class="cls-2" points="11 10 10 10 10 15 8 15 8 16 9 16 9 17 10 17 10 18 11 18 11 17 12 17 12 16 13 16 13 15 11 15 11 10"/><polygon class="cls-2" points="17 12 17 11 16 11 16 10 15 10 15 11 14 11 14 12 13 12 13 13 15 13 15 18 16 18 16 13 18 13 18 12 17 12"/></svg>