<svg id="Layer_1" data-name="Layer 1" xmlns="http://www.w3.org/2000/svg" width="18" height="18" viewBox="0 0 18 18"><defs><style>.cls-1{fill:#606060;}.cls-2{fill:#2f80d1;}</style></defs><title>GenerateFlowFile</title><rect class="cls-1" x="1" y="14" width="5" height="4"/><rect class="cls-1" x="14" y="1" width="4" height="5"/><polygon class="cls-2" points="12 3 12 2 11 2 11 3 8 3 8 4 11 4 11 5 12 5 12 4 13 4 13 3 12 3"/><polygon class="cls-1" points="7 3.5 3.5 0 0 3.5 3.5 7 7 3.5"/><polygon class="cls-2" points="4 11 4 8 3 8 3 11 2 11 2 12 3 12 3 13 4 13 4 12 5 12 5 11 4 11"/></svg>