<svg id="Layer_1" data-name="Layer 1" xmlns="http://www.w3.org/2000/svg" width="18" height="18" viewBox="0 0 18 18"><defs><style>.cls-1{fill:none;}.cls-2{fill:#606060;}.cls-3{fill:#2f80d1;}</style></defs><title>GenerateTableFetch</title><rect class="cls-1" x="1" y="8" width="4" height="4"/><rect class="cls-1" x="1" y="13" width="4" height="4"/><path class="cls-2" d="M0,0V18H7V17H6V13H7V12H6V8h5V9h1V8h5V9h1V0ZM5,17H1V13H5Zm0-5H1V8H5ZM5,7H1V3H5Zm6,0H6V3h5Zm6,0H12V3h5Z"/><polygon class="cls-3" points="11 10 10 10 10 15 9 15 8 15 8 16 9 16 9 17 10 17 10 18 11 18 11 17 12 17 12 16 13 16 13 15 11 15 11 10"/><polygon class="cls-3" points="17 12 17 11 16 11 16 10 15 10 15 11 14 11 14 12 13 12 13 13 15 13 15 18 16 18 16 13 18 13 18 12 17 12"/></svg>