<svg id="Layer_1" data-name="Layer 1" xmlns="http://www.w3.org/2000/svg" width="18" height="18" viewBox="0 0 18 18"><defs><style>.cls-1{fill:#606060;}.cls-2{fill:#47b747;}</style></defs><title>GetDynamoDB</title><path class="cls-1" d="M8,10v2H8c0,.4,1.7.9,4.5.9s4.5-.6,4.5-.9h0V10a12.3,12.3,0,0,1-4.5.7A12.3,12.3,0,0,1,8,10Z"/><path class="cls-1" d="M17,5.4C17,4.5,14.7,4,12.5,4S8,4.5,8,5.4H8v.2H8V8H8c0,.4,1.7,1,4.5,1S17,8.4,17,8h0V5.4ZM12.5,7C10.6,7,9,6.6,9,6s1.6-1.1,3.5-1.1S16,5.4,16,6,14.4,7,12.5,7Z"/><path class="cls-1" d="M8,14v1.7H8c0,.9,2.3,1.4,4.5,1.4s4.5-.5,4.5-1.4h0V14a12,12,0,0,1-4.5.7A12,12,0,0,1,8,14Z"/><polygon class="cls-2" points="6 2 6 1 5 1 5 0 4 0 4 2 0 2 0 4 4 4 4 6 5 6 5 5 6 5 6 4 7 4 7 2 6 2"/></svg>