<svg id="Layer_1" data-name="Layer 1" xmlns="http://www.w3.org/2000/svg" width="18" height="18" viewBox="0 0 18 18"><defs><style>.cls-1{fill:#606060;}.cls-2{fill:#2f80d1;}.cls-3{fill:#47b747;}</style></defs><title>GetFile</title><polygon class="cls-1" points="12.1 0.1 12.1 0 7 0 7 1 12 1 12 6 17 6 17 17 4 17 4 8 3 8 3 17 3 18 4 18 17 18 18 18 18 6 12.1 0.1"/><rect class="cls-2" x="5" y="8" width="7" height="1"/><rect class="cls-2" x="5" y="11" width="7" height="1"/><rect class="cls-2" x="5" y="14" width="5" height="1"/><polygon class="cls-3" points="6 2 6 1 5 1 5 0 4 0 4 2 0 2 0 4 4 4 4 6 5 6 5 5 6 5 6 4 7 4 7 2 6 2"/></svg>