<svg id="Layer_1" data-name="Layer 1" xmlns="http://www.w3.org/2000/svg" width="18" height="18" viewBox="0 0 18 18"><defs><style>.cls-1{fill:#2f80d1;}.cls-2{fill:#606060;}.cls-3{fill:#47b747;}</style></defs><title>GetHDFSEvents</title><rect class="cls-1" x="8" y="7" width="8" height="1"/><rect class="cls-1" x="9" y="10" width="7" height="1"/><rect class="cls-1" x="10" y="13" width="6" height="1"/><polygon class="cls-1" points="7 9 7 12 3 12 3 9 2 9 2 16 3 16 3 13 7 13 7 16 8 16 8 9 7 9"/><polygon class="cls-2" points="9 4 9 1 9 0.1 9 0.1 9 0 18 0 18 18 0 18 0 7.9 1 7.9 1 17 17 17 17 4 9 4"/><polygon class="cls-3" points="7 1 6 1 6 0 5 0 5 2 0 2 0 4 5 4 5 6 6 6 6 5 7 5 7 4 8 4 8 2 7 2 7 1"/></svg>