<svg id="Layer_1" data-name="Layer 1" xmlns="http://www.w3.org/2000/svg" width="18" height="18" viewBox="0 0 18 18"><defs><style>.cls-1{fill:#47b747;}.cls-2{fill:#606060;}</style></defs><title>GetMongo</title><polygon class="cls-1" points="6 1 5 1 5 0 4 0 4 2 0 2 0 4 4 4 4 6 5 6 5 5 6 5 6 4 7 4 7 2 6 2 6 1"/><path class="cls-2" d="M11,11.4a6.6,6.6,0,0,0,0-1.2,8.9,8.9,0,0,0-.3-1.6h0l-.2-.7a7.4,7.4,0,0,0-1-1.7h0l-.2-.3L9,5.6l-.3-.3H8.7L8.4,5a.8.8,0,0,1-.3-.7v.2A4,4,0,0,1,7,5.8l-.5.6a5.7,5.7,0,0,0-.8,1.3,7.2,7.2,0,0,0-.6,1.8A5.5,5.5,0,0,0,5,10.5v.2H5a4.3,4.3,0,0,0,0,.6,1.3,1.3,0,0,0,0,.5,5.2,5.2,0,0,0,.3,1.3l.2.4a6,6,0,0,0,1.5,2.1l.4.3a.9.9,0,0,1,.2.5,4.2,4.2,0,0,1,0,.7c0,.1,0,.3,0,.4s0,.2.2.1,0-.2.1-.3H8c.1-.1,0-.2,0-.3v-.2c.1-.1,0-.3.1-.4h0v-.4h0l.7-.6H9a6.9,6.9,0,0,0,1-1.3l.5-1v-.5a4.4,4.4,0,0,0,.2-.9h0Z"/><path class="cls-2" d="M18,8h0V5.7h0V5.4h0C18,4.5,15.7,4,13.5,4a11.6,11.6,0,0,0-3.2.4,3.4,3.4,0,0,1,.9.8,8.9,8.9,0,0,1,2.2-.3c1.9,0,3.5.5,3.5,1.1s-1.6,1-3.5,1H12.2a8.1,8.1,0,0,1,.3,2h1C16.2,9,18,8.4,18,8Z"/><path class="cls-2" d="M13.5,13c2.7,0,4.5-.6,4.5-.9h0V10a12.3,12.3,0,0,1-4.5.7H12.4a17.2,17.2,0,0,1-.3,2.3Z"/><path class="cls-2" d="M18,15.7V14a12,12,0,0,1-4.5.7H11.9a5.8,5.8,0,0,1-1.5,2.1,11.5,11.5,0,0,0,3.1.4c2.2,0,4.5-.5,4.5-1.4Z"/></svg>