<svg id="Layer_1" data-name="Layer 1" xmlns="http://www.w3.org/2000/svg" width="18" height="18" viewBox="0 0 18 18"><defs><style>.cls-1{fill:#606060;}.cls-2{fill:#47b747;}</style></defs><title>GetSolr</title><path class="cls-1" d="M7.8,8.6v.2L12,17.6h.2a7.5,7.5,0,0,0,3.4-1.8h.1L7.8,8.5Z"/><path class="cls-1" d="M17.7,11.8,10.8,8.6l-2-.9H8.7L16,15.5a7.5,7.5,0,0,0,1.2-1.7,7.6,7.6,0,0,0,.7-1.8C17.9,11.9,17.8,11.9,17.7,11.8Z"/><path class="cls-1" d="M6.7,9.1v1.2l.2,1.9.2,1.9.2,1.7.2,1.4h.1l1.7.5h2.1L6.7,9.1Z"/><path class="cls-1" d="M17.5,7.6l-.2-.2-2.2-.3L12.9,7l-2.1-.3H9.3l8.7,4.8c0-.3,0-.5.1-.8A7.5,7.5,0,0,0,17.5,7.6Z"/><path class="cls-1" d="M5.4,9.3V10l-.7,3.7-.2.8a.2.2,0,0,0,0,.2A7.5,7.5,0,0,0,6.9,17H7L5.5,9.3Z"/><path class="cls-1" d="M9.5,5.3h0l7.6,1.5h0a7.4,7.4,0,0,0-2.2-2.4h-.2l-4.5.9Z"/><path class="cls-1" d="M3.7,9.9l-.6,1a.5.5,0,0,0-.1.4,7.4,7.4,0,0,0,.6,2.1h0l.5-4.3h0Z"/><path class="cls-1" d="M13.4,3.5l-1-.3L11.2,3h-.1l-1.8,1,4.1-.5Z"/><polygon class="cls-2" points="6 1 5 1 5 0 4 0 4 2 0 2 0 4 4 4 4 6 5 6 5 5 6 5 6 4 7 4 7 2 6 2 6 1"/></svg>