<svg id="Layer_1" data-name="Layer 1" xmlns="http://www.w3.org/2000/svg" width="18" height="18" viewBox="0 0 18 18"><defs><style>.cls-1{fill:#606060;}.cls-2{fill:#999;}</style></defs><title>Google Analytics</title><path class="cls-1" d="M14.5,6H14l-3.5,5.3a1.9,1.9,0,1,1-3.4.8L4.8,10.8a1.9,1.9,0,0,1-1.3.5l-.9-.2L0,13.5v2.9A1.6,1.6,0,0,0,1.6,18H16.4A1.6,1.6,0,0,0,18,16.4V7.2L15.7,5.6A1.9,1.9,0,0,1,14.5,6Z"/><path class="cls-2" d="M16.4,0H1.6A1.6,1.6,0,0,0,0,1.6V11.8l1.8-1.6a1.9,1.9,0,1,1,3.7-.7v.3L7.8,11A1.9,1.9,0,0,1,9,10.6h.4L13,5.2a1.9,1.9,0,1,1,3.4-.7L18,5.7V1.6A1.6,1.6,0,0,0,16.4,0Z"/></svg>