<svg id="Layer_1" data-name="Layer 1" xmlns="http://www.w3.org/2000/svg" width="18" height="18" viewBox="0 0 18 18"><defs><style>.cls-1{fill:#606060;}.cls-2{fill:#2f80d1;}.cls-3{fill:#47b747;}</style></defs><title>ListenUDP</title><polygon class="cls-1" points="0 0 0 18 7 18 7 17 1 17 1 1 17 1 17 8 17 8.9 17 9 18 9 18 8.9 18 8 18 0 0 0"/><path class="cls-2" d="M4.4,6.9a1,1,0,0,0,.7.3.9.9,0,0,0,.7-.3,1,1,0,0,0,.3-.7V3.8h.8V6.2a1.9,1.9,0,0,1-.2.9,1.4,1.4,0,0,1-.6.6l-.9.2-.9-.2a1.4,1.4,0,0,1-.6-.6,1.9,1.9,0,0,1-.2-.9V3.8h.8V6.2A1,1,0,0,0,4.4,6.9Z"/><path class="cls-2" d="M10.8,4.1a1.9,1.9,0,0,1,.7.7,2,2,0,0,1,.3,1,2,2,0,0,1-.3,1,1.9,1.9,0,0,1-.8.7l-1.1.3H8.1v-4H9.8ZM10.4,7l.5-.5a1.5,1.5,0,0,0,0-1.4l-.5-.5-.7-.2H8.9V7.2h.9Z"/><path class="cls-2" d="M15.7,4.2a1.3,1.3,0,0,1,.4,1,1.4,1.4,0,0,1-.4,1.1,1.7,1.7,0,0,1-1.2.4h-.9V7.8h-.8v-4h1.6A1.7,1.7,0,0,1,15.7,4.2Zm-.5,1.6a.7.7,0,0,0,.2-.6.7.7,0,0,0-.2-.5l-.7-.2h-.8V6h.8Z"/><path class="cls-3" d="M16,14a7,7,0,0,0-1.3-4l-.7.6a6.1,6.1,0,0,1,0,6.9l.7.6A7,7,0,0,0,16,14Z"/><path class="cls-3" d="M13.1,14a5.1,5.1,0,0,0-.9-2.9l-.7.6a4.3,4.3,0,0,1,0,4.6l.7.6A5.1,5.1,0,0,0,13.1,14Z"/></svg>