<svg id="Layer_1" data-name="Layer 1" xmlns="http://www.w3.org/2000/svg" width="18" height="18" viewBox="0 0 18 18"><defs><style>.cls-1{fill:#606060;}.cls-2{fill:#2f80d1;}.cls-3{fill:#47b747;}</style></defs><title>ListenSMTP</title><polygon class="cls-1" points="0 0 0 18 9 18 9 17 1 17 1 1 17 1 17 11 18 11 18 0 0 0"/><path class="cls-2" d="M3.9,5.3H3.1v.4h.6l.5.2.4.3a.8.8,0,0,1,.1.5.8.8,0,0,1-.2.5l-.4.3H2.7l-.6-.4.3-.5.5.4h1A.3.3,0,0,0,4,7V6.8H3.3l-.5-.2L2.4,6a.8.8,0,0,1-.1-.5.8.8,0,0,1,.1-.5l.4-.3H4.1l.5.2-.2.5Z"/><path class="cls-2" d="M5.5,4.7h.7L7.3,6.7l1-2.1H9V7.9H8.5V5.6l-1,2H7.1l-1-2V7.9H5.5Z"/><path class="cls-2" d="M9.7,4.7h2.6v.5h-1V7.9h-.6V5.2h-1Z"/><path class="cls-2" d="M15.3,5a1,1,0,0,1,.3.8,1.1,1.1,0,0,1-.3.9,1.3,1.3,0,0,1-.9.3h-.7v.9H13V4.7h1.3A1.4,1.4,0,0,1,15.3,5Zm-.4,1.3a.5.5,0,0,0,.2-.4.5.5,0,0,0-.2-.4H13.7V6.4h.7Z"/><path class="cls-3" d="M16.1,14a7,7,0,0,0-1.3-4l-.7.6a6.1,6.1,0,0,1,0,6.9l.7.6A7,7,0,0,0,16.1,14Z"/><path class="cls-3" d="M13.2,14a5.1,5.1,0,0,0-.9-2.9l-.7.6a4.3,4.3,0,0,1,0,4.6l.7.6A5.1,5.1,0,0,0,13.2,14Z"/></svg>