<svg id="Layer_1" data-name="Layer 1" xmlns="http://www.w3.org/2000/svg" width="18" height="18" viewBox="0 0 18 18"><defs><style>.cls-1{fill:#606060;}.cls-2{fill:#2f80d1;}</style></defs><title>ListenWebSocket</title><path class="cls-1" d="M10.4,4a4.3,4.3,0,0,1,4.3,4.3v.8l.8.2a1.9,1.9,0,0,1-.4,3.8H3.3a2.3,2.3,0,0,1-.4-4.5h.7V7.7A1.3,1.3,0,0,1,4.9,6.6h.5l.8.4.4-.8A4.3,4.3,0,0,1,10.4,4m0-1A5.3,5.3,0,0,0,5.8,5.7l-.9-.2a2.3,2.3,0,0,0-2.2,2A3.3,3.3,0,0,0,3.3,14H15.1a2.9,2.9,0,0,0,.7-5.7A5.3,5.3,0,0,0,10.4,3Z"/><polygon class="cls-2" points="14 10 13 10 13 9 12 9 12 10 7 10 7 9 6 9 6 10 5 10 5 11 6 11 6 12 7 12 7 11 12 11 12 12 13 12 13 11 14 11 14 10"/></svg>