<svg id="Layer_1" data-name="Layer 1" xmlns="http://www.w3.org/2000/svg" width="16" height="16" viewBox="0 0 16 16"><title>Downstream connections</title><path d="M2.9,1A1.3,1.3,0,0,0,1.6,2.3V4.8A1.3,1.3,0,0,0,2.9,6.1H1V7.4H8.6V6.1H6.7A1.3,1.3,0,0,0,8,4.8V2.3A1.3,1.3,0,0,0,6.7,1H2.9m0,1.3H6.7V4.8H2.9V2.3M9.3,8.6A1.3,1.3,0,0,0,8,9.9v2.5a1.3,1.3,0,0,0,1.3,1.3H7.4V15H15V13.7H13.1a1.3,1.3,0,0,0,1.3-1.3V9.9a1.3,1.3,0,0,0-1.3-1.3H9.3m0,1.3h3.8v2.5H9.3Z"/><rect x="1.6" y="8.6" width="1.3" height="4.45"/><polygon points="6.7 12.5 5.4 11.2 5.4 11.8 4.2 11.8 2.9 11.8 2.9 11.8 2.9 13.1 2.9 13.1 5.4 13.1 5.4 13.7 6.7 12.5"/></svg>