<?xml version="1.0" encoding="utf-8"?>
<!-- Generator: Adobe Illustrator 21.0.0, SVG Export Plug-In . SVG Version: 6.00 Build 0)  -->
<svg version="1.1" id="Layer_1" xmlns="http://www.w3.org/2000/svg" xmlns:xlink="http://www.w3.org/1999/xlink" x="0px" y="0px"
	 width="18px" height="18px" viewBox="0 0 18 18" style="enable-background:new 0 0 18 18;" xml:space="preserve">
<style type="text/css">
	.st0{fill:#FFFFFF;}
	.st1{fill:#2F80D1;}
	.st2{fill:#606060;}
	.st3{fill:#47B747;}
	.st4{fill:none;}
	.st5{fill:#FF6364;}
	.st6{fill:#F2ADAD;}
	.st7{fill:#020201;}
	.st8{fill:#FEFEFE;}
	.st9{fill:#FCED21;}
</style>
<g>
	<g transform="translate(0,-952.36218)">
		<g>
			<path class="st3" d="M16.4,963.4l-0.8,0.8l1.6,1.6L18,965L16.4,963.4z M15.3,964.4l-3.6,3.6l1.6,1.6l3.6-3.6L15.3,964.4z
				 M11.5,968.3l-0.5,2l2-0.5L11.5,968.3z"/>
		</g>
	</g>
	<g>
		<polygon class="st2" points="0,0 0,18 9,18 9,17 1,17 1,1 17,1 17,9 18,9 18,0 		"/>
	</g>
	<g>
		<g>
			<polygon class="st1" points="12.5,7.8 12,7.3 14.9,5 12,2.6 12.5,2.1 16,5 			"/>
		</g>
	</g>
	<g>
		<g>
			<polygon class="st1" points="5.6,7.8 2,5 5.6,2.1 6,2.6 3.1,5 6,7.3 			"/>
		</g>
	</g>
	<g>
		<g>
			<polygon class="st1" points="7.6,7.9 7.1,7.5 10.5,2.1 11,2.5 			"/>
		</g>
	</g>
</g>
</svg>
