<?xml version="1.0" encoding="utf-8"?>
<!-- Generator: Adobe Illustrator 21.0.2, SVG Export Plug-In . SVG Version: 6.00 Build 0)  -->
<svg version="1.1" id="Layer_1" xmlns="http://www.w3.org/2000/svg" xmlns:xlink="http://www.w3.org/1999/xlink" x="0px" y="0px"
	 viewBox="0 0 16 16" style="enable-background:new 0 0 16 16;" xml:space="preserve">
<style type="text/css">
	.st0{fill:#448DDB;}
</style>
<path class="st0" d="M7.6,12.1c-0.2-0.9-0.3-1.8-0.5-2.7C7,8.8,7,8.8,6.5,8.7C5.6,8.6,4.8,8.4,4,8.3c-0.1,0-0.2,0-0.4-0.1
	C6.1,7.1,8.5,6,11,4.8C9.9,7.3,8.8,9.7,7.6,12.1C7.7,12.1,7.7,12.1,7.6,12.1z"/>
<path class="st0" d="M8,1c3.9,0,7,3.1,7,7s-3.1,7-7,7s-7-3.1-7-7S4.1,1,8,1 M8,0C3.6,0,0,3.6,0,8s3.6,8,8,8s8-3.6,8-8S12.4,0,8,0
	L8,0z"/>
</svg>
