<?xml version="1.0" encoding="utf-8"?>
<!-- Generator: Adobe Illustrator 21.0.0, SVG Export Plug-In . SVG Version: 6.00 Build 0)  -->
<svg version="1.1" id="Layer_1" xmlns="http://www.w3.org/2000/svg" xmlns:xlink="http://www.w3.org/1999/xlink" x="0px" y="0px"
	 width="18px" height="18px" viewBox="0 0 18 18" style="enable-background:new 0 0 18 18;" xml:space="preserve">
<style type="text/css">
	.st0{fill:#FFFFFF;}
	.st1{fill:#2F80D1;}
	.st2{fill:#606060;}
	.st3{fill:#47B747;}
	.st4{fill:none;}
	.st5{fill:#FF6364;}
	.st6{fill:#F2ADAD;}
	.st7{fill:#020201;}
	.st8{fill:#FEFEFE;}
	.st9{fill:#FCED21;}
</style>
<g>
	<g>
		<path class="st1" d="M5.5,5C5.3,4.9,5.1,4.9,4.8,4.9C4.5,4.9,4.2,4.9,4,5.1C3.7,5.2,3.5,5.4,3.4,5.7C3.2,5.9,3.2,6.2,3.2,6.5
			c0,0.3,0.1,0.6,0.2,0.8C3.5,7.6,3.7,7.8,4,8c0.3,0.1,0.5,0.2,0.8,0.2c0.2,0,0.5-0.1,0.7-0.2S6,7.8,6.2,7.6l0.6,0.6
			C6.4,8.5,6.1,8.7,5.8,8.8C5.5,9,5.1,9.1,4.8,9.1C4.3,9.1,3.9,9,3.5,8.7C3.1,8.5,2.8,8.2,2.6,7.8C2.3,7.4,2.2,7,2.2,6.5
			s0.1-0.9,0.3-1.3c0.2-0.4,0.5-0.7,0.9-0.9C3.9,4.1,4.3,4,4.8,4c0.4,0,0.7,0.1,1,0.2s0.6,0.3,0.9,0.6L6.2,5.5C6,5.3,5.8,5.2,5.5,5z
			"/>
		<path class="st1" d="M7.5,4.1h3.6v0.8H8.4v1.2h2.4v0.8H8.4v1.2h2.7V9H7.5V4.1z"/>
		<path class="st1" d="M12.1,4.1h3.4l0,0.8H13v1.3h2.2v0.8H13V9h-0.9V4.1z"/>
	</g>
	<g>
		<path class="st3" d="M14.1,16c-0.5,0-1,0-1.5,0c-0.4,0-0.6,0.1-0.7,0.5c-0.1,0.3,0,0.6,0.3,0.7c0.4,0.1,0.7,0,0.8-0.4
			c0.1-0.4,0.5-0.2,0.7-0.2c0.2,0.1,0.1,0.3,0,0.5c-0.2,0.5-0.8,0.9-1.4,0.8c-0.7,0-1.2-0.4-1.3-1.1c-0.1-0.6,0.2-1.2,0.7-1.5
			c0.3-0.2,0.6-0.2,0.9-0.2c1,0,1.9,0,2.9,0c0.7,0,1.4-0.5,1.5-1.2c0.2-0.7-0.1-1.5-0.6-1.9c-0.6-0.4-1.4-0.4-2,0.1
			c-0.6,0.5-0.7,1.2-0.6,1.9c0,0.5-0.2,0.6-0.6,0.5c-0.1,0-0.2-0.1-0.2-0.2c-0.4-1.2,0.6-3,1.9-3.4c1.5-0.4,2.8,0.5,3,2
			c0.2,1.5-0.8,2.8-2.3,2.9C15.2,16,14.6,16,14.1,16C14.1,16,14.1,16,14.1,16z"/>
	</g>
	<g>
		<polygon class="st2" points="0,0 0,18 9,18 9,17 1,17 1,1 17,1 17,9 18,9 18,0 		"/>
	</g>
</g>
</svg>
