<?xml version="1.0" encoding="utf-8"?>
<!-- Generator: Adobe Illustrator 21.0.0, SVG Export Plug-In . SVG Version: 6.00 Build 0)  -->
<svg version="1.1" id="Layer_1" xmlns="http://www.w3.org/2000/svg" xmlns:xlink="http://www.w3.org/1999/xlink" x="0px" y="0px"
	 width="18px" height="18px" viewBox="0 0 18 18" style="enable-background:new 0 0 18 18;" xml:space="preserve">
<style type="text/css">
	.st0{fill:#FFFFFF;}
	.st1{fill:#2F80D1;}
	.st2{fill:#606060;}
	.st3{fill:#47B747;}
	.st4{fill:none;}
	.st5{fill:#FF6364;}
	.st6{fill:#F2ADAD;}
	.st7{fill:#020201;}
	.st8{fill:#FEFEFE;}
	.st9{fill:#FCED21;}
</style>
<g>
	<g>
		<polygon class="st2" points="0,0 0,18 9,18 9,17 1,17 1,1 17,1 17,9 18,9 18,0 		"/>
	</g>
	<g>
		<path class="st3" d="M17.2,14.2L14.3,12l-0.1-0.1l0,1.7c0,0,0,0,0,0c-0.6,0-1.2,0-1.7-0.1c-0.6-0.1-1.1-0.4-1.5-0.8
			c-0.3-0.4-0.5-0.9-0.7-1.3c-0.1-0.2-0.2-0.5-0.2-0.7c0,0.2,0,0.5,0,0.7c0.1,0.8,0.2,1.6,0.6,2.4c0.5,1.1,1.3,1.8,2.4,2.1
			c0.4,0.1,0.8,0.1,1.2,0.2l0,1.6l0.1-0.1l3.2-2.6l0.2-0.2L17.2,14.2z"/>
	</g>
	<g>
		<path class="st1" d="M2.4,3.6h0.7V5h1.7V3.6h0.7V7H4.8V5.6H3.1V7H2.4V3.6z"/>
		<path class="st1" d="M6.2,3.6H9v0.6H7.9V7H7.3V4.2H6.2V3.6z"/>
		<path class="st1" d="M9.4,3.6h2.8v0.6h-1.1V7h-0.7V4.2H9.4V3.6z"/>
		<path class="st1" d="M15.3,3.9c0.2,0.2,0.4,0.5,0.4,0.9c0,0.4-0.1,0.7-0.4,0.9S14.8,6,14.3,6h-0.7v1h-0.7V3.6h1.4
			C14.8,3.6,15.1,3.7,15.3,3.9z M14.9,5.3C15,5.1,15.1,5,15.1,4.8c0-0.2-0.1-0.4-0.2-0.5c-0.1-0.1-0.3-0.2-0.6-0.2h-0.7v1.3h0.7
			C14.5,5.4,14.7,5.4,14.9,5.3z"/>
	</g>
</g>
</svg>
