<?xml version="1.0" encoding="utf-8"?>
<!-- Generator: Adobe Illustrator 21.0.0, SVG Export Plug-In . SVG Version: 6.00 Build 0)  -->
<svg version="1.1" id="Layer_1" xmlns="http://www.w3.org/2000/svg" xmlns:xlink="http://www.w3.org/1999/xlink" x="0px" y="0px"
	 width="18px" height="18px" viewBox="0 0 18 18" style="enable-background:new 0 0 18 18;" xml:space="preserve">
<style type="text/css">
	.st0{fill:#FFFFFF;}
	.st1{fill:#2F80D1;}
	.st2{fill:#606060;}
	.st3{fill:#47B747;}
	.st4{fill:none;}
	.st5{fill:#FF6364;}
	.st6{fill:#F2ADAD;}
	.st7{fill:#020201;}
	.st8{fill:#FEFEFE;}
	.st9{fill:#FCED21;}
</style>
<g>
	<g>
		<polygon class="st2" points="0,18 18,18 18,9 17,9 17,17 1,17 1,1 9,1 9,0 0,0 		"/>
	</g>
	<g>
		<path class="st1" d="M2.4,11.6h0.7l1.1,2.2l1.1-2.2h0.7V15H5.5v-2.4l-1,2.1H4L3,12.6V15H2.4V11.6z"/>
		<path class="st1" d="M10.4,15.4c-0.1,0.1-0.3,0.2-0.4,0.3c-0.2,0.1-0.3,0.1-0.5,0.1c-0.2,0-0.4-0.1-0.6-0.2
			c-0.2-0.1-0.3-0.3-0.5-0.5c-0.3,0-0.6-0.1-0.9-0.2c-0.3-0.2-0.5-0.4-0.6-0.6c-0.2-0.3-0.2-0.6-0.2-0.9c0-0.3,0.1-0.6,0.2-0.9
			c0.2-0.3,0.4-0.5,0.6-0.6c0.3-0.2,0.6-0.2,0.9-0.2s0.6,0.1,0.9,0.2c0.3,0.2,0.5,0.4,0.6,0.6c0.2,0.3,0.2,0.6,0.2,0.9
			c0,0.3,0,0.5-0.1,0.7c-0.1,0.2-0.2,0.4-0.4,0.6c-0.2,0.2-0.4,0.3-0.6,0.4c0.2,0.2,0.3,0.3,0.5,0.3c0.2,0,0.4-0.1,0.6-0.3
			L10.4,15.4z M7.5,13.9c0.1,0.2,0.2,0.3,0.4,0.4c0.2,0.1,0.4,0.2,0.6,0.2c0.2,0,0.4-0.1,0.6-0.2s0.3-0.2,0.4-0.4
			c0.1-0.2,0.2-0.4,0.2-0.6c0-0.2,0-0.4-0.2-0.6c-0.1-0.2-0.2-0.3-0.4-0.4s-0.4-0.2-0.6-0.2c-0.2,0-0.4,0.1-0.6,0.2
			s-0.3,0.2-0.4,0.4s-0.2,0.4-0.2,0.6C7.3,13.5,7.4,13.7,7.5,13.9z"/>
		<path class="st1" d="M10.4,11.6h2.7v0.6h-1V15h-0.6v-2.8h-1V11.6z"/>
		<path class="st1" d="M13.2,11.6H16v0.6h-1V15h-0.6v-2.8h-1V11.6z"/>
	</g>
	<g>
		<path class="st3" d="M17.7,3.5l-1.2-0.9l-1.3-1l-1.7-1.3l-0.2-0.1l0,1.5l0,0.6c-0.5,0.1-1.1,0.1-1.6,0.3C10.4,2.8,9.4,3.7,8.7,5
			C8.3,6,8.1,7,8,8c0,0.3,0,0.6,0,0.9C8.1,8.6,8.2,8.3,8.3,8c0.2-0.6,0.5-1.2,0.9-1.7c0.5-0.6,1.1-0.9,1.9-1
			c0.7-0.1,1.5-0.2,2.3-0.2c0,0,0,0,0.1,0l0,2.1l0.2-0.1l3.5-2.7l0.1-0.1L18,3.7L17.7,3.5z"/>
	</g>
</g>
</svg>
