<?xml version="1.0" encoding="utf-8"?>
<!-- Generator: Adobe Illustrator 21.0.0, SVG Export Plug-In . SVG Version: 6.00 Build 0)  -->
<svg version="1.1" id="Layer_1" xmlns="http://www.w3.org/2000/svg" xmlns:xlink="http://www.w3.org/1999/xlink" x="0px" y="0px"
	 width="18px" height="18px" viewBox="0 0 18 18" style="enable-background:new 0 0 18 18;" xml:space="preserve">
<style type="text/css">
	.st0{fill:#FFFFFF;}
	.st1{fill:#2F80D1;}
	.st2{fill:#606060;}
	.st3{fill:#47B747;}
	.st4{fill:none;}
	.st5{fill:#FF6364;}
	.st6{fill:#F2ADAD;}
	.st7{fill:#020201;}
	.st8{fill:#FEFEFE;}
	.st9{fill:#FCED21;}
</style>
<g>
	<polygon class="st3" points="16,5 16,0 14,0 14,5 12,5 15,8 18,5 	"/>
	<g>
		<path class="st2" d="M17,16.4L10.4,11c0,0-0.1-0.1-0.1-0.1l2.5-2h-1.6l-1.9,1.5c-0.1,0.1-0.2,0.1-0.3,0.1c0,0,0,0,0,0
			c-0.1,0-0.2,0-0.3-0.1L1.9,5h9V4H0v14h18V8.9h-1V16.4z M1,5.5l6.7,5.4c0,0-0.1,0.1-0.1,0.1L1,16.4V5.5z M1.8,17l6.4-5.2
			c0.2-0.2,0.5-0.3,0.7-0.3c0,0,0,0,0,0s0,0,0,0c0.3,0,0.5,0.1,0.7,0.3l6.4,5.2H1.8z"/>
	</g>
</g>
</svg>
