<?xml version="1.0" encoding="utf-8"?>
<!-- Generator: Adobe Illustrator 21.0.0, SVG Export Plug-In . SVG Version: 6.00 Build 0)  -->
<svg version="1.1" id="Layer_1" xmlns="http://www.w3.org/2000/svg" xmlns:xlink="http://www.w3.org/1999/xlink" x="0px" y="0px"
	 width="18px" height="18px" viewBox="0 0 18 18" style="enable-background:new 0 0 18 18;" xml:space="preserve">
<style type="text/css">
	.st0{fill:#FFFFFF;}
	.st1{fill:#2F80D1;}
	.st2{fill:#606060;}
	.st3{fill:#47B747;}
	.st4{fill:none;}
	.st5{fill:#FF6364;}
	.st6{fill:#F2ADAD;}
	.st7{fill:#020201;}
	.st8{fill:#FEFEFE;}
	.st9{fill:#FCED21;}
</style>
<g>
	<g>
		<polygon class="st2" points="0,18 18,18 18,9 17,9 17,17 1,17 1,1 9,1 9,0 0,0 		"/>
	</g>
	<polygon class="st3" points="16,5 16,0 14.1,0 14.1,5 12.1,5 15.1,8 18.1,5 	"/>
	<g>
		<path class="st1" d="M4.4,5.7C3.9,6.6,4.1,7.4,4.6,8.1c0.7,1.1,1.6,1.9,2.7,2.6c0.3,0.2,0.5,0.3,0.8,0.5c1,0.8,1.4,1.9,1.2,3.2
			C9.2,15,9,15.5,8.7,16c-0.1-0.8-0.7-1.4-1.3-1.8c-0.9-0.7-1.9-1.2-2.8-1.8c-0.7-0.4-1.4-0.9-1.9-1.6C2.3,10.3,2,9.8,2,9.2
			c0-0.4,0.1-0.9,0.3-1.3C2.7,7,3.5,6.3,4.4,5.7z"/>
	</g>
	<g>
		<path class="st1" d="M10.9,12.6c0-1.3-0.6-2.2-1.5-3C8.7,9.1,8,8.6,7.3,8c-0.5-0.5-1-1-1.3-1.7C5.7,5.5,5.8,4.6,6.3,3.9
			C6.8,3.1,8,2.3,8.9,2c0,0.1-0.1,0.2-0.1,0.2c-0.4,1-0.4,1.9,0.1,2.9C9.3,6,10,6.8,10.7,7.6c0.4,0.4,0.8,0.9,1,1.5
			c0.2,0.6,0.3,1.2,0.1,1.8C11.7,11.5,11.4,12.1,10.9,12.6z"/>
	</g>
</g>
</svg>
