<?xml version="1.0" encoding="utf-8"?>
<!-- Generator: Adobe Illustrator 21.0.0, SVG Export Plug-In . SVG Version: 6.00 Build 0)  -->
<svg version="1.1" id="Layer_1" xmlns="http://www.w3.org/2000/svg" xmlns:xlink="http://www.w3.org/1999/xlink" x="0px" y="0px"
	 width="18px" height="18px" viewBox="0 0 18 18" style="enable-background:new 0 0 18 18;" xml:space="preserve">
<style type="text/css">
	.st0{fill:#FFFFFF;}
	.st1{fill:#2F80D1;}
	.st2{fill:#606060;}
	.st3{fill:#47B747;}
	.st4{fill:none;}
	.st5{fill:#FF6364;}
	.st6{fill:#F2ADAD;}
	.st7{fill:#020201;}
	.st8{fill:#FEFEFE;}
	.st9{fill:#FCED21;}
</style>
<g>
	<g>
		<path class="st2" d="M8.5,11c-0.4,0-0.8,0.2-1,0.4l-1.9-0.9C5.8,10,6,9.5,6,9c0-0.3-0.1-0.7-0.2-1l1.9-1.3C8,6.9,8.2,7,8.5,7
			C9.3,7,10,6.3,10,5.5S9.3,4,8.5,4S7,4.7,7,5.5C7,5.7,7,5.8,7.1,6L5.4,7.2C4.8,6.5,4,6,3,6V2.9c0.6-0.2,1-0.8,1-1.4
			C4,0.7,3.3,0,2.5,0S1,0.7,1,1.5c0,0.7,0.4,1.2,1,1.4v3.3C0.8,6.6,0,7.7,0,9s0.8,2.4,2,2.8v3.3c-0.6,0.2-1,0.8-1,1.4
			C1,17.3,1.7,18,2.5,18S4,17.3,4,16.5c0-0.7-0.4-1.2-1-1.4V12c0.7,0,1.4-0.3,1.9-0.7l2.1,1c0,0.1,0,0.1,0,0.2C7,13.3,7.7,14,8.5,14
			s1.5-0.7,1.5-1.5S9.3,11,8.5,11z M1,9c0-1.1,0.9-2,2-2s2,0.9,2,2c0,1.1-0.9,2-2,2S1,10.1,1,9z"/>
	</g>
	<polygon class="st3" points="15.9,5 15.9,0 14,0 14,5 12.1,5 15.1,8 18.1,5 	"/>
</g>
</svg>
