<?xml version="1.0" encoding="utf-8"?>
<!-- Generator: Adobe Illustrator 21.0.0, SVG Export Plug-In . SVG Version: 6.00 Build 0)  -->
<svg version="1.1" id="Layer_1" xmlns="http://www.w3.org/2000/svg" xmlns:xlink="http://www.w3.org/1999/xlink" x="0px" y="0px"
	 width="18px" height="18px" viewBox="0 0 18 18" style="enable-background:new 0 0 18 18;" xml:space="preserve">
<style type="text/css">
	.st0{fill:#FFFFFF;}
	.st1{fill:#2F80D1;}
	.st2{fill:#606060;}
	.st3{fill:#47B747;}
	.st4{fill:none;}
	.st5{fill:#FF6364;}
	.st6{fill:#F2ADAD;}
	.st7{fill:#020201;}
	.st8{fill:#FEFEFE;}
	.st9{fill:#FCED21;}
</style>
<g>
	<polygon class="st3" points="16,5 16,0 14,0 14,5 12,5 15,8 18,5 	"/>
	<g>
		<path class="st2" d="M17,11.5l-3-3l0,2.5h-2.1C11.4,8.2,9,6,6,6c-3.3,0-6,2.7-6,6s2.7,6,6,6s6-2.7,6-6h2l0,2.5L17,11.5z M7,16.9
			V13h0v-0.1h0h1V10h0H7.6H4.4H4h0v2.9L5,13c0,0,0,0,0,0h0v3.9c-2.3-0.5-4-2.5-4-4.9c0-2.8,2.2-5,5-5s5,2.2,5,5
			C11,14.4,9.3,16.4,7,16.9z"/>
		<polygon class="st2" points="12.3,12.3 12.3,12.3 12.3,12.3 		"/>
	</g>
</g>
</svg>
