<?xml version="1.0" encoding="utf-8"?>
<!-- Generator: Adobe Illustrator 21.0.0, SVG Export Plug-In . SVG Version: 6.00 Build 0)  -->
<svg version="1.1" id="Layer_1" xmlns="http://www.w3.org/2000/svg" xmlns:xlink="http://www.w3.org/1999/xlink" x="0px" y="0px"
	 width="18px" height="18px" viewBox="0 0 18 18" style="enable-background:new 0 0 18 18;" xml:space="preserve">
<style type="text/css">
	.st0{fill:#FFFFFF;}
	.st1{fill:#2F80D1;}
	.st2{fill:#606060;}
	.st3{fill:#47B747;}
	.st4{fill:none;}
	.st5{fill:#FF6364;}
	.st6{fill:#F2ADAD;}
	.st7{fill:#020201;}
	.st8{fill:#FEFEFE;}
	.st9{fill:#FCED21;}
</style>
<g>
	<polygon class="st3" points="16,5 16,0 14.1,0 14.1,5 12.1,5 15.1,8 18.1,5 	"/>
	<path class="st2" d="M7.2,5c0.4,0,0.8,0.2,1,0.6c0.2,0.4,0.3,0.9,0.4,1.3C8.6,7,8.6,7.1,8.7,7C9.1,6.9,9.5,6.7,10,6.6
		c0.5-0.1,1,0.2,1.2,0.7c0.2,0.5-0.1,1.1-0.5,1.3c-0.4,0.2-0.8,0.3-1.2,0.4c-0.1,0-0.1,0.1-0.1,0.2c0.3,0.8,0.5,1.5,0.8,2.3
		c0,0.1,0.1,0.1,0.2,0.1c0.4-0.1,0.9-0.3,1.3-0.4c0.5-0.1,1,0.2,1.2,0.7c0.2,0.5-0.1,1.1-0.5,1.3c-0.4,0.2-0.9,0.3-1.3,0.5
		c-0.1,0-0.1,0.1-0.1,0.2c0.1,0.4,0.3,0.8,0.4,1.2c0.1,0.5-0.2,1.1-0.7,1.3c-0.5,0.2-1.1-0.1-1.3-0.6c-0.2-0.4-0.3-0.8-0.4-1.2
		c0-0.1-0.1-0.1-0.2-0.1c-0.8,0.3-1.5,0.5-2.3,0.8c-0.1,0-0.1,0.1-0.1,0.2c0.1,0.4,0.3,0.9,0.4,1.3c0.1,0.5-0.1,1.1-0.7,1.3
		c-0.5,0.2-1.1-0.1-1.3-0.6c-0.2-0.4-0.3-0.9-0.5-1.3c0-0.1-0.1-0.1-0.2-0.1c-0.4,0.1-0.8,0.3-1.2,0.4c-0.5,0.2-1.1-0.2-1.3-0.7
		c-0.2-0.5,0.1-1.1,0.6-1.3c0.4-0.2,0.8-0.3,1.2-0.4c0.1,0,0.1-0.1,0.1-0.2C3.3,13,3,12.2,2.7,11.5c0-0.1-0.1-0.1-0.2-0.1
		c-0.4,0.1-0.8,0.3-1.3,0.4c-0.6,0.2-1.1-0.1-1.3-0.7c-0.2-0.5,0.1-1.1,0.6-1.3c0.4-0.2,0.8-0.3,1.3-0.4C2,9.3,2,9.2,2,9.2
		C1.9,8.7,1.7,8.3,1.6,7.9C1.5,7.4,1.8,6.8,2.3,6.7c0.5-0.2,1.1,0.1,1.3,0.6C3.7,7.6,3.9,8.1,4,8.5c0,0.1,0.1,0.1,0.2,0.1
		C4.9,8.3,5.7,8,6.4,7.8c0.1,0,0.1-0.1,0.1-0.2C6.4,7.2,6.2,6.8,6.1,6.3C5.9,5.6,6.4,5,7.2,5z M7.2,9.8C7.2,9.8,7.2,9.8,7.2,9.8
		c-0.8,0.3-1.6,0.6-2.4,0.8c-0.1,0-0.1,0.1,0,0.1c0.3,0.8,0.5,1.6,0.8,2.4c0,0.1,0,0.1,0.1,0.1c0.8-0.3,1.6-0.5,2.3-0.8
		c0.1,0,0.1-0.1,0.1-0.1C7.8,11.5,7.5,10.7,7.2,9.8C7.3,9.9,7.3,9.8,7.2,9.8z"/>
</g>
</svg>
