<?xml version="1.0" encoding="utf-8"?>
<!-- Generator: Adobe Illustrator 21.0.0, SVG Export Plug-In . SVG Version: 6.00 Build 0)  -->
<svg version="1.1" id="Layer_1" xmlns="http://www.w3.org/2000/svg" xmlns:xlink="http://www.w3.org/1999/xlink" x="0px" y="0px"
	 width="18px" height="18px" viewBox="0 0 18 18" style="enable-background:new 0 0 18 18;" xml:space="preserve">
<style type="text/css">
	.st0{fill:#FFFFFF;}
	.st1{fill:#2F80D1;}
	.st2{fill:#606060;}
	.st3{fill:#47B747;}
	.st4{fill:none;}
	.st5{fill:#FF6364;}
	.st6{fill:#F2ADAD;}
	.st7{fill:#020201;}
	.st8{fill:#FEFEFE;}
	.st9{fill:#FCED21;}
</style>
<g>
	<polygon class="st3" points="16,5 16,0 14,0 14,5 12,5 15,8 18,5 	"/>
	<g>
		<polygon class="st2" points="0,18 18,18 18,9 17,9 17,17 1,17 1,1 9,1 9,0 0,0 		"/>
	</g>
	<g>
		<path class="st1" d="M4.7,9.9C4.4,9.9,4.2,9.8,4,9.8c-0.2,0-0.4,0-0.5,0.1s-0.2,0.2-0.2,0.4c0,0.1,0,0.2,0.1,0.3
			c0.1,0.1,0.2,0.2,0.3,0.2s0.3,0.1,0.6,0.2c0.3,0.1,0.6,0.2,0.8,0.3c0.2,0.1,0.4,0.2,0.5,0.4s0.2,0.4,0.2,0.8
			c0,0.3-0.1,0.6-0.2,0.8S5.3,13.7,5,13.8C4.7,13.9,4.4,14,4,14c-0.4,0-0.8-0.1-1.1-0.2c-0.4-0.1-0.7-0.3-1-0.6l0.4-0.8
			c0.2,0.2,0.5,0.4,0.8,0.5c0.3,0.1,0.6,0.2,0.9,0.2c0.3,0,0.5,0,0.6-0.2s0.2-0.2,0.2-0.4c0-0.1,0-0.3-0.1-0.3S4.5,12.1,4.4,12
			C4.2,12,4,11.9,3.8,11.8c-0.3-0.1-0.6-0.2-0.8-0.3c-0.2-0.1-0.4-0.2-0.5-0.4c-0.1-0.2-0.2-0.4-0.2-0.7c0-0.3,0.1-0.5,0.2-0.7
			c0.2-0.2,0.4-0.4,0.6-0.5C3.4,9,3.7,9,4.1,9C4.4,9,4.7,9,5,9.1c0.3,0.1,0.6,0.2,0.8,0.4l-0.4,0.8C5.2,10.2,4.9,10,4.7,9.9z"/>
		<path class="st1" d="M12.1,14.5c-0.2,0.2-0.4,0.3-0.6,0.4C11.2,15,11,15,10.7,15c-0.3,0-0.6-0.1-0.9-0.3S9.4,14.3,9.2,14
			c-0.5,0-0.9-0.1-1.3-0.3c-0.4-0.2-0.7-0.5-0.9-0.9c-0.2-0.4-0.3-0.8-0.3-1.3s0.1-0.9,0.3-1.3c0.2-0.4,0.5-0.7,0.9-0.9
			C8.3,9.1,8.7,9,9.2,9s0.9,0.1,1.3,0.3c0.4,0.2,0.7,0.5,0.9,0.9s0.3,0.8,0.3,1.3c0,0.4-0.1,0.7-0.2,1c-0.1,0.3-0.3,0.6-0.6,0.8
			s-0.6,0.4-0.9,0.5c0.2,0.3,0.5,0.4,0.7,0.4c0.3,0,0.5-0.1,0.9-0.4L12.1,14.5z M7.8,12.3c0.2,0.3,0.4,0.5,0.6,0.6
			c0.3,0.1,0.5,0.2,0.8,0.2c0.3,0,0.6-0.1,0.8-0.2s0.5-0.4,0.6-0.6c0.1-0.3,0.2-0.5,0.2-0.8c0-0.3-0.1-0.6-0.2-0.8
			c-0.1-0.3-0.3-0.5-0.6-0.6C9.8,9.9,9.5,9.8,9.2,9.8c-0.3,0-0.6,0.1-0.8,0.2c-0.3,0.1-0.5,0.3-0.6,0.6c-0.1,0.3-0.2,0.5-0.2,0.8
			C7.6,11.8,7.6,12.1,7.8,12.3z"/>
		<path class="st1" d="M12.9,9h0.9v4.1H16v0.8h-3.1V9z"/>
	</g>
</g>
</svg>
