<?xml version="1.0" encoding="utf-8"?>
<!-- Generator: Adobe Illustrator 21.0.0, SVG Export Plug-In . SVG Version: 6.00 Build 0)  -->
<svg version="1.1" id="Layer_1" xmlns="http://www.w3.org/2000/svg" xmlns:xlink="http://www.w3.org/1999/xlink" x="0px" y="0px"
	 width="18px" height="18px" viewBox="0 0 18 18" style="enable-background:new 0 0 18 18;" xml:space="preserve">
<style type="text/css">
	.st0{fill:#FFFFFF;}
	.st1{fill:#2F80D1;}
	.st2{fill:#606060;}
	.st3{fill:#47B747;}
	.st4{fill:none;}
	.st5{fill:#FF6364;}
	.st6{fill:#F2ADAD;}
	.st7{fill:#020201;}
	.st8{fill:#FEFEFE;}
	.st9{fill:#FCED21;}
</style>
<g>
	<polygon class="st3" points="16,5 16,0 14.1,0 14.1,5 12.1,5 15.1,8 18.1,5 	"/>
	<path class="st2" d="M11.9,3.4c-1.5-0.7-3.1-1.4-4.6-2.2C7.2,1.2,7.1,1.1,7,1.1c0,4.7,0,9.5,0,14.2c0.5-0.1,0.9-0.2,1.4-0.3
		c0.1,0,0.2,0,0.3,0.1c0.7,0.9,1.4,1.9,2.1,2.8c0.2,0,0.1-0.1,0.2-0.2c0.6-1.1,1.1-2.1,1.6-3.2c0.1-0.2,0.2-0.3,0.4-0.3
		c0.3-0.1,0.7-0.1,1-0.2c0.6-0.1,1.1-0.2,1.7-0.3c0.2,0,0.3-0.1,0.3-0.3c0-1.1,0-2.3,0-3.4l-5-4L11.9,3.4z"/>
	<polygon class="st2" points="0,3 0,14.5 2,15 2,5 	"/>
	<polygon class="st2" points="3,3 3,14.5 6,15 6,5 	"/>
	<polygon class="st2" points="3,14.5 3,14.5 3,14.5 	"/>
</g>
</svg>
