<?xml version="1.0" encoding="utf-8"?>
<!-- Generator: Adobe Illustrator 21.0.0, SVG Export Plug-In . SVG Version: 6.00 Build 0)  -->
<svg version="1.1" id="Layer_1" xmlns="http://www.w3.org/2000/svg" xmlns:xlink="http://www.w3.org/1999/xlink" x="0px" y="0px"
	 width="18px" height="18px" viewBox="0 0 18 18" style="enable-background:new 0 0 18 18;" xml:space="preserve">
<style type="text/css">
	.st0{fill:#FFFFFF;}
	.st1{fill:#2F80D1;}
	.st2{fill:#606060;}
	.st3{fill:#47B747;}
	.st4{fill:none;}
	.st5{fill:#FF6364;}
	.st6{fill:#F2ADAD;}
	.st7{fill:#020201;}
	.st8{fill:#FEFEFE;}
	.st9{fill:#FCED21;}
</style>
<g>
	<path class="st0" d="M0.1,9L0.1,9L0,8h0.1C0.1,8.3,0.1,8.6,0.1,9C0.1,9,0.1,9,0.1,9z"/>
</g>
<g>
	<path class="st4" d="M4.7,13.3c0.5,1.4,1.1,2.5,1.9,3.3c-1.3-0.4-2.5-1.2-3.4-2.1C3.6,14,4.1,13.6,4.7,13.3z"/>
</g>
<g>
	<path class="st1" d="M10,16.9c0,0,0.1,0,0.1,0C10.1,16.9,10,16.9,10,16.9L10,16.9z"/>
</g>
<path class="st1" d="M10,1.1c0,0,0.1,0,0.1,0C10.1,1.1,10,1.1,10,1.1L10,1.1z"/>
<g>
	<path class="st1" d="M10.3,17.9c-0.1,0-0.2,0-0.3,0.1v0C10.1,17.9,10.2,17.9,10.3,17.9z"/>
</g>
<g>
	<path class="st1" d="M0,8L0,8c0,0.3,0,0.7,0,1L0,8z"/>
</g>
<g>
	<path class="st1" d="M10,18H9.5C9.7,18,9.8,18,10,18L10,18z"/>
</g>
<g>
	<path class="st1" d="M9.5,18H9c0.1,0,0.2,0,0.3,0C9.4,18,9.4,18,9.5,18z"/>
</g>
<g>
	<path class="st1" d="M10,16.9C9.8,17,9.7,17,9.5,17c-0.1,0-0.1,0-0.2,0C9.6,17,9.8,17,10,16.9L10,16.9z"/>
</g>
<g>
	<path class="st1" d="M9,18L9,18c0.1,0,0.2,0,0.3,0C9.2,18,9.1,18,9,18z"/>
</g>
<path class="st1" d="M9.3,1c0.1,0,0.1,0,0.2,0C9.7,1,9.8,1,10,1.1v0C9.8,1,9.6,1,9.3,1z"/>
<path class="st1" d="M9,1c0.1,0,0.2,0,0.3,0C9.2,1,9.1,1,9,1L9,1z"/>
<g>
	<path class="st1" d="M9,17L9,17c0.1,0,0.2,0,0.3,0C9.2,17,9.1,17,9,17z"/>
</g>
<g>
	<path class="st1" d="M10,17.9L10,17.9C9.8,18,9.7,18,9.5,18c-0.1,0-0.1,0-0.2,0C9.5,18,9.8,18,10,17.9z"/>
</g>
<g>
	<path class="st4" d="M6.6,16.6c-1.3-0.4-2.5-1.2-3.4-2.1c0.4-0.5,0.9-0.9,1.5-1.2C5.1,14.7,5.8,15.8,6.6,16.6z"/>
</g>
<g>
	<path class="st4" d="M9,16.9c0.1,0,0.2,0,0.3,0C9.2,17,9.1,17,9,16.9L9,16.9z"/>
</g>
<path class="st4" d="M9,1c0.1,0,0.2,0,0.3,0C9.2,1,9.1,1,9,1L9,1z"/>
<g>
	<path class="st6" d="M13,14L13,14C13,14,13,14,13,14L13,14z"/>
</g>
<g>
	<polygon class="st1" points="9.6,14 10,13.6 10,14 	"/>
</g>
<g>
	<path class="st4" d="M6.6,16.6c-1.3-0.4-2.5-1.2-3.4-2.1c0.4-0.5,0.9-0.9,1.5-1.2C5.1,14.7,5.8,15.8,6.6,16.6z"/>
</g>
<g>
	<path class="st4" d="M9,16.9c0.1,0,0.2,0,0.3,0C9.2,17,9.1,17,9,16.9L9,16.9z"/>
</g>
<path class="st4" d="M9,1c0.1,0,0.2,0,0.3,0C9.2,1,9.1,1,9,1L9,1z"/>
<g>
	<path class="st4" d="M9,16.9c0.1,0,0.2,0,0.3,0C9.2,17,9.1,17,9,16.9L9,16.9z"/>
</g>
<g>
	<path class="st4" d="M6.6,16.6c-1.3-0.4-2.5-1.2-3.4-2.1c0.4-0.5,0.9-0.9,1.5-1.2C5.1,14.7,5.8,15.8,6.6,16.6z"/>
</g>
<path class="st4" d="M9,1c0.1,0,0.2,0,0.3,0C9.2,1,9.1,1,9,1L9,1z"/>
<g>
	<path class="st4" d="M6.6,16.6c-1.3-0.4-2.5-1.2-3.4-2.1c0.4-0.5,0.9-0.9,1.5-1.2C5.1,14.7,5.8,15.8,6.6,16.6z"/>
</g>
<g>
	<path class="st4" d="M9,16.9c0.1,0,0.2,0,0.3,0C9.2,17,9.1,17,9,16.9L9,16.9z"/>
</g>
<path class="st4" d="M9,1c0.1,0,0.2,0,0.3,0C9.2,1,9.1,1,9,1L9,1z"/>
<g>
	<path class="st4" d="M3.2,14.5c0.9,1,2.1,1.7,3.4,2.1c-0.8-0.8-1.5-2-1.9-3.3C4.1,13.6,3.6,14,3.2,14.5z"/>
</g>
<g>
	<path class="st4" d="M9,17c0.1,0,0.2,0,0.3,0C9.2,17,9.1,17,9,17L9,17z"/>
</g>
<path class="st4" d="M9,1.1c0.1,0,0.2,0,0.3,0C9.2,1,9.1,1,9,1.1L9,1.1z"/>
<g>
	<path class="st4" d="M3.2,14.5c0.9,1,2.1,1.7,3.4,2.1c-0.8-0.8-1.5-2-1.9-3.3C4.1,13.6,3.6,14,3.2,14.5z"/>
</g>
<g>
	<path class="st4" d="M9,17c0.1,0,0.2,0,0.3,0C9.2,17,9.1,17,9,17L9,17z"/>
</g>
<path class="st4" d="M9,1.1c0.1,0,0.2,0,0.3,0C9.2,1,9.1,1,9,1.1L9,1.1z"/>
<g>
	<path class="st4" d="M3.2,14.5c0.9,1,2.1,1.7,3.4,2.1c-0.8-0.8-1.5-2-1.9-3.3C4.1,13.6,3.6,14,3.2,14.5z"/>
</g>
<g>
	<path class="st4" d="M9,17c0.1,0,0.2,0,0.3,0C9.2,17,9.1,17,9,17L9,17z"/>
</g>
<path class="st4" d="M9,1.1c0.1,0,0.2,0,0.3,0C9.2,1,9.1,1,9,1.1L9,1.1z"/>
<g>
	<path class="st4" d="M3.2,14.5c0.9,1,2.1,1.7,3.4,2.1c-0.8-0.8-1.5-2-1.9-3.3C4.1,13.6,3.6,14,3.2,14.5z"/>
</g>
<g>
	<path class="st4" d="M9,17c0.1,0,0.2,0,0.3,0C9.2,17,9.1,17,9,17L9,17z"/>
</g>
<path class="st4" d="M9,1.1c0.1,0,0.2,0,0.3,0C9.2,1,9.1,1,9,1.1L9,1.1z"/>
<g>
	<path class="st4" d="M3.2,14.5c0.9,1,2.1,1.7,3.4,2.1c-0.8-0.8-1.5-2-1.9-3.3C4.1,13.6,3.6,14,3.2,14.5z"/>
</g>
<g>
	<path class="st4" d="M9,17c0.1,0,0.2,0,0.3,0C9.2,17,9.1,17,9,17L9,17z"/>
</g>
<path class="st4" d="M9,1.1c0.1,0,0.2,0,0.3,0C9.2,1,9.1,1,9,1.1L9,1.1z"/>
<g>
	<path class="st4" d="M9,17c0.1,0,0.2,0,0.3,0C9.2,17,9.1,17,9,17L9,17z"/>
</g>
<g>
	<path class="st4" d="M3.2,14.5c0.9,1,2.1,1.7,3.4,2.1c-0.8-0.8-1.5-2-1.9-3.3C4.1,13.6,3.6,14,3.2,14.5z"/>
</g>
<path class="st4" d="M9,1.1c0.1,0,0.2,0,0.3,0C9.2,1,9.1,1,9,1.1L9,1.1z"/>
<g>
	<g>
		<path class="st4" d="M4,8h-3C1.3,6.4,2,4.9,3,3.7c0.5,0.4,1,0.8,1.6,1.2C4.3,5.8,4.1,6.9,4,8z"/>
	</g>
	<g>
		<path class="st4" d="M4.4,12.3c-0.7,0.4-1.3,0.9-1.8,1.4C1.6,12.4,1,10.8,1,9h3C4,10.2,4.1,11.3,4.4,12.3z"/>
	</g>
	<g>
		<path class="st4" d="M5,3.9C4.5,3.6,4.1,3.3,3.7,3c0.8-0.7,1.8-1.3,2.9-1.6C6,2,5.4,2.9,5,3.9z"/>
	</g>
	<g>
		<path class="st4" d="M9,11c-1.3,0-2.6,0.3-3.7,0.8C5.1,10.9,5,10,5,9h4V11z"/>
	</g>
	<g>
		<path class="st4" d="M9,16.9c-1.5-0.3-2.7-1.9-3.4-4.2C6.6,12.3,7.8,12,9,12V16.9z"/>
	</g>
	<g>
		<path class="st4" d="M10,1.1c0,0,0.1,0,0.1,0c1.1,0.3,2.1,1.3,2.8,2.9c-0.9,0.5-1.9,0.9-3,1V1.1z"/>
	</g>
	<g>
		<path class="st4" d="M5.9,4.4c0.7-1.8,1.9-3,3.1-3.3V5C7.9,5,6.8,4.8,5.9,4.4z"/>
	</g>
	<g>
		<path class="st4" d="M9,8H5c0.1-1,0.2-1.9,0.5-2.7C6.6,5.8,7.8,6,9,6V8z"/>
	</g>
	<g>
		<path class="st4" d="M4.4,12.3c-0.7,0.4-1.3,0.9-1.8,1.4C1.6,12.4,1,10.8,1,9h3C4,10.2,4.1,11.3,4.4,12.3z"/>
	</g>
	<g>
		<path class="st4" d="M5,9h4v2c-1.3,0-2.6,0.3-3.7,0.8C5.1,10.9,5,10,5,9z"/>
	</g>
	<g>
		<path class="st4" d="M9,6v2H5c0.1-1,0.2-1.9,0.5-2.7C6.6,5.8,7.8,6,9,6z"/>
	</g>
	<g>
		<path class="st4" d="M5.6,12.8C6.6,12.3,7.8,12,9,12v4.9C7.5,16.6,6.3,15,5.6,12.8z"/>
	</g>
	<g>
		<path class="st4" d="M10,1.1C9.8,1,9.6,1,9.3,1c0.1,0,0.1,0,0.2,0C9.7,1,9.8,1,10,1.1c0,0,0.1,0,0.1,0c1.1,0.3,2.1,1.3,2.8,2.9
			c-0.9,0.5-1.9,0.9-3,1V1.1z"/>
	</g>
	<g>
		<path class="st4" d="M5.9,4.4c0.7-1.8,1.9-3,3.1-3.3V5C7.9,5,6.8,4.8,5.9,4.4z"/>
	</g>
	<g>
		<path class="st4" d="M4,8h-3C1.3,6.4,2,4.9,3,3.7c0.5,0.4,1,0.8,1.6,1.2C4.3,5.8,4.1,6.9,4,8z"/>
	</g>
	<g>
		<path class="st4" d="M3.7,3c0.8-0.7,1.8-1.3,2.9-1.6C6,2,5.4,2.9,5,3.9C4.5,3.6,4.1,3.3,3.7,3z"/>
	</g>
	<g>
		<path class="st4" d="M9,6v2H5c0.1-1,0.2-1.9,0.5-2.7C6.6,5.8,7.8,6,9,6z"/>
	</g>
	<g>
		<path class="st4" d="M5,9h4v2c-1.3,0-2.6,0.3-3.7,0.8C5.1,10.9,5,10,5,9z"/>
	</g>
	<g>
		<path class="st4" d="M4.4,12.3c-0.7,0.4-1.3,0.9-1.8,1.4C1.6,12.4,1,10.8,1,9h3C4,10.2,4.1,11.3,4.4,12.3z"/>
	</g>
	<g>
		<path class="st4" d="M5.6,12.8C6.6,12.3,7.8,12,9,12v4.9C7.5,16.6,6.3,15,5.6,12.8z"/>
	</g>
	<g>
		<path class="st4" d="M10,1.1C9.8,1,9.6,1,9.3,1c0.1,0,0.1,0,0.2,0C9.7,1,9.8,1,10,1.1c0,0,0.1,0,0.1,0c1.1,0.3,2.1,1.3,2.8,2.9
			c-0.9,0.5-1.9,0.9-3,1V1.1z"/>
	</g>
	<g>
		<path class="st4" d="M4,8h-3C1.3,6.4,2,4.9,3,3.7c0.5,0.4,1,0.8,1.6,1.2C4.3,5.8,4.1,6.9,4,8z"/>
	</g>
	<g>
		<path class="st4" d="M5.9,4.4c0.7-1.8,1.9-3,3.1-3.3V5C7.9,5,6.8,4.8,5.9,4.4z"/>
	</g>
	<g>
		<path class="st4" d="M3.7,3c0.8-0.7,1.8-1.3,2.9-1.6C6,2,5.4,2.9,5,3.9C4.5,3.6,4.1,3.3,3.7,3z"/>
	</g>
	<g>
		<path class="st4" d="M5,9h4v2c-1.3,0-2.6,0.3-3.7,0.8C5.1,10.9,5,10,5,9z"/>
	</g>
	<g>
		<path class="st4" d="M9,6v2H5c0.1-1,0.2-1.9,0.5-2.7C6.6,5.8,7.8,6,9,6z"/>
	</g>
	<g>
		<path class="st4" d="M5.6,12.8C6.6,12.3,7.8,12,9,12v4.9C7.5,16.6,6.3,15,5.6,12.8z"/>
	</g>
	<g>
		<path class="st4" d="M5.9,4.4c0.7-1.8,1.9-3,3.1-3.3V5C7.9,5,6.8,4.8,5.9,4.4z"/>
	</g>
	<g>
		<path class="st4" d="M10,1.1C9.8,1,9.6,1,9.3,1c0.1,0,0.1,0,0.2,0C9.7,1,9.8,1,10,1.1c0,0,0.1,0,0.1,0c1.1,0.3,2.1,1.3,2.8,2.9
			c-0.9,0.5-1.9,0.9-3,1V1.1z"/>
	</g>
	<g>
		<path class="st4" d="M4.4,12.3c-0.7,0.4-1.3,0.9-1.8,1.4C1.6,12.4,1,10.8,1,9h3C4,10.2,4.1,11.3,4.4,12.3z"/>
	</g>
	<g>
		<path class="st4" d="M3.7,3c0.8-0.7,1.8-1.3,2.9-1.6C6,2,5.4,2.9,5,3.9C4.5,3.6,4.1,3.3,3.7,3z"/>
	</g>
	<g>
		<path class="st4" d="M4,8h-3C1.3,6.4,2,4.9,3,3.7c0.5,0.4,1,0.8,1.6,1.2C4.3,5.8,4.1,6.9,4,8z"/>
	</g>
	<g>
		<path class="st4" d="M5.6,12.8C6.6,12.3,7.8,12,9,12v4.9C7.5,16.6,6.3,15,5.6,12.8z"/>
	</g>
	<g>
		<path class="st4" d="M4.4,12.3c-0.7,0.4-1.3,0.9-1.8,1.4C1.6,12.4,1,10.8,1,9h3C4,10.2,4.1,11.3,4.4,12.3z"/>
	</g>
	<g>
		<path class="st4" d="M4,8h-3C1.3,6.4,2,4.9,3,3.7c0.5,0.4,1,0.8,1.6,1.2C4.3,5.8,4.1,6.9,4,8z"/>
	</g>
	<g>
		<path class="st4" d="M9,6v2H5c0.1-1,0.2-1.9,0.5-2.7C6.6,5.8,7.8,6,9,6z"/>
	</g>
	<g>
		<path class="st4" d="M5,9h4v2c-1.3,0-2.6,0.3-3.7,0.8C5.1,10.9,5,10,5,9z"/>
	</g>
	<g>
		<path class="st4" d="M3.7,3c0.8-0.7,1.8-1.3,2.9-1.6C6,2,5.4,2.9,5,3.9C4.5,3.6,4.1,3.3,3.7,3z"/>
	</g>
	<g>
		<path class="st4" d="M10,1.1C9.8,1,9.6,1,9.3,1c0.1,0,0.1,0,0.2,0C9.7,1,9.8,1,10,1.1c0,0,0.1,0,0.1,0c1.1,0.3,2.1,1.3,2.8,2.9
			c-0.9,0.5-1.9,0.9-3,1V1.1z"/>
	</g>
	<g>
		<path class="st4" d="M5.9,4.4c0.7-1.8,1.9-3,3.1-3.3V5C7.9,5,6.8,4.8,5.9,4.4z"/>
	</g>
	<g>
		<path class="st3" d="M14.2,15.6c0-0.4,0.1-0.8,0.2-1.1s0.3-0.5,0.6-0.9l0.8-0.8c0.3-0.4,0.5-0.7,0.5-1.1c0-0.4-0.1-0.7-0.3-0.9
			c-0.2-0.2-0.6-0.3-1-0.3c-0.4,0-0.8,0.1-1,0.3c-0.3,0.2-0.4,0.5-0.4,0.8h-1.1c0-0.6,0.2-1.1,0.7-1.5c0.5-0.4,1.1-0.6,1.8-0.6
			c0.8,0,1.4,0.2,1.8,0.6s0.7,0.9,0.7,1.6c0,0.7-0.3,1.3-1,1.9l-0.7,0.6c-0.3,0.3-0.5,0.7-0.5,1.3H14.2z M14.2,17.3
			c0-0.2,0.1-0.3,0.2-0.4c0.1-0.1,0.3-0.2,0.5-0.2c0.2,0,0.4,0.1,0.5,0.2c0.1,0.1,0.2,0.3,0.2,0.4c0,0.2-0.1,0.3-0.2,0.4
			c-0.1,0.1-0.3,0.2-0.5,0.2c-0.2,0-0.4-0.1-0.5-0.2C14.2,17.7,14.2,17.5,14.2,17.3z"/>
	</g>
	<g>
		<path class="st4" d="M4,9H1c0,1.8,0.6,3.4,1.6,4.7c0.5-0.6,1.2-1,1.8-1.4C4.1,11.3,4,10.2,4,9z"/>
	</g>
	<g>
		<path class="st4" d="M6.6,1.4C5.5,1.7,4.6,2.3,3.7,3C4.1,3.3,4.5,3.6,5,3.9C5.4,2.9,6,2,6.6,1.4z"/>
	</g>
	<g>
		<path class="st4" d="M4.6,4.9C4,4.5,3.5,4.1,3,3.7C2,4.9,1.3,6.4,1.1,8h3C4.1,6.9,4.3,5.8,4.6,4.9z"/>
	</g>
	<g>
		<path class="st4" d="M5.3,11.8C6.4,11.3,7.7,11,9,11V9H5C5,10,5.1,10.9,5.3,11.8z"/>
	</g>
	<g>
		<path class="st4" d="M5.6,12.8c0.7,2.2,2,3.9,3.4,4.2V12C7.8,12,6.6,12.3,5.6,12.8z"/>
	</g>
	<g>
		<path class="st4" d="M10,4.9c1.1-0.1,2.1-0.5,3-1c-0.7-1.5-1.7-2.6-2.8-2.9c0,0-0.1,0-0.1,0C9.8,1,9.7,1,9.5,1C9.4,1,9.4,1,9.3,1
			C9.6,1,9.8,1,10,1.1V4.9z"/>
	</g>
	<g>
		<path class="st4" d="M5,8h4V6C7.8,6,6.6,5.8,5.5,5.3C5.3,6.1,5.1,7,5,8z"/>
	</g>
	<g>
		<path class="st4" d="M5.9,4.4C6.8,4.8,7.9,5,9,5V1.1C7.7,1.3,6.6,2.6,5.9,4.4z"/>
	</g>
	<g>
		<path class="st4" d="M6.6,1.4C5.5,1.7,4.6,2.3,3.7,3C4.1,3.3,4.5,3.6,5,3.9C5.4,2.9,6,2,6.6,1.4z"/>
	</g>
	<g>
		<path class="st4" d="M4,9H1c0,1.8,0.6,3.4,1.6,4.7c0.5-0.6,1.2-1,1.8-1.4C4.1,11.3,4,10.2,4,9z"/>
	</g>
	<g>
		<path class="st4" d="M5.3,11.8C6.4,11.3,7.7,11,9,11V9H5C5,10,5.1,10.9,5.3,11.8z"/>
	</g>
	<g>
		<path class="st4" d="M4.6,4.9C4,4.5,3.5,4.1,3,3.7C2,4.9,1.3,6.4,1.1,8h3C4.1,6.9,4.3,5.8,4.6,4.9z"/>
	</g>
	<g>
		<path class="st4" d="M5.6,12.8c0.7,2.2,2,3.9,3.4,4.2V12C7.8,12,6.6,12.3,5.6,12.8z"/>
	</g>
	<g>
		<path class="st4" d="M5,8h4V6C7.8,6,6.6,5.8,5.5,5.3C5.3,6.1,5.1,7,5,8z"/>
	</g>
	<g>
		<path class="st4" d="M10,4.9c1.1-0.1,2.1-0.5,3-1c-0.7-1.5-1.7-2.6-2.8-2.9c0,0-0.1,0-0.1,0C9.8,1,9.7,1,9.5,1C9.4,1,9.4,1,9.3,1
			C9.6,1,9.8,1,10,1.1V4.9z"/>
	</g>
	<g>
		<path class="st4" d="M5.9,4.4C6.8,4.8,7.9,5,9,5V1.1C7.7,1.3,6.6,2.6,5.9,4.4z"/>
	</g>
	<g>
		<path class="st4" d="M4,9H1c0,1.8,0.6,3.4,1.6,4.7c0.5-0.6,1.2-1,1.8-1.4C4.1,11.3,4,10.2,4,9z"/>
	</g>
	<g>
		<path class="st4" d="M4.6,4.9C4,4.5,3.5,4.1,3,3.7C2,4.9,1.3,6.4,1.1,8h3C4.1,6.9,4.3,5.8,4.6,4.9z"/>
	</g>
	<g>
		<path class="st4" d="M5.3,11.8C6.4,11.3,7.7,11,9,11V9H5C5,10,5.1,10.9,5.3,11.8z"/>
	</g>
	<g>
		<path class="st4" d="M5.6,12.8c0.7,2.2,2,3.9,3.4,4.2V12C7.8,12,6.6,12.3,5.6,12.8z"/>
	</g>
	<g>
		<path class="st4" d="M6.6,1.4C5.5,1.7,4.6,2.3,3.7,3C4.1,3.3,4.5,3.6,5,3.9C5.4,2.9,6,2,6.6,1.4z"/>
	</g>
	<g>
		<path class="st4" d="M10.1,1.1c0,0-0.1,0-0.1,0C9.8,1,9.7,1,9.5,1C9.4,1,9.4,1,9.3,1C9.6,1,9.8,1,10,1.1v3.9c1.1-0.1,2.1-0.5,3-1
			C12.2,2.4,11.2,1.4,10.1,1.1z"/>
	</g>
	<g>
		<path class="st4" d="M5.9,4.4C6.8,4.8,7.9,5,9,5V1.1C7.7,1.3,6.6,2.6,5.9,4.4z"/>
	</g>
	<g>
		<path class="st4" d="M5,8h4V6C7.8,6,6.6,5.8,5.5,5.3C5.3,6.1,5.1,7,5,8z"/>
	</g>
	<g>
		<path class="st4" d="M4,9H1c0,1.8,0.6,3.4,1.6,4.7c0.5-0.6,1.2-1,1.8-1.4C4.1,11.3,4,10.2,4,9z"/>
	</g>
	<g>
		<path class="st4" d="M5,8h4V6C7.8,6,6.6,5.8,5.5,5.3C5.3,6.1,5.1,7,5,8z"/>
	</g>
	<g>
		<path class="st4" d="M5.3,11.8C6.4,11.3,7.7,11,9,11V9H5C5,10,5.1,10.9,5.3,11.8z"/>
	</g>
	<g>
		<path class="st4" d="M4.6,4.9C4,4.5,3.5,4.1,3,3.7C2,4.9,1.3,6.4,1.1,8h3C4.1,6.9,4.3,5.8,4.6,4.9z"/>
	</g>
	<g>
		<path class="st4" d="M5.6,12.8c0.7,2.2,2,3.9,3.4,4.2V12C7.8,12,6.6,12.3,5.6,12.8z"/>
	</g>
	<g>
		<path class="st4" d="M6.6,1.4C5.5,1.7,4.6,2.3,3.7,3C4.1,3.3,4.5,3.6,5,3.9C5.4,2.9,6,2,6.6,1.4z"/>
	</g>
	<g>
		<path class="st4" d="M5.9,4.4C6.8,4.8,7.9,5,9,5V1.1C7.7,1.3,6.6,2.6,5.9,4.4z"/>
	</g>
	<g>
		<path class="st4" d="M10.1,1.1c0,0-0.1,0-0.1,0C9.8,1,9.7,1,9.5,1C9.4,1,9.4,1,9.3,1C9.6,1,9.8,1,10,1.1v3.9c1.1-0.1,2.1-0.5,3-1
			C12.2,2.4,11.2,1.4,10.1,1.1z"/>
	</g>
	<g>
		<path class="st4" d="M4,9H1c0,1.8,0.6,3.4,1.6,4.7c0.5-0.6,1.2-1,1.8-1.4C4.1,11.3,4,10.2,4,9z"/>
	</g>
	<g>
		<path class="st4" d="M4.6,4.9C4,4.5,3.5,4.1,3,3.7C2,4.9,1.3,6.4,1.1,8h3C4.1,6.9,4.3,5.8,4.6,4.9z"/>
	</g>
	<g>
		<path class="st4" d="M6.6,1.4C5.5,1.7,4.6,2.3,3.7,3C4.1,3.3,4.5,3.6,5,3.9C5.4,2.9,6,2,6.6,1.4z"/>
	</g>
	<g>
		<path class="st4" d="M5.6,12.8c0.7,2.2,2,3.9,3.4,4.2V12C7.8,12,6.6,12.3,5.6,12.8z"/>
	</g>
	<g>
		<path class="st4" d="M5.3,11.8C6.4,11.3,7.7,11,9,11V9H5C5,10,5.1,10.9,5.3,11.8z"/>
	</g>
	<g>
		<path class="st4" d="M5,8h4V6C7.8,6,6.6,5.8,5.5,5.3C5.3,6.1,5.1,7,5,8z"/>
	</g>
	<g>
		<path class="st4" d="M10.1,1.1c0,0-0.1,0-0.1,0C9.8,1,9.7,1,9.5,1C9.4,1,9.4,1,9.3,1C9.6,1,9.8,1,10,1.1v3.9c1.1-0.1,2.1-0.5,3-1
			C12.2,2.4,11.2,1.4,10.1,1.1z"/>
	</g>
	<g>
		<path class="st4" d="M5.9,4.4C6.8,4.8,7.9,5,9,5V1.1C7.7,1.3,6.6,2.6,5.9,4.4z"/>
	</g>
	<g>
		<path class="st4" d="M4,9H1c0,1.8,0.6,3.4,1.6,4.7c0.5-0.6,1.2-1,1.8-1.4C4.1,11.3,4,10.2,4,9z"/>
	</g>
	<g>
		<path class="st4" d="M4.6,4.9C4,4.5,3.5,4.1,3,3.7C2,4.9,1.3,6.4,1.1,8h3C4.1,6.9,4.3,5.8,4.6,4.9z"/>
	</g>
	<g>
		<path class="st4" d="M5.6,12.8c0.7,2.2,2,3.9,3.4,4.2V12C7.8,12,6.6,12.3,5.6,12.8z"/>
	</g>
	<g>
		<path class="st4" d="M5.3,11.8C6.4,11.3,7.7,11,9,11V9H5C5,10,5.1,10.9,5.3,11.8z"/>
	</g>
	<g>
		<path class="st4" d="M6.6,1.4C5.5,1.7,4.6,2.3,3.7,3C4.1,3.3,4.5,3.6,5,3.9C5.4,2.9,6,2,6.6,1.4z"/>
	</g>
	<g>
		<path class="st4" d="M10.1,1.1c0,0-0.1,0-0.1,0C9.8,1,9.7,1,9.5,1C9.4,1,9.4,1,9.3,1C9.6,1,9.8,1,10,1.1v3.9c1.1-0.1,2.1-0.5,3-1
			C12.2,2.4,11.2,1.4,10.1,1.1z"/>
	</g>
	<g>
		<path class="st4" d="M5,8h4V6C7.8,6,6.6,5.8,5.5,5.3C5.3,6.1,5.1,7,5,8z"/>
	</g>
	<g>
		<path class="st4" d="M5.9,4.4C6.8,4.8,7.9,5,9,5V1.1C7.7,1.3,6.6,2.6,5.9,4.4z"/>
	</g>
	<path class="st1" d="M15.7,3c-0.2-0.2-0.5-0.5-0.7-0.7c-1.3-1.2-2.9-1.9-4.7-2.2c-0.1,0-0.2,0-0.3,0C9.8,0,9.5,0,9.3,0
		C9.2,0,9.1,0,9,0v0C6.7,0,4.6,0.9,3,2.3C2.8,2.5,2.5,2.8,2.3,3c-1.2,1.4-2,3.1-2.2,5C0,8.3,0,8.7,0,9c0,2.1,0.7,4,1.9,5.5
		c0.2,0.3,0.4,0.5,0.7,0.8C4.2,17,6.5,18,9,18v0c0.1,0,0.2,0,0.3,0c0.2,0,0.5,0,0.7,0c0.1,0,0.2,0,0.3,0c1-0.1,1.9-0.4,2.7-0.8V14
		l0,0c-0.7,1.5-1.7,2.6-2.9,2.9c0,0-0.1,0-0.1,0C9.8,17,9.7,17,9.5,17c-0.1,0-0.1,0-0.2,0c-0.1,0-0.2,0-0.3,0v-0.1
		c-1.5-0.3-2.7-1.9-3.4-4.2C6.6,12.3,7.8,12,9,12v4.9c0.1,0,0.2,0,0.3,0c0.2,0,0.5,0,0.7-0.1V14l-0.4,0l0.4-0.4V13v-0.9
		c0.3,0,0.5,0.1,0.8,0.2L11,12v-0.8c-0.3-0.1-0.7-0.2-1-0.2V9h1V8h-1V5.9c1.2-0.1,2.3-0.5,3.3-1.1c0.3,0.9,0.5,2,0.6,3.1h1
		c-0.1-1.3-0.4-2.6-0.8-3.7c0.3-0.2,0.5-0.4,0.8-0.6c1,1.2,1.7,2.7,1.9,4.3H17h0.9C17.7,6.1,16.9,4.4,15.7,3z M6.6,1.4
		C6,2,5.4,2.9,5,3.9C4.5,3.6,4.1,3.3,3.7,3C4.6,2.3,5.5,1.7,6.6,1.4z M3,3.7c0.5,0.4,1,0.8,1.6,1.2C4.3,5.8,4.1,6.9,4,8h-3
		C1.3,6.4,2,4.9,3,3.7z M1,9h3c0,1.2,0.1,2.3,0.4,3.3c-0.7,0.4-1.3,0.9-1.8,1.4C1.6,12.4,1,10.8,1,9z M6.6,16.6
		c-1.3-0.4-2.5-1.2-3.4-2.1c0.4-0.5,0.9-0.9,1.5-1.2C5.1,14.7,5.8,15.8,6.6,16.6z M9,11c-1.3,0-2.6,0.3-3.7,0.8C5.1,10.9,5,10,5,9h4
		V11z M9,8H5c0.1-1,0.2-1.9,0.5-2.7C6.6,5.8,7.8,6,9,6V8z M10,4.9V1.1C9.8,1,9.6,1,9.3,1C9.2,1,9.1,1,9,1.1V5C7.9,5,6.8,4.8,5.9,4.4
		c0.7-1.8,1.9-3,3.1-3.3V1c0.1,0,0.2,0,0.3,0c0.1,0,0.1,0,0.2,0C9.7,1,9.8,1,10,1.1c0,0,0.1,0,0.1,0c1.1,0.3,2.1,1.3,2.8,2.9
		C12.1,4.5,11.1,4.8,10,4.9z"/>
</g>
</svg>
