<?xml version="1.0" encoding="utf-8"?>
<!-- Generator: Adobe Illustrator 21.0.0, SVG Export Plug-In . SVG Version: 6.00 Build 0)  -->
<svg version="1.1" id="Layer_1" xmlns="http://www.w3.org/2000/svg" xmlns:xlink="http://www.w3.org/1999/xlink" x="0px" y="0px"
	 width="18px" height="18px" viewBox="0 0 18 18" style="enable-background:new 0 0 18 18;" xml:space="preserve">
<style type="text/css">
	.st0{fill:#FFFFFF;}
	.st1{fill:#2F80D1;}
	.st2{fill:#606060;}
	.st3{fill:#47B747;}
	.st4{fill:none;}
	.st5{fill:#FF6364;}
	.st6{fill:#F2ADAD;}
	.st7{fill:#020201;}
	.st8{fill:#FEFEFE;}
	.st9{fill:#FCED21;}
</style>
<g>
	<g>
		<path class="st1" d="M8,7.7c-1.7,0-3,1.3-3,3c0,1,0.5,1.8,1.2,2.4l-1.6,2.4L5.4,16L7,13.6c0.3,0.1,0.6,0.2,1,0.2c1.7,0,3-1.3,3-3
			S9.7,7.7,8,7.7z M8,12.7c-1.1,0-2-0.9-2-2s0.9-2,2-2s2,0.9,2,2S9.1,12.7,8,12.7z"/>
	</g>
	<g>
		<path class="st2" d="M16,10v2c0,0,0,0.3,0.3,0.5C16,12.8,16,13,16,13v4H2V7c0,0,0-0.3-0.3-0.5C2,6.3,2,6,2,6V1h2V0H1v1v5H0v1h1v11
			h1h15v-1v-4h1v-1h-1v-2H16z"/>
	</g>
	<g>
		<path class="st3" d="M13.2,6.6c0-0.4,0.1-0.8,0.2-1.1s0.3-0.5,0.6-0.9l0.8-0.8c0.3-0.4,0.5-0.7,0.5-1.1c0-0.4-0.1-0.7-0.3-0.9
			c-0.2-0.2-0.6-0.3-1-0.3c-0.4,0-0.8,0.1-1,0.3c-0.3,0.2-0.4,0.5-0.4,0.8h-1.1c0-0.6,0.2-1.1,0.7-1.5c0.5-0.4,1.1-0.6,1.8-0.6
			c0.8,0,1.4,0.2,1.8,0.6s0.7,0.9,0.7,1.6c0,0.7-0.3,1.3-1,1.9l-0.7,0.6c-0.3,0.3-0.5,0.7-0.5,1.3H13.2z M13.2,8.3
			c0-0.2,0.1-0.3,0.2-0.4c0.1-0.1,0.3-0.2,0.5-0.2c0.2,0,0.4,0.1,0.5,0.2c0.1,0.1,0.2,0.3,0.2,0.4c0,0.2-0.1,0.3-0.2,0.4
			c-0.1,0.1-0.3,0.2-0.5,0.2c-0.2,0-0.4-0.1-0.5-0.2C13.2,8.7,13.2,8.5,13.2,8.3z"/>
	</g>
</g>
</svg>
