<?xml version="1.0" encoding="utf-8"?>
<!-- Generator: Adobe Illustrator 21.0.0, SVG Export Plug-In . SVG Version: 6.00 Build 0)  -->
<svg version="1.1" id="Layer_1" xmlns="http://www.w3.org/2000/svg" xmlns:xlink="http://www.w3.org/1999/xlink" x="0px" y="0px"
	 width="18px" height="18px" viewBox="0 0 18 18" style="enable-background:new 0 0 18 18;" xml:space="preserve">
<style type="text/css">
	.st0{fill:#FFFFFF;}
	.st1{fill:#2F80D1;}
	.st2{fill:#606060;}
	.st3{fill:#47B747;}
	.st4{fill:none;}
	.st5{fill:#FF6364;}
	.st6{fill:#F2ADAD;}
	.st7{fill:#020201;}
	.st8{fill:#FEFEFE;}
	.st9{fill:#FCED21;}
</style>
<g>
	<g>
		<path class="st1" d="M5.5,3.1C5.2,3,5,3,4.8,3C4.5,3,4.2,3,4,3.2C3.7,3.3,3.5,3.5,3.4,3.8C3.2,4,3.2,4.3,3.2,4.6s0.1,0.6,0.2,0.8
			C3.5,5.6,3.7,5.8,4,6c0.2,0.1,0.5,0.2,0.8,0.2c0.2,0,0.5,0,0.7-0.2C5.7,6,5.9,5.8,6.1,5.6l0.5,0.6C6.4,6.5,6.1,6.7,5.7,6.8
			C5.4,7,5.1,7.1,4.7,7.1C4.3,7.1,3.8,7,3.4,6.7C3.1,6.5,2.8,6.2,2.5,5.8C2.3,5.5,2.2,5,2.2,4.6s0.1-0.9,0.3-1.3
			C2.8,3,3.1,2.7,3.5,2.5c0.4-0.2,0.8-0.3,1.3-0.3c0.3,0,0.7,0.1,1,0.2c0.3,0.1,0.6,0.3,0.8,0.6L6.1,3.6C5.9,3.4,5.7,3.2,5.5,3.1z"
			/>
		<path class="st1" d="M12.3,7.5c-0.2,0.2-0.4,0.3-0.6,0.4C11.4,8,11.2,8.1,11,8.1c-0.3,0-0.6-0.1-0.8-0.3C9.9,7.6,9.6,7.4,9.4,7.1
			C9,7.1,8.5,7,8.2,6.7S7.5,6.2,7.2,5.8C7,5.5,6.9,5,6.9,4.6S7,3.7,7.2,3.3C7.5,3,7.8,2.7,8.2,2.5C8.5,2.2,9,2.1,9.5,2.1
			s0.9,0.1,1.3,0.3c0.4,0.2,0.7,0.5,0.9,0.9C11.9,3.7,12,4.1,12,4.6c0,0.4-0.1,0.7-0.2,1c-0.1,0.3-0.3,0.6-0.6,0.8
			c-0.3,0.2-0.5,0.4-0.9,0.5c0.2,0.3,0.5,0.4,0.7,0.4c0.2,0,0.5-0.1,0.9-0.4L12.3,7.5z M8.1,5.4C8.2,5.7,8.4,5.9,8.7,6
			s0.5,0.2,0.8,0.2c0.3,0,0.6-0.1,0.8-0.2c0.2-0.1,0.4-0.3,0.6-0.6s0.2-0.5,0.2-0.8S11,4,10.9,3.8c-0.1-0.3-0.3-0.4-0.6-0.6
			C10,3,9.8,3,9.5,3C9.2,3,8.9,3,8.7,3.2C8.4,3.3,8.2,3.5,8.1,3.8C7.9,4,7.8,4.3,7.8,4.6S7.9,5.2,8.1,5.4z"/>
		<path class="st1" d="M12.9,2.2h0.9v4h2.1V7h-3V2.2z"/>
	</g>
	<g>
		<polygon class="st2" points="0,0 18,0 18,9 17,9 17,1 1,1 1,17 9,17 9,18 0,18 		"/>
	</g>
	<g>
		<path class="st3" d="M14.2,15.6c0-0.4,0.1-0.8,0.2-1.1s0.3-0.5,0.6-0.9l0.8-0.8c0.3-0.4,0.5-0.7,0.5-1.1c0-0.4-0.1-0.7-0.3-0.9
			c-0.2-0.2-0.6-0.3-1-0.3c-0.4,0-0.8,0.1-1,0.3c-0.3,0.2-0.4,0.5-0.4,0.8h-1.1c0-0.6,0.2-1.1,0.7-1.5c0.5-0.4,1.1-0.6,1.8-0.6
			c0.8,0,1.4,0.2,1.8,0.6s0.7,0.9,0.7,1.6c0,0.7-0.3,1.3-1,1.9l-0.7,0.6c-0.3,0.3-0.5,0.7-0.5,1.3H14.2z M14.2,17.3
			c0-0.2,0.1-0.3,0.2-0.4c0.1-0.1,0.3-0.2,0.5-0.2c0.2,0,0.4,0.1,0.5,0.2c0.1,0.1,0.2,0.3,0.2,0.4c0,0.2-0.1,0.3-0.2,0.4
			c-0.1,0.1-0.3,0.2-0.5,0.2c-0.2,0-0.4-0.1-0.5-0.2C14.2,17.7,14.2,17.5,14.2,17.3z"/>
	</g>
</g>
</svg>
