<?xml version="1.0" encoding="utf-8"?>
<!-- Generator: Adobe Illustrator 21.0.0, SVG Export Plug-In . SVG Version: 6.00 Build 0)  -->
<svg version="1.1" id="Layer_1" xmlns="http://www.w3.org/2000/svg" xmlns:xlink="http://www.w3.org/1999/xlink" x="0px" y="0px"
	 width="18px" height="18px" viewBox="0 0 18 18" style="enable-background:new 0 0 18 18;" xml:space="preserve">
<style type="text/css">
	.st0{fill:#FFFFFF;}
	.st1{fill:#2F80D1;}
	.st2{fill:#606060;}
	.st3{fill:#47B747;}
	.st4{fill:none;}
	.st5{fill:#FF6364;}
	.st6{fill:#F2ADAD;}
	.st7{fill:#020201;}
	.st8{fill:#FEFEFE;}
	.st9{fill:#FCED21;}
</style>
<g>
	<g>
		<path class="st1" d="M2,3v12h14v-1v-2.1V3H2z M13,8.8L9,14L5,9.8l-2,2.8V4h12v6.8L13,8.8z"/>
		<circle class="st1" cx="7.8" cy="6.8" r="1.8"/>
	</g>
	<g>
		<polygon class="st2" points="17,0 12,0 12,1 17,1 17,6 18,6 18,1 18,0 		"/>
		<polygon class="st2" points="0,0 0,1 0,6 1,6 1,1 6,1 6,0 1,0 		"/>
		<polygon class="st2" points="17,17 12,17 12,18 17,18 18,18 18,17 18,12 17,12 		"/>
		<polygon class="st2" points="1,12 0,12 0,17 0,18 1,18 6,18 6,17 1,17 		"/>
	</g>
</g>
</svg>
