<?xml version="1.0" encoding="utf-8"?>
<!-- Generator: Adobe Illustrator 21.0.0, SVG Export Plug-In . SVG Version: 6.00 Build 0)  -->
<svg version="1.1" id="Layer_1" xmlns="http://www.w3.org/2000/svg" xmlns:xlink="http://www.w3.org/1999/xlink" x="0px" y="0px"
	 width="18px" height="18px" viewBox="0 0 18 18" style="enable-background:new 0 0 18 18;" xml:space="preserve">
<style type="text/css">
	.st0{fill:#FFFFFF;}
	.st1{fill:#2F80D1;}
	.st2{fill:#606060;}
	.st3{fill:#47B747;}
	.st4{fill:none;}
	.st5{fill:#FF6364;}
	.st6{fill:#F2ADAD;}
	.st7{fill:#020201;}
	.st8{fill:#FEFEFE;}
	.st9{fill:#FCED21;}
</style>
<g>
	<g>
		<rect x="14" y="2" class="st1" width="1" height="5"/>
		<path class="st1" d="M10,7c1.1,0,2-1.1,2-2.5C12,3.1,11.1,2,10,2S8,3.1,8,4.5C8,5.9,8.9,7,10,7z M10,3c0.5,0,1,0.7,1,1.5
			S10.5,6,10,6S9,5.3,9,4.5S9.5,3,10,3z"/>
		<path class="st1" d="M4,11c-1.1,0-2,1.1-2,2.5C2,14.9,2.9,16,4,16s2-1.1,2-2.5C6,12.1,5.1,11,4,11z M4,15c-0.5,0-1-0.7-1-1.5
			S3.5,12,4,12s1,0.7,1,1.5S4.5,15,4,15z"/>
		<path class="st1" d="M4,2C2.9,2,2,3.1,2,4.5C2,5.9,2.9,7,4,7s2-1.1,2-2.5C6,3.1,5.1,2,4,2z M4,6C3.5,6,3,5.3,3,4.5S3.5,3,4,3
			s1,0.7,1,1.5S4.5,6,4,6z"/>
		<path class="st3" d="M14.3,13.3c0.4-0.5,0.6-1.2,0.6-1.9c0-1.9-1.5-3.4-3.4-3.4C9.5,8,8,9.5,8,11.4c0,1.9,1.5,3.4,3.4,3.4
			c0.7,0,1.4-0.2,1.9-0.6l2.8,2.8l0.9-0.9L14.3,13.3z M11.4,13.5c-1.1,0-2.1-0.9-2.1-2c0-1.1,0.9-2,2.1-2c1.1,0,2.1,0.9,2.1,2
			C13.5,12.5,12.6,13.5,11.4,13.5z"/>
	</g>
	<g>
		<polygon class="st2" points="9,17 1,17 1,1 9,1 17,1 17,8 17,9 18,9 18,8 18,0 9,0 0,0 0,18 9,18 14,18 14,17 		"/>
	</g>
</g>
</svg>
