<?xml version="1.0" encoding="utf-8"?>
<!-- Generator: Adobe Illustrator 21.0.0, SVG Export Plug-In . SVG Version: 6.00 Build 0)  -->
<svg version="1.1" id="Layer_1" xmlns="http://www.w3.org/2000/svg" xmlns:xlink="http://www.w3.org/1999/xlink" x="0px" y="0px"
	 width="18px" height="18px" viewBox="0 0 18 18" style="enable-background:new 0 0 18 18;" xml:space="preserve">
<style type="text/css">
	.st0{fill:#FFFFFF;}
	.st1{fill:#2F80D1;}
	.st2{fill:#606060;}
	.st3{fill:#47B747;}
	.st4{fill:none;}
	.st5{fill:#FF6364;}
	.st6{fill:#F2ADAD;}
	.st7{fill:#020201;}
	.st8{fill:#FEFEFE;}
	.st9{fill:#FCED21;}
</style>
<g>
	<g>
		<path class="st3" d="M16.5,6.9c-0.4-0.2-0.9-0.6-1.3-1.3c0-0.1-0.1-0.1-0.1-0.2c-0.5-1.4-0.6-2.9-0.4-4.4C14.8,0.4,15,0,15,0
			l-0.6,0c0,0,0,0,0,0c-0.5,0-1,0-1.5,0c-0.2,0-0.3,0-0.5,0l-1.5,0c0,0,0.1,0.2,0.1,0.5C11.3,2,11.4,3.5,10.8,5
			c0,0.1-0.1,0.2-0.1,0.3c-0.4,0.8-0.9,1.2-1.3,1.4L8,5.4v3.6h3.6l-1.3-1.3c0.8-0.7,1.5-1.9,1.8-2.5c0,0,0,0,0,0
			c0.1-0.3,0.2-0.5,0.2-0.5l0,0c0-0.1,0.1-0.2,0.1-0.3c0.1-0.2,0.1-0.4,0.2-0.6c0-0.1,0.1-0.1,0.1-0.1c0,0,0.1,0.1,0.2,0.1
			C13,3.9,13.1,4,13.1,4.1c0.2,0.4,0.4,0.8,0.6,1.2c0.3,0.7,1,1.8,1.8,2.5l0,0L14.4,9H18V5.4L16.5,6.9z"/>
	</g>
	<g>
		<polygon class="st2" points="17,17 1,17 1,1 9,1 9,0 0,0 0,18 18,18 18,11 17,11 		"/>
	</g>
	<g>
		<path class="st1" d="M4,14.5c-0.2,0.2-0.5,0.3-0.9,0.3c-0.5,0-0.8-0.2-1.1-0.6l0.3-0.5c0.1,0.1,0.3,0.2,0.4,0.3
			c0.1,0.1,0.3,0.1,0.4,0.1c0.2,0,0.3,0,0.4-0.1s0.1-0.2,0.1-0.4v-1.9H2.3v-0.6h2v2.5C4.3,14,4.2,14.2,4,14.5z"/>
		<path class="st1" d="M6.9,11.7c-0.2-0.1-0.4-0.1-0.5-0.1c-0.2,0-0.3,0-0.4,0.1c-0.1,0.1-0.1,0.2-0.1,0.3c0,0.1,0,0.2,0.1,0.3
			c0.1,0.1,0.2,0.1,0.3,0.2c0.1,0,0.2,0.1,0.4,0.1c0.2,0.1,0.5,0.1,0.6,0.2c0.2,0.1,0.3,0.2,0.4,0.3c0.1,0.1,0.2,0.3,0.2,0.6
			c0,0.2-0.1,0.4-0.2,0.6c-0.1,0.2-0.3,0.3-0.5,0.4c-0.2,0.1-0.5,0.1-0.7,0.1c-0.3,0-0.6-0.1-0.8-0.2S5,14.4,4.8,14.2l0.3-0.6
			c0.2,0.2,0.4,0.3,0.6,0.4s0.4,0.1,0.6,0.1c0.2,0,0.4,0,0.5-0.1C7,14,7,13.8,7,13.7c0-0.1,0-0.2-0.1-0.3c-0.1-0.1-0.2-0.1-0.3-0.2
			s-0.2-0.1-0.4-0.1C6,13.1,5.8,13,5.6,12.9c-0.2-0.1-0.3-0.2-0.4-0.3S5,12.3,5,12.1c0-0.2,0.1-0.4,0.2-0.6s0.3-0.3,0.5-0.4
			C5.9,11,6.1,11,6.4,11c0.2,0,0.5,0,0.7,0.1c0.2,0.1,0.4,0.2,0.6,0.3L7.5,12C7.3,11.9,7.1,11.8,6.9,11.7z"/>
		<path class="st1" d="M11.1,11.3c0.3,0.2,0.5,0.4,0.7,0.7c0.2,0.3,0.3,0.6,0.3,1c0,0.3-0.1,0.7-0.3,1c-0.2,0.3-0.4,0.5-0.7,0.7
			c-0.3,0.2-0.6,0.3-1,0.3s-0.7-0.1-1-0.3c-0.3-0.2-0.5-0.4-0.7-0.7s-0.3-0.6-0.3-1c0-0.4,0.1-0.7,0.3-1s0.4-0.5,0.7-0.7
			c0.3-0.2,0.6-0.2,1-0.2S10.8,11.1,11.1,11.3z M9.5,11.8c-0.2,0.1-0.3,0.3-0.5,0.5c-0.1,0.2-0.2,0.4-0.2,0.6c0,0.2,0.1,0.4,0.2,0.6
			c0.1,0.2,0.3,0.3,0.5,0.5s0.4,0.2,0.6,0.2c0.2,0,0.4-0.1,0.6-0.2s0.3-0.3,0.4-0.5c0.1-0.2,0.2-0.4,0.2-0.6c0-0.2-0.1-0.4-0.2-0.6
			s-0.3-0.3-0.4-0.5c-0.2-0.1-0.4-0.2-0.6-0.2C9.9,11.6,9.7,11.7,9.5,11.8z"/>
		<path class="st1" d="M15.3,11.1h0.7v3.7h-0.7l-1.9-2.5v2.5h-0.7v-3.7h0.7l1.9,2.5V11.1z"/>
	</g>
</g>
</svg>
