<?xml version="1.0" encoding="utf-8"?>
<!-- Generator: Adobe Illustrator 21.0.0, SVG Export Plug-In . SVG Version: 6.00 Build 0)  -->
<svg version="1.1" id="Layer_1" xmlns="http://www.w3.org/2000/svg" xmlns:xlink="http://www.w3.org/1999/xlink" x="0px" y="0px"
	 width="18px" height="18px" viewBox="0 0 18 18" style="enable-background:new 0 0 18 18;" xml:space="preserve">
<style type="text/css">
	.st0{fill:#FFFFFF;}
	.st1{fill:#2F80D1;}
	.st2{fill:#606060;}
	.st3{fill:#47B747;}
	.st4{fill:none;}
	.st5{fill:#FF6364;}
	.st6{fill:#F2ADAD;}
	.st7{fill:#020201;}
	.st8{fill:#FEFEFE;}
	.st9{fill:#FCED21;}
</style>
<g>
	<g>
		<path class="st2" d="M9,11v7h9v-7H9z M10,12.5l2.5,2l-2.5,2V12.5z M13.5,14L11,12h5L13.5,14z M13.3,15.1c0.1-0.1,0.3-0.1,0.4,0
			l2.4,1.9h-5.2L13.3,15.1z M14.5,14.5l2.5-2v4L14.5,14.5z"/>
	</g>
	<g>
		<path class="st2" d="M14,2.1c0-1.2-3.6-1.9-7-1.9c-3.4,0-7,0.7-7,1.9c0,0,0,0,0,0v0.3c0,0,0,0,0,0c0,0,0,0,0,0v3.1
			c0,0,0,0.1,0,0.1C0,6.2,2.7,7,7,7c4.3,0,7-0.8,7-1.3c0,0,0-0.1,0-0.1L14,2.1L14,2.1z M7,4.2c-3,0-5.4-0.5-5.4-1.3
			C1.6,2.1,4,1.4,7,1.4c3,0,5.4,0.7,5.4,1.5C12.4,3.7,10,4.2,7,4.2z"/>
		<path class="st2" d="M0,8.3V11c0,0,0,0.1,0,0.1c0,0.5,2.7,1.3,7,1.3c0.3,0,0.7,0,1,0V10h6V8.3c-1.5,0.6-4.3,0.9-7,0.9
			C4.3,9.2,1.5,8.9,0,8.3z"/>
		<path class="st2" d="M0,13.8V16c0,0,0,0,0,0C0,17.3,3.6,18,7,18c0.3,0,0.7,0,1,0v-3.3c-0.3,0-0.7,0-1,0C4.3,14.7,1.5,14.4,0,13.8z
			"/>
	</g>
</g>
</svg>
