<?xml version="1.0" encoding="utf-8"?>
<!-- Generator: Adobe Illustrator 19.2.0, SVG Export Plug-In . SVG Version: 6.00 Build 0)  -->
<svg version="1.1" id="Layer_1" xmlns="http://www.w3.org/2000/svg" xmlns:xlink="http://www.w3.org/1999/xlink" x="0px" y="0px"
	 width="32px" height="32px" viewBox="0 0 32 32" enable-background="new 0 0 32 32" xml:space="preserve">
<g>
	<g>
		<path fill="#CAF1FA" d="M27.6,29.5H3.4c-1,0-1.9-0.8-1.9-1.9V3.4c0-1,0.8-1.9,1.9-1.9h24.3c1,0,1.9,0.8,1.9,1.9v24.3
			C29.5,28.7,28.7,29.5,27.6,29.5z"/>
		<path fill="none" stroke="#64CBFF" stroke-miterlimit="10" d="M27.6,29.5H3.4c-1,0-1.9-0.8-1.9-1.9V3.4c0-1,0.8-1.9,1.9-1.9h24.3
			c1,0,1.9,0.8,1.9,1.9v24.3C29.5,28.7,28.7,29.5,27.6,29.5z"/>
	</g>
	<g>
		<g>
			<polygon fill="#365976" points="24,24 7,24 7,6 18,6 24,10 			"/>
			<line fill="none" stroke="#F9F9F9" stroke-miterlimit="10" x1="13.5" y1="13" x2="13.5" y2="21"/>
			<g>
				<line fill="none" stroke="#F9F9F9" stroke-miterlimit="10" x1="17.5" y1="21" x2="17.5" y2="13"/>
			</g>
			<polygon fill="#F9F9F9" points="17,7 17,11 23,11 			"/>
			<rect x="9.5" y="13.5" fill="none" stroke="#F9F9F9" stroke-miterlimit="10" width="12" height="8"/>
		</g>
		<line fill="none" stroke="#F9F9F9" stroke-miterlimit="10" x1="10" y1="17.5" x2="21" y2="17.5"/>
	</g>
</g>
</svg>
