<?xml version="1.0" encoding="utf-8"?>
<!-- Generator: Adobe Illustrator 19.2.0, SVG Export Plug-In . SVG Version: 6.00 Build 0)  -->
<svg version="1.1" id="Layer_1" xmlns="http://www.w3.org/2000/svg" xmlns:xlink="http://www.w3.org/1999/xlink" x="0px" y="0px"
	 width="32px" height="32px" viewBox="0 0 32 32" enable-background="new 0 0 32 32" xml:space="preserve">
<g>
	<g>
		<path fill="#9FBBBA" d="M27,11V7c0-1.1-0.9-2-2-2H7C5.9,5,5,5.9,5,7v4"/>
	</g>
	<path fill="#365976" d="M25,27H7c-1.1,0-2-0.9-2-2V7c0-1.1,0.9-2,2-2h18c1.1,0,2,0.9,2,2v4h-1V7c0-0.6-0.4-1-1-1H7C6.4,6,6,6.4,6,7
		v18c0,0.6,0.4,1,1,1h18V27z"/>
	<path fill="#365976" d="M7,27h18c1.1,0,2-0.9,2-2V7c0-1.1-0.9-2-2-2H7C5.9,5,5,5.9,5,7v4h1V7c0-0.6,0.4-1,1-1h18c0.6,0,1,0.4,1,1
		v18c0,0.6-0.4,1-1,1H7V27z"/>
	<g>
		<circle fill="none" stroke="#996B4A" stroke-width="1.5" stroke-miterlimit="10" cx="19" cy="15.5" r="2.3"/>
		<circle fill="none" stroke="#996B4A" stroke-width="1.5" stroke-miterlimit="10" cx="10.5" cy="21" r="2.3"/>
	</g>
	<line fill="none" stroke="#996B4A" stroke-miterlimit="10" x1="26" y1="15.5" x2="21" y2="15.5"/>
	<polyline fill="none" stroke="#996B4A" stroke-miterlimit="10" points="10.5,19 10.5,15.5 11,15.5 17,15.5 	"/>
</g>
</svg>
