<svg xmlns="http://www.w3.org/2000/svg" width="18" height="18" viewBox="0 0 18 18"><title>tab_server</title><g id="Layer_2" data-name="Layer 2"><g id="Layer_1-2" data-name="Layer 1"><path d="M17,13H1a1,1,0,0,0-1,1v3a1,1,0,0,0,1,1H17a1,1,0,0,0,1-1V14A1,1,0,0,0,17,13Zm0,3a1,1,0,0,1-1,1H2a1,1,0,0,1-1-1V15a1,1,0,0,1,1-1H16a1,1,0,0,1,1,1Z"/><rect x="2" y="15" width="6" height="1"/><rect x="13" y="15" width="1" height="1"/><rect x="15" y="15" width="1" height="1"/><path d="M17,0H1A1,1,0,0,0,0,1V4A1,1,0,0,0,1,5H17a1,1,0,0,0,1-1V1A1,1,0,0,0,17,0ZM8,3H2V2H8Zm6,0H13V2h1Zm2,0H15V2h1Z"/><path d="M17,6H1A1,1,0,0,0,0,7v3a1,1,0,0,0,1,1H17a1,1,0,0,0,1-1V7A1,1,0,0,0,17,6ZM8,9H2V8H8Zm6,0H13V8h1Zm2,0H15V8h1Z"/></g></g></svg>