<?xml version="1.0" encoding="utf-8"?>
<!-- Generator: Adobe Illustrator 21.0.0, SVG Export Plug-In . SVG Version: 6.00 Build 0)  -->
<svg version="1.1" id="Layer_1" xmlns="http://www.w3.org/2000/svg" xmlns:xlink="http://www.w3.org/1999/xlink" x="0px" y="0px"
	 width="18px" height="18px" viewBox="0 0 18 18" style="enable-background:new 0 0 18 18;" xml:space="preserve">
<style type="text/css">
	.st0{fill:#FFFFFF;}
	.st1{fill:#2F80D1;}
	.st2{fill:#606060;}
	.st3{fill:#47B747;}
	.st4{fill:none;}
	.st5{fill:#FF6364;}
	.st6{fill:#F2ADAD;}
	.st7{fill:#020201;}
	.st8{fill:#FEFEFE;}
	.st9{fill:#FCED21;}
</style>
<g>
	<g>
		<polygon class="st2" points="0,0 0,18 9,18 9,17 1,17 1,1 17,1 17,9 18,9 18,0 		"/>
	</g>
	<g>
		<rect x="5" y="3" class="st1" width="9" height="1"/>
		<rect x="3" y="3" class="st1" width="1" height="1"/>
		<rect x="3" y="7" class="st1" width="1" height="1"/>
		<rect x="3" y="11" class="st1" width="1" height="1"/>
		<rect x="5" y="7" class="st1" width="7" height="1"/>
		<rect x="5" y="11" class="st1" width="3" height="1"/>
	</g>
	<g>
		<path class="st3" d="M18,11.3c-0.6,0.4-1.3,0.5-2,0.3c-0.2-0.1-0.4-0.1-0.6-0.2c-0.6-0.1-1.2,0-1.7,0.3c0,0-0.1,0-0.1,0
			c-0.4-0.6-1-1-1.6-1.2c-0.8-0.2-1.3-0.7-1.7-1.5c0,0,0-0.1-0.1-0.1c0,0.5,0,1,0.2,1.4c0.2,0.9,0.7,1.7,1.4,2.2
			c0.3,0.2,0.5,0.4,0.7,0.7c0.1,0.1,0.1,0.2,0,0.4c-0.1,0.3-0.3,0.5-0.4,0.8c-0.1,0.3-0.2,0.6-0.3,1c-0.1,0.4-0.2,0.9-0.1,1.4
			c0,0.4,0.1,0.8,0.2,1.1l2.4,0L14,17.6c-0.1-0.1-0.1-0.2-0.2-0.4c-0.3-0.6-0.4-1.2-0.4-1.9c0-0.3,0-0.6,0-0.9
			c0-0.4,0.1-0.6,0.4-0.8c0.3-0.2,0.6-0.2,1-0.2c0.9,0,1.7-0.3,2.3-0.9C17.4,12.2,17.8,11.8,18,11.3C18,11.3,18,11.3,18,11.3z"/>
	</g>
</g>
</svg>
