<?xml version="1.0" encoding="utf-8"?>
<!-- Generator: Adobe Illustrator 21.0.0, SVG Export Plug-In . SVG Version: 6.00 Build 0)  -->
<svg version="1.1" id="Layer_1" xmlns="http://www.w3.org/2000/svg" xmlns:xlink="http://www.w3.org/1999/xlink" x="0px" y="0px"
	 width="18px" height="18px" viewBox="0 0 18 18" style="enable-background:new 0 0 18 18;" xml:space="preserve">
<style type="text/css">
	.st0{fill:#FFFFFF;}
	.st1{fill:#2F80D1;}
	.st2{fill:#606060;}
	.st3{fill:#47B747;}
	.st4{fill:none;}
	.st5{fill:#FF6364;}
	.st6{fill:#F2ADAD;}
	.st7{fill:#020201;}
	.st8{fill:#FEFEFE;}
	.st9{fill:#FCED21;}
</style>
<g>
	<g>
		<path class="st1" d="M2.3,6.8h0.9l1,1.4l1-1.4h1l-1.4,2L6.2,11h-1L4.2,9.5L3.1,11H2.2l1.5-2.2L2.3,6.8z"/>
		<path class="st1" d="M7.1,6.8h0.9l1.4,2.7l1.4-2.7h0.9V11H11V8l-1.3,2.6H9.2L7.9,8v3H7.1V6.8z"/>
		<path class="st1" d="M13.1,6.8h0.8v3.5h1.8V11h-2.6V6.8z"/>
	</g>
	<g>
		<path d="M1,4.9C1,5,1,5,1,4.9L1,4.9L1,4.9z"/>
	</g>
	<path class="st2" d="M9,0C7.4,0,5.9,0.4,4.6,1.2L3.6,0L3.1,2.2L3,2.7L2.8,3.9l3.7-0.2L5.2,2C6.3,1.4,7.6,1,9,1c4.4,0,8,3.6,8,8
		s-3.6,8-8,8s-8-3.6-8-8c0,0,0,0,0,0H0c0,0,0,0,0,0c0,5,4,9,9,9s9-4,9-9S14,0,9,0z"/>
</g>
</svg>
