<?xml version="1.0" encoding="utf-8"?>
<!-- Generator: Adobe Illustrator 21.0.0, SVG Export Plug-In . SVG Version: 6.00 Build 0)  -->
<svg version="1.1" id="Layer_1" xmlns="http://www.w3.org/2000/svg" xmlns:xlink="http://www.w3.org/1999/xlink" x="0px" y="0px"
	 width="18px" height="18px" viewBox="0 0 18 18" style="enable-background:new 0 0 18 18;" xml:space="preserve">
<style type="text/css">
	.st0{fill:#FFFFFF;}
	.st1{fill:#2F80D1;}
	.st2{fill:#606060;}
	.st3{fill:#47B747;}
	.st4{fill:none;}
	.st5{fill:#FF6364;}
	.st6{fill:#F2ADAD;}
	.st7{fill:#020201;}
	.st8{fill:#FEFEFE;}
	.st9{fill:#FCED21;}
</style>
<path class="st2" d="M17.8,8.8c-0.8-0.6-1.5-1.1-2.3-1.7C15.4,7,15.4,7,15.3,6.9c0.1-0.1,0.2-0.1,0.2-0.2c0.7-0.5,1.3-1,2-1.5
	c0.3-0.2,0.3-0.5-0.1-0.6c-1.9-0.8-3.8-1.7-5.7-2.5c-0.2-0.1-0.3-0.1-0.4,0c-0.2,0.1-0.4,0.3-0.5,0.4C10.2,3.1,9.5,3.5,8.9,4
	C8.8,4,8.7,3.9,8.7,3.9C7.9,3.3,7.2,2.8,6.4,2.2C6.3,2.1,6.2,2.1,6,2.2C4.1,3,2.2,3.8,0.2,4.7C-0.1,4.8-0.1,5,0.2,5.2
	C0.5,5.4,0.7,5.6,1,5.8C1.5,6.2,2.1,6.6,2.7,7C1.8,7.6,1,8.2,0.2,8.8C-0.1,9-0.1,9.3,0.3,9.4c0.8,0.3,1.5,0.7,2.3,1
	c0.2,0.1,0.2,0.1,0.2,0.3c0,1.3,0,2.6,0,3.9c0,0.2,0.1,0.4,0.3,0.5c1.9,0.8,3.8,1.6,5.7,2.4c0.1,0.1,0.3,0.1,0.4,0
	c1.9-0.8,3.8-1.6,5.7-2.4c0.2-0.1,0.3-0.2,0.3-0.5c0-1.3,0-2.6,0-3.9c0-0.2,0-0.2,0.2-0.3c0.8-0.3,1.6-0.7,2.3-1
	C17.8,9.3,18,9.2,18,9.1C18,9,17.9,8.8,17.8,8.8z M8.8,4.8c0.1,0,0.2-0.1,0.3,0c1.7,0.7,3.3,1.4,5,2.1c0,0,0.1,0,0.1,0.1
	c-0.9,0.4-1.7,0.7-2.6,1.1C10.8,8.5,10,8.9,9.2,9.2c-0.1,0-0.2,0-0.3,0c-1.7-0.7-3.3-1.4-5-2.1c0,0-0.1,0-0.1-0.1C3.9,7,3.9,7,4,6.9
	C5.6,6.2,7.2,5.5,8.8,4.8z"/>
</svg>
