<?xml version="1.0" encoding="utf-8"?>
<!-- Generator: Adobe Illustrator 21.0.0, SVG Export Plug-In . SVG Version: 6.00 Build 0)  -->
<svg version="1.1" id="Layer_1" xmlns="http://www.w3.org/2000/svg" xmlns:xlink="http://www.w3.org/1999/xlink" x="0px" y="0px"
	 width="18px" height="18px" viewBox="0 0 18 18" style="enable-background:new 0 0 18 18;" xml:space="preserve">
<style type="text/css">
	.st0{fill:#FFFFFF;}
	.st1{fill:#2F80D1;}
	.st2{fill:#606060;}
	.st3{fill:#47B747;}
	.st4{fill:none;}
	.st5{fill:#FF6364;}
	.st6{fill:#F2ADAD;}
	.st7{fill:#020201;}
	.st8{fill:#FEFEFE;}
	.st9{fill:#FCED21;}
</style>
<g>
	<polygon class="st2" points="17,9 17,17 1,17 1,1 9,1 9,0 0,0 0,18 18,18 18,9 	"/>
	<g>
		<polygon class="st3" points="12.6,4.7 10.8,2.9 10.1,3.5 12.6,6 18,0.6 17.4,0 		"/>
	</g>
	<g>
		<path class="st1" d="M2.3,9.8h0.9l1,1.4l1-1.4h1l-1.4,2L6.2,14h-1l-1.1-1.5L3.1,14H2.2l1.5-2.2L2.3,9.8z"/>
		<path class="st1" d="M7.1,9.8h0.9l1.4,2.7l1.4-2.7h0.9V14H11v-3l-1.3,2.6H9.2L7.9,11v3H7.1V9.8z"/>
		<path class="st1" d="M13.1,9.8h0.8v3.5h1.8V14h-2.6V9.8z"/>
	</g>
</g>
</svg>
