<?xml version="1.0" encoding="utf-8"?>
<!-- Generator: Adobe Illustrator 21.1.0, SVG Export Plug-In . SVG Version: 6.00 Build 0)  -->
<svg version="1.1" id="Layer_1" xmlns="http://www.w3.org/2000/svg" xmlns:xlink="http://www.w3.org/1999/xlink" x="0px" y="0px"
	 width="18px" height="18px" viewBox="0 0 18 18" style="enable-background:new 0 0 18 18;" xml:space="preserve">
<style type="text/css">
	.st0{fill:#EEF7C9;}
	.st1{fill:#E1E3E4;}
	.st2{fill:#B54747;}
	.st3{fill:none;stroke:#2F80D1;stroke-linecap:round;stroke-linejoin:round;stroke-miterlimit:10;}
	.st4{fill:none;stroke:#FFFFFF;stroke-linecap:round;stroke-miterlimit:10;}
	.st5{fill:none;stroke:#2F80D1;stroke-miterlimit:10;}
	.st6{fill:none;stroke:#FFFFFF;stroke-miterlimit:10;}
	.st7{fill:#606060;}
	.st8{fill:#2F80D1;}
	.st9{fill:#47B747;}
	.st10{fill:none;stroke:#606060;stroke-miterlimit:10;}
	.st11{fill:#FFFFFF;}
	.st12{fill:none;stroke:#47B747;stroke-miterlimit:10;}
	.st13{fill:none;stroke:#47B747;stroke-linecap:round;stroke-miterlimit:10;}
	.st14{fill:none;stroke:#47B747;stroke-linecap:round;stroke-linejoin:round;stroke-miterlimit:10;}
</style>
<g>
	<path class="st9" d="M17.7,11.8c-0.4-0.6-1-0.9-1.7-0.9c-1.1,0-2,0.9-2,2c0,0.3,0.2,0.5,0.5,0.5s0.5-0.2,0.5-0.5c0-0.6,0.5-1,1-1
		c0.3,0,0.7,0.2,0.9,0.5c0.1,0.2,0.3,0.5,0.1,1c-0.1,0.3-0.6,0.6-1,0.6h-3.2h0c0,0,0,0,0,0c-0.7,0-1.6,0.5-1.9,1.2
		c-0.3,0.7-0.2,1.4,0.2,2c0.4,0.6,1,0.9,1.7,0.9c1.1,0,2-0.9,2-2c0-0.3-0.2-0.5-0.5-0.5s-0.5,0.2-0.5,0.5c0,0.6-0.5,1-1,1
		c-0.3,0-0.7-0.2-0.9-0.5c-0.1-0.2-0.3-0.5-0.1-1c0.1-0.3,0.6-0.6,1-0.6h3.2c0.7,0,1.6-0.5,1.9-1.2C18.1,13.1,18.1,12.4,17.7,11.8z"
		/>
	<polygon class="st7" points="0,0 18,0 18,9 17,9 17,1 1,1 1,17 9,17 9,18 0,18 	"/>
	<g>
		<polygon class="st7" points="15,4 13,4 13,2 12,2 12,4 9,4 9,2 8,2 8,4 5,4 5,2 4,2 4,4 2,4 2,5 4,5 4,7 5,7 5,5 8,5 8,7 9,7 9,5 
			12,5 12,7 13,7 13,5 15,5 		"/>
		<polygon class="st7" points="8,9 5,9 5,8 4,8 4,9 3,9 3,10 4,10 4,11 5,11 5,10 8,10 		"/>
		<polygon class="st7" points="8,11 7,11 7,12 6,12 6,13 7,13 7,14 8,14 8,13 11,13 11,12 8,12 		"/>
	</g>
</g>
</svg>
