<?xml version="1.0" encoding="utf-8"?>
<!-- Generator: Adobe Illustrator 21.1.0, SVG Export Plug-In . SVG Version: 6.00 Build 0)  -->
<svg version="1.1" id="Layer_1" xmlns="http://www.w3.org/2000/svg" xmlns:xlink="http://www.w3.org/1999/xlink" x="0px" y="0px"
	 width="18px" height="18px" viewBox="0 0 18 18" style="enable-background:new 0 0 18 18;" xml:space="preserve">
<style type="text/css">
	.st0{fill:#EEF7C9;}
	.st1{fill:#E1E3E4;}
	.st2{fill:#B54747;}
	.st3{fill:none;stroke:#2F80D1;stroke-linecap:round;stroke-linejoin:round;stroke-miterlimit:10;}
	.st4{fill:none;stroke:#FFFFFF;stroke-linecap:round;stroke-miterlimit:10;}
	.st5{fill:none;stroke:#2F80D1;stroke-miterlimit:10;}
	.st6{fill:none;stroke:#FFFFFF;stroke-miterlimit:10;}
	.st7{fill:#606060;}
	.st8{fill:#2F80D1;}
	.st9{fill:#47B747;}
	.st10{fill:none;stroke:#606060;stroke-miterlimit:10;}
	.st11{fill:#FFFFFF;}
	.st12{fill:none;stroke:#47B747;stroke-miterlimit:10;}
	.st13{fill:none;stroke:#47B747;stroke-linecap:round;stroke-miterlimit:10;}
	.st14{fill:none;stroke:#47B747;stroke-linecap:round;stroke-linejoin:round;stroke-miterlimit:10;}
</style>
<g>
	<polygon class="st7" points="0,18 18,18 18,9 17,9 17,17 1,17 1,1 9,1 9,0 0,0 	"/>
	<path class="st9" d="M15,0l0,1c-3.2,0.4-4,4.1-4,4c1.5-2.2,4-2,4-2l0,1l3-2L15,0z"/>
	<g>
		<path class="st8" d="M5.8,15.8c-0.4,0.2-0.8,0.3-1.4,0.3c-0.7,0-1.3-0.2-1.7-0.7c-0.4-0.4-0.6-1-0.6-1.8c0-0.8,0.2-1.4,0.7-1.9
			C3.2,11.2,3.8,11,4.6,11c0.5,0,0.9,0.1,1.2,0.2V12c-0.3-0.2-0.7-0.3-1.1-0.3c-0.5,0-1,0.2-1.3,0.5C3,12.6,2.9,13,2.9,13.6
			c0,0.5,0.2,1,0.5,1.3s0.7,0.5,1.2,0.5c0.5,0,0.9-0.1,1.2-0.3V15.8z"/>
		<path class="st8" d="M7.1,16v-4.9h1.4c1.8,0,2.7,0.8,2.7,2.4c0,0.8-0.3,1.4-0.8,1.8S9.3,16,8.5,16H7.1z M7.9,11.8v3.5h0.6
			c0.6,0,1-0.2,1.3-0.5c0.3-0.3,0.5-0.8,0.5-1.3c0-1.1-0.6-1.7-1.8-1.7H7.9z"/>
		<path class="st8" d="M16,15.8c-0.4,0.2-0.8,0.3-1.4,0.3c-0.7,0-1.3-0.2-1.7-0.7c-0.4-0.4-0.6-1-0.6-1.8c0-0.8,0.2-1.4,0.7-1.9
			c0.5-0.5,1.1-0.7,1.8-0.7c0.5,0,0.9,0.1,1.2,0.2V12c-0.3-0.2-0.7-0.3-1.1-0.3c-0.5,0-1,0.2-1.3,0.5c-0.3,0.3-0.5,0.8-0.5,1.4
			c0,0.5,0.2,1,0.5,1.3s0.7,0.5,1.2,0.5c0.5,0,0.9-0.1,1.2-0.3V15.8z"/>
	</g>
</g>
</svg>
