<?xml version="1.0" encoding="utf-8"?>
<!-- Generator: Adobe Illustrator 21.1.0, SVG Export Plug-In . SVG Version: 6.00 Build 0)  -->
<svg version="1.1" id="Layer_1" xmlns="http://www.w3.org/2000/svg" xmlns:xlink="http://www.w3.org/1999/xlink" x="0px" y="0px"
	 width="18px" height="18px" viewBox="0 0 18 18" style="enable-background:new 0 0 18 18;" xml:space="preserve">
<style type="text/css">
	.st0{fill:#EEF7C9;}
	.st1{fill:#E1E3E4;}
	.st2{fill:#B54747;}
	.st3{fill:none;stroke:#2F80D1;stroke-linecap:round;stroke-linejoin:round;stroke-miterlimit:10;}
	.st4{fill:none;stroke:#FFFFFF;stroke-linecap:round;stroke-miterlimit:10;}
	.st5{fill:none;stroke:#2F80D1;stroke-miterlimit:10;}
	.st6{fill:none;stroke:#FFFFFF;stroke-miterlimit:10;}
	.st7{fill:#606060;}
	.st8{fill:#2F80D1;}
	.st9{fill:#47B747;}
	.st10{fill:none;stroke:#606060;stroke-miterlimit:10;}
	.st11{fill:#FFFFFF;}
	.st12{fill:none;stroke:#47B747;stroke-miterlimit:10;}
	.st13{fill:none;stroke:#47B747;stroke-linecap:round;stroke-miterlimit:10;}
	.st14{fill:none;stroke:#47B747;stroke-linecap:round;stroke-linejoin:round;stroke-miterlimit:10;}
</style>
<g>
	<g>
		<polygon class="st9" points="12,3 13,3 13,2 16,2 16,1 13,1 13,0 12,0 12,1 11,1 11,2 12,2 		"/>
		<polygon class="st9" points="16,4 16,3 15,3 15,4 12,4 12,5 15,5 15,6 16,6 16,5 17,5 17,4 		"/>
	</g>
	<path class="st8" d="M13,13v-1h-1v-2h-1v2h-1v-2H9v2H8v1h1v1H8v1h1v2h1v-2h1v2h1v-2h1v-1h-1v-1H13z M11,14h-1v-1h1V14z"/>
	<g>
		<rect x="9" y="5" class="st7" width="1" height="1"/>
		<polygon class="st7" points="10,6 10,7 8,7 8,5.1 8,5 9,5 9,4 8,4 3,4 3,15 7,15 7,14 4,14 4,5 7,5 7,8 10,8 10,9 11,9 11,7 11,6 
					"/>
	</g>
</g>
</svg>
