<svg id="Layer_1" data-name="Layer 1" xmlns="http://www.w3.org/2000/svg" width="18" height="18" viewBox="0 0 18 18"><defs><style>.cls-1{fill:#606060;}.cls-2{fill:#2f80d1;}</style></defs><title>ConnectWebSocket</title><path class="cls-1" d="M10.4,5.3a4.3,4.3,0,0,1,4.3,4.2v.8l.8.2A1.8,1.8,0,0,1,17,12.2,1.9,1.9,0,0,1,15.1,14H3.3a2.2,2.2,0,0,1-.4-4.3h.7V8.8A1.3,1.3,0,0,1,4.9,7.8h.5l.8.3.4-.8a4.3,4.3,0,0,1,3.8-2.2m0-1A5.3,5.3,0,0,0,5.8,6.9l-.9-.2A2.2,2.2,0,0,0,2.6,8.7,3.2,3.2,0,0,0,3.3,15H15.1a2.8,2.8,0,0,0,.7-5.6,5.3,5.3,0,0,0-5.3-5.1Z"/><polygon class="cls-2" points="13 11 13 10 12 10 12 11 7 11 7 10 6 10 6 11 5 11 5 12 6 12 6 13 7 13 7 12 12 12 12 13 13 13 13 12 14 12 14 11 13 11"/></svg>