<svg id="Layer_1" data-name="Layer 1" xmlns="http://www.w3.org/2000/svg" width="18" height="18" viewBox="0 0 18 18"><defs><style>.cls-1{fill:none;}.cls-2{fill:#606060;}.cls-3{fill:#47b747;}</style></defs><title>ConsumeIMAP</title><path class="cls-1" d="M1,14.4,7.6,9h.1L1,3.5Z"/><path class="cls-1" d="M8.7,8.4h.6L16.1,3H1.9Z"/><path class="cls-2" d="M0,2V16H11V15H1.8L8.2,9.8,9,9.5H9l.7.3,1.2,1V9.5L10.4,9h-.1L17,3.5V9h1V2ZM7.6,9,1,14.4V3.5L7.7,8.9Zm1.7-.6H8.7L1.9,3H16.1Z"/><polygon class="cls-3" points="18 13 15 10 12 13 14 13 14 18 16 18 16 13 18 13"/></svg>