<?xml version="1.0" encoding="utf-8"?>
<!-- Generator: Adobe Illustrator 21.1.0, SVG Export Plug-In . SVG Version: 6.00 Build 0)  -->
<svg version="1.1" id="Layer_1" xmlns="http://www.w3.org/2000/svg" xmlns:xlink="http://www.w3.org/1999/xlink" x="0px" y="0px"
	 width="18px" height="18px" viewBox="0 0 18 18" style="enable-background:new 0 0 18 18;" xml:space="preserve">
<style type="text/css">
	.st0{fill:#EEF7C9;}
	.st1{fill:#E1E3E4;}
	.st2{fill:#B54747;}
	.st3{fill:none;stroke:#2F80D1;stroke-linecap:round;stroke-linejoin:round;stroke-miterlimit:10;}
	.st4{fill:none;stroke:#FFFFFF;stroke-linecap:round;stroke-miterlimit:10;}
	.st5{fill:none;stroke:#2F80D1;stroke-miterlimit:10;}
	.st6{fill:none;stroke:#FFFFFF;stroke-miterlimit:10;}
	.st7{fill:#606060;}
	.st8{fill:#2F80D1;}
	.st9{fill:#47B747;}
	.st10{fill:none;stroke:#606060;stroke-miterlimit:10;}
	.st11{fill:#FFFFFF;}
	.st12{fill:none;stroke:#47B747;stroke-miterlimit:10;}
	.st13{fill:none;stroke:#47B747;stroke-linecap:round;stroke-miterlimit:10;}
	.st14{fill:none;stroke:#47B747;stroke-linecap:round;stroke-linejoin:round;stroke-miterlimit:10;}
</style>
<g>
	<path class="st7" d="M2.1,9.2v1.4c0,0,0,0,0,0c0,0.3,1.4,0.6,3.5,0.6c2.1,0,3.5-0.4,3.5-0.6c0,0,0,0,0,0V9.2
		C8.3,9.5,6.9,9.7,5.6,9.7C4.2,9.7,2.8,9.5,2.1,9.2z"/>
	<path class="st7" d="M9.1,6.1c0-0.6-1.8-1-3.5-1c-1.7,0-3.5,0.3-3.5,1c0,0,0,0,0,0v0.2c0,0,0,0,0,0c0,0,0,0,0,0v1.6c0,0,0,0,0,0
		c0,0.3,1.4,0.7,3.5,0.7c2.1,0,3.5-0.4,3.5-0.7c0,0,0,0,0,0L9.1,6.1L9.1,6.1z M5.6,7.2c-1.5,0-2.7-0.3-2.7-0.7
		c0-0.4,1.2-0.8,2.7-0.8c1.5,0,2.7,0.3,2.7,0.8C8.3,6.9,7.1,7.2,5.6,7.2z"/>
	<g>
		<path class="st7" d="M4,12.4c-0.8-0.1-1.5-0.2-1.9-0.4v1.2c0,0,0,0,0,0c0,0.4,0.8,0.7,1.9,0.9V12.4z"/>
		<path class="st7" d="M7,12.4L7,14c1.1-0.1,2.1-0.4,2.1-0.9h0V12C8.6,12.2,7.9,12.3,7,12.4z"/>
	</g>
	<polygon class="st9" points="6,16 6,13 5,13 5,16 4,16 4,17 5,17 5,18 6,18 6,17 7,17 7,16 	"/>
	<path class="st7" d="M16.7,10.8c-0.4,0-0.7,0.1-0.9,0.4l-1.7-0.8c0.2-0.4,0.4-0.8,0.4-1.3c0-0.3-0.1-0.6-0.2-0.8L16,7.1
		c0.2,0.1,0.4,0.2,0.7,0.2C17.5,7.3,18,6.7,18,6s-0.6-1.3-1.3-1.3S15.4,5.2,15.4,6c0,0.2,0,0.3,0.1,0.4l-1.5,1c-0.5-0.6-1.2-1-1.9-1
		v-3c0.5-0.2,0.8-0.7,0.8-1.2c0-0.7-0.6-1.3-1.3-1.3c-0.7,0-1.3,0.6-1.3,1.3c0,0.5,0.3,1,0.8,1.2v3.1c0,0-0.7,0.3-1,0.5l0,0.6l0,0v1
		c0.3-0.8,1-1.4,1.8-1.4c1,0,1.8,0.8,1.8,1.8c0,1-0.8,1.8-1.8,1.8c-0.8,0-1.5-0.6-1.8-1.4v0.9v0.3v0.3c0.3,0.2,1,0.5,1,0.5V14
		c-0.5,0.2-0.8,0.7-0.8,1.2c0,0.7,0.6,1.3,1.3,1.3c0.7,0,1.3-0.6,1.3-1.3c0-0.6-0.3-1-0.8-1.2v-2.3c0.5,0,1.1-0.2,1.5-0.6l1.9,0.9
		c0,0.1,0,0.1,0,0.2c0,0.7,0.6,1.3,1.3,1.3s1.3-0.6,1.3-1.3S17.5,10.8,16.7,10.8z"/>
</g>
</svg>
