<?xml version="1.0" encoding="utf-8"?>
<!-- Generator: Adobe Illustrator 21.1.0, SVG Export Plug-In . SVG Version: 6.00 Build 0)  -->
<svg version="1.1" id="Layer_1" xmlns="http://www.w3.org/2000/svg" xmlns:xlink="http://www.w3.org/1999/xlink" x="0px" y="0px"
	 width="18px" height="18px" viewBox="0 0 18 18" style="enable-background:new 0 0 18 18;" xml:space="preserve">
<style type="text/css">
	.st0{fill:#EEF7C9;}
	.st1{fill:#E1E3E4;}
	.st2{fill:#B54747;}
	.st3{fill:none;stroke:#2F80D1;stroke-linecap:round;stroke-linejoin:round;stroke-miterlimit:10;}
	.st4{fill:none;stroke:#FFFFFF;stroke-linecap:round;stroke-miterlimit:10;}
	.st5{fill:none;stroke:#2F80D1;stroke-miterlimit:10;}
	.st6{fill:none;stroke:#FFFFFF;stroke-miterlimit:10;}
	.st7{fill:#606060;}
	.st8{fill:#2F80D1;}
	.st9{fill:#47B747;}
	.st10{fill:none;stroke:#606060;stroke-miterlimit:10;}
	.st11{fill:#FFFFFF;}
	.st12{fill:none;stroke:#47B747;stroke-miterlimit:10;}
	.st13{fill:none;stroke:#47B747;stroke-linecap:round;stroke-miterlimit:10;}
	.st14{fill:none;stroke:#47B747;stroke-linecap:round;stroke-linejoin:round;stroke-miterlimit:10;}
</style>
<g>
	<path class="st9" d="M16.2,11.4l-1.3-0.2c-0.1,0.4-0.5,2.4-2.2,3.1c-0.6,0.3-1.3,0.3-2,0.3c-0.2,0-0.4,0-0.6-0.1
		c0.2-0.1,0.4-0.1,0.6-0.2c0.4-0.1,0.8-0.3,1.1-0.6c0.4-0.3,0.7-0.8,0.8-1.3C12.9,12,13,11,13,11l-1.4-0.2L14.2,8L16.2,11.4z"/>
	<g>
		<path class="st8" d="M9.4,4.8C9.1,5,8.6,5.1,8.1,5.1c-0.7,0-1.3-0.2-1.7-0.7C5.9,4,5.7,3.4,5.7,2.6c0-0.8,0.2-1.4,0.7-1.9
			C6.9,0.3,7.5,0,8.3,0c0.5,0,0.9,0.1,1.2,0.2V1C9.1,0.8,8.7,0.7,8.3,0.7c-0.5,0-1,0.2-1.3,0.5C6.7,1.6,6.6,2,6.6,2.6
			c0,0.5,0.2,1,0.5,1.3s0.7,0.5,1.2,0.5c0.5,0,0.9-0.1,1.2-0.3V4.8z"/>
		<path class="st8" d="M10.1,4.8V4c0.1,0.1,0.2,0.1,0.3,0.2c0.1,0.1,0.2,0.1,0.3,0.1c0.1,0,0.2,0.1,0.3,0.1s0.2,0,0.3,0
			c0.3,0,0.6-0.1,0.8-0.2c0.2-0.1,0.3-0.3,0.3-0.5c0-0.1,0-0.2-0.1-0.3c-0.1-0.1-0.1-0.2-0.2-0.2C12,3.1,11.9,3.1,11.8,3
			c-0.1-0.1-0.3-0.1-0.4-0.2c-0.2-0.1-0.3-0.2-0.5-0.3c-0.1-0.1-0.3-0.2-0.4-0.3c-0.1-0.1-0.2-0.2-0.2-0.4c-0.1-0.1-0.1-0.3-0.1-0.5
			c0-0.2,0.1-0.4,0.2-0.6c0.1-0.2,0.2-0.3,0.4-0.4c0.2-0.1,0.4-0.2,0.6-0.2S11.7,0,11.9,0c0.5,0,0.9,0.1,1.1,0.2V1
			c-0.3-0.2-0.6-0.3-1.1-0.3c-0.1,0-0.2,0-0.4,0c-0.1,0-0.2,0.1-0.3,0.1C11.2,0.9,11.1,1,11.1,1S11,1.2,11,1.3c0,0.1,0,0.2,0.1,0.3
			s0.1,0.2,0.2,0.2C11.4,1.9,11.5,2,11.6,2c0.1,0.1,0.3,0.1,0.4,0.2c0.2,0.1,0.3,0.2,0.5,0.3c0.2,0.1,0.3,0.2,0.4,0.3
			C13,3,13.1,3.1,13.2,3.2c0.1,0.1,0.1,0.3,0.1,0.5c0,0.2-0.1,0.5-0.2,0.6c-0.1,0.2-0.2,0.3-0.4,0.4C12.6,4.9,12.4,5,12.1,5
			c-0.2,0-0.5,0.1-0.7,0.1c-0.1,0-0.2,0-0.3,0c-0.1,0-0.2,0-0.4-0.1c-0.1,0-0.2-0.1-0.4-0.1C10.3,4.9,10.2,4.8,10.1,4.8z"/>
		<path class="st8" d="M18,0.1L16.3,5h-0.9l-1.7-4.9h0.9l1.2,3.7c0,0.1,0.1,0.3,0.1,0.4h0c0-0.1,0-0.3,0.1-0.4l1.2-3.7H18z"/>
	</g>
	<path class="st7" d="M0,7l0,10l9,1V6L0,7z M7,14H6v0l0,0l-1.5-1.5L3,14H2v-4h1v2.5L4.4,11l0.3,0.3l0,0L6,12.6V10h1V14z"/>
</g>
</svg>
