<svg id="Layer_1" data-name="Layer 1" xmlns="http://www.w3.org/2000/svg" width="18" height="18" viewBox="0 0 18 18"><defs><style>.cls-1{fill:#47b747;}.cls-2{fill:#2f80d1;}.cls-3{fill:#606060;}</style></defs><title>ConvertCSVToAvro</title><path class="cls-1" d="M16.6,10.8l-.5.9a2.5,2.5,0,0,1,.9,1.9,2.5,2.5,0,0,1-1.7,2.4v-.7l-1.4,1.4L15.3,18V17a3.5,3.5,0,0,0,1.3-6.2Z"/><path class="cls-1" d="M13.9,11.2V12l1.4-1.4L13.9,9.2v.9h0a3.5,3.5,0,0,0-1.1,6.5l.5-.8a2.5,2.5,0,0,1,.5-4.7h0Z"/><path class="cls-2" d="M6.3,3.8l-.7-.2-.8.2-.5.5a1.6,1.6,0,0,0,0,1.5l.5.6.8.2h.6l.6-.4.5.6-.8.6-.9.2a2.3,2.3,0,0,1-1.2-.3,2.3,2.3,0,0,1-.8-.8,2.3,2.3,0,0,1-.3-1.2,2.2,2.2,0,0,1,1.2-2,2.4,2.4,0,0,1,1.2-.3l.9.2.8.5-.5.6Z"/><path class="cls-2" d="M10.2,3.8H9a.4.4,0,0,0-.2.3.4.4,0,0,0,.1.3l.3.2.5.2.7.3.5.4a1.1,1.1,0,0,1,.2.7,1.2,1.2,0,0,1-.2.7l-.6.5-.9.2-1-.2-.9-.5L8,6l.8.5.8.2h.6a.4.4,0,0,0,.2-.4.4.4,0,0,0-.1-.3l-.3-.2-.5-.2-.7-.3-.5-.4a1.1,1.1,0,0,1-.2-.7,1.1,1.1,0,0,1,.2-.7l.6-.5.9-.2h.9l.8.3-.3.7Z"/><path class="cls-2" d="M11.5,3h.9l1.3,3.5L15.1,3H16L14.2,7.4h-.9Z"/><polygon class="cls-3" points="0 0 0 18 9 18 9 17 1 17 1 1 17 1 17 9 18 9 18 0 0 0"/></svg>