<svg id="Layer_1" data-name="Layer 1" xmlns="http://www.w3.org/2000/svg" width="18" height="18" viewBox="0 0 18 18"><defs><style>.cls-1{fill:#606060;}</style></defs><title>Create Hadoop Sequence File</title><polygon class="cls-1" points="10 15 10 8 9 8 9 11 5 11 5 8 4 8 4 15 5 15 5 12 9 12 9 15 10 15"/><polygon class="cls-1" points="16 12 14 12 14 14 12 14 12 16 14 16 14 18 16 18 16 16 18 16 18 14 16 14 16 12"/><polygon class="cls-1" points="1 4 14 4 14 11 15 11 15 3 0 3 0 18 12 18 12 17 1 17 1 4"/><polygon class="cls-1" points="0 0 0 1 17 1 17 11 18 11 18 0 0 0"/></svg>