<svg id="Layer_1" data-name="Layer 1" xmlns="http://www.w3.org/2000/svg" viewBox="0 0 18 18"><defs><style>.cls-1{fill:#47b747;}.cls-2{fill:#2f80d1;}.cls-3{fill:#606060;}</style></defs><title>CreateSalesforceRecord</title><polygon class="cls-1" points="14.02 16 14.96 16 15 13 18 13 18 12 15 12 15 9 14 9 14 12 11 12 11 13 14 13 14.02 16"/><rect class="cls-2" x="7" y="7" width="5" height="1"/><rect class="cls-2" x="7" y="10" width="3" height="0.99"/><path class="cls-3" d="M3.31,12a2.24,2.24,0,0,1-.45-4.44l.71-.14.1-.73A1.27,1.27,0,0,1,4.94,5.59a1.31,1.31,0,0,1,.52.1L6.28,6l.44-.79A4.39,4.39,0,0,1,10.56,3a4.35,4.35,0,0,1,4.37,4.25v.81l.78.18A1.91,1.91,0,0,1,16.84,9H18a2.93,2.93,0,0,0-2-1.73A5.4,5.4,0,0,0,5.85,4.75a2.31,2.31,0,0,0-.91-.19,2.29,2.29,0,0,0-2.28,2A3.26,3.26,0,0,0,3.31,13h6.82V12Z"/></svg>