<?xml version="1.0" encoding="utf-8"?>
<!-- Generator: Adobe Illustrator 21.1.0, SVG Export Plug-In . SVG Version: 6.00 Build 0)  -->
<svg version="1.1" id="Layer_1" xmlns="http://www.w3.org/2000/svg" xmlns:xlink="http://www.w3.org/1999/xlink" x="0px" y="0px"
	 width="18px" height="18px" viewBox="0 0 18 18" style="enable-background:new 0 0 18 18;" xml:space="preserve">
<style type="text/css">
	.st0{opacity:0.32;fill:#EEF7C9;}
	.st1{fill:#E1E3E4;}
	.st2{fill:#B54747;}
	.st3{fill:none;stroke:#2F80D1;stroke-linecap:round;stroke-linejoin:round;stroke-miterlimit:10;}
	.st4{fill:none;stroke:#FFFFFF;stroke-linecap:round;stroke-miterlimit:10;}
	.st5{fill:none;stroke:#2F80D1;stroke-miterlimit:10;}
	.st6{fill:none;stroke:#FFFFFF;stroke-miterlimit:10;}
	.st7{fill:#606060;}
	.st8{fill:#2F80D1;}
	.st9{fill:#47B747;}
	.st10{fill:none;stroke:#606060;stroke-miterlimit:10;}
	.st11{fill:#FFFFFF;}
	.st12{fill:none;stroke:#47B747;stroke-miterlimit:10;}
	.st13{fill:none;stroke:#47B747;stroke-linecap:round;stroke-miterlimit:10;}
	.st14{fill:none;stroke:#47B747;stroke-linecap:round;stroke-linejoin:round;stroke-miterlimit:10;}
</style>
<g>
	<path class="st7" d="M4,5v9h9V5H4z M12,13H5V6h7V13z"/>
	<rect x="5" y="1" class="st7" width="1" height="3"/>
	<rect x="7" y="1" class="st7" width="1" height="3"/>
	<rect x="9" y="1" class="st7" width="1" height="3"/>
	<rect x="11" y="1" class="st7" width="1" height="3"/>
	<rect x="5" y="15" class="st7" width="1" height="3"/>
	<rect x="7" y="15" class="st7" width="1" height="3"/>
	<rect x="9" y="15" class="st7" width="1" height="3"/>
	<rect x="11" y="15" class="st7" width="1" height="3"/>
	<rect x="15" y="5" transform="matrix(-1.836970e-16 1 -1 -1.836970e-16 22 -9)" class="st7" width="1" height="3"/>
	<rect x="15" y="7" transform="matrix(-1.836970e-16 1 -1 -1.836970e-16 24 -7)" class="st7" width="1" height="3"/>
	<rect x="15" y="9" transform="matrix(-1.836970e-16 1 -1 -1.836970e-16 26 -5)" class="st7" width="1" height="3"/>
	<rect x="15" y="11" transform="matrix(-1.836970e-16 1 -1 -1.836970e-16 28 -3)" class="st7" width="1" height="3"/>
	<rect x="1" y="5" transform="matrix(-1.836970e-16 1 -1 -1.836970e-16 8 5)" class="st7" width="1" height="3"/>
	<rect x="1" y="7" transform="matrix(-1.836970e-16 1 -1 -1.836970e-16 10 7)" class="st7" width="1" height="3"/>
	<rect x="1" y="9" transform="matrix(-1.836970e-16 1 -1 -1.836970e-16 12 9)" class="st7" width="1" height="3"/>
	<rect x="1" y="11" transform="matrix(-1.836970e-16 1 -1 -1.836970e-16 14 11)" class="st7" width="1" height="3"/>
</g>
</svg>
