<svg id="Layer_1" data-name="Layer 1" xmlns="http://www.w3.org/2000/svg" viewBox="0 0 18 18"><defs><style>.cls-1{fill:#606060;}.cls-2{fill:#2f80d1;}.cls-3{fill:#ff6364;}</style></defs><title>Icon_</title><path class="cls-1" d="M17,12V8H15V9h1v3a.77.77,0,0,0,.25.5A.77.77,0,0,0,16,13v4H2V7a.77.77,0,0,0-.25-.5A.77.77,0,0,0,2,6V1H4V0H1V6H0V7H1V18H17V13h1V12Z"/><path class="cls-2" d="M7,7a3,3,0,0,0-1.84,5.36L3.58,14.72l.83.55L6,12.83A3,3,0,0,0,7,13,3,3,0,0,0,7,7Zm0,5a2,2,0,1,1,2-2A2,2,0,0,1,7,12Z"/><polygon class="cls-3" points="17 1 16 0 13.5 2.5 11 0 10 1 12.5 3.5 10 6 11 7 13.5 4.5 16 7 17 6 14.5 3.5 17 1"/></svg>