<svg id="Layer_1" data-name="Layer 1" xmlns="http://www.w3.org/2000/svg" viewBox="0 0 18 18"><defs><style>.cls-1{fill:#ff6364;}.cls-2{fill:#606060;}.cls-3{fill:#2f80d1;}</style></defs><title>DeleteSalesforceRecord</title><polygon class="cls-1" points="18 10 17 9 14.5 11.5 12 9 11 10 13.5 12.5 11 15 12 16 14.5 13.5 17 16 18 15 15.5 12.5 18 10"/><path class="cls-2" d="M3.71,12A2.58,2.58,0,0,1,1.06,9.73,2.29,2.29,0,0,1,3,7.54l.75-.14.1-.73A1.31,1.31,0,0,1,5.17,5.59a1.43,1.43,0,0,1,.54.1L6.59,6l.47-.79a4.65,4.65,0,0,1,4-2.23,4.46,4.46,0,0,1,4.58,4.25v.6H18a3.14,3.14,0,0,0-1.28-.61A5.49,5.49,0,0,0,11.07,2,5.71,5.71,0,0,0,6.13,4.75a2.52,2.52,0,0,0-1-.19,2.36,2.36,0,0,0-2.38,2A3.32,3.32,0,0,0,0,9.73,3.37,3.37,0,0,0,3.47,13h7.45V12Z"/><rect class="cls-3" x="6.18" y="7.01" width="6.18" height="1"/><rect class="cls-3" x="6.18" y="9.01" width="3.02" height="0.96"/></svg>