<svg id="Layer_1" data-name="Layer 1" xmlns="http://www.w3.org/2000/svg" width="18" height="18" viewBox="0 0 18 18"><defs><style>.cls-1{fill:#606060;}.cls-2{fill:#ff6364;}.cls-3{fill:#2f80d1;}</style></defs><title>Delete SQS</title><polygon class="cls-1" points="18 0 0 0 0 18 10 18 10 17 1 17 1 1 17 1 17 10 18 10 18 0"/><polygon class="cls-2" points="18 12 17 11 14.5 13.5 12 11 11 12 13.5 14.5 11 17 12 18 14.5 15.5 17 18 18 17 15.5 14.5 18 12"/><path class="cls-3" d="M4.6,4H3.4a.4.4,0,0,0-.2.4.5.5,0,0,0,.1.3l.3.2.6.2.8.3.5.4a1.2,1.2,0,0,1,.2.8,1.3,1.3,0,0,1-.2.8l-.7.5-1,.2L2.8,7.8l-1-.6.4-.8.8.5.9.2.6-.2a.5.5,0,0,0,.1-.8l-.3-.2-.6-.2-.8-.3-.5-.4a1.2,1.2,0,0,1-.2-.7,1.3,1.3,0,0,1,.2-.7L3,3.2,4,3h.9l.8.4-.4.8Z"/><path class="cls-3" d="M11.9,8.6l-.6.4h-.7l-.9-.3A2.2,2.2,0,0,1,9,8.1a2.6,2.6,0,0,1-1.3-.3,2.5,2.5,0,0,1-.9-.9,2.5,2.5,0,0,1,.9-3.5,2.8,2.8,0,0,1,2.7,0,2.4,2.4,0,0,1,1.3,2.2,2.5,2.5,0,0,1-.8,1.9l-.9.5a1,1,0,0,0,.7.4,1.5,1.5,0,0,0,.9-.4ZM7.5,6.4a1.7,1.7,0,0,0,.6.6l.8.2L9.8,7a1.7,1.7,0,0,0,.6-.6,1.7,1.7,0,0,0,.2-.8,1.7,1.7,0,0,0-.2-.8,1.6,1.6,0,0,0-.6-.6L9,3.9l-.8.2a1.7,1.7,0,0,0-.6,2.3Z"/><path class="cls-3" d="M14.8,4H13.6a.4.4,0,0,0-.2.4.5.5,0,0,0,.1.3l.3.2.6.2.8.3.5.4a1.2,1.2,0,0,1,.2.8,1.3,1.3,0,0,1-.2.8l-.7.5-1,.2L13,7.8l-1-.6.4-.8.8.5.9.2.6-.2a.5.5,0,0,0,.1-.8l-.3-.2L14,5.9l-.8-.3-.5-.4a1.2,1.2,0,0,1-.2-.7,1.3,1.3,0,0,1,.2-.7l.6-.5,1-.2h.9l.8.4-.4.8Z"/></svg>