<svg id="Layer_1" data-name="Layer 1" xmlns="http://www.w3.org/2000/svg" viewBox="0 0 18 18"><defs><style>.cls-1{fill:#606060;}.cls-2{fill:#47b747;}.cls-3{fill:#2f80d1;}</style></defs><title>DoTransitionJIRA copy</title><path class="cls-1" d="M17.94,0H.06A.06.06,0,0,0,0,.06V17.94A.06.06,0,0,0,.06,18H9V17H1V1H17V8h1V.06A.06.06,0,0,0,17.94,0Z"/><polygon class="cls-2" points="18 11 18 10 14 10 14 8 13 8 13 9 12 9 12 10 11 10 11 11 12 11 12 12 13 12 13 13 14 13 14 11 18 11"/><polygon class="cls-2" points="16 17 17 17 17 16 18 16 18 15 17 15 17 14 16 14 16 13 15 13 15 15 11 15 11 16 15 16 15 18 16 18 16 17"/><path class="cls-3" d="M3,4A1,1,0,1,0,4,5,1,1,0,0,0,3,4"/><path class="cls-3" d="M9.1,4a.89.89,0,1,0,.9.89A.9.9,0,0,0,9.1,4"/><path class="cls-3" d="M6,3.14a1,1,0,0,0-1,.93A1,1,0,0,0,6,5a1,1,0,0,0,1-.93,1,1,0,0,0-1-.93"/><path class="cls-3" d="M9.91,7a.22.22,0,0,0-.13,0H9.71a10.74,10.74,0,0,1-1.38.41.27.27,0,0,0-.19.16,8.23,8.23,0,0,1-2,2.54.22.22,0,0,1-.16.07.22.22,0,0,1-.16-.07,8.23,8.23,0,0,1-2-2.54.27.27,0,0,0-.19-.16A10.78,10.78,0,0,1,2.29,7H2.22A.22.22,0,0,0,2,7.23a4.51,4.51,0,0,0,.87,2.15A15.86,15.86,0,0,0,4.6,11.34c1.12,1.14,2.19,2.22,2.28,3.46a.22.22,0,0,0,.22.2H8.42a.22.22,0,0,0,.22-.22h0a4.92,4.92,0,0,0-1-2.55c-.13-.19-.26-.37-.41-.54a.16.16,0,0,1,0-.21l.13-.13A15.86,15.86,0,0,0,9.13,9.39,4.5,4.5,0,0,0,10,7.24.22.22,0,0,0,9.91,7"/><path class="cls-3" d="M4.15,12.66A.26.26,0,0,0,4,12.6a.26.26,0,0,0-.2.09,3.66,3.66,0,0,0-1,2.11.17.17,0,0,0,.07.14A.28.28,0,0,0,3,15H4.51a.23.23,0,0,0,.24-.17,2.15,2.15,0,0,1,.41-1,.22.22,0,0,0,0-.29,11.93,11.93,0,0,0-1-.86"/><path class="cls-3" d="M6.1,7.17c.4,0,.63,0,.71,0A.23.23,0,0,1,7,7.4a.35.35,0,0,1,0,.1,4.75,4.75,0,0,1-.74,1.43A.18.18,0,0,1,6.1,9h0A.18.18,0,0,1,6,8.92,4.74,4.74,0,0,1,5.22,7.5a.35.35,0,0,1,0-.1.23.23,0,0,1,.19-.25c.08,0,.31,0,.71,0h0"/></svg>