<?xml version="1.0" encoding="utf-8"?>
<!-- Generator: Adobe Illustrator 21.1.0, SVG Export Plug-In . SVG Version: 6.00 Build 0)  -->
<svg version="1.1" id="Layer_1" xmlns="http://www.w3.org/2000/svg" xmlns:xlink="http://www.w3.org/1999/xlink" x="0px" y="0px"
	 width="18px" height="18px" viewBox="0 0 18 18" style="enable-background:new 0 0 18 18;" xml:space="preserve">
<style type="text/css">
	.st0{fill:#EEF7C9;}
	.st1{fill:#E1E3E4;}
	.st2{fill:#B54747;}
	.st3{fill:none;stroke:#2F80D1;stroke-linecap:round;stroke-linejoin:round;stroke-miterlimit:10;}
	.st4{fill:none;stroke:#FFFFFF;stroke-linecap:round;stroke-miterlimit:10;}
	.st5{fill:none;stroke:#2F80D1;stroke-miterlimit:10;}
	.st6{fill:none;stroke:#FFFFFF;stroke-miterlimit:10;}
	.st7{fill:#606060;}
	.st8{fill:#2F80D1;}
	.st9{fill:#47B747;}
	.st10{fill:none;stroke:#606060;stroke-miterlimit:10;}
	.st11{fill:#FFFFFF;}
	.st12{fill:none;stroke:#47B747;stroke-miterlimit:10;}
	.st13{fill:none;stroke:#47B747;stroke-linecap:round;stroke-miterlimit:10;}
	.st14{fill:none;stroke:#47B747;stroke-linecap:round;stroke-linejoin:round;stroke-miterlimit:10;}
</style>
<g>
	<g>
		<polygon class="st7" points="4,2 4,4 2,4 2,12 3,12 7,12 8,12 8,6 7,6 7,11 3,11 3,5 6,5 6,4 5,4 5,3 8,3 8,2 		"/>
		<rect x="9" y="4" class="st7" width="1" height="6"/>
		<rect x="8" y="3" class="st7" width="1" height="1"/>
		<rect x="6" y="5" class="st7" width="1" height="1"/>
	</g>
	<path class="st8" d="M13.5,8L9,13l4.5,5l4.5-4.9L13.5,8z M13,10h1v4h-1V10z M13,16v-1h1v1H13z"/>
	<polygon class="st7" points="10,17 1,17 1,1 17,1 17,10 18,10 18,0 0,0 0,18 10,18 	"/>
</g>
</svg>
