<svg id="Layer_1" data-name="Layer 1" xmlns="http://www.w3.org/2000/svg" width="18" height="18" viewBox="0 0 18 18"><defs><style>.cls-1{fill:#606060;}.cls-2{fill:#2f80d1;}</style></defs><title>Evaluate X Query</title><polygon class="cls-1" points="18 0 0 0 0 18 10 18 10 17 1 17 1 1 17 1 17 10 18 10 18 0"/><path class="cls-1" d="M18,17.1l-2.8-2.8a3.4,3.4,0,1,0-.9.9L17.1,18Zm-5.6-2.6a2,2,0,1,1,2-2A2,2,0,0,1,12.4,14.5Z"/><path class="cls-2" d="M2.3,3.8h.9l1,1.4,1-1.4h1l-1.4,2L6.2,8h-1L4.2,6.5,3.1,8H2.2L3.7,5.8Z"/><path class="cls-2" d="M7.1,3.8h.9L9.4,6.5l1.4-2.7h.9V8H11V5L9.7,7.6H9.2L7.9,5V8H7.1Z"/><path class="cls-2" d="M13.1,3.8h.8V7.3h1.8V8H13.1Z"/></svg>