<svg id="Layer_1" data-name="Layer 1" xmlns="http://www.w3.org/2000/svg" width="18" height="18" viewBox="0 0 18 18"><defs><style>.cls-1{fill:#2f80d1;}.cls-2{fill:#5d5d5d;}</style></defs><title>Evaluate Json Path</title><path class="cls-1" d="M13.5,12.6,10.7,9.8a3.4,3.4,0,1,0-.9.9l2.8,2.8ZM7.9,10a2,2,0,1,1,2-2A2,2,0,0,1,7.9,10Z"/><path class="cls-2" d="M2.7,8.6,2.4,9l-.5.4.5.4.3.4a1.8,1.8,0,0,1,.1.7v3.1a1.1,1.1,0,0,0,.3.9,1.8,1.8,0,0,0,1.1.3v.8H3.9a2.3,2.3,0,0,1-1.5-.4,1.7,1.7,0,0,1-.5-1.3V10.7a1.2,1.2,0,0,0-.2-.7.6.6,0,0,0-.5-.2H.9V9h.4q.7,0,.7-.9V4.6a1.7,1.7,0,0,1,.5-1.3,2.3,2.3,0,0,1,1.5-.4h.3v.8A1.7,1.7,0,0,0,3.1,4a1.1,1.1,0,0,0-.3.9V8A1.8,1.8,0,0,1,2.7,8.6Z"/><path class="cls-2" d="M15.2,8V4.8a1.1,1.1,0,0,0-.3-.9,1.7,1.7,0,0,0-1.1-.3V2.9h.3a2.3,2.3,0,0,1,1.5.4,1.7,1.7,0,0,1,.5,1.3V8q0,.9.7.9h.4v.8h-.4a.6.6,0,0,0-.5.2,1.2,1.2,0,0,0-.2.7v3.4a1.7,1.7,0,0,1-.5,1.3,2.3,2.3,0,0,1-1.5.4h-.3v-.8a1.8,1.8,0,0,0,1.1-.3,1.1,1.1,0,0,0,.3-.9V10.8a1.8,1.8,0,0,1,.1-.7l.3-.4.5-.4L15.6,9l-.3-.4A1.8,1.8,0,0,1,15.2,8Z"/></svg>