<svg id="Layer_1" data-name="Layer 1" xmlns="http://www.w3.org/2000/svg" width="18" height="18" viewBox="0 0 18 18"><defs><style>.cls-1{fill:#2f80d1;}.cls-2{fill:#606060;}.cls-3{fill:#47b747;}</style></defs><title>Execute Flume Sink</title><polygon class="cls-1" points="13 6 13 5 10 5 9 5 9 12 10 12 10 9 13 9 13 8 10 8 10 6 13 6"/><polygon class="cls-2" points="0 0 0 3 1 3 1 1 17 1 17 10 17 17 10 17 8 17 1 17 1 14 0 14 0 18 8 18 10 18 18 18 18 10 18 0 0 0"/><polygon class="cls-3" points="0 11.9 5 8.4 0 4.9 0 11.9"/></svg>