<svg id="Layer_1" data-name="Layer 1" xmlns="http://www.w3.org/2000/svg" width="18" height="18" viewBox="0 0 18 18"><defs><style>.cls-1{fill:#606060;}.cls-2{fill:#2f80d1;}.cls-3{fill:#47b747;}</style></defs><title>Execute Process</title><polygon class="cls-1" points="18 0 0 0 0 18 10 18 10 17 1 17 1 1 17 1 17 10 18 10 18 0"/><path class="cls-2" d="M9,9V7H7V6H5V7H3V9H2v2H3v2H5v1H7V13H9V11h1V9ZM6,11.5A1.5,1.5,0,1,1,7.5,10,1.5,1.5,0,0,1,6,11.5Z"/><path class="cls-2" d="M14,4V3H13V2H11V3H10V4H9V6h1V7h1V8h2V7h1V6h1V4ZM12,6a1,1,0,1,1,1-1A1,1,0,0,1,12,6Z"/><polygon class="cls-3" points="13 17.9 18 14.4 13 10.9 13 17.9"/></svg>