<svg id="Layer_1" data-name="Layer 1" xmlns="http://www.w3.org/2000/svg" viewBox="0 0 18 18"><defs><style>.cls-1{fill:#2f80d1;}.cls-2{fill:#606060;}.cls-3{fill:#47b747;}</style></defs><title>ExecuteSalesforceQuery</title><path class="cls-1" d="M7.5,10,9,8.47a1.9,1.9,0,1,0-.5-.5L7,9.5Zm2.6-4.24A1.13,1.13,0,1,1,9,6.9,1.13,1.13,0,0,1,10.1,5.76Z"/><path class="cls-2" d="M2.8,11C1.55,11,1,10,1,8.73a2.25,2.25,0,0,1,1.82-2.2l.71-.14.1-.73A1.26,1.26,0,0,1,4.87,4.59a1.28,1.28,0,0,1,.51.1L6.21,5l.44-.79a4.33,4.33,0,0,1,8.11,2v.81l.77.18A1.88,1.88,0,0,1,17,9.1a1.85,1.85,0,0,1,0,.33h1a2.85,2.85,0,0,0,0-.33,2.9,2.9,0,0,0-2.25-2.83,5.32,5.32,0,0,0-10-2.52A2.27,2.27,0,0,0,2.63,5.53,3.27,3.27,0,0,0,3.27,12H10.8V11Z"/><polygon class="cls-3" points="13 17 18 13.5 13 10 13 17"/></svg>