<svg id="Layer_1" data-name="Layer 1" xmlns="http://www.w3.org/2000/svg" width="18" height="18" viewBox="0 0 18 18"><defs><style>.cls-1{fill:#606060;}.cls-2{fill:#2f80d1;}</style></defs><title>ExtractEmailAttachments</title><path class="cls-1" d="M17,7v9.4L10.4,11h-.1L15.2,7H13.6L9.3,10.4H8.7L1.9,5H8V4H0V18H18V7ZM1,5.5l6.7,5.4H7.6L1,16.4ZM1.8,17l6.4-5.2.7-.3H9l.7.3L16.2,17Z"/><path class="cls-2" d="M18,2.5h0a.5.5,0,0,0-.5-.5h-4a.5.5,0,0,0,0,1H17V4.1a.9.9,0,0,1-.9.9H10.9a.9.9,0,0,1-.9-.9V1.9a.9.9,0,0,1,.9-.9H16V0H10.9A1.9,1.9,0,0,0,9,1.9V4.1A1.9,1.9,0,0,0,10.9,6h5.1A1.9,1.9,0,0,0,18,4.1V3h0Z"/></svg>