<?xml version="1.0" encoding="utf-8"?>
<!-- Generator: Adobe Illustrator 21.1.0, SVG Export Plug-In . SVG Version: 6.00 Build 0)  -->
<svg version="1.1" id="Layer_1" xmlns="http://www.w3.org/2000/svg" xmlns:xlink="http://www.w3.org/1999/xlink" x="0px" y="0px"
	 viewBox="0 0 18 18" style="enable-background:new 0 0 18 18;" xml:space="preserve">
<style type="text/css">
	.st0{fill:none;stroke:#606060;stroke-miterlimit:10;}
	.st1{fill:#0172C6;}
	.st2{fill:#47B747;}
	.st3{fill:#0072C5;}
	.st4{fill:#606060;}
	.st5{fill:none;}
	.st6{opacity:0;clip-path:url(#SVGID_2_);fill:#FFFFFF;}
	.st7{clip-path:url(#SVGID_2_);}
	.st8{fill:none;stroke:#0072C5;stroke-miterlimit:10;}
	.st9{fill:#FFFFFF;stroke:#606060;stroke-miterlimit:10;}
	.st10{fill:#FDFDFE;}
	.st11{fill:#FFFFFF;stroke:#0072C5;stroke-miterlimit:10;}
	.st12{fill:none;stroke:#FF0000;stroke-miterlimit:10;}
</style>
<g>
	<g>
		<g>
			<g>
				<g>
					<polygon class="st2" points="7,1 6,1 6,0 5,0 5,2 0,2 0,4 5,4 5,6 6,6 6,5 7,5 7,4 8,4 8,2 7,2 					"/>
				</g>
			</g>
		</g>
	</g>
	<g>
		<polygon class="st3" points="15.8,8.1 15.2,8.9 17,10.1 17,17 5,17 5,10.1 6.8,8.9 6.2,8.1 4,9.6 4,18 18,18 18,9.6 		"/>
		<polygon class="st3" points="11,6.2 13.7,7.9 14.2,7.1 11,5 7.9,7 8.4,7.9 		"/>
	</g>
	<g>
		<path class="st4" d="M11,14.4l-5-2.5V7h10v4.8L11,14.4z M7,11.3l4,2l4-2.1V8H7V11.3z"/>
	</g>
	<g>
		<path class="st3" d="M4,18V9.8l7,3.5l7-3.7V18L4,18z M5,11.4V17l12,0v-5.7l-6,3.1L5,11.4z"/>
	</g>
</g>
</svg>
