<?xml version="1.0" encoding="utf-8"?>
<!-- Generator: Adobe Illustrator 21.1.0, SVG Export Plug-In . SVG Version: 6.00 Build 0)  -->
<svg version="1.1" id="Layer_1" xmlns="http://www.w3.org/2000/svg" xmlns:xlink="http://www.w3.org/1999/xlink" x="0px" y="0px"
	 width="18px" height="18px" viewBox="0 0 18 18" style="enable-background:new 0 0 18 18;" xml:space="preserve">
<style type="text/css">
	.st0{fill:#EEF7C9;}
	.st1{fill:#E1E3E4;}
	.st2{fill:#B54747;}
	.st3{fill:none;stroke:#2F80D1;stroke-linecap:round;stroke-linejoin:round;stroke-miterlimit:10;}
	.st4{fill:none;stroke:#FFFFFF;stroke-linecap:round;stroke-miterlimit:10;}
	.st5{fill:none;stroke:#2F80D1;stroke-miterlimit:10;}
	.st6{fill:none;stroke:#FFFFFF;stroke-miterlimit:10;}
	.st7{fill:#606060;}
	.st8{fill:#2F80D1;}
	.st9{fill:#47B747;}
	.st10{fill:none;stroke:#606060;stroke-miterlimit:10;}
	.st11{fill:#FFFFFF;}
	.st12{fill:none;stroke:#47B747;stroke-miterlimit:10;}
	.st13{fill:none;stroke:#47B747;stroke-linecap:round;stroke-miterlimit:10;}
	.st14{fill:none;stroke:#47B747;stroke-linecap:round;stroke-linejoin:round;stroke-miterlimit:10;}
</style>
<g>
	<path class="st8" d="M14,9.1c-1.7,0-3,1.3-3,3c0,1,0.5,1.8,1.2,2.4l-1.6,2.4l0.8,0.6l1.6-2.4c0.3,0.1,0.6,0.2,1,0.2
		c1.7,0,3-1.3,3-3S15.7,9.1,14,9.1z M14,14.1c-1.1,0-2-0.9-2-2s0.9-2,2-2s2,0.9,2,2S15.1,14.1,14,14.1z"/>
	<g>
		<polygon class="st7" points="16,5 16,2 15,2 15,1 14,1 14,3 15,3 15,8 16,8 16,7 17,7 17,5 		"/>
		<polygon class="st7" points="3,2 2,2 2,5 1,5 1,7 2,7 2,10 3,10 3,11 4,11 4,9 3,9 3,3 4,3 4,1 3,1 		"/>
		<rect x="5" y="1" class="st7" width="1" height="2"/>
		<rect x="7" y="1" class="st7" width="1" height="2"/>
		<rect x="10" y="1" class="st7" width="1" height="2"/>
		<rect x="12" y="1" class="st7" width="1" height="2"/>
	</g>
</g>
</svg>
