<?xml version="1.0" encoding="utf-8"?>
<!-- Generator: Adobe Illustrator 21.1.0, SVG Export Plug-In . SVG Version: 6.00 Build 0)  -->
<svg version="1.1" id="Layer_1" xmlns="http://www.w3.org/2000/svg" xmlns:xlink="http://www.w3.org/1999/xlink" x="0px" y="0px"
	 width="18px" height="18px" viewBox="0 0 18 18" style="enable-background:new 0 0 18 18;" xml:space="preserve">
<style type="text/css">
	.st0{fill:#EEF7C9;}
	.st1{fill:#E1E3E4;}
	.st2{fill:#B54747;}
	.st3{fill:none;stroke:#2F80D1;stroke-linecap:round;stroke-linejoin:round;stroke-miterlimit:10;}
	.st4{fill:none;stroke:#FFFFFF;stroke-linecap:round;stroke-miterlimit:10;}
	.st5{fill:none;stroke:#2F80D1;stroke-miterlimit:10;}
	.st6{fill:none;stroke:#FFFFFF;stroke-miterlimit:10;}
	.st7{fill:#606060;}
	.st8{fill:#2F80D1;}
	.st9{fill:#47B747;}
	.st10{fill:none;stroke:#606060;stroke-miterlimit:10;}
	.st11{fill:#FFFFFF;}
	.st12{fill:none;stroke:#47B747;stroke-miterlimit:10;}
	.st13{fill:none;stroke:#47B747;stroke-linecap:round;stroke-miterlimit:10;}
	.st14{fill:none;stroke:#47B747;stroke-linecap:round;stroke-linejoin:round;stroke-miterlimit:10;}
</style>
<g>
	<polygon class="st7" points="0,18 18,18 18,9 17,9 17,17 1,17 1,1 9,1 9,0 0,0 	"/>
	<g>
		<path class="st8" d="M4.5,14.8c-0.3,0.2-0.7,0.2-1.2,0.2c-0.6,0-1.1-0.2-1.5-0.6S1.3,13.6,1.3,13c0-0.7,0.2-1.2,0.6-1.6
			s0.9-0.6,1.6-0.6c0.4,0,0.7,0.1,1,0.2v0.7c-0.3-0.2-0.6-0.3-0.9-0.3c-0.5,0-0.8,0.1-1.1,0.4s-0.4,0.7-0.4,1.2
			c0,0.5,0.1,0.8,0.4,1.1c0.3,0.3,0.6,0.4,1,0.4c0.4,0,0.7-0.1,1-0.3V14.8z"/>
		<path class="st8" d="M8.1,14.8c-0.3,0.2-0.7,0.2-1.2,0.2c-0.6,0-1.1-0.2-1.5-0.6S4.9,13.6,4.9,13c0-0.7,0.2-1.2,0.6-1.6
			s0.9-0.6,1.6-0.6c0.4,0,0.7,0.1,1,0.2v0.7c-0.3-0.2-0.6-0.3-0.9-0.3c-0.5,0-0.8,0.1-1.1,0.4s-0.4,0.7-0.4,1.2
			c0,0.5,0.1,0.8,0.4,1.1c0.3,0.3,0.6,0.4,1,0.4c0.4,0,0.7-0.1,1-0.3V14.8z"/>
		<path class="st8" d="M8.9,15v-4.2h1.2c1.5,0,2.3,0.7,2.3,2c0,0.6-0.2,1.2-0.6,1.6S10.8,15,10,15H8.9z M9.6,11.4v3h0.6
			c0.5,0,0.9-0.1,1.1-0.4s0.4-0.7,0.4-1.1c0-1-0.5-1.5-1.5-1.5H9.6z"/>
		<path class="st8" d="M16.5,15h-0.8l-0.4-1.1h-1.7L13.4,15h-0.8l1.6-4.2H15L16.5,15z M15.2,13.4l-0.6-1.7c0-0.1,0-0.1-0.1-0.3h0
			c0,0.1,0,0.2-0.1,0.3l-0.6,1.7H15.2z"/>
	</g>
	<path class="st9" d="M15,0l0,1c-3.2,0.4-4,4.1-4,4c1.5-2.2,4-2,4-2l0,1l3-2L15,0z"/>
</g>
</svg>
