<svg id="Layer_1" data-name="Layer 1" xmlns="http://www.w3.org/2000/svg" width="18" height="18" viewBox="0 0 18 18"><defs><style>.cls-1{fill:#606060;}.cls-2{fill:#2f80d1;}.cls-3{fill:#47b747;}</style></defs><title>FetchElasticsearchHttp</title><path class="cls-1" d="M17,12V7H15V8h1v4a.8.8,0,0,0,.3.5.8.8,0,0,0-.2.5v4H2V7a.8.8,0,0,0-.2-.5A.8.8,0,0,0,2,6V1H4V0H1V6H0V7H1V18H17V13h1V12Z"/><path class="cls-2" d="M10,1.4A3,3,0,0,0,8,6.6L6.6,9.1l.9.5L8.9,7.2l1.1.2a3,3,0,1,0,0-6Zm0,5a2,2,0,1,1,2-2A2,2,0,0,1,10,6.4Z"/><path class="cls-3" d="M3.4,13.1h.6v1.2H5.4V13.1h.6V16H5.4V14.8H3.9V16H3.4Z"/><path class="cls-3" d="M6.6,13.1H9v.5H8V16H7.5V13.6H6.6Z"/><path class="cls-3" d="M9.3,13.1h2.4v.5h-.9V16h-.6V13.6H9.3Z"/><path class="cls-3" d="M14.4,13.3a.9.9,0,0,1,.3.7,1,1,0,0,1-.3.8,1.2,1.2,0,0,1-.9.3h-.6V16h-.6V13.1h1.2A1.3,1.3,0,0,1,14.4,13.3ZM14,14.5a.5.5,0,0,0,.2-.4.5.5,0,0,0-.2-.4H12.9v1.1H14Z"/></svg>