<?xml version="1.0" encoding="utf-8"?>
<!-- Generator: Adobe Illustrator 21.1.0, SVG Export Plug-In . SVG Version: 6.00 Build 0)  -->
<svg version="1.1" id="Layer_1" xmlns="http://www.w3.org/2000/svg" xmlns:xlink="http://www.w3.org/1999/xlink" x="0px" y="0px"
	 width="18px" height="18px" viewBox="0 0 18 18" style="enable-background:new 0 0 18 18;" xml:space="preserve">
<style type="text/css">
	.st0{fill:#EEF7C9;}
	.st1{fill:#E1E3E4;}
	.st2{fill:#B54747;}
	.st3{fill:none;stroke:#2F80D1;stroke-linecap:round;stroke-linejoin:round;stroke-miterlimit:10;}
	.st4{fill:none;stroke:#FFFFFF;stroke-linecap:round;stroke-miterlimit:10;}
	.st5{fill:none;stroke:#2F80D1;stroke-miterlimit:10;}
	.st6{fill:none;stroke:#FFFFFF;stroke-miterlimit:10;}
	.st7{fill:#606060;}
	.st8{fill:#2F80D1;}
	.st9{fill:#47B747;}
	.st10{fill:none;stroke:#606060;stroke-miterlimit:10;}
	.st11{fill:#FFFFFF;}
	.st12{fill:none;stroke:#47B747;stroke-miterlimit:10;}
	.st13{fill:none;stroke:#47B747;stroke-linecap:round;stroke-miterlimit:10;}
	.st14{fill:none;stroke:#47B747;stroke-linecap:round;stroke-linejoin:round;stroke-miterlimit:10;}
</style>
<g>
	<path class="st7" d="M14,14v-1c1.7,0,3-1.3,3-2.9C17,9,16.3,8,15.3,7.5l-0.6-0.3l0.5-0.5c0.7-0.8,0.7-2-0.1-2.8
		c-0.7-0.6-1.7-0.8-2.5-0.3L12,4l-0.2-0.6c-0.3-1-1-1.7-2.1-2.1C8.9,1,7.9,1,7.1,1.4C6,2,5.4,3,5.3,4.1l0,0.7L4.6,4.6
		C4,4.3,3.3,4.5,2.9,4.9C2.4,5.4,2.3,6.2,2.8,6.8l0.4,0.5L2.7,7.6C1.6,8.1,1,9,1,10.1C1,11.7,2.3,13,4,13h7v1H4c-2.2,0-4-1.7-4-3.9
		c0-1.3,0.6-2.5,1.7-3.2C1.3,6,1.4,4.9,2.2,4.2c0.6-0.6,1.4-0.8,2.2-0.7c0.2-1.3,1-2.3,2.3-2.9C7.7,0,9-0.1,10.1,0.3
		c1.4,0.5,2.1,1.4,2.5,2.2c1.1-0.4,2.3-0.1,3.2,0.7c1,1,1.2,2.5,0.5,3.7c1.1,0.7,1.7,1.9,1.7,3.2C18,12.3,16.2,14,14,14z"/>
	<path class="st8" d="M4,8V5.8l2-0.4V8H4z M7,5.3l3-0.6V8H7V5.3z M10,9l0,3.3l-3-0.6V9H10z M6,11.6l-2-0.4V9h2V11.6z"/>
	<polygon class="st9" points="13,15 13,11 12,11 12,15 11,15 11,16 12,16 12,17 13,17 13,16 14,16 14,15 	"/>
</g>
</svg>
