<svg id="Layer_1" data-name="Layer 1" xmlns="http://www.w3.org/2000/svg" width="18" height="18" viewBox="0 0 18 18"><defs><style>.cls-1{fill:#47b747;}.cls-2{fill:#606060;}.cls-3{fill:#2f80d1;}</style></defs><title>FetchHDFS</title><polygon class="cls-1" points="11 2 11 5 7 5 7 2 6 2 6 9 7 9 7 6 11 6 11 9 12 9 12 2 11 2"/><polygon class="cls-2" points="0 0 0 18 8 18 8 17 1 17 1 1 17 1 17 9 18 9 18 0 0 0"/><polygon class="cls-3" points="11 10 10 10 10 15 8 15 8 16 9 16 9 17 10 17 10 18 11 18 11 17 12 17 12 16 13 16 13 15 11 15 11 10"/><polygon class="cls-3" points="17 12 17 11 16 11 16 10 15 10 15 11 14 11 14 12 13 12 13 13 15 13 15 18 16 18 16 13 18 13 18 12 17 12"/></svg>