<svg id="Layer_1" data-name="Layer 1" xmlns="http://www.w3.org/2000/svg" width="18" height="18" viewBox="0 0 18 18"><defs><style>.cls-1{font-size:2.48px;font-family:MyriadPro-Regular, Myriad Pro;}.cls-2{letter-spacing:2.58em;}.cls-3{letter-spacing:-0.03em;}.cls-4{letter-spacing:-0.01em;}.cls-5{letter-spacing:0em;}.cls-6{letter-spacing:0em;}.cls-7{letter-spacing:0em;}.cls-8{letter-spacing:0.01em;}.cls-9{letter-spacing:-0.01em;}.cls-10{fill:#2f80d1;}.cls-11{fill:#606060;}</style></defs><title>FetchDistributedMapCache</title><text class="cls-1" transform="translate(-5.2 18.1)"> <tspan class="cls-2" x="0.5" y="0">	</tspan><tspan class="cls-3" x="0" y="3">F</tspan><tspan x="1.1" y="3">e</tspan><tspan class="cls-4" x="2.4" y="3">t</tspan><tspan class="cls-5" x="3.2" y="3">chDist</tspan><tspan class="cls-6" x="9.7" y="3">r</tspan><tspan x="10.5" y="3">ibu</tspan><tspan class="cls-4" x="13.9" y="3">t</tspan><tspan class="cls-7" x="14.7" y="3">ed</tspan><tspan class="cls-8" x="17.3" y="3">M</tspan><tspan x="19.3" y="3">ap</tspan><tspan class="cls-9" x="21.9" y="3">C</tspan><tspan x="23.4" y="3">ache</tspan></text><rect class="cls-10" x="6" y="9" width="6" height="2"/><rect class="cls-10" x="6" y="12" width="6" height="2"/><rect class="cls-10" x="6" y="15" width="6" height="2"/><path class="cls-11" d="M5,10.1H2.9a1.5,1.5,0,1,0,0,.9H5Z"/><path class="cls-11" d="M16.5,9a1.5,1.5,0,0,0-1.4,1.1H13V11h2.1a1.5,1.5,0,1,0,1.4-2Z"/><path class="cls-11" d="M14.5,2A1.5,1.5,0,0,0,13,3.5a1.5,1.5,0,0,0,.2.7l-2,2,.7.7,2-2,.7.2a1.5,1.5,0,0,0,0-3Z"/><path class="cls-11" d="M6.8,6.2l-2-2A1.5,1.5,0,0,0,5,3.5,1.5,1.5,0,1,0,3.5,5l.7-.2,2,2Z"/></svg>