<svg id="Layer_1" data-name="Layer 1" xmlns="http://www.w3.org/2000/svg" width="18" height="18" viewBox="0 0 18 18"><defs><style>.cls-1{font-size:2.48px;font-family:MyriadPro-Regular, Myriad Pro;}.cls-2{letter-spacing:2.58em;}.cls-3{letter-spacing:-0.03em;}.cls-4{letter-spacing:-0.01em;}.cls-5{letter-spacing:0em;}.cls-6{letter-spacing:-0.01em;}.cls-7{fill:#606060;}.cls-8{fill:#2f80d1;}</style></defs><title>FetchElasticsearch</title><text class="cls-1" transform="translate(0.1 18.3)"> <tspan class="cls-2" x="0.5" y="0">	</tspan><tspan class="cls-3" x="0" y="3">F</tspan><tspan x="1.1" y="3">e</tspan><tspan class="cls-4" x="2.4" y="3">t</tspan><tspan class="cls-5" x="3.2" y="3">chelasticsea</tspan><tspan class="cls-6" x="15.6" y="3">r</tspan><tspan x="16.4" y="3">ch</tspan></text><path class="cls-7" d="M17,12V7H15V8h1v4a.8.8,0,0,0,.3.5.8.8,0,0,0-.2.5v4H2V7a.8.8,0,0,0-.2-.5A.8.8,0,0,0,2,6V1H4V0H1V6H0V7H1V18H17V13h1V12Z"/><path class="cls-8" d="M10,1A3,3,0,0,0,8.2,6.4L6.6,8.7l.8.6L9,6.8,10,7a3,3,0,1,0,0-6Zm0,5a2,2,0,1,1,2-2A2,2,0,0,1,10,6Z"/></svg>