<?xml version="1.0" encoding="utf-8"?>
<!-- Generator: Adobe Illustrator 21.1.0, SVG Export Plug-In . SVG Version: 6.00 Build 0)  -->
<svg version="1.1" id="Layer_1" xmlns="http://www.w3.org/2000/svg" xmlns:xlink="http://www.w3.org/1999/xlink" x="0px" y="0px"
	 width="18px" height="18px" viewBox="0 0 18 18" style="enable-background:new 0 0 18 18;" xml:space="preserve">
<style type="text/css">
	.st0{fill:#EEF7C9;}
	.st1{fill:#E1E3E4;}
	.st2{fill:#B54747;}
	.st3{fill:none;stroke:#2F80D1;stroke-linecap:round;stroke-linejoin:round;stroke-miterlimit:10;}
	.st4{fill:none;stroke:#FFFFFF;stroke-linecap:round;stroke-miterlimit:10;}
	.st5{fill:none;stroke:#2F80D1;stroke-miterlimit:10;}
	.st6{fill:none;stroke:#FFFFFF;stroke-miterlimit:10;}
	.st7{fill:#606060;}
	.st8{fill:#2F80D1;}
	.st9{fill:#47B747;}
	.st10{fill:none;stroke:#606060;stroke-miterlimit:10;}
	.st11{fill:#FFFFFF;}
	.st12{fill:none;stroke:#47B747;stroke-miterlimit:10;}
	.st13{fill:none;stroke:#47B747;stroke-linecap:round;stroke-miterlimit:10;}
	.st14{fill:none;stroke:#47B747;stroke-linecap:round;stroke-linejoin:round;stroke-miterlimit:10;}
</style>
<g>
	<path class="st7" d="M11.1,14.7c-1,0-2.2-0.1-3-0.2v2.3c0.8,0.2,2.1,0.2,3,0.2c2.4,0,4.9-0.5,4.9-1.4h0V14
		C14.9,14.4,13,14.7,11.1,14.7z"/>
	<path class="st7" d="M11.1,10.8c-1,0-2.2-0.1-3-0.2v2.2C8.8,13,10,13,11.1,13c3,0,4.9-0.5,4.9-0.9c0,0,0,0,0-0.1v-1.9
		C14.9,10.6,13,10.8,11.1,10.8z"/>
	<path class="st7" d="M7,16H6v-3H3v3H2V9h1v3h3V9h1V16z"/>
	<g>
		<path class="st7" d="M16,5.8c0-0.9-2.5-1.3-4.9-1.3c-0.1,0-0.2,0-0.4,0c0,0.2,0.1,0.4,0.1,0.6c0,0.1,0,0.1,0,0.2
			c0.1,0,0.2,0,0.3,0c2.1,0,3.8,0.5,3.8,1.1c0,0.6-1.7,0.9-3.8,0.9C9.9,7.3,8.7,7.2,8,7v0.4V9c0.8,0.1,1.9,0.2,3,0.2
			c3,0,4.9-0.5,4.9-0.9c0,0,0,0,0-0.1L16,5.8L16,5.8z"/>
	</g>
	<path class="st9" d="M6,1l0,1c3.2,0.4,4,4.2,4,4C8.8,3.6,6,4,6,4l0,1L3,3L6,1z"/>
</g>
</svg>
