<?xml version="1.0" encoding="utf-8"?>
<!-- Generator: Adobe Illustrator 21.1.0, SVG Export Plug-In . SVG Version: 6.00 Build 0)  -->
<svg version="1.1" id="Layer_1" xmlns="http://www.w3.org/2000/svg" xmlns:xlink="http://www.w3.org/1999/xlink" x="0px" y="0px"
	 width="18px" height="18px" viewBox="0 0 18 18" style="enable-background:new 0 0 18 18;" xml:space="preserve">
<style type="text/css">
	.st0{opacity:0.32;fill:#EEF7C9;}
	.st1{fill:#E1E3E4;}
	.st2{fill:#B54747;}
	.st3{fill:none;stroke:#2F80D1;stroke-linecap:round;stroke-linejoin:round;stroke-miterlimit:10;}
	.st4{fill:none;stroke:#FFFFFF;stroke-linecap:round;stroke-miterlimit:10;}
	.st5{fill:none;stroke:#2F80D1;stroke-miterlimit:10;}
	.st6{fill:none;stroke:#FFFFFF;stroke-miterlimit:10;}
	.st7{fill:#606060;}
	.st8{fill:#2F80D1;}
	.st9{fill:#47B747;}
	.st10{fill:none;stroke:#606060;stroke-miterlimit:10;}
	.st11{fill:#FFFFFF;}
	.st12{fill:none;stroke:#47B747;stroke-miterlimit:10;}
	.st13{fill:none;stroke:#47B747;stroke-linecap:round;stroke-miterlimit:10;}
	.st14{fill:none;stroke:#47B747;stroke-linecap:round;stroke-linejoin:round;stroke-miterlimit:10;}
</style>
<g>
	<path class="st8" d="M8,11v-1H7V8H6v2H5V8H4v2H3v1h1v1H3v1h1v2h1v-2h1v2h1v-2h1v-1H7v-1H8z M6,12H5v-1h1V12z"/>
	<g>
		<rect x="10" y="3" class="st7" width="1" height="1"/>
		<rect x="11" y="4" class="st7" width="1" height="1"/>
		<path class="st7" d="M12,5v1H9V3h1V2H9H1v16h11h1v-1V6.8V5.9V5H12z M2,17V3h6v4h1h3v10H2z"/>
	</g>
	<polygon class="st9" points="16,4 16,0 15,0 15,4 14,4 14,5 15,5 15,6 16,6 16,5 17,5 17,4 	"/>
</g>
</svg>
