<svg id="Layer_1" data-name="Layer 1" xmlns="http://www.w3.org/2000/svg" width="18" height="18" viewBox="0 0 18 18"><defs><style>.cls-1{fill:#606060;}.cls-2{fill:#2f80d1;}</style></defs><title>GeoEnrichIP</title><path class="cls-1" d="M5,13.2a15.3,15.3,0,0,1,4-.5V10H4.5A15,15,0,0,0,5,13.2Z"/><path class="cls-1" d="M4.3,14.5l-1.9.9A8.9,8.9,0,0,0,6.6,18,8,8,0,0,1,4.3,14.5Z"/><path class="cls-1" d="M5.2,4.3A14.9,14.9,0,0,0,4.4,9H9V4.8H8.9A15.5,15.5,0,0,1,5.2,4.3Z"/><path class="cls-1" d="M10,4.7V9h3.4a14.9,14.9,0,0,0-.7-4.7Z"/><path class="cls-1" d="M5.6,3.3a14.3,14.3,0,0,0,3.4.4H9V.3H8.9C7.6.3,6.4,1.5,5.6,3.3Z"/><path class="cls-1" d="M6.8.1A8.9,8.9,0,0,0,2.8,2.3l1.8.8A7.3,7.3,0,0,1,6.8.1Z"/><path class="cls-1" d="M10,.6V3.7l2.3-.4A5.5,5.5,0,0,0,10,.6Z"/><path class="cls-1" d="M4.2,4l-2.1-1A9.4,9.4,0,0,0,0,9H3.4A16.1,16.1,0,0,1,4.2,4Z"/><path class="cls-1" d="M8.9,17.9H9V13.7a14.1,14.1,0,0,0-3.7.5C6.2,16.4,7.5,17.9,8.9,17.9Z"/><path class="cls-1" d="M3.5,10H0a9.4,9.4,0,0,0,1.8,4.6A9.7,9.7,0,0,1,4,13.5,16.1,16.1,0,0,1,3.5,10Z"/><path class="cls-1" d="M13.3,3.1l1.8-.8A8.9,8.9,0,0,0,11,0,7.2,7.2,0,0,1,13.3,3.1Z"/><path class="cls-1" d="M15.8,3a10.2,10.2,0,0,1-2.2,1A16.1,16.1,0,0,1,14.4,9H18A9.4,9.4,0,0,0,15.8,3Z"/><path class="cls-1" d="M11.8,10H9.6v2.5h.3A3.9,3.9,0,0,1,11.8,10Z"/><path class="cls-1" d="M10.1,14.5a3,3,0,0,1-.2-.9H9.6v3.9h.1a2.7,2.7,0,0,0,1.8-.9l-.4-.5A7.4,7.4,0,0,1,10.1,14.5Z"/><path class="cls-1" d="M17.4,12.5A8.8,8.8,0,0,0,18,10H15.5A3.8,3.8,0,0,1,17.4,12.5Z"/><path class="cls-2" d="M14.7,10.7l-.7-.2h-1a2.9,2.9,0,0,0-2.2,2.6h0a1.5,1.5,0,0,0,0,.3v.5a6.4,6.4,0,0,0,.9,1.4l.3.3.5.6.9.9h.1a12.7,12.7,0,0,0,2.5-3.1,2.7,2.7,0,0,0,.3-.7v-.2A2.8,2.8,0,0,0,14.7,10.7Zm-.1,2.7a1.2,1.2,0,0,1-.8.5h-.2a1.2,1.2,0,0,1-1.2-1v-.2h0a1.3,1.3,0,0,1,1.2-1.2h.3l.6.4a1.1,1.1,0,0,1,.1,1.5Z"/></svg>