<svg id="Layer_1" data-name="Layer 1" xmlns="http://www.w3.org/2000/svg" width="18" height="18" viewBox="0 0 18 18"><defs><style>.cls-1{font-size:2.48px;font-family:MyriadPro-Regular, Myriad Pro;}.cls-2{letter-spacing:2.58em;}.cls-3{letter-spacing:0.01em;}.cls-4{letter-spacing:0.01em;}.cls-5{letter-spacing:-0.01em;}.cls-6{letter-spacing:-0.01em;}.cls-7{letter-spacing:0em;}.cls-8{fill:#606060;}.cls-9{fill:#2f80d1;}</style></defs><title>GetAzureEventHub</title><text class="cls-1" transform="translate(-1 15.5)"> <tspan class="cls-2" x="0.5" y="0">	</tspan><tspan x="0" y="3"> </tspan><tspan class="cls-2" x="0.5" y="3">	</tspan><tspan class="cls-3" x="0" y="5.9">G</tspan><tspan x="1.6" y="5.9">et</tspan><tspan class="cls-4" x="3.7" y="5.9">A</tspan><tspan x="5.2" y="5.9">zu</tspan><tspan class="cls-5" x="7.7" y="5.9">r</tspan><tspan x="8.4" y="5.9">e</tspan><tspan class="cls-6" x="9.7" y="5.9">E</tspan><tspan class="cls-5" x="10.9" y="5.9">v</tspan><tspan x="12.1" y="5.9">e</tspan><tspan class="cls-7" x="13.3" y="5.9">n</tspan><tspan x="14.7" y="5.9">tHub</tspan></text><polygon class="cls-8" points="17 17 1 17 1 15 0 15 0 17 0 18 18 18 18 17 18 15 17 15 17 17"/><polygon class="cls-8" points="0 0 0 1 0 3 1 3 1 1 17 1 17 2.9 18 2.9 18 1 18 0.9 18 0 0 0"/><rect class="cls-9" x="4" y="4" width="3" height="3"/><rect class="cls-9" x="4" y="8" width="3" height="3"/><rect class="cls-9" x="4" y="12" width="3" height="3"/><rect class="cls-9" x="8" y="10" width="3" height="3"/><rect class="cls-9" x="8" y="6" width="3" height="3"/><rect class="cls-9" x="12" y="8" width="3" height="3"/></svg>