<svg id="Layer_1" data-name="Layer 1" xmlns="http://www.w3.org/2000/svg" viewBox="0 0 18 18"><defs><style>.cls-1{fill:#606060;}.cls-2{fill:#47b747;}</style></defs><title>GetAzureIOTHub</title><path class="cls-1" d="M16.16,14.15,15,11.25a2.86,2.86,0,0,0-2-5L11.79,3.34a1.44,1.44,0,1,0-.89.36L12,6.45a2.85,2.85,0,0,0-1.46,1.34L8.33,7.61a1.41,1.41,0,0,0,0-.17,1.44,1.44,0,1,0,0,1.12l2,.16A2.73,2.73,0,0,0,10.92,11L9.69,12.78a1.46,1.46,0,1,0,.84.46l1.13-1.65a2.86,2.86,0,0,0,2.51.18l1.11,2.74a1.44,1.44,0,1,0,.89-.36Zm-2.36-3.27a1.91,1.91,0,1,1,1.06-2.49A1.92,1.92,0,0,1,13.81,10.88Z"/><polygon class="cls-2" points="6 6 6 5 7 5 7 4 8 4 8 2 7 2 7 1 6 1 6 0 5 0 5 2 0 2 0 4 5 4 5 6 6 6"/><polygon class="cls-1" points="1 14 0 14 0 17 0 18 1 18 4 18 4 17 1 17 1 14"/><polygon class="cls-1" points="17 0 14 0 14 1 17 1 17 4 18 4 18 1 18 0 17 0"/></svg>