<svg id="Layer_1" data-name="Layer 1" xmlns="http://www.w3.org/2000/svg" viewBox="0 0 18 18"><defs><style>.cls-1{fill:#47b747;}.cls-2{fill:none;}.cls-3{fill:#2f80d1;}.cls-4{fill:#606060;}</style></defs><title>GetAllSalesforceObjects</title><polygon class="cls-1" points="7 1 6 1 6 0 5 0 5 2 0 2 0 4 5 4 5 6 6 6 6 5 7 5 7 4 8 4 8 2 7 2 7 1"/><polygon class="cls-2" points="6.21 5.72 6.22 5.7 6.16 5.7 6.21 5.72"/><path class="cls-3" d="M14.18,10.05,10,11.45v5.37L14.3,18,18,16.82V11.45Zm-.28,7-3.1-.85V12.55l3.1,1.2Zm.38-4-3-1.17,2.92-1,2.57.94Zm2.93,3.2L14.7,17V13.72l2.51-1.23Z"/><path class="cls-4" d="M2.69,6.51A3.27,3.27,0,0,0,3.34,13H9V12H3a1.83,1.83,0,0,1-2-2A2.61,2.61,0,0,1,2.88,7.52l.72-.14.1-.73A1.2,1.2,0,0,1,4,6H2.83A2.21,2.21,0,0,0,2.69,6.51Z"/><polygon class="cls-4" points="6.21 5.72 6.22 5.7 6.16 5.7 6.21 5.72"/><path class="cls-4" d="M15.94,7.2A5.28,5.28,0,0,0,9,2.27V3.34A4.33,4.33,0,0,1,10.63,3,4.28,4.28,0,0,1,14.94,7.2V8l.77.18A1.86,1.86,0,0,1,16.87,9H18A2.89,2.89,0,0,0,15.94,7.2Z"/></svg>