<svg id="Layer_1" data-name="Layer 1" xmlns="http://www.w3.org/2000/svg" width="18" height="18" viewBox="0 0 18 18"><defs><style>.cls-1{fill:#47b747;}.cls-2{fill:#606060;}</style></defs><title>GetCouchbaseKey</title><polygon class="cls-1" points="6 2 6 1 5 1 5 0 4 0 4 2 0 2 0 4 4 4 4 6 5 6 5 5 6 5 6 4 7 4 7 2 6 2"/><polygon class="cls-2" points="1 7.9 1 17 17 17 17 1 9 1 9 0.1 9 0 18 0 18 18 0 18 0 7.9 1 7.9"/><path class="cls-2" d="M14,9h-.7a.3.3,0,0,0-.2.3V12H5V9.3A.3.3,0,0,0,4.8,9H4a1,1,0,0,0-1,1v3a1,1,0,0,0,1,1H14a1,1,0,0,0,1-1V10A1,1,0,0,0,14,9Z"/></svg>