<svg id="Layer_1" data-name="Layer 1" xmlns="http://www.w3.org/2000/svg" width="18" height="18" viewBox="0 0 18 18"><defs><style>.cls-1{fill:#2f80d1;}.cls-2{fill:#606060;}.cls-3{fill:#47b747;}</style></defs><title>GetFTP</title><path class="cls-1" d="M2.8,9.4H6.1v.8H3.7v1.3H5.9v.8H3.7v1.9H2.8Z"/><path class="cls-1" d="M6.3,9.4h4v.8H8.8v4.1H7.8V10.3H6.3Z"/><path class="cls-1" d="M14.4,9.9a1.6,1.6,0,0,1,.5,1.2,1.7,1.7,0,0,1-.5,1.3,2,2,0,0,1-1.4.5H11.9v1.4H11V9.4h2A2.1,2.1,0,0,1,14.4,9.9Zm-.7,2a.8.8,0,0,0,.3-.7.8.8,0,0,0-.3-.7l-.8-.2h-1v1.8h1A1.3,1.3,0,0,0,13.7,11.8Z"/><polygon class="cls-2" points="1 7.9 1 17 17 17 17 1 9 1 9 0.1 9 0 18 0 18 18 0 18 0 7.9 1 7.9"/><polygon class="cls-3" points="7 1 6 1 6 0 5 0 5 2 0 2 0 4 5 4 5 6 6 6 6 5 7 5 7 4 8 4 8 2 7 2 7 1"/></svg>