<svg id="Layer_1" data-name="Layer 1" xmlns="http://www.w3.org/2000/svg" viewBox="0 0 18 18"><defs><style>.cls-1{fill:#47b747;}.cls-2{fill:#606060;}.cls-3{fill:#2f80d1;}</style></defs><title>GetFacebook</title><polygon class="cls-1" points="5 2 0 2 0 4 5 4 5 6 7.98 3 5 0 5 2"/><polygon class="cls-2" points="18 18 0 18 0 9 1 9 1 17 17 17 17 1 9 1 9 0 18 0 18 18"/><path class="cls-3" d="M12.57,15.5v-5h1.62l.24-2H12.57V7.28c0-.57.15-1,.93-1h1V4.58A12.87,12.87,0,0,0,13,4.5a2.31,2.31,0,0,0-2.42,2.58V8.53H9v2h1.63v5h1.94Z"/></svg>