<svg id="Layer_1" data-name="Layer 1" xmlns="http://www.w3.org/2000/svg" width="18" height="18" viewBox="0 0 18 18"><defs><style>.cls-1{fill:#47b747;}.cls-2{fill:#606060;}</style></defs><title>GetHBase</title><polygon class="cls-1" points="7 1 6 1 6 0 5 0 5 2 0 2 0 4 5 4 5 6 6 6 6 5 7 5 7 4 8 4 8 2 7 2 7 1"/><path class="cls-2" d="M17,10.5c-.1-.1-.2-.1-.3,0l-.3.5,1,1.9A2.3,2.3,0,0,0,17,10.5Z"/><path class="cls-2" d="M13,14.6a.3.3,0,0,0-.1-.2,4.4,4.4,0,0,1-1.3-1.4,1.3,1.3,0,0,0-1.1-.6H7.8c-.2,0-.3.1-.2.3l.4.7a4.3,4.3,0,0,0,2.7,1.5,4.6,4.6,0,0,0,2.2-.1Z"/><path class="cls-2" d="M17.6,14a15,15,0,0,0-2.3-4.2l-.8-1.1a1.3,1.3,0,0,1-.3-1c.1-.7.1-1.3.1-2a3,3,0,0,0-.2-.9,1.1,1.1,0,0,0-.6-.7c-.2-.1-.3,0-.3.2L12.8,6l-.2.4a.9.9,0,0,1-1,.5,14.2,14.2,0,0,0-2.9-.2A6.7,6.7,0,0,0,4.1,8.8,21.4,21.4,0,0,0,2.2,11c-.1.1-.1.3-.4.3A2.2,2.2,0,0,0,.2,13.6a.6.6,0,0,0,0,.2H.3a.9.9,0,0,1,.7-.6l.6-.2H2a.6.6,0,0,0,.6-.5V13a.3.3,0,0,0,.3.2h.6c.2,0,.1.1.2.1s.2.2.3.4h.1a.9.9,0,0,0,.2-1.2L3.8,12l-.4-.6-1,1h0a4.5,4.5,0,0,1,3.1-1.9,3.3,3.3,0,0,1,2.1.5L9,12l.6.2h.9a1.5,1.5,0,0,1,1.2.6l.5.7.6.6.2.2c.2.2.1.4-.1.5l-.8.2h.1l.3.3h0a7.1,7.1,0,0,0,1.6,1.1l1.7,1A1.7,1.7,0,0,0,17,18a1,1,0,0,0,.9-.8v-.9A4.9,4.9,0,0,0,17.6,14ZM6.9,10.3h0Zm7.2,4.2a1.2,1.2,0,0,1-.6-1v-.2c-.1-.2-.1-.3.2-.3a1.7,1.7,0,0,1,1.5,1.3.8.8,0,0,1,0,.4V15h-.4Z"/></svg>