<svg id="Layer_1" data-name="Layer 1" xmlns="http://www.w3.org/2000/svg" width="18" height="18" viewBox="0 0 18 18"><defs><style>.cls-1{fill:#2f80d1;}.cls-2{fill:#606060;}.cls-3{fill:#47b747;}</style></defs><title>GetHDFSSequenceFile</title><polygon class="cls-1" points="9 8 9 11 5 11 5 8 4 8 4 15 5 15 5 12 9 12 9 15 10 15 10 8 9 8"/><polygon class="cls-2" points="18 18 17 18 17 1 9 1 9 0 18 0 18 18"/><polygon class="cls-3" points="7 1 6 1 6 0 5 0 5 2 0 2 0 4 5 4 5 6 6 6 6 5 7 5 7 4 8 4 8 2 7 2 7 1"/><polygon class="cls-2" points="10 3 10 3 10 4 14 4 14 17 1 17 1 7 0 7 0 18 15 18 15 3 10 3"/></svg>