<svg id="Layer_1" data-name="Layer 1" xmlns="http://www.w3.org/2000/svg" width="18" height="18" viewBox="0 0 18 18"><defs><style>.cls-1{fill:#2f80d1;}.cls-2{fill:#606060;}.cls-3{fill:#47b747;}</style></defs><title>GetHDFS</title><polygon class="cls-1" points="13 7 13 11 7 11 7 7 6 7 6 16 7 16 7 12 13 12 13 16 14 16 14 7 13 7"/><polygon class="cls-2" points="9 0 18 0 18 18 0 18 0 7.9 1 7.9 1 17 17 17 17 1 9 1 9 0.1 9 0.1 9 0"/><polygon class="cls-3" points="7 1 6 1 6 0 5 0 5 2 0 2 0 4 5 4 5 6 6 6 6 5 7 5 7 4 8 4 8 2 7 2 7 1"/></svg>