<svg id="Layer_1" data-name="Layer 1" xmlns="http://www.w3.org/2000/svg" viewBox="0 0 18 18"><defs><style>.cls-1{fill:#47b747;}.cls-2{fill:#606060;}.cls-3{fill:#2f80d1;}</style></defs><title>GetLinkedIn</title><polygon class="cls-1" points="5 2 0 2 0 4 5 4 5 6 7.98 3 5 0 5 2"/><polygon class="cls-2" points="18 18 0 18 0 9 1 9 1 17 17 17 17 1 9 1 9 0 18 0 18 18"/><path id="path28" class="cls-3" d="M7.27,15.56V9.11H5.13v6.45ZM6.2,8.23A1.12,1.12,0,1,0,6.21,6a1.12,1.12,0,1,0,0,2.23h0Z"/><path id="path30" class="cls-3" d="M8.46,15.56H10.6V12a1.47,1.47,0,0,1,.07-.52,1.17,1.17,0,0,1,1.1-.78c.78,0,1.09.59,1.09,1.46v3.45H15v-3.7c0-2-1.06-2.9-2.47-2.9A2.14,2.14,0,0,0,10.59,10h0V9.11H8.46c0,.61,0,6.45,0,6.45Z"/></svg>