<svg id="Layer_1" data-name="Layer 1" xmlns="http://www.w3.org/2000/svg" viewBox="0 0 18 18"><defs><style>.cls-1{fill:#47b747;}.cls-2{fill:#606060;}</style></defs><title>GetRethinkDB</title><polygon class="cls-1" points="7 1 6 1 6 0 5 0 5 2 0 2 0 4 5 4 5 6 6 6 6 5 7 5 7 4 8 4 8 2 7 2 7 1"/><path class="cls-2" d="M10.75,5.5c.71,0,1.59-.05,2.46,0a3.94,3.94,0,0,1,1.91.69A3.14,3.14,0,0,1,16.41,9a3.29,3.29,0,0,1-2.06,3.29c-.16.07-.18.12-.09.28.67,1.15,1.34,2.29,2,3.45a1.54,1.54,0,0,0,1.4.85c.29,0,.32,0,.34.34a1.51,1.51,0,0,1,0,.18c0,.55-.09.63-.6.63h-.9A1.63,1.63,0,0,1,15,17.09Q13.79,15,12.61,12.95a.3.3,0,0,0-.34-.19,7.06,7.06,0,0,1-.81,0c-.13,0-.15.05-.15.18,0,1.23,0,2.47,0,3.7,0,.16.06.18.19.18h1.44c.2,0,.29.09.3.29s0,.2,0,.3c0,.45-.13.56-.54.56H8.53c-.25,0-.31-.06-.32-.33a1.58,1.58,0,0,1,0-.34c.07-.37.19-.47.54-.47a2.55,2.55,0,0,0,.58-.05c.27-.06.34-.15.34-.46q0-3.87,0-7.74c0-.54,0-1.07,0-1.61,0-.22,0-.32-.27-.3s-.67,0-1,0a.3.3,0,0,1-.33-.26A1.59,1.59,0,0,1,8,5.77c0-.19.11-.27.3-.27Zm.56,3.63q0,1.09,0,2.18c0,.1,0,.21.13.2a6,6,0,0,0,2-.31,1.78,1.78,0,0,0,1.12-1.34,3.65,3.65,0,0,0,0-1.34A1.68,1.68,0,0,0,13.27,7a7.22,7.22,0,0,0-1.78-.23c-.16,0-.19.05-.19.21C11.31,7.71,11.31,8.42,11.31,9.13Z"/></svg>