<svg id="Layer_1" data-name="Layer 1" xmlns="http://www.w3.org/2000/svg" width="18" height="18" viewBox="0 0 18 18"><defs><style>.cls-1{font-size:7px;fill:#2f80d1;font-family:Montserrat-Medium, Montserrat;}.cls-2{fill:#606060;}.cls-3{fill:#47b747;}</style></defs><title>GetSQ</title><text class="cls-1" transform="translate(2 14)">SQS</text><polygon class="cls-2" points="9 0 18 0 18 18 0 18 0 7.9 1 7.9 1 17 17 17 17 1 9 1 9 0.1 9 0.1 9 0"/><polygon class="cls-3" points="7 2 7 1 6 1 6 0 5 0 5 2 0 2 0 4 5 4 5 6 6 6 6 5 7 5 7 4 8 4 8 2 7 2"/></svg>