<svg id="Layer_1" data-name="Layer 1" xmlns="http://www.w3.org/2000/svg" viewBox="0 0 18 18"><defs><style>.cls-1{fill:#2f80d1;}.cls-2{fill:#47b747;}.cls-3{fill:#606060;}</style></defs><title>GetSalesforceRecord</title><rect class="cls-1" x="7" y="15" width="3" height="1"/><rect class="cls-1" x="7" y="12" width="6" height="1"/><polygon class="cls-2" points="7 1 6 1 6 0 5 0 5 2 0 2 0 4 5 4 5 6 6 6 6 5 7 5 7 4 8 4 8 2 7 2 7 1"/><path class="cls-3" d="M1,14.66a2.24,2.24,0,0,1,1.82-2.18l.71-.14.1-.72a1.26,1.26,0,0,1,1.26-1.07,1.29,1.29,0,0,1,.51.1l.82.35.44-.79a4.33,4.33,0,0,1,8.11,2V13l.77.18A1.86,1.86,0,0,1,17,15a1.81,1.81,0,0,1-.29,1h1.11A2.83,2.83,0,0,0,18,15a2.88,2.88,0,0,0-2.25-2.8,5.33,5.33,0,0,0-10-2.5,2.27,2.27,0,0,0-3.15,1.77A3.24,3.24,0,0,0,0,14.66,3.18,3.18,0,0,0,.3,16H1.47A2.17,2.17,0,0,1,1,14.66Z"/><path class="cls-3" d="M3.27,18H15.1a2.91,2.91,0,0,0,2.72-2H16.71a1.89,1.89,0,0,1-1.61.93H3.27A2.23,2.23,0,0,1,1.47,16H.3A3.26,3.26,0,0,0,3.27,18Z"/></svg>