<svg id="Layer_1" data-name="Layer 1" xmlns="http://www.w3.org/2000/svg" viewBox="0 0 18 18"><defs><style>.cls-1{fill:#606060;}.cls-2{fill:#2f80d1;}.cls-3{fill:#ff6364;}.cls-4{fill:#47b747;}</style></defs><title>GetSalesforceDeletedList</title><path class="cls-1" d="M10.43,8a4.32,4.32,0,0,1,4.32,4.25v.81l.77.18A1.88,1.88,0,0,1,15.1,17H3.27a2.24,2.24,0,0,1-.45-4.44l.71-.14.1-.73a1.26,1.26,0,0,1,1.26-1.08,1.28,1.28,0,0,1,.51.11l.82.35.44-.79A4.33,4.33,0,0,1,10.43,8m0-1A5.32,5.32,0,0,0,5.77,9.75a2.27,2.27,0,0,0-3.15,1.78A3.27,3.27,0,0,0,3.27,18H15.1a2.9,2.9,0,0,0,.66-5.73A5.32,5.32,0,0,0,10.43,7Z"/><rect class="cls-2" x="7" y="11" width="6" height="1"/><rect class="cls-2" x="7" y="14" width="2" height="1"/><polygon class="cls-3" points="13 13.43 12.57 13 11.5 14.07 10.43 13 10 13.43 11.07 14.5 10 15.57 10.43 16 11.5 14.93 12.57 16 13 15.57 11.93 14.5 13 13.43"/><polygon class="cls-4" points="7 1 6 1 6 0 5 0 5 2 0 2 0 4 5 4 5 6 6 6 6 5 7 5 7 4 8 4 8 2 7 2 7 1"/></svg>