<?xml version="1.0" encoding="utf-8"?>
<!-- Generator: Adobe Illustrator 21.1.0, SVG Export Plug-In . SVG Version: 6.00 Build 0)  -->
<svg version="1.1" id="Layer_1" xmlns="http://www.w3.org/2000/svg" xmlns:xlink="http://www.w3.org/1999/xlink" x="0px" y="0px"
	 viewBox="0 0 18 18" style="enable-background:new 0 0 18 18;" xml:space="preserve">
<style type="text/css">
	.st0{fill:none;stroke:#606060;stroke-miterlimit:10;}
	.st1{fill:#47B747;}
	.st2{fill:#0072C5;}
	.st3{fill:#606060;}
	.st4{fill:none;}
	.st5{opacity:0;clip-path:url(#SVGID_2_);fill:#FFFFFF;}
	.st6{clip-path:url(#SVGID_2_);}
	.st7{fill:none;stroke:#0072C5;stroke-miterlimit:10;}
	.st8{fill:#FFFFFF;stroke:#606060;stroke-miterlimit:10;}
	.st9{fill:#0172C6;}
	.st10{fill:#FDFDFE;}
	.st11{fill:#FFFFFF;stroke:#0072C5;stroke-miterlimit:10;}
	.st12{fill:#F8B221;}
	.st13{opacity:0.6;fill:#FEFEFE;}
	.st14{opacity:0;clip-path:url(#SVGID_6_);fill:#FFFFFF;}
	.st15{clip-path:url(#SVGID_6_);}
	.st16{fill-rule:evenodd;clip-rule:evenodd;fill:#FFFFFF;}
</style>
<g>
	<g>
		<g>
			<polygon class="st1" points="7,1 6,1 6,0 5,0 5,2 0,2 0,4 5,4 5,6 6,6 6,5 7,5 7,4 8,4 8,2 7,2 			"/>
		</g>
	</g>
</g>
<polygon class="st16" points="9,11.2 10,10.5 9.2,11.4 "/>
<g>
	<path id="path1_2_" class="st3" d="M11.9,16.6l-2.6,0.8c0.7,0.1,1.6,0.2,1.9,0.2c0,0,0,0,0,0c0.1,0,0.2-0.1,0.3-0.2
		c0-0.1,0.1-0.1,0.1-0.2C11.7,17,11.8,16.8,11.9,16.6z M9.8,15.9l-1,1.4l3-0.9L9.8,15.9z M9.3,15.9c-0.4,0.1-0.8,0.2-1.2,0.3
		c-0.4,0.1-0.8,0.2-1.1,0.3C7.3,16.7,8,17,8.4,17.2l0.1,0.1L9.3,15.9z M8.1,14.7l-1.3,1.6l0,0l2.3-0.8L8.1,14.7z M7.8,14.6l-1.9,0.4
		c0,0.4,0.4,1,0.8,1.2L7.8,14.6z M12.5,14.5l-2.5,1.2c0.6,0.3,1.2,0.4,1.8,0.6c0.1,0,0.1,0,0.1-0.1c0.1-0.4,0.3-0.9,0.4-1.3
		L12.5,14.5z M10.5,13.8l-2,0.7l1.2,1L10.5,13.8z M10.9,13.7l-0.7,1.5l2.3-0.9L10.9,13.7z M7.6,13.1c-0.6,0.4-1.3,0.9-1.7,1.7
		l1.9-0.6v0L7.6,13.1z M12.8,12.5l-1.6,1l1.5,0.7L12.8,12.5z M9.1,12.3l-0.2,0.1c-0.2,0.1-0.5,0.2-0.7,0.4c0,0-0.1,0.1-0.1,0.1
		C8,13.3,8,13.7,8.2,14L9.1,12.3L9.1,12.3z M9.6,12.2L8.7,14l1.7-0.6L9.6,12.2z M11,11.6L9.8,12l0.8,1.1l0.1,0L11,11.6z M11.3,11.5
		l-0.2,1.6l1.6-0.9L11.3,11.5z M12.6,11l-1.1,0.4l1.2,0.7L12.6,11z M9.8,10.8L9.8,10.8c-0.5,0.3-0.9,0.6-1.2,1.1L9.8,10.8L9.8,10.8z
		 M10.3,10.7l-1.3,1.2c0.1,0,0.2-0.1,0.2-0.1c0.3-0.1,0.6-0.2,0.9-0.4c0.2-0.1,0.4-0.2,0.4-0.2C10.6,11.1,10.5,11,10.3,10.7
		C10.4,10.7,10.4,10.7,10.3,10.7z M9.7,10.1l-0.3,0.7l0.7-0.5L9.7,10.1z M12.1,9.5l-1.4,0.8l0.2,0.8L12.1,9.5L12.1,9.5z M12.7,9.4
		L11.3,11l2.5-0.8L12.7,9.4z M10.9,8.7L9.9,9.6l0.5,0.4L10.9,8.7L10.9,8.7z M11.4,8.6L11,9.7L12.2,9L11.4,8.6z M15.9,8.2
		c-0.3,0.7-0.8,1.3-1.4,1.9c0.5-0.1,1-0.2,1.5-0.3c0.5-0.1,1-0.2,1.5-0.3C17,8.9,16.6,8.5,15.9,8.2z M9.8,8.1v1.2l1-0.9L9.8,8.1z
		 M15.6,8.1L13.1,9l1,1.1L15.6,8.1L15.6,8.1z M13.5,7.2l-0.4,1.4l2.3-0.7l0,0L13.5,7.2z M13.2,7.2l-1.6,1l1,0.5L13.2,7.2L13.2,7.2z
		 M11.2,6.8l0.2,1.1l1.5-0.8L11.2,6.8z M10.9,6.8L9.9,7.7L11.1,8L10.9,6.8L10.9,6.8z M9.3,6.5l0.4,1l1-0.7L9.3,6.5z M8.4,6.2
		c0.3,0.3,0.5,0.5,0.8,0.9C9.1,6.5,9.1,6.4,8.4,6.2z M10.9,5.8l-0.6,0.5l0.1,0c0.1,0,0.2,0,0.4,0.1c0.1,0,0.2,0,0.4,0.1l0.1,0
		L10.9,5.8z M8.9,5.3c0,0,0.1,0.1,0.1,0.1c0.2,0.2,0.4,0.4,0.6,0.7c0,0,0.1,0,0.1,0c0,0,0.1,0,0.1,0c0.2-0.1,0.4-0.2,0.7-0.4
		c0.1,0,0.1-0.1,0.2-0.1L8.9,5.3z M8.4,5.3c0,0-0.1,0.1-0.2,0.1C8.1,5.5,7.8,5.6,7.9,5.7c0,0,0,0,0,0C8.3,5.9,8.7,6,9.1,6.1l0,0
		L8.8,5.7C8.7,5.6,8.6,5.4,8.4,5.3z M10.4,4.4L8.8,5.1l1.9,0.3L10.4,4.4z M10.5,4.1L10.5,4.1c0.1,0.2,0.2,0.4,0.3,0.6
		c0.2,0.5,0.5,1,0.7,1.5c0.1,0.2,0.3,0.3,0.5,0.4c1.2,0.2,2.3,0.4,3.2,0.8c1.2,0.5,2.1,1.2,2.7,2.1c0,0,0,0.1,0,0.1l0,0.1l-5,1.2
		c0,0.1,0,0.2,0,0.3c0,0.2,0,0.5,0.1,0.7c0.1,1.8-0.3,3.7-1.2,5.4l0,0c-0.2,0.5-0.3,0.6-0.7,0.6c-0.1,0-0.2,0-0.4,0
		c-1.1-0.1-2.3-0.2-3.5-0.7c-0.7-0.3-1.2-0.6-1.6-1c-0.5-0.5-0.5-1.1-0.1-1.7c0.2-0.3,0.5-0.6,0.8-0.9c1-0.8,1.8-1.6,2.4-2.5
		c0.7-1,0.8-2,0.5-3C9.2,7.5,8.8,7,8.5,6.7L8.4,6.6C8.1,6.4,7.9,6.2,7.7,6C7.6,5.8,7.5,5.7,7.6,5.6c0-0.1,0.1-0.2,0.2-0.3
		c0.4-0.3,0.9-0.5,1.5-0.8c0.3-0.1,0.6-0.2,0.9-0.3C10.3,4.2,10.4,4.2,10.5,4.1L10.5,4.1z"/>
</g>
</svg>
