<svg id="Layer_1" data-name="Layer 1" xmlns="http://www.w3.org/2000/svg" width="18" height="18" viewBox="0 0 18 18"><defs><style>.cls-1{fill:#2f80d1;}.cls-2{fill:#47b747;}</style></defs><title>GetSplunk </title><path class="cls-1" d="M17.7,18c-1.7-1.1-3.6-2-5.4-3L6.2,11.7a.8.8,0,0,1-.5-.9,1.7,1.7,0,0,0,0-.5.8.8,0,0,1,.6-1l11-5.9c.2-.1.4-.1.5-.3h.1a6.7,6.7,0,0,1,.1,2.7c0,.3-.3.4-.5.5l-7.4,4c-.2.1-.4.1-.5.4l2.9,1.5,5,2.6a.9.9,0,0,1,.6,1,6.2,6.2,0,0,1-.2,2.2Z"/><polygon class="cls-2" points="6 1 5 1 5 0 4 0 4 2 0 2 0 4 4 4 4 6 5 6 5 5 6 5 6 4 7 4 7 2 6 2 6 1"/></svg>