<svg id="Layer_1" data-name="Layer 1" xmlns="http://www.w3.org/2000/svg" viewBox="0 0 18 18"><defs><style>.cls-1{fill:#47b747;}.cls-2{fill:#2f80d1;}.cls-3{fill:#606060;}</style></defs><title>GetSalesforceUpdatedList</title><path class="cls-1" d="M12,12a3.5,3.5,0,1,0,3.35-.91V12a2.62,2.62,0,1,1-3.5,2.47,2.59,2.59,0,0,1,.78-1.85l1.41,1.41V11H11Z"/><rect class="cls-2" x="7" y="7" width="6" height="1"/><rect class="cls-2" x="7.12" y="10" width="2.88" height="1"/><polygon class="cls-1" points="7 1 6 1 6 0 5 0 5 2 0 2 0 4 5 4 5 6 6 6 6 5 7 5 7 4 8 4 8 2 7 2 7 1"/><path class="cls-3" d="M2.69,7.51A3.27,3.27,0,0,0,3.34,14H9V13H3.34a2.25,2.25,0,0,1-.46-4.46l.72-.14.1-.73A1.2,1.2,0,0,1,4,7H2.83A2.21,2.21,0,0,0,2.69,7.51Z"/><path class="cls-3" d="M15.94,8.2A5.28,5.28,0,0,0,9,3.27V4.34A4.33,4.33,0,0,1,10.63,4,4.28,4.28,0,0,1,14.94,8.2V9l.77.18a1.86,1.86,0,0,1,1.15.82H18A2.89,2.89,0,0,0,15.94,8.2Z"/></svg>