<svg id="Layer_1" data-name="Layer 1" xmlns="http://www.w3.org/2000/svg" viewBox="0 0 18 18"><defs><style>.cls-1{fill:#2f80d1;}.cls-2{fill:#47b747;}.cls-3{fill:#606060;}.cls-4{fill:none;}</style></defs><title>GetSalesforceObjectMetadata</title><rect class="cls-1" x="7" y="15" width="3" height="1"/><rect class="cls-1" x="7" y="12" width="5" height="1"/><polygon class="cls-2" points="7 1 6 1 6 0 5 0 5 2 0 2 0 4 5 4 5 6 6 6 6 5 7 5 7 4 8 4 8 2 7 2 7 1"/><path class="cls-3" d="M10.43,8.26a4.27,4.27,0,0,1,4.32,4.16v.79l.77.17A1.84,1.84,0,0,1,17,15.16,1.87,1.87,0,0,1,15.1,17H3.27a2.18,2.18,0,0,1-.45-4.33l.71-.14.1-.71a1.25,1.25,0,0,1,1.26-1.06,1.3,1.3,0,0,1,.51.1l.82.35.44-.78a4.35,4.35,0,0,1,3.79-2.18m0-1A5.34,5.34,0,0,0,5.77,9.94a2.31,2.31,0,0,0-.9-.18,2.25,2.25,0,0,0-2.25,1.92A3.18,3.18,0,0,0,3.27,18H15.1a2.83,2.83,0,0,0,.66-5.6,5.26,5.26,0,0,0-5.32-5.15Z"/><path class="cls-4" d="M17.35,12.42l-.94-.21v-1a5.18,5.18,0,0,0-5.24-5A5.32,5.32,0,0,0,7.72,7.49L8.35,10,19,13.88A2.26,2.26,0,0,0,17.35,12.42Z"/><path class="cls-3" d="M17.58,10.43A5.71,5.71,0,0,0,11.67,5,6.27,6.27,0,0,0,10,5.24V6.34a5.07,5.07,0,0,1,1.67-.29,4.64,4.64,0,0,1,4.8,4.39v.84l.86.18a2.18,2.18,0,0,1,.66.27V10.55A3.36,3.36,0,0,0,17.58,10.43Z"/></svg>