<svg id="Layer_1" data-name="Layer 1" xmlns="http://www.w3.org/2000/svg" width="18" height="18" viewBox="0 0 18 18"><defs><style>.cls-1{fill:#2f80d1;}</style></defs><title>GetTwitter</title><path class="cls-1" d="M18,3.9a7.4,7.4,0,0,1-2.1.6,3.7,3.7,0,0,0,1.6-2,7.4,7.4,0,0,1-2.3.9A3.7,3.7,0,0,0,8.9,6.7,10.5,10.5,0,0,1,1.3,2.8,3.7,3.7,0,0,0,2.4,7.7,3.7,3.7,0,0,1,.7,7.3h0a3.7,3.7,0,0,0,3,3.6H2a3.7,3.7,0,0,0,3.4,2.6A7.4,7.4,0,0,1,.9,15.2H0a10.5,10.5,0,0,0,5.7,1.7A10.4,10.4,0,0,0,16.2,6.3q0-.2,0-.5A7.5,7.5,0,0,0,18,3.9Z"/></svg>