<svg id="Layer_1" data-name="Layer 1" xmlns="http://www.w3.org/2000/svg" width="18" height="18" viewBox="0 0 18 18"><defs><style>.cls-1{fill:#606060;}.cls-2{fill:#47b747;}.cls-3{fill:#2f80d1;}</style></defs><title>HandleHttpResponse</title><polygon class="cls-1" points="17 17 1 17 1 1 9 1 9 0 0 0 0 18 18 18 18 8 17 8 17 17"/><polygon class="cls-2" points="18 3 13 3 13 0.8 10 3.8 13 6.8 13 5 18 5 18 3"/><path class="cls-3" d="M2.4,11.6h.7V13H4.8V11.6h.7V15H4.8V13.6H3.1V15H2.4Z"/><path class="cls-3" d="M6.2,11.6H9v.6H7.9V15H7.3V12.2H6.2Z"/><path class="cls-3" d="M9.4,11.6h2.8v.6H11.1V15h-.7V12.2H9.4Z"/><path class="cls-3" d="M15.3,11.9a1.1,1.1,0,0,1,.4.9,1.2,1.2,0,0,1-.4.9,1.4,1.4,0,0,1-1,.3h-.7v1h-.7V11.6h1.4A1.5,1.5,0,0,1,15.3,11.9Zm-.5,1.4a.6.6,0,0,0,.2-.5.6.6,0,0,0-.2-.5l-.6-.2h-.7v1.3h.7Z"/></svg>