<svg id="Layer_1" data-name="Layer 1" xmlns="http://www.w3.org/2000/svg" width="18" height="18" viewBox="0 0 18 18"><defs><style>.cls-1{fill:#606060;}</style></defs><title>Hash Attribute</title><polygon class="cls-1" points="0 0 0 18 9 18 9 17 1 17 1 1 17 1 17 9 18 9 18 0 0 0"/><path class="cls-1" d="M12,7V6H11V4h-.8V6H6.8V4H6V6H5V7H6V9H5v1H6.1v2h.7V10h3.3v2H11V10h1V9H11V7ZM6.8,9V7h3.3V9Z"/><path class="cls-1" d="M15.5,10A2.5,2.5,0,0,0,13,12.5a2.5,2.5,0,0,0,.3,1.2h0L10,17v1h2V17h1V16h1v-1l.4-.4a2.5,2.5,0,0,0,1.2.3,2.5,2.5,0,1,0,0-5Zm.5,3h0a1,1,0,0,1,0-2h0a1,1,0,1,1,0,2Z"/></svg>