<?xml version="1.0" encoding="utf-8"?>
<!-- Generator: Adobe Illustrator 21.1.0, SVG Export Plug-In . SVG Version: 6.00 Build 0)  -->
<svg version="1.1" id="Layer_1" xmlns="http://www.w3.org/2000/svg" xmlns:xlink="http://www.w3.org/1999/xlink" x="0px" y="0px"
	 width="18px" height="18px" viewBox="0 0 18 18" style="enable-background:new 0 0 18 18;" xml:space="preserve">
<style type="text/css">
	.st0{opacity:0.32;fill:#EEF7C9;}
	.st1{fill:#E1E3E4;}
	.st2{fill:#B54747;}
	.st3{fill:none;stroke:#2F80D1;stroke-linecap:round;stroke-linejoin:round;stroke-miterlimit:10;}
	.st4{fill:none;stroke:#FFFFFF;stroke-linecap:round;stroke-miterlimit:10;}
	.st5{fill:none;stroke:#2F80D1;stroke-miterlimit:10;}
	.st6{fill:none;stroke:#FFFFFF;stroke-miterlimit:10;}
	.st7{fill:#606060;}
	.st8{fill:#2F80D1;}
	.st9{fill:#47B747;}
	.st10{fill:none;stroke:#606060;stroke-miterlimit:10;}
	.st11{fill:#FFFFFF;}
	.st12{fill:none;stroke:#47B747;stroke-miterlimit:10;}
	.st13{fill:none;stroke:#47B747;stroke-linecap:round;stroke-miterlimit:10;}
	.st14{fill:none;stroke:#47B747;stroke-linecap:round;stroke-linejoin:round;stroke-miterlimit:10;}
</style>
<g>
	<polygon points="8,3 7,3 7,4 5,4 5,5 7,5 7,6 8,6 8,5 9,5 9,4 8,4 	"/>
	<polygon points="8,8 7,8 7,9 5,9 5,10 7,10 7,11 8,11 8,10 9,10 9,9 8,9 	"/>
	<polygon points="8,13 7,13 7,14 5,14 5,15 7,15 7,16 8,16 8,15 9,15 9,14 8,14 	"/>
	<rect x="1" y="3" width="3" height="3"/>
	<rect x="10" y="3" width="7" height="3"/>
	<rect x="1" y="8" width="3" height="3"/>
	<rect x="10" y="8" width="7" height="3"/>
	<rect x="1" y="13" width="3" height="3"/>
	<rect x="10" y="13" width="7" height="3"/>
</g>
</svg>
