<svg id="Layer_1" data-name="Layer 1" xmlns="http://www.w3.org/2000/svg" width="16" height="16" viewBox="0 0 18 18"><title>Registry_variables copy</title><polygon points="5.02 4 5.96 4 6 3 7 3 7 2 6 2 6 1 5 1 5 2 4 2 4 3 5 3 5.02 4"/><polygon points="5.02 10 5.96 10 6 9 7 9 7 8 6 8 6 7 5 7 5 8 4 8 4 9 5 9 5.02 10"/><polygon points="5.02 17 5.96 17 6 16 7 16 7 15 6 15 6 14 5 14 5 15 4 15 4 16 5 16 5.02 17"/><rect y="1" width="3" height="3"/><rect x="8" y="1" width="10" height="3"/><rect x="8" y="7" width="10" height="3"/><rect x="8" y="14" width="10" height="3"/><rect y="7" width="3" height="3"/><rect y="14" width="3" height="3"/></svg>