<svg id="Layer_1" data-name="Layer 1" xmlns="http://www.w3.org/2000/svg" width="18" height="18" viewBox="0 0 18 18"><defs><style>.cls-1{fill:#2f80d1;}.cls-2{fill:#606060;}</style></defs><title>Identify Mime Type</title><rect class="cls-1" x="4" y="7" width="10" height="1"/><rect class="cls-1" x="4" y="4" width="10" height="1"/><rect class="cls-1" x="4" y="10" width="4" height="1"/><rect class="cls-1" x="4" y="13" width="3" height="1"/><path class="cls-2" d="M18,17.1l-2.8-2.8a3.4,3.4,0,1,0-.9.9L17.1,18Zm-5.6-2.6a2,2,0,1,1,2-2A2,2,0,0,1,12.4,14.5Z"/><polygon class="cls-2" points="18 0 0 0 0 18 10 18 10 17 1 17 1 1 17 1 17 10 18 10 18 0"/></svg>