<svg id="Layer_1" data-name="Layer 1" xmlns="http://www.w3.org/2000/svg" viewBox="0 0 18 18"><defs><style>.cls-1{fill:#47b747;}.cls-2{fill:#2f80d1;}</style></defs><title>InvokeGRPC</title><polygon class="cls-1" points="17.38 15.57 16.42 16.08 14.51 13.06 12.83 14.84 12 8.08 18 12.11 15.47 12.55 17.38 15.57"/><g id="vYtlio.tif"><path class="cls-2" d="M1,3.55l.62-.87.62.87C2,3.5,2,3.64,2,3.8c0,.55,0,.54.55.56.22,0,.27-.07.26-.27a6.46,6.46,0,0,1,0-1,1.28,1.28,0,0,1,1.4-1.11A1.28,1.28,0,0,1,5.42,3.19c0,.36,0,.36-.35.36H5c-.35,0-.35,0-.37-.34a.49.49,0,0,0-.49-.49.48.48,0,0,0-.55.44,4.75,4.75,0,0,0,0,.58c0,.8,0,1.6,0,2.39a.53.53,0,0,0,.74.55.44.44,0,0,0,.32-.42c0-.35,0-.7,0-1,0-.12-.05-.13-.15-.14C4,5.06,4,5.06,4,4.6c0-.2,0-.27.25-.26s.65,0,1,0c.12,0,.18,0,.18.16,0,.6,0,1.21,0,1.81A1.27,1.27,0,0,1,4.2,7.51,1.29,1.29,0,0,1,2.82,6.45a7.16,7.16,0,0,1,0-1.14c0-.17,0-.25-.23-.24s-.57,0-.86,0-.44-.13-.44-.44,0-.57,0-.86S1.25,3.51,1,3.55Z"/><path class="cls-2" d="M12.51,4.72c0-.52,0-1,0-1.56a1.21,1.21,0,0,1,1.08-1.23A1.25,1.25,0,0,1,15,2.75a2,2,0,0,1,.08.69c0,.1,0,.12-.13.11h-.19a1,1,0,0,1-.41,0c-.14-.07,0-.25-.07-.38a.5.5,0,0,0-.5-.43c-.27,0-.39.12-.44.43a2.12,2.12,0,0,0,0,.32q0,1.28,0,2.56a1.71,1.71,0,0,0,0,.28.42.42,0,0,0,.49.41.46.46,0,0,0,.46-.46c0-.37,0-.37.4-.37s.4,0,.39.41A1.28,1.28,0,0,1,14,7.5a1.22,1.22,0,0,1-1.39-.86,2,2,0,0,1-.06-.53q0-.7,0-1.39Z"/><path class="cls-2" d="M17,5.88l-.55.77c-.05.07-.09.07-.14,0l-.55-.77c.22,0,.27,0,.25-.22s.06-.43,0-.54-.36,0-.55,0h-1a.26.26,0,0,1-.09,0c-.27-.11-.09-.34-.12-.51s-.06-.23.13-.22h2a.36.36,0,0,1,.37.39c0,.3,0,.6,0,.91S16.75,5.93,17,5.88Z"/><path class="cls-2" d="M8.87,7.24c-.24-.69-.47-1.39-.71-2.08,0-.13-.05-.22.09-.3a1.1,1.1,0,0,0,.47-.72,2.6,2.6,0,0,0,0-.92A1.25,1.25,0,0,0,7.36,2c-.33,0-.67,0-1,0s-.25,0-.25.24c0,1.56,0,3.11,0,4.67,0,.59,0,.58.59.59.17,0,.2,0,.2-.21,0-.66,0-1.32,0-2,0-.06,0-.14,0-.19a.38.38,0,0,1,.48.19l.64,2c0,.09,0,.16.16.15h.71Zm-1-3.15a.44.44,0,0,1-.43.26c-.56,0-.56,0-.56-.51v-.3c0-.22,0-.45,0-.67s0-.16.15-.14h0c.29,0,.63-.09.8.23A1.4,1.4,0,0,1,7.9,4.09Z"/><path class="cls-2" d="M11.92,3a1.17,1.17,0,0,0-1-1A10.66,10.66,0,0,0,9.61,2c-.16,0-.19,0-.19.2,0,.85,0,1.71,0,2.56V6.89c0,.58,0,.57.57.58.18,0,.22,0,.22-.22,0-.62,0-1.24,0-1.86,0-.23,0-.33.3-.31A2.23,2.23,0,0,0,11,5a1,1,0,0,0,.87-.81A3.67,3.67,0,0,0,11.92,3ZM10.3,4.35c-.11,0-.1-.08-.1-.14,0-.23,0-.46,0-.7s0-.43,0-.65,0-.14.14-.15c.72,0,.89.11.89.83,0,0,0,0,0,0C11.24,4.38,10.9,4.36,10.3,4.35Z"/></g></svg>