<svg xmlns="http://www.w3.org/2000/svg" width="18" height="18" viewBox="0 0 18 18"><defs><style>.cls-1{fill:#2f80d1;}.cls-2{fill:none;}.cls-3{fill:#606060;}</style></defs><title>Invoke Scripted</title><g id="Layer_2" data-name="Layer 2"><rect class="cls-1" x="5" y="3" width="5" height="1"/><rect class="cls-1" x="5" y="5" width="5" height="1"/><rect class="cls-1" x="5" y="7" width="3" height="1"/><path class="cls-2" d="M14,.7A1.2,1.2,0,0,0,12.7,2h2.6C15.2,1,14.7.7,14,.7Z"/><path class="cls-2" d="M12.5,1H5.7C4.7,1,4,1.4,4,2.3V11H7.1c.1,0,.3-.6.5-1H6c-.2,0-.3-.3-.3-.5S5.8,9,6,9H8c.4,0,.8-1,1.3-1H6c-.2,0-.3-.3-.3-.5S5.8,7,6,7H9.7c.2,0,.3.3.3.4A5.3,5.3,0,0,1,12,7V2C12,1.5,12.2,1,12.5,1ZM9.7,6H6c-.2,0-.3-.3-.3-.5S5.8,5,6,5H9.7c.2,0,.3.3.3.5S9.9,6,9.7,6Zm0-2H6c-.2,0-.3-.3-.3-.5S5.8,3,6,3H9.7c.2,0,.3.3.3.5S9.9,4,9.7,4Z"/><path class="cls-2" d="M.7,13.5A1.5,1.5,0,0,0,2.3,15H7.8c-.5,0-.8-1.6-.8-2.7A1.2,1.2,0,0,1,7,12H2.3A1.5,1.5,0,0,0,.7,13.5Z"/><path class="cls-3" d="M2.3,15a1.5,1.5,0,1,1,0-3H7s.1,0,.1-1H4V2.3C4,1.4,4.7,1,5.7,1h6.8c-.3,0-.5.5-.5,1V7h1V3h2.7c.2,0,.3-.3.3-.5A2.2,2.2,0,0,0,14,.1H5.7A2.6,2.6,0,0,0,3,2.3V11H2.3a2.5,2.5,0,0,0,0,5H8.3c-.2-.2-.3,0-.5-1ZM14,.7c.7,0,1.2.3,1.3,1.3H12.7A1.2,1.2,0,0,1,14,.7Z"/><polygon class="cls-3" points="16.4 17.5 15.5 18 13.6 14.8 12 16.7 11.2 9.5 17 13.8 14.5 14.2 16.4 17.5"/></g></svg>