<?xml version="1.0" encoding="utf-8"?>
<!-- Generator: Adobe Illustrator 21.1.0, SVG Export Plug-In . SVG Version: 6.00 Build 0)  -->
<svg version="1.1" id="Layer_1" xmlns="http://www.w3.org/2000/svg" xmlns:xlink="http://www.w3.org/1999/xlink" x="0px" y="0px"
	 width="18px" height="18px" viewBox="0 0 18 18" style="enable-background:new 0 0 18 18;" xml:space="preserve">
<style type="text/css">
	.st0{fill:#EEF7C9;}
	.st1{fill:#E1E3E4;}
	.st2{fill:#B54747;}
	.st3{fill:none;stroke:#2F80D1;stroke-linecap:round;stroke-linejoin:round;stroke-miterlimit:10;}
	.st4{fill:none;stroke:#FFFFFF;stroke-linecap:round;stroke-miterlimit:10;}
	.st5{fill:none;stroke:#2F80D1;stroke-miterlimit:10;}
	.st6{fill:none;stroke:#FFFFFF;stroke-miterlimit:10;}
	.st7{fill:#606060;}
	.st8{fill:#2F80D1;}
	.st9{fill:#47B747;}
	.st10{fill:none;stroke:#606060;stroke-miterlimit:10;}
	.st11{fill:#FFFFFF;}
	.st12{fill:none;stroke:#47B747;stroke-miterlimit:10;}
	.st13{fill:none;stroke:#47B747;stroke-linecap:round;stroke-miterlimit:10;}
	.st14{fill:none;stroke:#47B747;stroke-linecap:round;stroke-linejoin:round;stroke-miterlimit:10;}
</style>
<g>
	<path class="st7" d="M12.2,1.9c0-0.6-1.7-0.9-3.3-0.9C7.3,1,5.6,1.3,5.6,1.9c0,0,0,0,0,0V2c0,0,0,0,0,0c0,0,0,0,0,0v1.5
		c0,0,0,0,0,0c0,0.3,1.3,0.6,3.3,0.6c2,0,3.3-0.4,3.3-0.6c0,0,0,0,0,0L12.2,1.9L12.2,1.9z M8.9,2.9c-1.4,0-2.6-0.2-2.6-0.6
		c0-0.4,1.1-0.7,2.6-0.7c1.4,0,2.6,0.3,2.6,0.7C11.5,2.6,10.3,2.9,8.9,2.9z"/>
	<path class="st8" d="M10.9,6.8c0,1,0.8,1.8,1.8,1.8c0.2,0,0.4,0,0.6-0.1l1,1.5l0.5-0.3l-1-1.4c0.4-0.3,0.7-0.8,0.7-1.4
		c0-1-0.8-1.8-1.8-1.8S10.9,5.8,10.9,6.8z M11.5,6.8c0-0.7,0.5-1.2,1.2-1.2c0.7,0,1.2,0.5,1.2,1.2S13.4,8,12.7,8
		C12.1,8,11.5,7.5,11.5,6.8z"/>
	<path class="st7" d="M9.5,6.6c0-0.5,0.2-1,0.4-1.4c-0.3,0-0.7,0-1.1,0c-1.3,0-2.6-0.1-3.3-0.4v1.3c0,0,0,0,0,0
		c0,0.2,1.3,0.6,3.3,0.6c0.2,0,0.4,0,0.6,0C9.5,6.7,9.5,6.6,9.5,6.6z"/>
	<g>
		<path class="st8" d="M2.5,15.1H1.8v-4.2h0.7V15.1z"/>
		<path class="st8" d="M4.2,14.7L4.2,14.7l0,1.8H3.5v-4.4h0.7v0.5h0c0.2-0.4,0.6-0.6,1-0.6c0.4,0,0.7,0.1,0.9,0.4s0.3,0.6,0.3,1.1
			c0,0.5-0.1,0.9-0.4,1.2s-0.6,0.5-1,0.5C4.7,15.2,4.4,15,4.2,14.7z M4.1,13.5v0.4c0,0.2,0.1,0.4,0.2,0.6c0.1,0.2,0.3,0.2,0.5,0.2
			c0.3,0,0.4-0.1,0.6-0.3c0.1-0.2,0.2-0.5,0.2-0.8c0-0.3-0.1-0.5-0.2-0.7c-0.1-0.2-0.3-0.3-0.5-0.3c-0.2,0-0.4,0.1-0.6,0.3
			C4.2,13,4.1,13.3,4.1,13.5z"/>
		<path class="st8" d="M9.1,16H6.6v-0.3h2.5V16z"/>
		<path class="st8" d="M10.4,15.1H9.6v-4.2h0.7V15.1z"/>
		<path class="st8" d="M11.1,15.1v-0.6c0.3,0.2,0.5,0.3,0.8,0.3c0.4,0,0.6-0.1,0.6-0.4c0-0.1,0-0.1-0.1-0.2s-0.1-0.1-0.1-0.1
			S12.3,14,12.2,14s-0.2-0.1-0.3-0.1c-0.1,0-0.2-0.1-0.3-0.2s-0.2-0.1-0.2-0.2s-0.1-0.1-0.1-0.2s0-0.2,0-0.3c0-0.1,0-0.3,0.1-0.4
			s0.2-0.2,0.3-0.3c0.1-0.1,0.2-0.1,0.4-0.2c0.1,0,0.3-0.1,0.5-0.1c0.3,0,0.5,0,0.7,0.1v0.6c-0.2-0.1-0.5-0.2-0.7-0.2
			c-0.1,0-0.2,0-0.2,0c-0.1,0-0.1,0-0.2,0.1s-0.1,0.1-0.1,0.1c0,0,0,0.1,0,0.1c0,0.1,0,0.1,0,0.2s0.1,0.1,0.1,0.1
			c0.1,0,0.1,0.1,0.2,0.1c0.1,0,0.2,0.1,0.3,0.1c0.1,0.1,0.2,0.1,0.3,0.2c0.1,0.1,0.2,0.1,0.3,0.2s0.1,0.1,0.2,0.2
			c0,0.1,0.1,0.2,0.1,0.3c0,0.2,0,0.3-0.1,0.4S13,14.9,12.9,15s-0.3,0.1-0.4,0.2c-0.2,0-0.3,0.1-0.5,0.1
			C11.7,15.2,11.4,15.2,11.1,15.1z"/>
		<path class="st8" d="M14.6,14.7L14.6,14.7l0,1.8h-0.7v-4.4h0.7v0.5h0c0.2-0.4,0.6-0.6,1-0.6c0.4,0,0.7,0.1,0.9,0.4
			s0.3,0.6,0.3,1.1c0,0.5-0.1,0.9-0.4,1.2s-0.6,0.5-1,0.5C15.1,15.2,14.8,15,14.6,14.7z M14.6,13.5v0.4c0,0.2,0.1,0.4,0.2,0.6
			c0.1,0.2,0.3,0.2,0.5,0.2c0.3,0,0.4-0.1,0.6-0.3c0.1-0.2,0.2-0.5,0.2-0.8c0-0.3-0.1-0.5-0.2-0.7c-0.1-0.2-0.3-0.3-0.5-0.3
			c-0.2,0-0.4,0.1-0.6,0.3C14.7,13,14.6,13.3,14.6,13.5z"/>
	</g>
	<path class="st7" d="M9.9,7.9C9.9,7.9,9.9,7.8,9.9,7.9c-0.4-0.1-0.7-0.1-1-0.1c-1.3,0-2.6-0.2-3.3-0.5v1.1c0,0,0,0,0,0
		c0,0.6,1.7,0.9,3.3,0.9c0.3,0,0.7,0,1,0V7.9z"/>
</g>
</svg>
