<svg id="Layer_1" data-name="Layer 1" xmlns="http://www.w3.org/2000/svg" width="18" height="18" viewBox="0 0 18 18"><defs><style>.cls-1{fill:#606060;}.cls-2{fill:#47b747;}.cls-3{fill:#2f80d1;}</style></defs><title>Join CSV Files</title><polygon class="cls-1" points="18 0 0 0 0 18 10 18 10 17 1 17 1 1 17 1 17 10 18 10 18 0"/><polygon class="cls-2" points="15 12 15 10 10 10 10 15 12 15 12 12 15 12"/><polygon class="cls-2" points="15 12.9 12.9 12.9 12.9 15 12.9 17.6 17.6 17.6 17.6 12.9 15 12.9"/><path class="cls-3" d="M6.2,3.4l-.7-.2-.8.2L4.3,4a1.6,1.6,0,0,0,0,1.5l.5.6.8.2h.6l.6-.4.5.6-.8.6-.9.2a2.3,2.3,0,0,1-1.2-.3,2.3,2.3,0,0,1-.8-.8,2.3,2.3,0,0,1-.3-1.2,2.2,2.2,0,0,1,1.2-2,2.4,2.4,0,0,1,1.2-.3l.9.2.8.5-.5.6Z"/><path class="cls-3" d="M10.1,3.3H9a.4.4,0,0,0-.2.3.4.4,0,0,0,.1.3l.3.2.5.2.7.3L11,5a1.1,1.1,0,0,1,.2.7,1.2,1.2,0,0,1-.2.7l-.6.5-.9.2-1-.2-.9-.5L8,5.6l.8.5.8.2h.6a.4.4,0,0,0,.2-.4.4.4,0,0,0-.1-.3l-.3-.2-.5-.2-.7-.3-.5-.4a1.1,1.1,0,0,1-.2-.7,1.1,1.1,0,0,1,.2-.7l.6-.5.9-.2h.9l.8.3-.3.7Z"/><path class="cls-3" d="M11.5,2.5h.9L13.7,6l1.3-3.5h.9L14.2,7h-.9Z"/></svg>