<svg id="Layer_1" data-name="Layer 1" xmlns="http://www.w3.org/2000/svg" width="18" height="18" viewBox="0 0 18 18"><defs><style>.cls-1{fill:#606060;}.cls-2{fill:#47b747;}</style></defs><title>ListenLumberjack</title><path class="cls-1" d="M0,4V18H11V17H1.8l6.4-5.2.7-.3H9a1.2,1.2,0,0,1,.7.3l1.2,1V11.5l-.6-.5h-.1L17,5.5V10h1V4Zm7.6,7L1,16.4V5.5l6.7,5.4Zm1.7-.6H8.7L1.9,5H16.1Z"/><path class="cls-2" d="M17,14a7,7,0,0,0-1.3-4l-.7.6a6.1,6.1,0,0,1,0,6.9l.7.6A7,7,0,0,0,17,14Z"/><path class="cls-2" d="M14.1,14a5.1,5.1,0,0,0-.9-2.9l-.7.6a4.3,4.3,0,0,1,0,4.6l.7.6A5.1,5.1,0,0,0,14.1,14Z"/></svg>