<svg id="Layer_1" data-name="Layer 1" xmlns="http://www.w3.org/2000/svg" viewBox="0 0 18 18"><defs><style>.cls-1{fill:#2f80d1;}.cls-2{fill:#606060;}.cls-3{fill:#47b747;}</style></defs><title>ListenTCPRecord</title><rect class="cls-1" x="3" y="13" width="3" height="1"/><rect class="cls-1" x="3" y="10" width="7" height="1"/><polygon class="cls-2" points="18 0 0 0 0 18 10 18 10 17 1 17 1 1 17 1 17 10 18 10 18 0"/><polygon class="cls-3" points="13 17.95 18 14.45 13 10.95 13 17.95"/><path class="cls-1" d="M6.41,3v.67H5.11V7H4.3V3.69H3V3Z"/><path class="cls-1" d="M9,3.67A1.34,1.34,0,0,0,7.59,5,1.34,1.34,0,0,0,9,6.29a1.72,1.72,0,0,0,1.14-.46l.47.5A2.46,2.46,0,0,1,9,7,2.07,2.07,0,0,1,6.78,5,2.07,2.07,0,0,1,9,3a2.4,2.4,0,0,1,1.61.63l-.47.55A1.61,1.61,0,0,0,9,3.67Z"/><path class="cls-1" d="M15,4.38c0,.9-.6,1.43-1.66,1.43h-.91V7h-.8V3h1.72C14.4,3,15,3.51,15,4.38Zm-.76,0c0-.48-.34-.72-.94-.72h-.87V5.14h.87C13.9,5.14,14.24,4.9,14.24,4.4Z"/></svg>