<?xml version="1.0" encoding="utf-8"?>
<!-- Generator: Adobe Illustrator 21.0.0, SVG Export Plug-In . SVG Version: 6.00 Build 0)  -->
<svg version="1.1" id="Layer_1" xmlns="http://www.w3.org/2000/svg" xmlns:xlink="http://www.w3.org/1999/xlink" x="0px" y="0px"
	 width="18px" height="18px" viewBox="0 0 18 18" style="enable-background:new 0 0 18 18;" xml:space="preserve">
<style type="text/css">
	.st0{fill:#FFFFFF;}
	.st1{fill:#2F80D1;}
	.st2{fill:#606060;}
	.st3{fill:#47B747;}
	.st4{fill:none;}
	.st5{fill:#FF6364;}
	.st6{fill:#F2ADAD;}
	.st7{fill:#020201;}
	.st8{fill:#FEFEFE;}
	.st9{fill:#FCED21;}
</style>
<g>
	<g>
		<rect x="2" y="3" class="st1" width="2" height="2"/>
	</g>
	<g>
		<rect x="2" y="8" transform="matrix(6.123234e-17 -1 1 6.123234e-17 -6 12)" class="st1" width="2" height="2"/>
	</g>
	<g>
		<rect x="2" y="13" class="st1" width="2" height="2"/>
	</g>
	<g>
		<path class="st2" d="M9,0H0v18h9h9v-7v-0.9V10V8V0H9z M17,8v2v0.1V11v6H9H1V1h8h8V8z"/>
	</g>
	<g>
		<g>
			<path class="st2" d="M12.8,8.9V7.7c0-0.2-0.1-0.4-0.2-0.6c-0.1-0.1-0.3-0.3-0.5-0.3h0v-1c0-0.8-0.4-1.5-1-2C10.5,3.3,9.8,3,8.9,3
				S7.3,3.3,6.7,3.8c-0.6,0.6-1,1.2-1,2v1h0c-0.2,0-0.3,0.2-0.5,0.3C5.1,7.3,5,7.6,5,7.7v3.7c0,0.2,0.1,0.3,0.2,0.4
				c0.1,0.1,0.3,0.2,0.5,0.2h4.6c0-0.1,0-0.2,0-0.3C10.2,10.2,11.3,9,12.8,8.9z M6.9,5.9c0-0.5,0.3-0.8,0.6-1.2
				c0.3-0.3,0.8-0.5,1.3-0.5c0.5,0,1,0.2,1.4,0.5c0.3,0.3,0.6,0.7,0.6,1.2v1H6.9V5.9z"/>
		</g>
		<g>
			<g>
				<path class="st1" d="M13,12.2l-2.1,2.1l0,0.7l1.3,0v-0.6h0.6v-0.6h0.6v-0.6l0.2-0.2C13.3,12.7,13.1,12.5,13,12.2z"/>
			</g>
			<g>
				<path class="st1" d="M14.4,9.8c-0.9,0-1.6,0.7-1.6,1.6c0,0.9,0.7,1.6,1.6,1.6s1.6-0.7,1.6-1.6C16,10.6,15.3,9.8,14.4,9.8z
					 M14.7,11.8c-0.4,0-0.6-0.3-0.6-0.6c0-0.4,0.3-0.6,0.6-0.6c0.4,0,0.6,0.3,0.6,0.6C15.3,11.5,15.1,11.8,14.7,11.8z"/>
			</g>
		</g>
	</g>
</g>
</svg>
