<svg id="Layer_1" data-name="Layer 1" xmlns="http://www.w3.org/2000/svg" viewBox="0 0 18 18"><defs><style>.cls-1{fill:#606060;}.cls-2{fill:#2f80d1;}.cls-3{fill:#47b747;}</style></defs><title>Icon_</title><polygon class="cls-1" points="0 -0.03 0 17.97 7 17.97 7 16.97 1 16.97 1 0.97 17 0.97 17 7.97 17 8.9 17 8.97 18 8.97 18 8.9 18 7.97 18 -0.03 0 -0.03"/><path class="cls-2" d="M4,7.4a1.81,1.81,0,0,1-.45-1.31V3.81h.57V6.06q0,1.29,1.13,1.29A1.09,1.09,0,0,0,6.05,7a1.4,1.4,0,0,0,.29-1V3.81H6.9V6.09A1.81,1.81,0,0,1,6.45,7.4a1.67,1.67,0,0,1-1.25.46A1.66,1.66,0,0,1,4,7.4Z"/><path class="cls-2" d="M8.41,3.81H10.1a2.44,2.44,0,0,1,1.13.25,1.84,1.84,0,0,1,.76.71,2,2,0,0,1,.27,1,2,2,0,0,1-.27,1,1.84,1.84,0,0,1-.76.71,2.44,2.44,0,0,1-1.13.25H8.41Zm1.65,3.51a1.85,1.85,0,0,0,.86-.19,1.36,1.36,0,0,0,.57-.53,1.52,1.52,0,0,0,.2-.79,1.52,1.52,0,0,0-.2-.79,1.36,1.36,0,0,0-.57-.53,1.85,1.85,0,0,0-.86-.19H9v3Z"/><path class="cls-2" d="M16.26,4.18a1.26,1.26,0,0,1,.45,1,1.26,1.26,0,0,1-.45,1A1.86,1.86,0,0,1,15,6.6h-1V7.81h-.57v-4H15A1.86,1.86,0,0,1,16.26,4.18Zm-.41,1.69a.81.81,0,0,0,.29-.67.81.81,0,0,0-.29-.67A1.28,1.28,0,0,0,15,4.31h-1V6.1h1A1.29,1.29,0,0,0,15.85,5.87Z"/><path class="cls-3" d="M16,14a7,7,0,0,0-1.26-4l-.73.56a6.12,6.12,0,0,1,0,6.89l.73.56A7,7,0,0,0,16,14Z"/><path class="cls-3" d="M13.07,14a5.14,5.14,0,0,0-.88-2.88l-.73.56a4.26,4.26,0,0,1,0,4.63l.73.56A5.14,5.14,0,0,0,13.07,14Z"/><rect class="cls-2" x="3" y="13.97" width="3" height="1"/><rect class="cls-2" x="3" y="10.97" width="5" height="1"/></svg>