<?xml version="1.0" encoding="utf-8"?>
<!-- Generator: Adobe Illustrator 21.1.0, SVG Export Plug-In . SVG Version: 6.00 Build 0)  -->
<svg version="1.1" id="Layer_1" xmlns="http://www.w3.org/2000/svg" xmlns:xlink="http://www.w3.org/1999/xlink" x="0px" y="0px"
	 width="18px" height="18px" viewBox="0 0 18 18" style="enable-background:new 0 0 18 18;" xml:space="preserve">
<style type="text/css">
	.st0{fill:#EEF7C9;}
	.st1{fill:#E1E3E4;}
	.st2{fill:#B54747;}
	.st3{fill:none;stroke:#2F80D1;stroke-linecap:round;stroke-linejoin:round;stroke-miterlimit:10;}
	.st4{fill:none;stroke:#FFFFFF;stroke-linecap:round;stroke-miterlimit:10;}
	.st5{fill:none;stroke:#2F80D1;stroke-miterlimit:10;}
	.st6{fill:none;stroke:#FFFFFF;stroke-miterlimit:10;}
	.st7{fill:#606060;}
	.st8{fill:#2F80D1;}
	.st9{fill:#47B747;}
	.st10{fill:none;stroke:#606060;stroke-miterlimit:10;}
	.st11{fill:#FFFFFF;}
	.st12{fill:none;stroke:#47B747;stroke-miterlimit:10;}
	.st13{fill:none;stroke:#47B747;stroke-linecap:round;stroke-miterlimit:10;}
	.st14{fill:none;stroke:#47B747;stroke-linecap:round;stroke-linejoin:round;stroke-miterlimit:10;}
</style>
<g>
	<g>
		<path class="st8" d="M6.2,16.1H3.5v-4.9h0.8v4.2h1.9V16.1z"/>
		<path class="st8" d="M7.3,16.1v-4.9h1.6c0.5,0,0.8,0.1,1.1,0.3c0.3,0.2,0.4,0.5,0.4,0.8c0,0.3-0.1,0.5-0.2,0.7s-0.4,0.4-0.7,0.4v0
			c0.3,0,0.6,0.2,0.8,0.4c0.2,0.2,0.3,0.5,0.3,0.8c0,0.4-0.2,0.8-0.5,1s-0.7,0.4-1.3,0.4H7.3z M8.1,11.8v1.4h0.5
			c0.3,0,0.5-0.1,0.7-0.2c0.2-0.1,0.2-0.3,0.2-0.6c0-0.4-0.3-0.6-0.8-0.6H8.1z M8.1,13.9v1.6h0.7c0.3,0,0.5-0.1,0.7-0.2
			c0.2-0.1,0.2-0.3,0.2-0.6c0-0.5-0.4-0.8-1.1-0.8H8.1z"/>
	</g>
	<g>
		<rect x="10" class="st7" width="1" height="2"/>
		<rect x="12" y="3" class="st7" width="2" height="1"/>
		<path class="st7" d="M3,10h8V3H3V10z M4,5h1V4h4v1h1v4H4V5z"/>
		<rect x="5" y="5" class="st7" width="1" height="1"/>
		<polygon class="st7" points="6,6 6,7 7,7 8,7 8,6 7,6 		"/>
		<rect x="8" y="5" class="st7" width="1" height="1"/>
		<rect x="11" y="2" class="st7" width="1" height="1"/>
		<rect x="12" y="1" class="st7" width="1" height="1"/>
	</g>
</g>
</svg>
