<?xml version="1.0" encoding="utf-8"?>
<!-- Generator: Adobe Illustrator 21.1.0, SVG Export Plug-In . SVG Version: 6.00 Build 0)  -->
<svg version="1.1" id="Layer_1" xmlns="http://www.w3.org/2000/svg" xmlns:xlink="http://www.w3.org/1999/xlink" x="0px" y="0px"
	 width="18px" height="18px" viewBox="0 0 18 18" style="enable-background:new 0 0 18 18;" xml:space="preserve">
<style type="text/css">
	.st0{fill:#EEF7C9;}
	.st1{fill:#E1E3E4;}
	.st2{fill:#B54747;}
	.st3{fill:none;stroke:#2F80D1;stroke-linecap:round;stroke-linejoin:round;stroke-miterlimit:10;}
	.st4{fill:none;stroke:#FFFFFF;stroke-linecap:round;stroke-miterlimit:10;}
	.st5{fill:none;stroke:#2F80D1;stroke-miterlimit:10;}
	.st6{fill:none;stroke:#FFFFFF;stroke-miterlimit:10;}
	.st7{fill:#606060;}
	.st8{fill:#2F80D1;}
	.st9{fill:#47B747;}
	.st10{fill:none;stroke:#606060;stroke-miterlimit:10;}
	.st11{fill:#FFFFFF;}
	.st12{fill:none;stroke:#47B747;stroke-miterlimit:10;}
	.st13{fill:none;stroke:#47B747;stroke-linecap:round;stroke-miterlimit:10;}
	.st14{fill:none;stroke:#47B747;stroke-linecap:round;stroke-linejoin:round;stroke-miterlimit:10;}
</style>
<g>
	<path class="st8" d="M4,8V5.8l2-0.4V8H4z M7,5.3l3-0.6V8H7V5.3z M10,9l0,3.3l-3-0.6V9H10z M6,11.6l-2-0.4V9h2V11.6z"/>
	<rect x="11" y="12" class="st9" width="4" height="1"/>
	<path class="st7" d="M16.3,6.9c0.7-1.2,0.5-2.7-0.5-3.7c-0.8-0.8-2.1-1.1-3.2-0.7c-0.4-0.8-1.1-1.7-2.5-2.2C9-0.1,7.7,0,6.6,0.5
		c-1.2,0.6-2,1.7-2.3,2.9C3.6,3.4,2.8,3.6,2.2,4.2C1.4,4.9,1.3,6,1.7,6.9C0.6,7.7,0,8.8,0,10.1C0,12.3,1.8,14,4,14h6v-1H4
		c-1.7,0-3-1.3-3-2.9C1,9,1.6,8.1,2.7,7.6l0.6-0.3L2.8,6.8C2.3,6.2,2.4,5.4,2.9,4.9C3.3,4.5,4,4.3,4.6,4.6l0.7,0.3l0-0.7
		C5.4,3,6,2,7.1,1.4C7.9,1,8.9,1,9.8,1.3c1.1,0.4,1.7,1.1,2.1,2.1L12,4l0.5-0.3c1.1-0.6,2.5-0.2,3,1c0.3,0.7,0.1,1.5-0.4,2.1
		l-0.4,0.5l0.6,0.3C16.3,8,17,9,17,10.1c0,0.8-0.4,1.6-1,2.1V13v0.5c0.1-0.1,0.2-0.1,0.3-0.2c1-0.7,1.7-1.9,1.7-3.2
		C18,8.8,17.3,7.6,16.3,6.9z"/>
	<rect x="11" y="14" class="st9" width="4" height="1"/>
	<rect x="11" y="16" class="st9" width="3" height="1"/>
</g>
</svg>
