<?xml version="1.0" encoding="utf-8"?>
<!-- Generator: Adobe Illustrator 21.0.0, SVG Export Plug-In . SVG Version: 6.00 Build 0)  -->
<svg version="1.1" id="Layer_1" xmlns="http://www.w3.org/2000/svg" xmlns:xlink="http://www.w3.org/1999/xlink" x="0px" y="0px"
	 width="18px" height="18px" viewBox="0 0 18 18" style="enable-background:new 0 0 18 18;" xml:space="preserve">
<style type="text/css">
	.st0{fill:#FFFFFF;}
	.st1{fill:#2F80D1;}
	.st2{fill:#606060;}
	.st3{fill:#47B747;}
	.st4{fill:none;}
	.st5{fill:#FF6364;}
	.st6{fill:#F2ADAD;}
	.st7{fill:#020201;}
	.st8{fill:#FEFEFE;}
	.st9{fill:#FCED21;}
</style>
<g>
	<path class="st2" d="M0.1,0H0v0.1C0,0.1,0.1,0,0.1,0z"/>
</g>
<g>
	<g>
		<path class="st1" d="M2.6,7h0.8v3.7h1.9v0.8H2.6V7z"/>
		<path class="st1" d="M9.1,7.2C9.5,7.4,9.8,7.7,10,8s0.3,0.7,0.3,1.2c0,0.4-0.1,0.8-0.3,1.2c-0.2,0.4-0.5,0.6-0.8,0.8
			c-0.4,0.2-0.8,0.3-1.2,0.3c-0.4,0-0.8-0.1-1.2-0.3c-0.4-0.2-0.6-0.5-0.8-0.8C5.7,10,5.6,9.6,5.6,9.2c0-0.4,0.1-0.8,0.3-1.2
			s0.5-0.6,0.8-0.8C7.1,7,7.5,6.9,7.9,6.9C8.4,6.9,8.8,7,9.1,7.2z M7.2,7.9C7,8,6.8,8.2,6.7,8.4S6.5,8.9,6.5,9.2s0.1,0.5,0.2,0.8
			c0.1,0.2,0.3,0.4,0.5,0.6c0.2,0.1,0.5,0.2,0.7,0.2c0.3,0,0.5-0.1,0.7-0.2c0.2-0.1,0.4-0.3,0.5-0.6c0.1-0.2,0.2-0.5,0.2-0.8
			S9.3,8.6,9.2,8.4C9.1,8.2,8.9,8,8.7,7.9C8.5,7.7,8.2,7.7,7.9,7.7C7.7,7.7,7.4,7.7,7.2,7.9z"/>
		<path class="st1" d="M13.8,9.2h0.7v1.7c-0.2,0.2-0.5,0.3-0.8,0.4c-0.3,0.1-0.6,0.2-0.9,0.2c-0.4,0-0.8-0.1-1.2-0.3
			c-0.4-0.2-0.6-0.5-0.8-0.8c-0.2-0.4-0.3-0.7-0.3-1.2c0-0.4,0.1-0.8,0.3-1.2c0.2-0.3,0.5-0.6,0.9-0.8C12,7,12.4,6.9,12.9,6.9
			c0.3,0,0.6,0.1,0.9,0.2c0.3,0.1,0.6,0.3,0.8,0.5l-0.5,0.6C14,8,13.8,7.9,13.5,7.8c-0.2-0.1-0.4-0.1-0.7-0.1
			c-0.3,0-0.5,0.1-0.8,0.2s-0.4,0.3-0.5,0.6s-0.2,0.5-0.2,0.8c0,0.3,0.1,0.5,0.2,0.8c0.1,0.2,0.3,0.4,0.5,0.6
			c0.2,0.1,0.5,0.2,0.8,0.2c0.2,0,0.3,0,0.5-0.1s0.3-0.1,0.5-0.2V9.2z"/>
	</g>
	<g>
		<circle class="st4" cx="14" cy="3" r="1"/>
	</g>
	<g>
		<circle class="st4" cx="8" cy="3" r="1"/>
	</g>
	<g>
		<circle class="st4" cx="11" cy="3" r="1"/>
	</g>
	<g>
		<path class="st2" d="M17.9,0C17.9,0,18,0.1,18,0.1V0H17.9z"/>
	</g>
	<g>
		<rect x="11.4" y="14.4" transform="matrix(0.7071 -0.7071 0.7071 0.7071 -6.2132 15)" class="st5" width="7.3" height="1.2"/>
	</g>
	<g>
		<rect x="14.4" y="11.4" transform="matrix(0.7071 -0.7071 0.7071 0.7071 -6.2132 15)" class="st5" width="1.2" height="7.3"/>
	</g>
	<g>
		<polygon class="st4" points="17,11 17,10.1 17,10 17,8 17,5 17,1 9,1 1,1 1,5 1,15 1,16 1,17 9,17 10,17 10,11 		"/>
	</g>
	<g>
		<rect x="18" y="11" class="st2" width="0" height="7"/>
	</g>
	<path class="st2" d="M17.9,0H9H0.1C0.1,0,0,0.1,0,0.1v15.7V18h9h1v-1H9H1v-1v-1V5h16v3v2h1V8V0.1C18,0.1,17.9,0,17.9,0z M8,4
		C7.4,4,7,3.6,7,3c0-0.6,0.4-1,1-1s1,0.4,1,1C9,3.6,8.6,4,8,4z M11,4c-0.6,0-1-0.4-1-1c0-0.6,0.4-1,1-1s1,0.4,1,1
		C12,3.6,11.6,4,11,4z M14,4c-0.6,0-1-0.4-1-1c0-0.6,0.4-1,1-1s1,0.4,1,1C15,3.6,14.6,4,14,4z"/>
</g>
</svg>
