<?xml version="1.0" encoding="utf-8"?>
<!-- Generator: Adobe Illustrator 21.1.0, SVG Export Plug-In . SVG Version: 6.00 Build 0)  -->
<svg version="1.1" id="Layer_1" xmlns="http://www.w3.org/2000/svg" xmlns:xlink="http://www.w3.org/1999/xlink" x="0px" y="0px"
	 width="18px" height="18px" viewBox="0 0 18 18" style="enable-background:new 0 0 18 18;" xml:space="preserve">
<style type="text/css">
	.st0{opacity:0.32;fill:#EEF7C9;}
	.st1{fill:#E1E3E4;}
	.st2{fill:#B54747;}
	.st3{fill:none;stroke:#2F80D1;stroke-linecap:round;stroke-linejoin:round;stroke-miterlimit:10;}
	.st4{fill:none;stroke:#FFFFFF;stroke-linecap:round;stroke-miterlimit:10;}
	.st5{fill:none;stroke:#2F80D1;stroke-miterlimit:10;}
	.st6{fill:none;stroke:#FFFFFF;stroke-miterlimit:10;}
	.st7{fill:#606060;}
	.st8{fill:#2F80D1;}
	.st9{fill:#47B747;}
	.st10{fill:none;stroke:#606060;stroke-miterlimit:10;}
	.st11{fill:#FFFFFF;}
	.st12{fill:none;stroke:#47B747;stroke-miterlimit:10;}
	.st13{fill:none;stroke:#47B747;stroke-linecap:round;stroke-miterlimit:10;}
	.st14{fill:none;stroke:#47B747;stroke-linecap:round;stroke-linejoin:round;stroke-miterlimit:10;}
</style>
<g>
	<path class="st8" d="M10,12c0,1.7,1.3,3,3,3c0.3,0,0.7-0.1,1-0.2l1.6,2.4l0.8-0.6l-1.6-2.4c0.7-0.5,1.2-1.4,1.2-2.4
		c0-1.7-1.3-3-3-3S10,10.3,10,12z M11,12c0-1.1,0.9-2,2-2s2,0.9,2,2s-0.9,2-2,2S11,13.1,11,12z"/>
	<path class="st7" d="M1,1v15h8v-1H8v-2h1v-1H8v-2h1V9H8V7h2v1h1V7h2v1h1V7h2v1h1V1H1z M4,15H2v-2h2V15z M4,12H2v-2h2V12z M4,9H2V7
		h2V9z M4,6H2V4h2V6z M8,6V4h2v2H8z M11,6V4h2v2H11z M16,6h-2V4h2V6z"/>
</g>
</svg>
