<svg id="Layer_1" data-name="Layer 1" xmlns="http://www.w3.org/2000/svg" viewBox="0 0 18 18"><defs><style>.cls-1{fill:#47b747;}.cls-2{fill:#606060;}.cls-3{fill:#2f80d1;}</style></defs><title>MergeRecord</title><polygon class="cls-1" points="15 12 15 10 10 10 10 15 12 15 12 12 15 12"/><polygon class="cls-1" points="15.23 13 13 13 13 15.23 13 18 18 18 18 13 15.23 13"/><polygon class="cls-2" points="15 9 14.07 9 14.07 5.86 10 0.61 10.72 0 15 5.52 15 9"/><rect class="cls-3" x="2" y="8" width="5" height="1"/><rect class="cls-3" x="2" y="10" width="4" height="1"/><rect class="cls-3" x="2" y="12" width="3" height="1"/><polygon class="cls-2" points="7.39 1 7.39 1 7.39 1 6.67 1 6.67 1 0.97 1 0 1 0 2 0 17 0 18 0.97 18 4 18 6 18 10 18 10 17 6 17 4 17 0.97 17 0.97 2 6.94 2 11 6.86 11 9 12 9 12 6.52 7.39 1"/></svg>