<?xml version="1.0" encoding="utf-8"?>
<!-- Generator: Adobe Illustrator 21.0.0, SVG Export Plug-In . SVG Version: 6.00 Build 0)  -->
<svg version="1.1" id="Layer_1" xmlns="http://www.w3.org/2000/svg" xmlns:xlink="http://www.w3.org/1999/xlink" x="0px" y="0px"
	 width="18px" height="18px" viewBox="0 0 18 18" style="enable-background:new 0 0 18 18;" xml:space="preserve">
<style type="text/css">
	.st0{fill:#FFFFFF;}
	.st1{fill:#2F80D1;}
	.st2{fill:#606060;}
	.st3{fill:#47B747;}
	.st4{fill:none;}
	.st5{fill:#FF6364;}
	.st6{fill:#F2ADAD;}
	.st7{fill:#020201;}
	.st8{fill:#FEFEFE;}
	.st9{fill:#FCED21;}
</style>
<g>
	<g>
		<rect x="2" y="3" class="st1" width="12" height="1"/>
	</g>
	<g>
		<rect x="2" y="7" class="st1" width="9" height="1"/>
	</g>
	<g>
		<rect x="2" y="11" class="st1" width="5" height="1"/>
	</g>
	<g>
		<polygon class="st3" points="15,12 15,10 10,10 10,15 12,15 12,12 		"/>
	</g>
	<polygon class="st3" points="15.2,13 13,13 13,15.2 13,18 18,18 18,13 	"/>
	<g>
		<polygon class="st2" points="18,0 0,0 0,18 9,18 9,17 1,17 1,1 17,1 17,9 18,9 		"/>
	</g>
</g>
</svg>
