<?xml version="1.0" encoding="utf-8"?>
<!-- Generator: Adobe Illustrator 21.0.0, SVG Export Plug-In . SVG Version: 6.00 Build 0)  -->
<svg version="1.1" id="Layer_1" xmlns="http://www.w3.org/2000/svg" xmlns:xlink="http://www.w3.org/1999/xlink" x="0px" y="0px"
	 width="18px" height="18px" viewBox="0 0 18 18" style="enable-background:new 0 0 18 18;" xml:space="preserve">
<style type="text/css">
	.st0{fill:#FFFFFF;}
	.st1{fill:#2F80D1;}
	.st2{fill:#606060;}
	.st3{fill:#47B747;}
	.st4{fill:none;}
	.st5{fill:#FF6364;}
	.st6{fill:#F2ADAD;}
	.st7{fill:#020201;}
	.st8{fill:#FEFEFE;}
	.st9{fill:#FCED21;}
</style>
<g>
	<g>
		<path class="st2" d="M9,0H0v18h9h9v-7v-0.9V10V8V0H9z M17,8v2v0.1V11v6H9H1V1h8h8V8z"/>
	</g>
	<g>
		<rect x="8" y="11" class="st1" width="1" height="5"/>
	</g>
	<g>
		<rect x="14" y="2" class="st1" width="1" height="5"/>
	</g>
	<g>
		<path class="st1" d="M10,3c0.5,0,1,0.7,1,1.5S10.5,6,10,6S9,5.3,9,4.5S9.5,3,10,3 M10,2C8.9,2,8,3.1,8,4.5S8.9,7,10,7s2-1.1,2-2.5
			S11.1,2,10,2L10,2z"/>
	</g>
	<g>
		<path class="st1" d="M13,12c0.5,0,1,0.7,1,1.5S13.5,15,13,15s-1-0.7-1-1.5S12.5,12,13,12 M13,11c-1.1,0-2,1.1-2,2.5s0.9,2.5,2,2.5
			s2-1.1,2-2.5S14.1,11,13,11L13,11z"/>
	</g>
	<g>
		<path class="st1" d="M4,12c0.5,0,1,0.7,1,1.5S4.5,15,4,15s-1-0.7-1-1.5S3.5,12,4,12 M4,11c-1.1,0-2,1.1-2,2.5S2.9,16,4,16
			s2-1.1,2-2.5S5.1,11,4,11L4,11z"/>
	</g>
	<g>
		<path class="st1" d="M4,3c0.5,0,1,0.7,1,1.5S4.5,6,4,6S3,5.3,3,4.5S3.5,3,4,3 M4,2C2.9,2,2,3.1,2,4.5S2.9,7,4,7s2-1.1,2-2.5
			S5.1,2,4,2L4,2z"/>
	</g>
</g>
</svg>
