<?xml version="1.0" encoding="utf-8"?>
<!-- Generator: Adobe Illustrator 21.0.0, SVG Export Plug-In . SVG Version: 6.00 Build 0)  -->
<svg version="1.1" id="Layer_1" xmlns="http://www.w3.org/2000/svg" xmlns:xlink="http://www.w3.org/1999/xlink" x="0px" y="0px"
	 width="18px" height="18px" viewBox="0 0 18 18" style="enable-background:new 0 0 18 18;" xml:space="preserve">
<style type="text/css">
	.st0{fill:#FFFFFF;}
	.st1{fill:#2F80D1;}
	.st2{fill:#606060;}
	.st3{fill:#47B747;}
	.st4{fill:none;}
	.st5{fill:#FF6364;}
	.st6{fill:#F2ADAD;}
	.st7{fill:#020201;}
	.st8{fill:#FEFEFE;}
	.st9{fill:#FCED21;}
</style>
<g>
	<path class="st3" d="M14.1,16c-0.5,0-1,0-1.5,0c-0.4,0-0.6,0.1-0.7,0.5c-0.1,0.3,0,0.6,0.3,0.7c0.4,0.1,0.7,0,0.8-0.4
		c0.1-0.4,0.5-0.2,0.7-0.2c0.2,0.1,0.1,0.3,0,0.5c-0.2,0.5-0.8,0.9-1.4,0.8c-0.7,0-1.2-0.4-1.3-1.1c-0.1-0.6,0.2-1.2,0.7-1.5
		c0.3-0.2,0.6-0.2,0.9-0.2c1,0,1.9,0,2.9,0c0.7,0,1.4-0.5,1.5-1.2c0.2-0.7-0.1-1.5-0.6-1.9c-0.6-0.4-1.4-0.4-2,0.1
		c-0.6,0.5-0.7,1.2-0.6,1.9c0,0.5-0.2,0.6-0.6,0.5c-0.1,0-0.2-0.1-0.2-0.2c-0.4-1.2,0.6-3,1.9-3.4c1.5-0.4,2.8,0.5,3,2
		c0.2,1.5-0.8,2.8-2.3,2.9C15.2,16,14.6,16,14.1,16C14.1,16,14.1,16,14.1,16z"/>
</g>
<path class="st2" d="M17.9,0H9H0.1C0.1,0,0,0.1,0,0.1v15.7V18h9h1v-1H9H1v-1v-1V5h16v3v2h1V8V0.1C18,0.1,17.9,0,17.9,0z M8,4
	C7.4,4,7,3.6,7,3c0-0.6,0.4-1,1-1s1,0.4,1,1C9,3.6,8.6,4,8,4z M11,4c-0.6,0-1-0.4-1-1c0-0.6,0.4-1,1-1s1,0.4,1,1C12,3.6,11.6,4,11,4
	z M14,4c-0.6,0-1-0.4-1-1c0-0.6,0.4-1,1-1s1,0.4,1,1C15,3.6,14.6,4,14,4z"/>
</svg>
