<?xml version="1.0" encoding="utf-8"?>
<!-- Generator: Adobe Illustrator 21.1.0, SVG Export Plug-In . SVG Version: 6.00 Build 0)  -->
<svg version="1.1" id="Layer_1" xmlns="http://www.w3.org/2000/svg" xmlns:xlink="http://www.w3.org/1999/xlink" x="0px" y="0px"
	 width="18px" height="18px" viewBox="0 0 18 18" style="enable-background:new 0 0 18 18;" xml:space="preserve">
<style type="text/css">
	.st0{opacity:0.32;fill:#EEF7C9;}
	.st1{fill:#E1E3E4;}
	.st2{fill:#B54747;}
	.st3{fill:none;stroke:#2F80D1;stroke-linecap:round;stroke-linejoin:round;stroke-miterlimit:10;}
	.st4{fill:none;stroke:#FFFFFF;stroke-linecap:round;stroke-miterlimit:10;}
	.st5{fill:none;stroke:#2F80D1;stroke-miterlimit:10;}
	.st6{fill:none;stroke:#FFFFFF;stroke-miterlimit:10;}
	.st7{fill:#606060;}
	.st8{fill:#2F80D1;}
	.st9{fill:#47B747;}
	.st10{fill:none;stroke:#606060;stroke-miterlimit:10;}
	.st11{fill:#FFFFFF;}
	.st12{fill:none;stroke:#47B747;stroke-miterlimit:10;}
	.st13{fill:none;stroke:#47B747;stroke-linecap:round;stroke-miterlimit:10;}
	.st14{fill:none;stroke:#47B747;stroke-linecap:round;stroke-linejoin:round;stroke-miterlimit:10;}
</style>
<g>
	<polygon class="st9" points="4,9 0,9 0,10 4,10 4,11 5,11 5,10 6,10 6,9 5,9 5,8 4,8 	"/>
	<g>
		<path class="st7" d="M7,3v4v1v3v1v4h9v-4v-1V8V7V3H7z M15,15H8v-3h7V15z M15,11H8V8h7V11z M8,7V4h7v3H8z"/>
		<rect x="10" y="5" class="st7" width="3" height="1"/>
		<rect x="10" y="9" class="st7" width="3" height="1"/>
		<rect x="10" y="13" class="st7" width="3" height="1"/>
	</g>
	<polygon class="st7" points="2,3 2,4 2,8 3,8 3,4 6,4 6,3 	"/>
	<polygon class="st7" points="3,15 3,11 2,11 2,15 2,16 3,16 6,16 6,15 	"/>
</g>
</svg>
