<svg id="Layer_1" data-name="Layer 1" xmlns="http://www.w3.org/2000/svg" viewBox="0 0 18 18"><defs><style>.cls-1{fill:#47b747;}.cls-2{fill:#606060;}.cls-3{fill:#2f80d1;}</style></defs><title>PostJIRAComment copy</title><path class="cls-1" d="M17.19,15l-2.54-2-.11-.09v1.54h0a7.94,7.94,0,0,1-1.58-.11,2.23,2.23,0,0,1-1.32-.74,4,4,0,0,1-.66-1.2c-.08-.21-.15-.43-.22-.65a5.6,5.6,0,0,0,0,.64,6,6,0,0,0,.5,2.13,3.19,3.19,0,0,0,2.19,1.86c.35.09.71.12,1.09.18V18l.13-.11,2.9-2.34.18-.14Z"/><path class="cls-2" d="M17.94,0H.06A.06.06,0,0,0,0,.06V17.94A.06.06,0,0,0,.06,18H9V17H1V1H17V11h1V.06A.06.06,0,0,0,17.94,0Z"/><path class="cls-3" d="M4,3A1,1,0,1,0,5,4,1,1,0,0,0,4,3"/><path class="cls-3" d="M10,3a1,1,0,1,0,1,1,1,1,0,0,0-1-1"/><path class="cls-3" d="M7,2A1,1,0,1,0,8,3,1,1,0,0,0,7,2"/><path class="cls-3" d="M11.89,6.06A.27.27,0,0,0,11.73,6l-.1,0a13.43,13.43,0,0,1-1.73.52.34.34,0,0,0-.24.21A10.29,10.29,0,0,1,7.2,9.92.28.28,0,0,1,7,10a.28.28,0,0,1-.2-.09A10.29,10.29,0,0,1,4.33,6.75a.34.34,0,0,0-.24-.21A13.47,13.47,0,0,1,2.37,6l-.1,0A.27.27,0,0,0,2,6.29,5.64,5.64,0,0,0,3.09,9a19.82,19.82,0,0,0,2.16,2.44C6.65,12.84,8,14.19,8.1,15.75a.27.27,0,0,0,.27.25H10a.27.27,0,0,0,.27-.27h0a6.15,6.15,0,0,0-1.21-3.19c-.16-.23-.33-.46-.51-.68a.2.2,0,0,1,0-.26l.17-.17A19.83,19.83,0,0,0,10.91,9,5.63,5.63,0,0,0,12,6.3a.28.28,0,0,0-.11-.24"/><path class="cls-3" d="M4.69,13.07A.32.32,0,0,0,4.48,13a.32.32,0,0,0-.25.11A4.57,4.57,0,0,0,3,15.75a.21.21,0,0,0,.08.17A.35.35,0,0,0,3.3,16H5.14a.28.28,0,0,0,.3-.22,2.69,2.69,0,0,1,.51-1.28.27.27,0,0,0,0-.36,14.91,14.91,0,0,0-1.22-1.08"/><path class="cls-3" d="M7,6c.44,0,.7,0,.79,0A.25.25,0,0,1,8,6.27a.37.37,0,0,1,0,.11,5.05,5.05,0,0,1-.82,1.54A.2.2,0,0,1,7,8H7a.2.2,0,0,1-.16-.08A5,5,0,0,1,6,6.38a.36.36,0,0,1,0-.11A.25.25,0,0,1,6.21,6C6.3,6,6.56,6,7,6H7"/></svg>