<svg id="Layer_1" data-name="Layer 1" xmlns="http://www.w3.org/2000/svg" viewBox="0 0 18 18"><defs><style>.cls-1{fill:#606060;}.cls-2{fill:#47b747;}.cls-3{fill:#2f80d1;}</style></defs><title>PostLinkedIN</title><polygon class="cls-1" points="0 0 18 0 18 9 17 9 17 1 1 1 1 17 9 17 9 18 0 18 0 0"/><path class="cls-2" d="M17.5,15.13l-2.42-1.95L15,13.1v1.47h0a7.56,7.56,0,0,1-1.5-.1,2.12,2.12,0,0,1-1.25-.71,3.76,3.76,0,0,1-.62-1.14c-.08-.2-.14-.41-.21-.62a5.33,5.33,0,0,0,0,.61,5.75,5.75,0,0,0,.48,2,3,3,0,0,0,2.08,1.77c.33.08.68.12,1,.17V18l.12-.1,2.76-2.23.17-.14Z"/><path id="path28" class="cls-3" d="M4.27,11.56V5.11H2.13v6.45ZM3.2,4.23A1.12,1.12,0,1,0,3.21,2a1.12,1.12,0,1,0,0,2.23h0Z"/><path id="path30" class="cls-3" d="M5.46,11.56H7.6V8a1.47,1.47,0,0,1,.07-.52,1.17,1.17,0,0,1,1.1-.78c.78,0,1.09.59,1.09,1.46v3.45H12V7.86c0-2-1.06-2.9-2.47-2.9A2.14,2.14,0,0,0,7.59,6h0V5.11H5.46c0,.61,0,6.45,0,6.45Z"/></svg>