<?xml version="1.0" encoding="utf-8"?>
<!-- Generator: Adobe Illustrator 21.1.0, SVG Export Plug-In . SVG Version: 6.00 Build 0)  -->
<svg version="1.1" id="Layer_1" xmlns="http://www.w3.org/2000/svg" xmlns:xlink="http://www.w3.org/1999/xlink" x="0px" y="0px"
	 width="18px" height="18px" viewBox="0 0 18 18" style="enable-background:new 0 0 18 18;" xml:space="preserve">
<style type="text/css">
	.st0{fill:#EEF7C9;}
	.st1{fill:#E1E3E4;}
	.st2{fill:#B54747;}
	.st3{fill:none;stroke:#2F80D1;stroke-linecap:round;stroke-linejoin:round;stroke-miterlimit:10;}
	.st4{fill:none;stroke:#FFFFFF;stroke-linecap:round;stroke-miterlimit:10;}
	.st5{fill:none;stroke:#2F80D1;stroke-miterlimit:10;}
	.st6{fill:none;stroke:#FFFFFF;stroke-miterlimit:10;}
	.st7{fill:#606060;}
	.st8{fill:#2F80D1;}
	.st9{fill:#47B747;}
	.st10{fill:none;stroke:#606060;stroke-miterlimit:10;}
	.st11{fill:#FFFFFF;}
	.st12{fill:none;stroke:#47B747;stroke-miterlimit:10;}
	.st13{fill:none;stroke:#47B747;stroke-linecap:round;stroke-miterlimit:10;}
	.st14{fill:none;stroke:#47B747;stroke-linecap:round;stroke-linejoin:round;stroke-miterlimit:10;}
</style>
<g>
	<path class="st7" d="M2,10.1v1.4c0,0,0,0,0,0c0,0.3,1.4,0.7,3.5,0.7c2.1,0,3.5-0.4,3.5-0.7c0,0,0,0,0,0v-1.4
		c-0.8,0.3-2.1,0.5-3.5,0.5C4.1,10.6,2.7,10.4,2,10.1z"/>
	<path class="st7" d="M2,12.9V14c0,0,0,0,0,0c0,0.6,1.8,1,3.5,1C7.2,15,9,14.7,9,14h0v-1.2c-0.8,0.3-2.1,0.5-3.5,0.5
		C4.1,13.4,2.7,13.2,2,12.9z"/>
	<path class="st9" d="M5.6,0.9L5.1,1.8C7.5,3.8,6,7.1,6,7C5.9,4.3,4,3.5,4,3.5L3.5,4.3L2,1L5.6,0.9z"/>
	<path class="st7" d="M16.7,10.9c-0.4,0-0.7,0.1-0.9,0.4l-1.7-0.8c0.2-0.4,0.4-0.8,0.4-1.3c0-0.3-0.1-0.6-0.2-0.8L16,7.1
		c0.2,0.1,0.4,0.2,0.7,0.2c0.7,0,1.3-0.6,1.3-1.3s-0.6-1.3-1.3-1.3S15.4,5.2,15.4,6c0,0.2,0,0.3,0.1,0.4l-1.5,1
		c-0.5-0.6-1.2-1-1.9-1V3.5c0.4-0.2,0.8-0.7,0.8-1.2c0-0.7-0.6-1.3-1.3-1.3s-1.3,0.6-1.3,1.3c0,0.6,0.4,1,0.8,1.2v3
		c0,0-0.7,0.3-1,0.5l0,0.6l0,0v1c0.3-0.8,1-1.4,1.8-1.4c1,0,1.8,0.8,1.8,1.8c0,1-0.8,1.8-1.8,1.8c-0.8,0-1.5-0.6-1.8-1.4v0.9v0.3
		v0.3c0.3,0.2,1,0.5,1,0.5v2.5c-0.4,0.2-0.7,0.7-0.7,1.2c0,0.7,0.6,1.3,1.3,1.3c0.7,0,1.3-0.6,1.3-1.3c0-0.6-0.4-1-0.9-1.2v-2.3
		c0.5,0,1.1-0.2,1.5-0.6l1.9,0.9c0,0.1,0,0.1,0,0.2c0,0.7,0.6,1.3,1.3,1.3s1.3-0.6,1.3-1.3S17.5,10.9,16.7,10.9z"/>
	<g>
		<path class="st7" d="M7,6.5c0,0,0,0.1,0,0.2c0,0,0,0,0,0V6.5z"/>
		<path class="st7" d="M9,6.9c0-0.3-0.4-0.5-1-0.7V7H7.9c0.2,0.1,0.3,0.2,0.3,0.3C8.2,7.8,7,8,5.5,8C4,8,2.7,7.8,2.7,7.3
			c0-0.3,0.5-0.5,1.2-0.6V6C2.9,6.2,2,6.5,2,6.9c0,0,0,0,0,0v0.2c0,0,0,0,0,0c0,0,0,0,0,0v1.6c0,0,0,0,0,0C2,9,3.3,9.4,5.5,9.4
			C7.6,9.4,9,9,9,8.7c0,0,0,0,0,0L9,6.9L9,6.9z"/>
	</g>
</g>
</svg>
