<svg id="Layer_1" data-name="Layer 1" xmlns="http://www.w3.org/2000/svg" viewBox="0 0 16 16"><title>Datasource new</title><path d="M6.07,15C2.88,15,1,13.71,1,13V9.54A8,8,0,0,0,6.07,11a11.08,11.08,0,0,0,1.31-.08,4.29,4.29,0,0,1,.29-1.06A9.74,9.74,0,0,1,6.08,10C2.89,10,1,8.71,1,8V4.54A7.82,7.82,0,0,0,6,6a7.82,7.82,0,0,0,5-1.46V7.32a3.05,3.05,0,0,1,.56,0c.13,0,.31,0,.44,0V3c0-1.66-2.69-3-6-3S0,1.34,0,3V13H0c.05,2,2.71,3,6,3a10.45,10.45,0,0,0,3.51-.56,4.32,4.32,0,0,1-1-.73A9.46,9.46,0,0,1,6.07,15ZM6,1c3.19,0,5.14,1.29,5.14,2S9.19,5,6,5,.86,3.71.86,3,2.81,1,6,1Z"/><path d="M15.85,11.15,13.49,8.78a.5.5,0,0,0-.71.71L14.29,11H10a.5.5,0,0,0,0,1h4.29l-1.51,1.51a.5.5,0,1,0,.71.71l2.36-2.36A.5.5,0,0,0,15.85,11.15Z"/></svg>