<?xml version="1.0" encoding="utf-8"?>
<!-- Generator: Adobe Illustrator 21.1.0, SVG Export Plug-In . SVG Version: 6.00 Build 0)  -->
<svg version="1.1" id="Layer_1" xmlns="http://www.w3.org/2000/svg" xmlns:xlink="http://www.w3.org/1999/xlink" x="0px" y="0px"
	 width="18px" height="18px" viewBox="0 0 18 18" style="enable-background:new 0 0 18 18;" xml:space="preserve">
<style type="text/css">
	.st0{fill:#EEF7C9;}
	.st1{fill:#E1E3E4;}
	.st2{fill:#B54747;}
	.st3{fill:none;stroke:#2F80D1;stroke-linecap:round;stroke-linejoin:round;stroke-miterlimit:10;}
	.st4{fill:none;stroke:#FFFFFF;stroke-linecap:round;stroke-miterlimit:10;}
	.st5{fill:none;stroke:#2F80D1;stroke-miterlimit:10;}
	.st6{fill:none;stroke:#FFFFFF;stroke-miterlimit:10;}
	.st7{fill:#606060;}
	.st8{fill:#2F80D1;}
	.st9{fill:#47B747;}
	.st10{fill:none;stroke:#606060;stroke-miterlimit:10;}
	.st11{fill:#FFFFFF;}
	.st12{fill:none;stroke:#47B747;stroke-miterlimit:10;}
	.st13{fill:none;stroke:#47B747;stroke-linecap:round;stroke-miterlimit:10;}
	.st14{fill:none;stroke:#47B747;stroke-linecap:round;stroke-linejoin:round;stroke-miterlimit:10;}
</style>
<g>
	<path class="st8" d="M5,11V8.8l2-0.4V11H5z M8,8.3l3-0.6V11H8V8.3z M11,12l0,3.3l-3-0.6V12H11z M7,14.6l-2-0.4V12h2V14.6z"/>
	<path class="st7" d="M16.3,9.9c0.7-1.2,0.5-2.7-0.5-3.7c-0.1-0.1-0.3-0.2-0.4-0.3l-0.7,0.8C14.8,6.8,15,6.9,15.1,7
		c0.8,0.7,0.8,2,0.1,2.7l-0.5,0.5l0.6,0.3c1,0.5,1.7,1.5,1.7,2.6c0,1.6-1.3,2.9-3,2.9H4c-1.7,0-3-1.3-3-2.9c0-1.1,0.6-2.1,1.7-2.6
		l0.6-0.3L2.8,9.8C2.3,9.2,2.4,8.4,2.9,7.9C3.2,7.6,3.6,7.5,4,7.5c0.2,0,0.4,0,0.6,0.1l0.7,0.3l0-0.7C5.4,6,6,5,7.1,4.4
		C7.8,4,8.8,4,9.6,4.2l-1-1.1c-0.7,0-1.4,0.1-2,0.5c-1.2,0.6-2,1.7-2.3,2.9C3.6,6.4,2.8,6.6,2.2,7.2C1.4,7.9,1.3,9,1.7,9.9
		C0.6,10.7,0,11.8,0,13.1C0,15.3,1.8,17,4,17h10c2.2,0,4-1.7,4-3.9C18,11.8,17.3,10.6,16.3,9.9z"/>
	<polygon class="st9" points="13,5 13,1 12,1 12,5 11,5 11,6 12,6 12,7 13,7 13,6 14,6 14,5 	"/>
</g>
</svg>
