<svg id="Layer_1" data-name="Layer 1" xmlns="http://www.w3.org/2000/svg" viewBox="0 0 18 18"><defs><style>.cls-1{fill:#606060;}.cls-2{fill:#47b747;}</style></defs><title>PutAzureIOTHub</title><path class="cls-1" d="M15.94,14.12l-2.18-2.45A3,3,0,0,0,10,7.46L7.84,5a1.5,1.5,0,1,0-.75.66L9.15,8a3,3,0,0,0-1,1.83l-2.25.61a1.48,1.48,0,0,0-.11-.15,1.51,1.51,0,1,0,.37,1.11l2-.54a2.85,2.85,0,0,0,1.44,2L9.08,15a1.53,1.53,0,1,0,1,.16l.53-2a3,3,0,0,0,2.53-.7l2.05,2.31a1.5,1.5,0,1,0,.75-.66Zm-3.47-2.39a2,2,0,1,1,.17-2.82A2,2,0,0,1,12.47,11.72Z"/><polygon class="cls-1" points="1 14 0 14 0 17 0 18 1 18 4 18 4 17 1 17 1 14"/><polygon class="cls-2" points="15 7.98 18 5 15.95 5 15.95 0 14 0 14 5 12 5 15 7.98"/></svg>