<?xml version="1.0" encoding="utf-8"?>
<!-- Generator: Adobe Illustrator 21.0.0, SVG Export Plug-In . SVG Version: 6.00 Build 0)  -->
<svg version="1.1" id="Layer_1" xmlns="http://www.w3.org/2000/svg" xmlns:xlink="http://www.w3.org/1999/xlink" x="0px" y="0px"
	 width="18px" height="18px" viewBox="0 0 18 18" style="enable-background:new 0 0 18 18;" xml:space="preserve">
<style type="text/css">
	.st0{fill:#FFFFFF;}
	.st1{fill:#2F80D1;}
	.st2{fill:#606060;}
	.st3{fill:#47B747;}
	.st4{fill:none;}
	.st5{fill:#FF6364;}
	.st6{fill:#F2ADAD;}
	.st7{fill:#020201;}
	.st8{fill:#FEFEFE;}
	.st9{fill:#FCED21;}
</style>
<g>
	<g>
		<g>
			<rect x="3" y="5" class="st1" width="3" height="3"/>
		</g>
		<g>
			<rect x="3" y="9" class="st1" width="3" height="3"/>
		</g>
		<g>
			<rect x="3" y="13" class="st1" width="3" height="3"/>
		</g>
		<g>
			<rect x="7" y="11" class="st1" width="3" height="3"/>
		</g>
		<g>
			<rect x="7" y="7" class="st1" width="3" height="3"/>
		</g>
		<g>
			<rect x="11" y="9" class="st1" width="3" height="3"/>
		</g>
	</g>
	<g>
		<polygon class="st2" points="17,17 1,17 1,15 0,15 0,17 0,18 18,18 18,17 18,15 17,15 		"/>
	</g>
	<g>
		<polygon class="st2" points="0,0 0,1 0,3 1,3 1,1 12,1 12,0 		"/>
	</g>
	<polygon class="st3" points="16,5 16,0 14,0 14,5 12,5 15,8 18,5 	"/>
</g>
</svg>
