<?xml version="1.0" encoding="utf-8"?>
<!-- Generator: Adobe Illustrator 21.0.0, SVG Export Plug-In . SVG Version: 6.00 Build 0)  -->
<svg version="1.1" id="Layer_1" xmlns="http://www.w3.org/2000/svg" xmlns:xlink="http://www.w3.org/1999/xlink" x="0px" y="0px"
	 width="18px" height="18px" viewBox="0 0 18 18" style="enable-background:new 0 0 18 18;" xml:space="preserve">
<style type="text/css">
	.st0{fill:#FFFFFF;}
	.st1{fill:#2F80D1;}
	.st2{fill:#606060;}
	.st3{fill:#47B747;}
	.st4{fill:none;}
	.st5{fill:#FF6364;}
	.st6{fill:#F2ADAD;}
	.st7{fill:#020201;}
	.st8{fill:#FEFEFE;}
	.st9{fill:#FCED21;}
</style>
<g>
	<g>
		<path class="st2" d="M9,0H0v18h9h9v-7v-0.9V10V8V0H9z M17,8v2v0.1V11v6H9H1V1h8h8V8z"/>
	</g>
	<g>
		<path class="st1" d="M14,10h-0.8c-0.1,0-0.3,0.1-0.3,0.3V13H5v-2.8C5,10.1,4.9,10,4.8,10H4c-0.6,0-1,0.4-1,1v3c0,0.6,0.4,1,1,1h10
			c0.6,0,1-0.4,1-1v-3C15,10.4,14.6,10,14,10L14,10z"/>
	</g>
	<polygon class="st3" points="10,7 10,2 8,2 8,7 6,7 9,10 12,7 	"/>
</g>
</svg>
