<?xml version="1.0" encoding="utf-8"?>
<!-- Generator: Adobe Illustrator 21.1.0, SVG Export Plug-In . SVG Version: 6.00 Build 0)  -->
<svg version="1.1" id="Layer_1" xmlns="http://www.w3.org/2000/svg" xmlns:xlink="http://www.w3.org/1999/xlink" x="0px" y="0px"
	 width="18px" height="18px" viewBox="0 0 18 18" style="enable-background:new 0 0 18 18;" xml:space="preserve">
<style type="text/css">
	.st0{fill:#EEF7C9;}
	.st1{fill:#E1E3E4;}
	.st2{fill:#B54747;}
	.st3{fill:none;stroke:#2F80D1;stroke-linecap:round;stroke-linejoin:round;stroke-miterlimit:10;}
	.st4{fill:none;stroke:#FFFFFF;stroke-linecap:round;stroke-miterlimit:10;}
	.st5{fill:none;stroke:#2F80D1;stroke-miterlimit:10;}
	.st6{fill:none;stroke:#FFFFFF;stroke-miterlimit:10;}
	.st7{fill:#606060;}
	.st8{fill:#2F80D1;}
	.st9{fill:#47B747;}
	.st10{fill:none;stroke:#606060;stroke-miterlimit:10;}
	.st11{fill:#FFFFFF;}
	.st12{fill:none;stroke:#47B747;stroke-miterlimit:10;}
	.st13{fill:none;stroke:#47B747;stroke-linecap:round;stroke-miterlimit:10;}
	.st14{fill:none;stroke:#47B747;stroke-linecap:round;stroke-linejoin:round;stroke-miterlimit:10;}
</style>
<g>
	<path class="st7" d="M7,9.1h2.3C10.3,8.9,11,8.6,11,8.4c0,0,0,0,0-0.1V5.5h0c0-1-2.8-1.5-5.5-1.5C2.8,4.1,0,4.6,0,5.5c0,0,0,0,0,0
		v0.2c0,0,0,0,0,0c0,0,0,0,0,0v2.4c0,0,0,0,0,0.1c0,0.4,2.1,1,5.5,1c0.5,0,1,0,1.5,0V9.1z M1.2,6.2C1.2,5.5,3.1,5,5.5,5
		c2.4,0,4.3,0.5,4.3,1.2c0,0.7-1.9,1.1-4.3,1.1C3.1,7.2,1.2,6.8,1.2,6.2z"/>
	<g>
		<path class="st7" d="M7,11.1c-0.5,0-1,0-1.5,0c-2.1,0-4.3-0.2-5.5-0.7v2.1c0,0,0,0,0,0.1c0,0.4,2.1,1,5.5,1c0.5,0,1,0,1.5,0V11.1z
			"/>
	</g>
	<g>
		<path class="st7" d="M7,15.4c-0.5,0-1,0-1.5,0c-2.1,0-4.3-0.3-5.5-0.7v1.8c0,0,0,0,0,0c0,1,2.8,1.5,5.5,1.5c0.5,0,1,0,1.5-0.1
			V15.4z"/>
	</g>
	<polygon class="st9" points="15,4 15,0 14,0 14,4 13,4 13,5 14,5 14,6 15,6 15,5 16,5 16,4 	"/>
	<path class="st7" d="M17,10H9H8v2v2v1v2v1h1h2h1h2h1h2h1v-1v-2v-1v-2v-2H17z M9,12h2v2H9V12z M9,17v-2h2v2H9z M14,17h-2v-2h2V17z
		 M14,14h-2v-2h2V14z M17,17h-2v-2h2V17z M17,14h-2v-2h2V14z"/>
</g>
</svg>
