<?xml version="1.0" encoding="utf-8"?>
<!-- Generator: Adobe Illustrator 21.0.0, SVG Export Plug-In . SVG Version: 6.00 Build 0)  -->
<svg version="1.1" id="Layer_1" xmlns="http://www.w3.org/2000/svg" xmlns:xlink="http://www.w3.org/1999/xlink" x="0px" y="0px"
	 width="18px" height="18px" viewBox="0 0 18 18" style="enable-background:new 0 0 18 18;" xml:space="preserve">
<style type="text/css">
	.st0{fill:#FFFFFF;}
	.st1{fill:#2F80D1;}
	.st2{fill:#606060;}
	.st3{fill:#47B747;}
	.st4{fill:none;}
	.st5{fill:#FF6364;}
	.st6{fill:#F2ADAD;}
	.st7{fill:#020201;}
	.st8{fill:#FEFEFE;}
	.st9{fill:#FCED21;}
</style>
<g>
	<polygon class="st3" points="15.9,5 15.9,0 13.9,0 13.9,5 11.9,5 14.9,8 17.9,5 	"/>
	<g>
		<path class="st2" d="M-0.1,10v2.7c0,0,0,0.1,0,0.1C0,13.3,2.1,14,5.4,14c3.3,0,5.5-0.7,5.5-1.3c0,0,0-0.1,0-0.1V10
			c-1.2,0.6-3.4,0.9-5.5,0.9C3.3,10.9,1.1,10.6-0.1,10z"/>
	</g>
	<g>
		<g>
			<path class="st2" d="M10.9,5.4C10.9,4.5,8.1,4,5.4,4C2.8,4-0.1,4.5-0.1,5.4c0,0,0,0,0,0v0.2c0,0,0,0,0,0c0,0,0,0,0,0V8
				c0,0,0,0,0,0.1c0,0.4,2.1,1,5.5,1c3.3,0,5.5-0.6,5.5-1c0,0,0,0,0-0.1L10.9,5.4L10.9,5.4z M5.4,7C3.1,7,1.2,6.6,1.2,6
				c0-0.6,1.9-1.1,4.3-1.1c2.4,0,4.3,0.5,4.3,1.1C9.7,6.6,7.8,7,5.4,7z"/>
		</g>
	</g>
	<g>
		<path class="st2" d="M-0.1,15v1.6c0,0,0,0,0,0c0,0.9,2.8,1.4,5.5,1.4c2.7,0,5.5-0.5,5.5-1.4h0V15c-1.2,0.4-3.4,0.7-5.5,0.7
			C3.3,15.7,1.1,15.4-0.1,15z"/>
	</g>
</g>
</svg>
