<?xml version="1.0" encoding="utf-8"?>
<!-- Generator: Adobe Illustrator 21.1.0, SVG Export Plug-In . SVG Version: 6.00 Build 0)  -->
<svg version="1.1" id="Layer_1" xmlns="http://www.w3.org/2000/svg" xmlns:xlink="http://www.w3.org/1999/xlink" x="0px" y="0px"
	 width="18px" height="18px" viewBox="0 0 18 18" style="enable-background:new 0 0 18 18;" xml:space="preserve">
<style type="text/css">
	.st0{opacity:0.32;fill:#EEF7C9;}
	.st1{fill:#E1E3E4;}
	.st2{fill:#B54747;}
	.st3{fill:none;stroke:#2F80D1;stroke-linecap:round;stroke-linejoin:round;stroke-miterlimit:10;}
	.st4{fill:none;stroke:#FFFFFF;stroke-linecap:round;stroke-miterlimit:10;}
	.st5{fill:none;stroke:#2F80D1;stroke-miterlimit:10;}
	.st6{fill:none;stroke:#FFFFFF;stroke-miterlimit:10;}
	.st7{fill:#606060;}
	.st8{fill:#2F80D1;}
	.st9{fill:#47B747;}
	.st10{fill:none;stroke:#606060;stroke-miterlimit:10;}
	.st11{fill:#FFFFFF;}
	.st12{fill:none;stroke:#47B747;stroke-miterlimit:10;}
	.st13{fill:none;stroke:#47B747;stroke-linecap:round;stroke-miterlimit:10;}
	.st14{fill:none;stroke:#47B747;stroke-linecap:round;stroke-linejoin:round;stroke-miterlimit:10;}
</style>
<g>
	<path class="st7" d="M8,12H2V9h6V12z M3,11h4v-1H3V11z"/>
	<path class="st7" d="M11.1,8H2l0-0.5C2.1,5.5,4.1,4,6.5,4s4.4,1.5,4.5,3.5L11.1,8z M3.1,7h6.8C9.5,5.8,8.2,5,6.5,5S3.5,5.8,3.1,7z"
		/>
	<path class="st7" d="M6.5,17c-2.4,0-4.4-1.5-4.5-3.5L2,13h9.1l0,0.5C10.9,15.5,8.9,17,6.5,17z M3.1,14c0.4,1.2,1.8,2,3.4,2
		s3-0.9,3.4-2H3.1z"/>
	<polygon class="st9" points="15,5 15,1 14,1 14,5 13,5 13,6 14,6 14,7 15,7 15,6 16,6 16,5 	"/>
</g>
</svg>
