<?xml version="1.0" encoding="utf-8"?>
<!-- Generator: Adobe Illustrator 21.0.0, SVG Export Plug-In . SVG Version: 6.00 Build 0)  -->
<svg version="1.1" id="Layer_1" xmlns="http://www.w3.org/2000/svg" xmlns:xlink="http://www.w3.org/1999/xlink" x="0px" y="0px"
	 width="18px" height="18px" viewBox="0 0 18 18" style="enable-background:new 0 0 18 18;" xml:space="preserve">
<style type="text/css">
	.st0{fill:#FFFFFF;}
	.st1{fill:#2F80D1;}
	.st2{fill:#606060;}
	.st3{fill:#47B747;}
	.st4{fill:none;}
	.st5{fill:#FF6364;}
	.st6{fill:#F2ADAD;}
	.st7{fill:#020201;}
	.st8{fill:#FEFEFE;}
	.st9{fill:#FCED21;}
</style>
<g>
	<g>
		<polygon class="st2" points="0,18 18,18 18,9 17,9 17,17 1,17 1,1 9,1 9,0 0,0 		"/>
	</g>
	<polygon class="st3" points="16,5 16,0 14.1,0 14.1,5 12.1,5 15.1,8 18.1,5 	"/>
	<g>
		<path class="st1" d="M2.5,11.1h0.7v1.7h1.9v-1.7h0.7V15H5.1v-1.6H3.2V15H2.5V11.1z"/>
		<path class="st1" d="M6.9,11.1h0.7V15H6.9V11.1z"/>
		<path class="st1" d="M8.3,11.1h0.8l1.1,3.1l1.1-3.1h0.7L10.5,15H9.8L8.3,11.1z"/>
		<path class="st1" d="M12.7,11.1h2.8v0.7h-2.1v1h1.8v0.7h-1.8v1h2.1V15h-2.8V11.1z"/>
	</g>
</g>
</svg>
