<?xml version="1.0" encoding="utf-8"?>
<!-- Generator: Adobe Illustrator 21.0.0, SVG Export Plug-In . SVG Version: 6.00 Build 0)  -->
<svg version="1.1" id="Layer_1" xmlns="http://www.w3.org/2000/svg" xmlns:xlink="http://www.w3.org/1999/xlink" x="0px" y="0px"
	 width="18px" height="18px" viewBox="0 0 18 18" style="enable-background:new 0 0 18 18;" xml:space="preserve">
<style type="text/css">
	.st0{fill:#FFFFFF;}
	.st1{fill:#2F80D1;}
	.st2{fill:#606060;}
	.st3{fill:#47B747;}
	.st4{fill:none;}
	.st5{fill:#FF6364;}
	.st6{fill:#F2ADAD;}
	.st7{fill:#020201;}
	.st8{fill:#FEFEFE;}
	.st9{fill:#FCED21;}
</style>
<g>
	<g>
		<path class="st1" d="M2.6,10h0.8v1.9h2.2V10h0.8v4.4H5.6v-1.8H3.4v1.8H2.6V10z"/>
		<path class="st1" d="M10.6,10.3c0.3,0.2,0.4,0.5,0.4,0.8c0,0.2-0.1,0.5-0.2,0.6c-0.1,0.2-0.3,0.3-0.6,0.3c0.3,0.1,0.5,0.2,0.7,0.4
			s0.2,0.4,0.2,0.7c0,0.4-0.1,0.7-0.4,0.9c-0.3,0.2-0.7,0.3-1.2,0.3h-2V10h2C10,10,10.3,10.1,10.6,10.3z M10,11.6
			c0.1-0.1,0.2-0.2,0.2-0.4c0-0.2-0.1-0.3-0.2-0.4c-0.1-0.1-0.3-0.1-0.5-0.1H8.4v1.1h1.1C9.7,11.8,9.8,11.7,10,11.6z M10.1,13.5
			c0.2-0.1,0.2-0.3,0.2-0.4c0-0.2-0.1-0.3-0.2-0.4c-0.2-0.1-0.4-0.2-0.6-0.1H8.4v1.2h1.1C9.7,13.7,9.9,13.6,10.1,13.5z"/>
		<path class="st1" d="M14.7,10.8c-0.2-0.1-0.4-0.2-0.6-0.2c-0.3,0-0.5,0.1-0.8,0.2c-0.2,0.1-0.4,0.3-0.5,0.5
			c-0.1,0.2-0.2,0.5-0.2,0.8s0.1,0.5,0.2,0.8c0.1,0.2,0.3,0.4,0.5,0.5c0.2,0.1,0.5,0.2,0.8,0.2c0.2,0,0.4,0,0.6-0.1
			c0.2-0.1,0.4-0.2,0.6-0.4l0.5,0.6c-0.2,0.2-0.5,0.4-0.8,0.6c-0.3,0.1-0.6,0.2-0.9,0.2c-0.4,0-0.8-0.1-1.2-0.3
			c-0.4-0.2-0.6-0.5-0.8-0.8s-0.3-0.7-0.3-1.2s0.1-0.8,0.3-1.1s0.5-0.6,0.8-0.8c0.4-0.2,0.7-0.3,1.2-0.3c0.3,0,0.6,0.1,0.9,0.2
			c0.3,0.1,0.6,0.3,0.8,0.5l-0.5,0.6C15.1,11.1,14.9,10.9,14.7,10.8z"/>
	</g>
	<g>
		<polygon class="st2" points="0,18 18,18 18,9 17,9 17,17 1,17 1,1 9,1 9,0 0,0 		"/>
	</g>
	<polygon class="st3" points="16,5 16,0 14,0 14,5 12,5 15,8 18,5 	"/>
</g>
</svg>
