<svg id="Layer_1" data-name="Layer 1" xmlns="http://www.w3.org/2000/svg" viewBox="0 0 18 18"><defs><style>.cls-1{fill:#47b747;}.cls-2{fill:#606060;}</style></defs><title>PutHBaseRecord</title><polygon class="cls-1" points="17 7 17 6 18 6 18 5 16 5 16 0 14 0 14 5 12 5 12 6 13 6 13 7 14 7 14 8 16 8 16 7 17 7"/><path class="cls-2" d="M14.17,11.71c-.11-.1-.18-.08-.25,0l-.29.39.85,1.6A2,2,0,0,0,14.17,11.71Z"/><path class="cls-2" d="M10.78,15.11a.25.25,0,0,0-.1-.21,3.69,3.69,0,0,1-1.12-1.18,1.13,1.13,0,0,0-.92-.47H7.56v0H6.4c-.18,0-.24.09-.19.24a2.23,2.23,0,0,0,.3.57A3.61,3.61,0,0,0,8.75,15.3a3.84,3.84,0,0,0,1.85-.08C10.67,15.2,10.78,15.15,10.78,15.11Z"/><path class="cls-2" d="M14.67,14.59a12.67,12.67,0,0,0-2-3.55c-.23-.3-.44-.62-.69-.9a1.05,1.05,0,0,1-.24-.84c0-.57.09-1.13.1-1.7a2.55,2.55,0,0,0-.13-.74.94.94,0,0,0-.54-.61c-.17-.07-.22,0-.25.15-.09.5-.19,1-.3,1.48a1.33,1.33,0,0,1-.18.38.76.76,0,0,1-.84.41,12,12,0,0,0-2.47-.15,5.66,5.66,0,0,0-3.91,1.76,18,18,0,0,0-1.53,1.84c-.1.12-.12.21-.34.25A1.83,1.83,0,0,0,0,14.29a.49.49,0,0,0,0,.2.14.14,0,0,0,.1.06.77.77,0,0,1,.55-.49,1.14,1.14,0,0,1,.49-.14,2,2,0,0,1,.36,0,.49.49,0,0,0,.53-.4c0,.12,0,.18.05.24a.23.23,0,0,0,.26.18.71.71,0,0,1,.3,0s.06.09.11.1,0,0,.1,0,.1.11.19.12.21.13.23.3,0,.08.07.12a.79.79,0,0,0,.17-1A7.27,7.27,0,0,0,3,13c-.12-.14-.19-.28-.33-.47l-.8.84s-.07,0-.07,0a.18.18,0,0,1,0-.12A3.79,3.79,0,0,1,4.54,11.6a2.8,2.8,0,0,1,1.77.46c.41.28.74.59,1.12.91a.75.75,0,0,0,.52.19h.76a1.28,1.28,0,0,1,1,.52c.14.18.26.38.42.56s.35.33.54.5a1.82,1.82,0,0,1,.19.16c.16.19.11.36-.12.44s-.44.11-.68.17l.1.13c.08.08.17.14.26.22h0l0,0a6,6,0,0,0,1.35.92,8.28,8.28,0,0,1,1.46.87,1.47,1.47,0,0,0,.89.35.87.87,0,0,0,.73-.64c0-.24,0-.49.09-.73A4.16,4.16,0,0,0,14.67,14.59Zm-9-3.07h0Zm6.06,3.54a1,1,0,0,1-.54-.83.4.4,0,0,0,0-.14c-.09-.19-.06-.24.16-.24A1.44,1.44,0,0,1,12.57,15a.69.69,0,0,1,0,.36.21.21,0,0,1-.08.13c-.07,0-.21,0-.3-.07S11.86,15.16,11.7,15.06Z"/></svg>