<?xml version="1.0" encoding="utf-8"?>
<!-- Generator: Adobe Illustrator 21.0.0, SVG Export Plug-In . SVG Version: 6.00 Build 0)  -->
<svg version="1.1" id="Layer_1" xmlns="http://www.w3.org/2000/svg" xmlns:xlink="http://www.w3.org/1999/xlink" x="0px" y="0px"
	 width="18px" height="18px" viewBox="0 0 18 18" style="enable-background:new 0 0 18 18;" xml:space="preserve">
<style type="text/css">
	.st0{fill:#FFFFFF;}
	.st1{fill:#2F80D1;}
	.st2{fill:#606060;}
	.st3{fill:#47B747;}
	.st4{fill:none;}
	.st5{fill:#FF6364;}
	.st6{fill:#F2ADAD;}
	.st7{fill:#020201;}
	.st8{fill:#FEFEFE;}
	.st9{fill:#FCED21;}
</style>
<g>
	<g>
		<path class="st1" d="M4.5,14.4c-0.3,0.3-0.6,0.4-1.1,0.4c-0.6,0-1.1-0.2-1.5-0.7l0.4-0.7c0.2,0.2,0.3,0.3,0.5,0.4
			C3.1,13.9,3.3,14,3.4,14c0.2,0,0.4-0.1,0.5-0.2C4,13.7,4,13.5,4,13.3v-2.4H2.4v-0.8h2.5v3.2C4.9,13.8,4.8,14.2,4.5,14.4z"/>
		<path class="st1" d="M6,10.1h1l1.6,3l1.6-3h1v4.7h-0.8v-3.4l-1.5,2.9H8.3l-1.5-2.9v3.4H6V10.1z"/>
		<path class="st1" d="M14.6,10.9c-0.3-0.1-0.5-0.1-0.7-0.1c-0.2,0-0.4,0-0.5,0.1c-0.1,0.1-0.2,0.2-0.2,0.3c0,0.1,0,0.2,0.1,0.3
			c0.1,0.1,0.2,0.2,0.3,0.2c0.1,0.1,0.3,0.1,0.5,0.2c0.3,0.1,0.6,0.2,0.8,0.3s0.4,0.2,0.5,0.4s0.2,0.4,0.2,0.7
			c0,0.3-0.1,0.5-0.2,0.8c-0.2,0.2-0.4,0.4-0.6,0.5c-0.3,0.1-0.6,0.2-0.9,0.2c-0.4,0-0.7-0.1-1.1-0.2c-0.4-0.1-0.7-0.3-0.9-0.5
			l0.4-0.8c0.2,0.2,0.5,0.4,0.8,0.5c0.3,0.1,0.6,0.2,0.8,0.2c0.3,0,0.4,0,0.6-0.1s0.2-0.2,0.2-0.4c0-0.1,0-0.2-0.1-0.3
			c-0.1-0.1-0.2-0.2-0.3-0.2c-0.1-0.1-0.3-0.1-0.6-0.2c-0.3-0.1-0.6-0.2-0.8-0.3s-0.4-0.2-0.5-0.4c-0.1-0.2-0.2-0.4-0.2-0.7
			c0-0.3,0.1-0.5,0.2-0.7c0.1-0.2,0.4-0.4,0.6-0.5S13.6,10,14,10c0.3,0,0.6,0,0.9,0.1c0.3,0.1,0.6,0.2,0.8,0.4l-0.4,0.8
			C15.1,11.1,14.8,11,14.6,10.9z"/>
	</g>
	<g>
		<polygon class="st2" points="0,18 18,18 18,9 17,9 17,17 1,17 1,1 9,1 9,0 0,0 		"/>
	</g>
	<polygon class="st3" points="16,5 16,0 14.1,0 14.1,5 12.1,5 15.1,8 18.1,5 	"/>
</g>
</svg>
