<svg id="Layer_1" data-name="Layer 1" xmlns="http://www.w3.org/2000/svg" viewBox="0 0 18 18"><defs><style>.cls-1{fill:#2f80d1;}.cls-2{fill:#606060;}.cls-3{fill:#47b747;}</style></defs><title>PutKudu</title><path class="cls-1" d="M8.24,14.33s-.11.09-.11.13c.05.77-.69,1.05-1.11,1.53l-.07,0A13.32,13.32,0,0,1,7,14c.51-.64,1.11-1.23.9-2.14a1.56,1.56,0,0,1,.66-1.81A2.53,2.53,0,0,1,9,9.86s0,0,.06-.07l.27-.18.24-.15,1.55-1A.64.64,0,0,0,11.41,8,17,17,0,0,1,12,6c0,.22,0,.44,0,.66a6.33,6.33,0,0,0-.06,1.11,2,2,0,0,1-1,1.92A9.82,9.82,0,0,0,9.47,11a1.08,1.08,0,0,0-.05.63l0,1.42Z"/><path class="cls-1" d="M7,14A13.32,13.32,0,0,0,6.94,16L6,15.11S5.92,15,5.92,15c.06-.77-.66-1.1-1.07-1.61a.86.86,0,0,1-.28-.72A2.44,2.44,0,0,0,3.32,9.91,2.49,2.49,0,0,1,2,7.35a8.65,8.65,0,0,0,0-.9c.21,0,.24.2.25.34A3,3,0,0,0,4.16,9.35a19.29,19.29,0,0,1,1.71,1.08.49.49,0,0,1,.2.42,9,9,0,0,1,0,1.1A2.27,2.27,0,0,0,7,14Z"/><path class="cls-1" d="M6.87,10.18c.06,0,.13-.08.19,0a1.65,1.65,0,0,0-.07.52c.14.89,0,1.78.06,2.67a1,1,0,0,1-.67-.78c0-.58,0-1.15,0-1.73,0-.22.19-.29.27-.45Z"/><path class="cls-1" d="M7,13.36c-.09-.89.08-1.78-.06-2.67a1.65,1.65,0,0,1,.07-.52,1.05,1.05,0,0,1,.57,1.12,4,4,0,0,0,0,1A1.15,1.15,0,0,1,7,13.36Z"/><polygon class="cls-2" points="17 17 1 17 1 1 11 1 11 0 0 0 0 18 18 18 18 9 17 9 17 17"/><polygon class="cls-3" points="17 7 17 6 18 6 18 5 16 5 16 0 14 0 14 5 12 5 12 6 13 6 13 7 14 7 14 8 16 8 16 7 17 7"/></svg>