<?xml version="1.0" encoding="utf-8"?>
<!-- Generator: Adobe Illustrator 21.0.0, SVG Export Plug-In . SVG Version: 6.00 Build 0)  -->
<svg version="1.1" id="Layer_1" xmlns="http://www.w3.org/2000/svg" xmlns:xlink="http://www.w3.org/1999/xlink" x="0px" y="0px"
	 width="18px" height="18px" viewBox="0 0 18 18" style="enable-background:new 0 0 18 18;" xml:space="preserve">
<style type="text/css">
	.st0{fill:#FFFFFF;}
	.st1{fill:#2F80D1;}
	.st2{fill:#606060;}
	.st3{fill:#47B747;}
	.st4{fill:none;}
	.st5{fill:#FF6364;}
	.st6{fill:#F2ADAD;}
	.st7{fill:#020201;}
	.st8{fill:#FEFEFE;}
	.st9{fill:#FCED21;}
</style>
<g>
	<polygon class="st3" points="16,5 16,0 14,0 14,5 12,5 15,8 18,5 	"/>
	<g>
		<path class="st2" d="M9,10c0-1,0-2.1,0-3.1c0-0.2,0-0.5,0-0.7C9,5.3,9,5.3,8.1,5c0,0-0.1,0-0.1,0c0,1.7,0,3.3,0,5
			C8.4,10,8.7,10,9,10z"/>
		<path class="st2" d="M11,10c0-0.8,0-1.7,0-2.5c0-0.2-0.1-0.3-0.4-0.4c-0.2,0-0.4-0.1-0.6-0.1c0,0-0.1,0-0.1,0c0,1,0,2,0,3
			C10.3,10,10.7,10,11,10z"/>
		<path class="st2" d="M13,10c0-0.8,0-2.1,0-3c0-0.2-0.1-0.3-0.4-0.4c-0.2,0-0.4-0.1-0.6-0.1c0,0-0.1,0-0.1,0c0,1,0,2.4,0,3.5
			C12.3,10,12.7,10,13,10z"/>
		<polygon class="st2" points="0,14 0,16 6,18 13,16 13,14 6,16 		"/>
		<polygon class="st2" points="7,4 5,3 0,6 0,10 7,10 		"/>
		<polygon class="st2" points="0,10.9 0,11 0,13 6,15 13,13 13,10.9 		"/>
	</g>
</g>
</svg>
