<svg id="Layer_1" data-name="Layer 1" xmlns="http://www.w3.org/2000/svg" viewBox="0 0 18 18"><defs><style>.cls-1{fill:#606060;}.cls-2{fill:#47b747;}.cls-3{fill:#2f80d1;}</style></defs><title>Icon_</title><path class="cls-1" d="M8,9.69A6.64,6.64,0,0,0,8,8.51a8.93,8.93,0,0,0-.33-1.6v0c-.07-.25-.15-.51-.24-.75a7.35,7.35,0,0,0-1-1.74h0a3.27,3.27,0,0,0-.24-.31,2.54,2.54,0,0,0-.18-.19,3.36,3.36,0,0,0-.26-.27l-.05-.05-.26-.24A.83.83,0,0,1,5,2.67a.3.3,0,0,0-.11.19A4,4,0,0,1,4,4.1a3.58,3.58,0,0,0-.47.58A5.72,5.72,0,0,0,2.77,6a7.21,7.21,0,0,0-.62,1.78A5.5,5.5,0,0,0,2,8.88.75.75,0,0,0,2,9s0,0,0,.07a4.26,4.26,0,0,0,0,.62,1.34,1.34,0,0,0,0,.46,5.24,5.24,0,0,0,.32,1.28,1.82,1.82,0,0,0,.19.43A6,6,0,0,0,4.08,14c.12.11.25.21.38.31a.88.88,0,0,1,.2.47,4.21,4.21,0,0,1,0,.67c0,.13,0,.26,0,.39s0,.24.24.13,0-.21.08-.32H5c.07-.08,0-.19,0-.28v-.16c.07-.12,0-.27.08-.4h0l0-.2.07-.17v0a6.77,6.77,0,0,0,.71-.65L6,13.67a6.88,6.88,0,0,0,1-1.27,6.43,6.43,0,0,0,.53-1c0-.09.05-.18.08-.27l.11-.28a4.39,4.39,0,0,0,.21-.91.42.42,0,0,1,0-.08Z"/><polygon class="cls-2" points="15 8 18 5.02 15.95 5.02 15.95 0.02 14 0.02 14 5.02 12 5.02 15 8"/><polygon class="cls-1" points="17 17 1 17 1 1 9 1 9 0 0 0 0 18 18 18 18 8 17 8 17 17"/><rect class="cls-3" x="10" y="14" width="3" height="1"/><rect class="cls-3" x="10" y="11" width="5" height="1"/></svg>