<svg id="Layer_1" data-name="Layer 1" xmlns="http://www.w3.org/2000/svg" viewBox="0 0 18 18"><defs><style>.cls-1{fill:#aaa8a8;}.cls-2{fill:#47b747;}.cls-3{fill:#d0d1e9;}.cls-4{fill:#2f80d1;}</style></defs><title>PutMicrosoftTeams</title><path class="cls-1" d="M8.94.09a.07.07,0,0,1-.12,0S8.9,0,8.94.09Z"/><rect class="cls-2" x="14" y="0.02" width="1.95" height="5.76"/><polygon class="cls-2" points="18 5.02 12 5.02 15 8 18 5.02"/><path class="cls-3" d="M15.76,3.57H15.7a.18.18,0,0,1,0-.11S15.76,3.54,15.76,3.57Z"/><path class="cls-4" d="M9.5,10.5a2,2,0,1,1,2-2A2,2,0,0,1,9.5,10.5Zm0-3a1,1,0,1,0,1,1A1,1,0,0,0,9.5,7.5Z"/><path class="cls-4" d="M12.5,11.5a2,2,0,1,1,2-2A2,2,0,0,1,12.5,11.5Zm0-3a1,1,0,1,0,1,1A1,1,0,0,0,12.5,8.5Z"/><path class="cls-4" d="M13,13v1.32a.68.68,0,0,1-.68.68H11V13h2m.36-1H10v4h2.32A1.68,1.68,0,0,0,14,14.32V12.64a.64.64,0,0,0-.64-.64Z"/><path class="cls-4" d="M10,12v3.12a.89.89,0,0,1-.88.88H8V12h2m.74-1H7.26a.26.26,0,0,0-.26.26v5.48a.26.26,0,0,0,.26.26H9.12A1.88,1.88,0,0,0,11,15.12V11.26a.26.26,0,0,0-.26-.26Z"/><path class="cls-4" d="M3.19,4.85l-3,.54a.24.24,0,0,1-.14,0V16.61a2.46,2.46,0,0,1,.53.08l5.42,1L8,18V4ZM7,9.15c0,.07,0,.1-.09.1L5.71,9.3c-.15,0-.15,0-.15.16q0,1.95,0,3.9c0,.11,0,.15-.14.14l-.68,0c-.09,0-.13,0-.12-.13,0-.64,0-1.28,0-1.93s0-1.28,0-1.91c0-.11,0-.14-.14-.13L3.29,9.4c-.08,0-.1,0-.1-.09q0-.35,0-.7c0-.07,0-.1.09-.1l2.87-.18.72,0c.07,0,.09,0,.09.08Q7,8.76,7,9.15Z"/></svg>