<svg id="Layer_1" data-name="Layer 1" xmlns="http://www.w3.org/2000/svg" viewBox="0 0 18 18"><defs><style>.cls-1{fill:#47b747;}.cls-2{fill:#606060;}</style></defs><title> PutRethinkDB</title><polygon class="cls-1" points="16 4.98 16 0 14 0 14 4.99 12 4.99 15 7.98 18 4.98 16 4.98"/><path class="cls-2" d="M3.29,3c.86,0,1.9-.06,2.95.05a4.73,4.73,0,0,1,2.29.83A3.77,3.77,0,0,1,10.1,7.16a3.94,3.94,0,0,1-2.47,3.95c-.19.08-.22.14-.11.34.8,1.38,1.61,2.75,2.39,4.15a1.85,1.85,0,0,0,1.68,1c.34,0,.38,0,.41.4a1.82,1.82,0,0,1,0,.22c0,.67-.11.76-.72.76H10.19a2,2,0,0,1-1.81-1.09q-1.43-2.48-2.85-5a.36.36,0,0,0-.41-.23,8.47,8.47,0,0,1-1,0C4,11.76,4,11.82,4,12c0,1.48,0,3,0,4.44,0,.2.07.22.22.22.57,0,1.15,0,1.72,0,.24,0,.35.11.36.35s0,.24,0,.36c0,.54-.15.67-.65.67h-5c-.3,0-.37-.07-.39-.4a1.9,1.9,0,0,1,0-.41c.08-.44.22-.57.65-.57a3.06,3.06,0,0,0,.69-.06c.33-.07.41-.18.41-.55q0-4.64,0-9.29C2,6.08,2,5.44,2,4.8c0-.26-.05-.38-.33-.36s-.81,0-1.21,0a.36.36,0,0,1-.4-.31A1.91,1.91,0,0,1,0,3.32C.06,3.09.15,3,.38,3ZM4,7.36Q4,8.66,4,10c0,.11,0,.25.15.24A7.21,7.21,0,0,0,6.5,9.84,2.13,2.13,0,0,0,7.85,8.23a4.38,4.38,0,0,0,0-1.61,2,2,0,0,0-1.55-1.8,8.66,8.66,0,0,0-2.14-.27C4,4.54,4,4.61,4,4.79,4,5.65,4,6.5,4,7.36Z"/></svg>