<?xml version="1.0" encoding="utf-8"?>
<!-- Generator: Adobe Illustrator 21.0.0, SVG Export Plug-In . SVG Version: 6.00 Build 0)  -->
<svg version="1.1" id="Layer_1" xmlns="http://www.w3.org/2000/svg" xmlns:xlink="http://www.w3.org/1999/xlink" x="0px" y="0px"
	 width="18px" height="18px" viewBox="0 0 18 18" style="enable-background:new 0 0 18 18;" xml:space="preserve">
<style type="text/css">
	.st0{fill:#FFFFFF;}
	.st1{fill:#2F80D1;}
	.st2{fill:#606060;}
	.st3{fill:#47B747;}
	.st4{fill:none;}
	.st5{fill:#FF6364;}
	.st6{fill:#F2ADAD;}
	.st7{fill:#020201;}
	.st8{fill:#FEFEFE;}
	.st9{fill:#FCED21;}
</style>
<g>
	<polygon class="st3" points="16,5 16,0 14.1,0 14.1,5 12.1,5 15.1,8 18.1,5 	"/>
	<g>
		<path class="st2" d="M10.3,8.6c0,0.1,0,0.1-0.1,0.2c-1.4,3-2.8,6-4.1,8.9c-0.1,0.1-0.1,0.1-0.2,0.1c-1.3-0.3-2.5-0.9-3.5-1.9
			c0,0,0,0-0.1-0.1C5,13.5,7.7,11,10.3,8.6C10.3,8.6,10.3,8.6,10.3,8.6z"/>
		<path class="st2" d="M0.3,11.9c2.3-1.1,4.7-2.1,7-3.2C8,8.3,8.6,8,9.3,7.7c0,0,0.1,0,0.1,0C7,10.3,4.6,13,2.1,15.6
			c-0.5-0.5-0.9-1.1-1.2-1.7c-0.3-0.6-0.5-1.2-0.7-1.8C0.2,12,0.2,11.9,0.3,11.9z"/>
		<path class="st2" d="M11.5,9.2c0,0.4-0.1,0.8-0.1,1.3c-0.1,0.6-0.2,1.3-0.2,1.9c-0.1,0.6-0.2,1.3-0.2,1.9
			c-0.1,0.6-0.1,1.1-0.2,1.7c-0.1,0.5-0.1,0.9-0.2,1.4c0,0-0.1,0.1-0.1,0.1c-0.6,0.2-1.1,0.4-1.7,0.5c-0.7,0.1-1.3,0.1-2,0
			c0,0-0.1,0-0.2,0C8.2,15,9.8,12.1,11.5,9.2C11.4,9.2,11.4,9.2,11.5,9.2z"/>
		<path class="st2" d="M0.6,7.6c0-0.1,0.1-0.1,0.2-0.2C1.6,7.4,2.3,7.3,3,7.2C3.8,7.2,4.5,7.1,5.2,7c0.7-0.1,1.4-0.2,2.2-0.3
			c0.5-0.1,1-0.1,1.5-0.1C6,8.2,3.1,9.8,0.1,11.5c0-0.3,0-0.5-0.1-0.8C0,9.6,0.2,8.6,0.6,7.6z"/>
		<path class="st2" d="M12.7,9.4c0,0.2,0.1,0.5,0.1,0.7c0.2,1.2,0.5,2.5,0.7,3.7c0.1,0.3,0.1,0.6,0.2,0.8c0,0.1,0,0.1,0,0.2
			c-0.7,0.9-1.5,1.7-2.5,2.3c0,0,0,0-0.1,0C11.7,14.5,12.2,11.9,12.7,9.4C12.7,9.4,12.7,9.4,12.7,9.4z"/>
		<path class="st2" d="M8.6,5.3C8.6,5.3,8.6,5.3,8.6,5.3C6.1,5.8,3.6,6.3,1,6.8c0,0,0-0.1,0-0.1c0.6-1,1.3-1.8,2.2-2.4
			c0.1,0,0.2-0.1,0.2-0.1C5,4.6,6.5,4.9,8,5.2C8.2,5.2,8.4,5.3,8.6,5.3z"/>
		<path class="st2" d="M14.4,10c0.2,0.3,0.4,0.7,0.6,1c0.1,0.1,0.1,0.2,0.1,0.4c-0.1,0.7-0.3,1.4-0.6,2.1c0,0,0,0,0,0.1
			c-0.2-1.5-0.3-2.9-0.5-4.4c0,0,0,0,0,0C14.1,9.4,14.3,9.7,14.4,10z"/>
		<path class="st2" d="M4.7,3.5c0.3-0.1,0.7-0.2,1-0.3C6.1,3.1,6.5,3.1,6.9,3C6.9,3,7,3,7,3c0.6,0.3,1.2,0.7,1.8,1.1
			C7.5,3.9,6.1,3.7,4.7,3.5C4.7,3.6,4.7,3.5,4.7,3.5z"/>
	</g>
</g>
</svg>
