<?xml version="1.0" encoding="utf-8"?>
<!-- Generator: Adobe Illustrator 21.0.0, SVG Export Plug-In . SVG Version: 6.00 Build 0)  -->
<svg version="1.1" id="Layer_1" xmlns="http://www.w3.org/2000/svg" xmlns:xlink="http://www.w3.org/1999/xlink" x="0px" y="0px"
	 width="18px" height="18px" viewBox="0 0 18 18" style="enable-background:new 0 0 18 18;" xml:space="preserve">
<style type="text/css">
	.st0{fill:#FFFFFF;}
	.st1{fill:#2F80D1;}
	.st2{fill:#606060;}
	.st3{fill:#47B747;}
	.st4{fill:none;}
	.st5{fill:#FF6364;}
	.st6{fill:#F2ADAD;}
	.st7{fill:#020201;}
	.st8{fill:#FEFEFE;}
	.st9{fill:#FCED21;}
</style>
<g>
	<polygon class="st3" points="16,5 16,0 14,0 14,5 12,5 15,8 18,5 	"/>
	<g>
		<path class="st1" d="M0.9,18c1.7-1.1,3.6-2,5.4-3c2-1.1,4.1-2.3,6.2-3.3c0.4-0.2,0.6-0.5,0.5-0.9c0-0.2,0-0.3,0-0.5
			c0.1-0.5-0.1-0.7-0.6-1c-3.7-1.9-7.3-3.9-11-5.9C1.3,3.3,1,3.2,0.9,3.1c0,0-0.1,0-0.1,0C0.5,4,0.7,4.9,0.7,5.8
			C0.7,6,1,6.1,1.2,6.2c2.5,1.3,5,2.7,7.4,4c0.2,0.1,0.4,0.1,0.5,0.4c-1,0.5-1.9,1-2.9,1.5c-1.7,0.9-3.3,1.7-5,2.6
			c-0.4,0.2-0.6,0.5-0.6,1c0.1,0.7-0.2,1.5,0.2,2.2C0.8,18,0.9,18,0.9,18z"/>
	</g>
</g>
</svg>
