<?xml version="1.0" encoding="utf-8"?>
<!-- Generator: Adobe Illustrator 21.0.0, SVG Export Plug-In . SVG Version: 6.00 Build 0)  -->
<svg version="1.1" id="Layer_1" xmlns="http://www.w3.org/2000/svg" xmlns:xlink="http://www.w3.org/1999/xlink" x="0px" y="0px"
	 width="18px" height="18px" viewBox="0 0 18 18" style="enable-background:new 0 0 18 18;" xml:space="preserve">
<style type="text/css">
	.st0{fill:#FFFFFF;}
	.st1{fill:#2F80D1;}
	.st2{fill:#606060;}
	.st3{fill:#47B747;}
	.st4{fill:none;}
	.st5{fill:#FF6364;}
	.st6{fill:#F2ADAD;}
	.st7{fill:#020201;}
	.st8{fill:#FEFEFE;}
	.st9{fill:#FCED21;}
</style>
<g>
	<polygon class="st3" points="16,5 16,0 14.1,0 14.1,5 12.1,5 15.1,8 18.1,5 	"/>
	<g>
		<path class="st2" d="M9.2,10.8V9.5C9.2,9.3,9.1,9,9,8.9C8.9,8.7,8.7,8.5,8.5,8.5h0V7.4C8.5,6.4,8,5.7,7.3,5C6.6,4.3,5.7,4,4.8,4
			S2.8,4.3,2.1,5C1.4,5.7,0.9,6.4,0.9,7.4v1.2h0c-0.2,0-0.4,0.2-0.5,0.3C0.2,9,0.2,9.3,0.2,9.5v4.3c0,0.2,0.1,0.4,0.2,0.5
			c0.1,0.1,0.3,0.2,0.5,0.2h5.3c0-0.1,0-0.2,0-0.4C6.2,12.4,7.5,11,9.2,10.8z M2.4,7.4c0-0.5,0.3-1,0.7-1.4c0.4-0.4,0.9-0.6,1.5-0.6
			S5.8,5.6,6.2,6C6.6,6.4,7,6.8,7,7.4v1.2H2.4V7.4z"/>
		<g>
			<path class="st1" d="M9.4,14.7L7,17.2L7,18l1.5,0v-0.7h0.7v-0.7H10v-0.7l0.3-0.3C9.9,15.3,9.6,15.1,9.4,14.7z"/>
			<path class="st1" d="M11.1,12c-1,0-1.9,0.8-1.9,1.9c0,1,0.8,1.9,1.9,1.9s1.9-0.8,1.9-1.9C13,12.8,12.1,12,11.1,12z M11.5,14.2
				c-0.4,0-0.8-0.3-0.8-0.8c0-0.4,0.3-0.8,0.8-0.8s0.8,0.3,0.8,0.8C12.2,13.9,11.9,14.2,11.5,14.2z"/>
		</g>
	</g>
</g>
</svg>
