<?xml version="1.0" encoding="utf-8"?>
<!-- Generator: Adobe Illustrator 21.0.0, SVG Export Plug-In . SVG Version: 6.00 Build 0)  -->
<svg version="1.1" id="Layer_1" xmlns="http://www.w3.org/2000/svg" xmlns:xlink="http://www.w3.org/1999/xlink" x="0px" y="0px"
	 width="18px" height="18px" viewBox="0 0 18 18" style="enable-background:new 0 0 18 18;" xml:space="preserve">
<style type="text/css">
	.st0{fill:#FFFFFF;}
	.st1{fill:#2F80D1;}
	.st2{fill:#606060;}
	.st3{fill:#47B747;}
	.st4{fill:none;}
	.st5{fill:#FF6364;}
	.st6{fill:#F2ADAD;}
	.st7{fill:#020201;}
	.st8{fill:#FEFEFE;}
	.st9{fill:#FCED21;}
</style>
<g>
	<g>
		<polygon class="st2" points="0,18 18,18 18,9 17,9 17,17 1,17 1,1 9,1 9,0 0,0 		"/>
	</g>
	<polygon class="st3" points="16,5 16,0 14,0 14,5 12,5 15,8 18,5 	"/>
	<g>
		<path class="st1" d="M3,11h3.3v0.7H5.1V15H4.3v-3.3H3V11z"/>
		<path class="st1" d="M9.4,11.8c-0.2-0.1-0.4-0.1-0.6-0.1c-0.2,0-0.5,0.1-0.7,0.2c-0.2,0.1-0.4,0.3-0.5,0.5S7.4,12.7,7.4,13
			s0.1,0.5,0.2,0.7c0.1,0.2,0.3,0.4,0.5,0.5s0.4,0.2,0.7,0.2c0.2,0,0.4,0,0.6-0.1s0.4-0.2,0.5-0.3l0.5,0.5c-0.2,0.2-0.5,0.4-0.7,0.5
			C9.3,15,9,15.1,8.7,15.1c-0.4,0-0.7-0.1-1.1-0.3c-0.3-0.2-0.6-0.4-0.8-0.7c-0.2-0.3-0.3-0.7-0.3-1c0-0.4,0.1-0.7,0.3-1
			c0.2-0.3,0.4-0.6,0.8-0.7C8,11,8.4,10.9,8.8,10.9c0.3,0,0.6,0.1,0.8,0.2s0.5,0.3,0.7,0.5l-0.4,0.6C9.7,12,9.6,11.9,9.4,11.8z"/>
		<path class="st1" d="M14.1,11.4c0.3,0.2,0.4,0.6,0.4,1c0,0.5-0.1,0.8-0.4,1.1c-0.3,0.3-0.7,0.4-1.2,0.4h-0.9V15h-0.8v-4h1.6
			C13.4,11,13.8,11.1,14.1,11.4z M13.6,13c0.2-0.1,0.2-0.3,0.2-0.6c0-0.2-0.1-0.4-0.2-0.5c-0.2-0.1-0.4-0.2-0.7-0.2h-0.8v1.5h0.8
			C13.2,13.1,13.4,13.1,13.6,13z"/>
	</g>
</g>
</svg>
