<?xml version="1.0" encoding="utf-8"?>
<!-- Generator: Adobe Illustrator 21.1.0, SVG Export Plug-In . SVG Version: 6.00 Build 0)  -->
<svg version="1.1" id="Layer_1" xmlns="http://www.w3.org/2000/svg" xmlns:xlink="http://www.w3.org/1999/xlink" x="0px" y="0px"
	 width="18px" height="18px" viewBox="0 0 18 18" style="enable-background:new 0 0 18 18;" xml:space="preserve">
<style type="text/css">
	.st0{fill:#EEF7C9;}
	.st1{fill:#E1E3E4;}
	.st2{fill:#B54747;}
	.st3{fill:none;stroke:#2F80D1;stroke-linecap:round;stroke-linejoin:round;stroke-miterlimit:10;}
	.st4{fill:none;stroke:#FFFFFF;stroke-linecap:round;stroke-miterlimit:10;}
	.st5{fill:none;stroke:#2F80D1;stroke-miterlimit:10;}
	.st6{fill:none;stroke:#FFFFFF;stroke-miterlimit:10;}
	.st7{fill:#606060;}
	.st8{fill:#2F80D1;}
	.st9{fill:#47B747;}
	.st10{fill:none;stroke:#606060;stroke-miterlimit:10;}
	.st11{fill:#FFFFFF;}
	.st12{fill:none;stroke:#47B747;stroke-miterlimit:10;}
	.st13{fill:none;stroke:#47B747;stroke-linecap:round;stroke-miterlimit:10;}
	.st14{fill:none;stroke:#47B747;stroke-linecap:round;stroke-linejoin:round;stroke-miterlimit:10;}
</style>
<g>
	<path class="st7" d="M12,3.5C12,2.5,9.2,2,6.5,2C3.9,2,1,2.5,1,3.5c0,0,0,0,0,0v0.2c0,0,0,0,0,0c0,0,0,0,0,0v2.4c0,0,0,0,0,0.1
		c0,0.4,2.1,1,5.5,1c3.3,0,5.5-0.6,5.5-1c0,0,0,0,0-0.1L12,3.5L12,3.5z M6.5,5.2c-2.4,0-4.3-0.4-4.3-1.1C2.3,3.5,4.2,3,6.5,3
		c2.4,0,4.3,0.5,4.3,1.2C10.8,4.8,8.9,5.2,6.5,5.2z"/>
	<path class="st8" d="M10,11.5c0,1.7,1.3,3,3,3c0.3,0,0.7-0.1,1-0.2l1.6,2.4l0.8-0.6l-1.6-2.4c0.7-0.5,1.2-1.4,1.2-2.4
		c0-1.7-1.3-3-3-3S10,9.9,10,11.5z M11,11.5c0-1.1,0.9-2,2-2s2,0.9,2,2s-0.9,2-2,2S11,12.6,11,11.5z"/>
	<path class="st7" d="M7.6,11.4c0-0.9,0.3-1.6,0.7-2.3c-0.6,0-1.2,0.1-1.8,0.1C4.4,9.1,2.2,8.9,1,8.4v2.1c0,0,0,0,0,0.1
		c0,0.4,2.1,1,5.5,1c0.4,0,0.7,0,1,0C7.6,11.5,7.6,11.4,7.6,11.4z"/>
	<path class="st7" d="M8.1,13.4c-0.5,0-1,0-1.6,0c-2.1,0-4.3-0.3-5.5-0.7v1.8c0,0,0,0,0,0c0,1,2.8,1.5,5.5,1.5
		c1.8,0,3.6-0.2,4.6-0.7C9.9,15.2,8.7,14.5,8.1,13.4z"/>
</g>
</svg>
