<?xml version="1.0" encoding="utf-8"?>
<!-- Generator: Adobe Illustrator 21.0.0, SVG Export Plug-In . SVG Version: 6.00 Build 0)  -->
<svg version="1.1" id="Layer_1" xmlns="http://www.w3.org/2000/svg" xmlns:xlink="http://www.w3.org/1999/xlink" x="0px" y="0px"
	 width="18px" height="18px" viewBox="0 0 18 18" style="enable-background:new 0 0 18 18;" xml:space="preserve">
<style type="text/css">
	.st0{fill:#FFFFFF;}
	.st1{fill:#2F80D1;}
	.st2{fill:#606060;}
	.st3{fill:#47B747;}
	.st4{fill:none;}
	.st5{fill:#FF6364;}
	.st6{fill:#F2ADAD;}
	.st7{fill:#020201;}
	.st8{fill:#FEFEFE;}
	.st9{fill:#FCED21;}
</style>
<g>
	<g>
		<path class="st3" d="M10.4,11.8L7.5,9.5L7.4,9.4l0,1.8c0,0,0,0,0,0c-0.6,0-1.2,0-1.8-0.1c-0.6-0.1-1.1-0.4-1.5-0.9
			C3.6,9.7,3.4,9.3,3.2,8.8C3.2,8.5,3.1,8.3,3,8c0,0.2,0,0.5,0,0.7c0.1,0.8,0.2,1.7,0.6,2.4c0.5,1.1,1.3,1.8,2.5,2.1
			c0.4,0.1,0.8,0.1,1.3,0.2l0,1.7l0.1-0.1l3.3-2.7l0.2-0.2L10.4,11.8z"/>
	</g>
	<g>
		<path class="st2" d="M5.6,7L5,5.6H1.8L1.3,7H0l2.8-6.6h1.3L6.9,7H5.6z M2.3,4.6h2.3L3.4,1.8L2.3,4.6z"/>
	</g>
	<g>
		<circle class="st2" cx="15.5" cy="12.5" r="2.5"/>
	</g>
</g>
</svg>
