<?xml version="1.0" encoding="utf-8"?>
<!-- Generator: Adobe Illustrator 21.0.0, SVG Export Plug-In . SVG Version: 6.00 Build 0)  -->
<svg version="1.1" id="Layer_1" xmlns="http://www.w3.org/2000/svg" xmlns:xlink="http://www.w3.org/1999/xlink" x="0px" y="0px"
	 width="18px" height="18px" viewBox="0 0 18 18" style="enable-background:new 0 0 18 18;" xml:space="preserve">
<style type="text/css">
	.st0{fill:#FFFFFF;}
	.st1{fill:#2F80D1;}
	.st2{fill:#606060;}
	.st3{fill:#47B747;}
	.st4{fill:none;}
	.st5{fill:#FF6364;}
	.st6{fill:#F2ADAD;}
	.st7{fill:#020201;}
	.st8{fill:#FEFEFE;}
	.st9{fill:#FCED21;}
</style>
<g>
	<g>
		<path class="st1" d="M6.1,8L5.7,7H3.4L2.9,8H2l2.1-4.8h1L7.1,8H6.1z M3.7,6.2h1.7l-0.8-2L3.7,6.2z"/>
		<path class="st1" d="M9.9,8V7.6C9.7,7.7,9.6,7.8,9.4,7.9C9.2,8,8.9,8,8.7,8C8.4,8,8.2,8,8,7.9C7.8,7.8,7.6,7.7,7.5,7.5
			S7.4,7.1,7.4,6.9c0-0.3,0.1-0.6,0.4-0.8c0.2-0.2,0.6-0.3,1-0.3h1.1V5.7c0-0.2-0.1-0.4-0.2-0.5C9.5,5.1,9.3,5,9,5
			C8.7,5,8.3,5.1,7.9,5.4L7.6,4.7c0.3-0.2,0.5-0.3,0.8-0.3c0.2-0.1,0.5-0.1,0.8-0.1c0.5,0,0.8,0.1,1.1,0.3c0.3,0.2,0.4,0.5,0.4,1
			l0,2.4H9.9z M9.5,7.2c0.2-0.1,0.3-0.3,0.3-0.5V6.4H8.9c-0.2,0-0.4,0-0.5,0.1C8.3,6.6,8.2,6.7,8.2,6.8c0,0.2,0.1,0.3,0.2,0.4
			c0.1,0.1,0.3,0.1,0.5,0.1C9.1,7.4,9.4,7.3,9.5,7.2z"/>
		<path class="st1" d="M15.1,3.8c0.4,0.4,0.5,1,0.5,1.8c0,0.8-0.2,1.4-0.5,1.8C14.8,7.8,14.3,8,13.6,8c-0.7,0-1.2-0.2-1.5-0.6
			c-0.4-0.4-0.5-1-0.5-1.8c0-0.8,0.2-1.4,0.5-1.8c0.4-0.4,0.9-0.6,1.5-0.6C14.3,3.2,14.8,3.4,15.1,3.8z M12.8,4.3
			c-0.2,0.3-0.3,0.7-0.3,1.3c0,0.6,0.1,1,0.3,1.3c0.2,0.3,0.5,0.4,0.8,0.4c0.4,0,0.7-0.1,0.8-0.4c0.2-0.3,0.3-0.7,0.3-1.3
			c0-0.6-0.1-1-0.3-1.3C14.3,4,14,3.9,13.6,3.9C13.2,3.9,12.9,4,12.8,4.3z"/>
	</g>
	<g>
		<polygon class="st2" points="0,0 0,18 9,18 9,17 1,17 1,1 17,1 17,9 18,9 18,0 		"/>
	</g>
	<g>
		<polygon class="st3" points="16.6,12.8 18,14.1 18,10 13.9,10 15.3,11.4 13,13.7 10.8,11.5 12.3,10.1 8,10.1 8,14.3 9.5,12.8 
			12,15.4 12,18 14,18 14,15.3 		"/>
	</g>
</g>
</svg>
