<?xml version="1.0" encoding="utf-8"?>
<!-- Generator: Adobe Illustrator 21.0.0, SVG Export Plug-In . SVG Version: 6.00 Build 0)  -->
<svg version="1.1" id="Layer_1" xmlns="http://www.w3.org/2000/svg" xmlns:xlink="http://www.w3.org/1999/xlink" x="0px" y="0px"
	 width="18px" height="18px" viewBox="0 0 18 18" style="enable-background:new 0 0 18 18;" xml:space="preserve">
<style type="text/css">
	.st0{fill:#FFFFFF;}
	.st1{fill:#2F80D1;}
	.st2{fill:#606060;}
	.st3{fill:#47B747;}
	.st4{fill:none;}
	.st5{fill:#FF6364;}
	.st6{fill:#F2ADAD;}
	.st7{fill:#020201;}
	.st8{fill:#FEFEFE;}
	.st9{fill:#FCED21;}
</style>
<g>
	<path class="st2" d="M8.4,9.4C8.3,9.2,8.3,9,8.3,8.8c0-2.9,0-5.7,0-8.6c0-0.1,0-0.2,0-0.2C4.8,0.3,1.5,2.6,0.4,6.3
		c-1.1,3.5,0.1,7.4,3.1,9.7c2.7,2.1,6.2,2.2,8.5,1.3c0-0.1,0-0.1-0.1-0.2C10.7,14.6,9.6,12,8.4,9.4z"/>
	<path class="st2" d="M9.7,0c0,0.1,0,0.1,0,0.2c0,2.6,0,5.3,0,7.9c0,0.2,0.1,0.2,0.2,0.3c2,0.4,4,0.8,6,1.2c0.7,0.1,1.3,0.3,2,0.4
		C18.6,6.2,15.8,0.5,9.7,0z"/>
	<path class="st2" d="M17.1,11.3c-2.2-0.5-4.4-0.9-6.7-1.4c0,0-0.1,0-0.2,0c1,2.3,2,4.6,3.1,6.9c0.1,0,0.1,0,0.1-0.1
		c1.9-1.1,3.3-2.7,4-4.8C17.7,11.5,17.7,11.4,17.1,11.3z M13.9,14.9c-0.5-1-0.9-2-1.4-3.1c1.1,0.2,2.2,0.4,3.3,0.7
		C15.3,13.4,14.7,14.2,13.9,14.9z"/>
</g>
</svg>
