<?xml version="1.0" encoding="utf-8"?>
<!-- Generator: Adobe Illustrator 21.0.0, SVG Export Plug-In . SVG Version: 6.00 Build 0)  -->
<svg version="1.1" id="Layer_1" xmlns="http://www.w3.org/2000/svg" xmlns:xlink="http://www.w3.org/1999/xlink" x="0px" y="0px"
	 width="18px" height="18px" viewBox="0 0 18 18" style="enable-background:new 0 0 18 18;" xml:space="preserve">
<style type="text/css">
	.st0{fill:#FFFFFF;}
	.st1{fill:#2F80D1;}
	.st2{fill:#606060;}
	.st3{fill:#47B747;}
	.st4{fill:none;}
	.st5{fill:#FF6364;}
	.st6{fill:#F2ADAD;}
	.st7{fill:#020201;}
	.st8{fill:#FEFEFE;}
	.st9{fill:#FCED21;}
</style>
<g>
	<g>
		<polygon class="st3" points="12.6,4.7 10.8,2.9 10.1,3.5 12.6,6 18,0.6 17.4,0 		"/>
	</g>
	<g>
		<path class="st1" d="M2.5,10.8h0.7v1.7h1.9v-1.7h0.7v3.9H5.1v-1.6H3.2v1.6H2.5V10.8z"/>
		<path class="st1" d="M6.9,10.8h0.7v3.9H6.9V10.8z"/>
		<path class="st1" d="M8.3,10.8h0.8l1.1,3.1l1.1-3.1h0.7l-1.5,3.9H9.8L8.3,10.8z"/>
		<path class="st1" d="M12.7,10.8h2.8v0.7h-2.1v1h1.8V13h-1.8v1h2.1v0.7h-2.8V10.8z"/>
	</g>
</g>
</svg>
