<?xml version="1.0" encoding="utf-8"?>
<!-- Generator: Adobe Illustrator 21.0.0, SVG Export Plug-In . SVG Version: 6.00 Build 0)  -->
<svg version="1.1" id="Layer_1" xmlns="http://www.w3.org/2000/svg" xmlns:xlink="http://www.w3.org/1999/xlink" x="0px" y="0px"
	 width="18px" height="18px" viewBox="0 0 18 18" style="enable-background:new 0 0 18 18;" xml:space="preserve">
<style type="text/css">
	.st0{fill:#FFFFFF;}
	.st1{fill:#2F80D1;}
	.st2{fill:#606060;}
	.st3{fill:#47B747;}
	.st4{fill:none;}
	.st5{fill:#FF6364;}
	.st6{fill:#F2ADAD;}
	.st7{fill:#020201;}
	.st8{fill:#FEFEFE;}
	.st9{fill:#FCED21;}
</style>
<g>
	<g>
		<path class="st1" d="M11.9,7.9C12,7.8,12,7.7,12.1,7.7c0.5-0.8,0.9-1.5,1.3-2.3c0.1-0.2,0.2-0.2,0.4-0.2c0.6,0,1.2,0,1.7,0
			c0.2,0,0.3,0,0.3,0.2c0.1,0.2-0.1,0.4-0.3,0.4c-0.5,0-1,0-1.5,0c-0.1,0-0.2,0-0.3,0.2c-0.6,0.9-1.1,1.9-1.7,2.8
			c0,0.1-0.1,0.2-0.2,0.2c-0.2,0.1-0.4,0-0.4-0.2C11.3,7.8,11,7,10.8,6.2c-0.3-0.9-0.5-1.8-0.8-2.7c0,0,0-0.1-0.1-0.1
			C9.8,3.7,9.7,4,9.6,4.4C9.2,5.8,8.8,7.2,8.4,8.6c0,0.1-0.1,0.2-0.3,0.2c-0.2,0-0.3-0.1-0.3-0.2C7.2,7,6.7,5.4,6.3,3.8
			C6.2,3.5,6.1,3.3,6,3C6,3.1,6,3.1,5.9,3.2C5.5,3.9,5,4.7,4.6,5.5C4.5,5.6,4.3,5.7,4.1,5.7c-0.6,0-1.2,0-1.7,0C2.1,5.7,2,5.6,2,5.4
			c0-0.2,0.2-0.3,0.4-0.3c0.5,0,1,0,1.4,0c0.1,0,0.2,0,0.3-0.1c0.6-0.9,1.1-1.9,1.7-2.8C5.9,2.1,6,2,6.1,2c0.2,0,0.3,0.1,0.4,0.2
			c0.4,1.3,0.8,2.6,1.2,4C7.8,6.6,7.9,7.1,8,7.5c0.1-0.4,0.3-0.9,0.4-1.3c0.4-1.3,0.8-2.6,1.2-3.9C9.7,2.1,9.8,2,9.9,2
			c0.2,0,0.3,0.1,0.3,0.3c0.4,1.4,0.8,2.8,1.2,4.1C11.6,6.9,11.8,7.4,11.9,7.9z"/>
	</g>
	<g>
		<polygon class="st2" points="1,17 1,1 17,1 17,9 18,9 18,0 0,0 0,18 7,18 7,17 		"/>
	</g>
	<g>
		<g>
			<path class="st3" d="M17.7,13.2L17.2,13c-0.1,0-0.2-0.1-0.3-0.2v0c0-0.1,0-0.3,0-0.4l0.2-0.5c0.1-0.2,0.1-0.4-0.1-0.5l-0.5-0.5
				c-0.1-0.1-0.3-0.1-0.5-0.1L15.6,11c-0.3,0.1-0.5,0-0.6-0.3l-0.2-0.5c0-0.2-0.2-0.3-0.4-0.3l0,0h-0.8l0,0c-0.2,0-0.3,0.1-0.4,0.3
				L13,10.8c-0.1,0.2-0.4,0.4-0.6,0.3l-0.5-0.2c-0.1-0.1-0.4-0.1-0.5,0.1l-0.5,0.5c-0.1,0.1-0.1,0.3-0.1,0.5l0.2,0.5
				c0.1,0.3,0,0.5-0.3,0.6l-0.5,0.2c-0.2,0-0.3,0.2-0.3,0.4v0.8c0,0.2,0.1,0.3,0.3,0.4l0.5,0.2c0.2,0.1,0.4,0.4,0.3,0.6l-0.2,0.5
				c-0.1,0.2-0.1,0.4,0.1,0.5l0.5,0.5c0.1,0.1,0.3,0.1,0.5,0.1l0.5-0.2c0.3-0.1,0.5,0,0.6,0.3l0.2,0.5c0,0.2,0.2,0.3,0.4,0.3l0,0
				h0.8l0,0c0.2,0,0.3-0.1,0.4-0.3l0.2-0.5c0.1-0.2,0.4-0.4,0.6-0.3l0.5,0.2c0.1,0.1,0.4,0.1,0.5-0.1l0.5-0.5
				c0.1-0.1,0.1-0.3,0.1-0.5L17,15.6c-0.1-0.3,0-0.5,0.3-0.6l0.5-0.2c0.2,0,0.3-0.2,0.3-0.4v-0.8C18,13.4,17.9,13.3,17.7,13.2z
				 M14,15.6c-0.9,0-1.6-0.7-1.6-1.6s0.7-1.6,1.6-1.6c0.9,0,1.6,0.7,1.6,1.6S14.9,15.6,14,15.6z"/>
		</g>
	</g>
</g>
</svg>
