<?xml version="1.0" encoding="utf-8"?>
<!-- Generator: Adobe Illustrator 21.1.0, SVG Export Plug-In . SVG Version: 6.00 Build 0)  -->
<svg version="1.1" id="Layer_1" xmlns="http://www.w3.org/2000/svg" xmlns:xlink="http://www.w3.org/1999/xlink" x="0px" y="0px"
	 width="18px" height="18px" viewBox="0 0 18 18" style="enable-background:new 0 0 18 18;" xml:space="preserve">
<style type="text/css">
	.st0{opacity:0.32;fill:#EEF7C9;}
	.st1{fill:#E1E3E4;}
	.st2{fill:#B54747;}
	.st3{fill:none;stroke:#2F80D1;stroke-linecap:round;stroke-linejoin:round;stroke-miterlimit:10;}
	.st4{fill:none;stroke:#FFFFFF;stroke-linecap:round;stroke-miterlimit:10;}
	.st5{fill:none;stroke:#2F80D1;stroke-miterlimit:10;}
	.st6{fill:none;stroke:#FFFFFF;stroke-miterlimit:10;}
	.st7{fill:#606060;}
	.st8{fill:#2F80D1;}
	.st9{fill:#47B747;}
	.st10{fill:none;stroke:#606060;stroke-miterlimit:10;}
	.st11{fill:#FFFFFF;}
	.st12{fill:none;stroke:#47B747;stroke-miterlimit:10;}
	.st13{fill:none;stroke:#47B747;stroke-linecap:round;stroke-miterlimit:10;}
	.st14{fill:none;stroke:#47B747;stroke-linecap:round;stroke-linejoin:round;stroke-miterlimit:10;}
</style>
<g>
	<path class="st8" d="M14,8.9l0,1c-3.5,0.4-4,4.2-4,4c1.2-2.4,4-2,4-2l0,1l3-2L14,8.9z"/>
	<path class="st8" d="M13,18l0-1c3.5-0.4,4-4.2,4-4c-1.2,2.4-4,2-4,2l0-1l-3,2L13,18z"/>
	<g>
		<rect x="12" y="1" class="st7" width="1" height="1"/>
		<rect x="13" y="2" class="st7" width="1" height="1"/>
		<polygon class="st7" points="14,3 14,4 11,4 11,1 12,1 12,0 11,0 2,0 2,18 9,18 9,17 3,17 3,1 10,1 10,5 11,5 14,5 14,8 15,8 
			15,5 15,4 15,3 		"/>
	</g>
</g>
</svg>
