<?xml version="1.0" encoding="utf-8"?>
<!-- Generator: Adobe Illustrator 21.1.0, SVG Export Plug-In . SVG Version: 6.00 Build 0)  -->
<svg version="1.1" id="Layer_1" xmlns="http://www.w3.org/2000/svg" xmlns:xlink="http://www.w3.org/1999/xlink" x="0px" y="0px"
	 width="18px" height="18px" viewBox="0 0 18 18" style="enable-background:new 0 0 18 18;" xml:space="preserve">
<style type="text/css">
	.st0{fill:#EEF7C9;}
	.st1{fill:#E1E3E4;}
	.st2{fill:#B54747;}
	.st3{fill:none;stroke:#2F80D1;stroke-linecap:round;stroke-linejoin:round;stroke-miterlimit:10;}
	.st4{fill:none;stroke:#FFFFFF;stroke-linecap:round;stroke-miterlimit:10;}
	.st5{fill:none;stroke:#2F80D1;stroke-miterlimit:10;}
	.st6{fill:none;stroke:#FFFFFF;stroke-miterlimit:10;}
	.st7{fill:#606060;}
	.st8{fill:#2F80D1;}
	.st9{fill:#47B747;}
	.st10{fill:none;stroke:#606060;stroke-miterlimit:10;}
	.st11{fill:#FFFFFF;}
	.st12{fill:none;stroke:#47B747;stroke-miterlimit:10;}
	.st13{fill:none;stroke:#47B747;stroke-linecap:round;stroke-miterlimit:10;}
	.st14{fill:none;stroke:#47B747;stroke-linecap:round;stroke-linejoin:round;stroke-miterlimit:10;}
</style>
<g>
	<polygon class="st7" points="0,0 18,0 18,9 17,9 17,1 1,1 1,10 10,10 10,11 0,11 	"/>
	<g>
		<path class="st8" d="M6.2,5.6c0,0.6,0,1.1-0.1,1.5C6,7.6,5.8,7.9,5.6,8.2C5.5,8.6,5.2,8.8,5,8.9C4.7,9.1,4.4,9.2,4.1,9.2
			C3.8,9.2,3.5,9.1,3.3,9S2.8,8.6,2.6,8.3C2.5,8,2.3,7.6,2.2,7.2C2.2,6.8,2.1,6.3,2.1,5.7c0-0.6,0-1.1,0.1-1.6
			C2.3,3.7,2.5,3.3,2.7,3c0.2-0.3,0.4-0.5,0.7-0.7S3.9,2,4.2,2C5.5,2,6.2,3.2,6.2,5.6z M5.5,5.7c0-2-0.4-2.9-1.3-2.9
			c-0.9,0-1.3,1-1.3,3c0,1.9,0.4,2.8,1.3,2.8C5,8.5,5.5,7.6,5.5,5.7z"/>
	</g>
	<g>
		<path class="st8" d="M14.2,1c0,0.2,0.1,0.3,0.1,0.5c0,1.1-0.4,1.7-1.2,1.7c-0.8,0-1.3-0.5-1.3-1.6c0-0.2,0-0.4,0.1-0.5h-0.7
			c0,0.2,0,0.4,0,0.6c0,0.3,0,0.6,0.1,0.9s0.2,0.5,0.4,0.6c0.2,0.2,0.4,0.3,0.6,0.4c0.2,0.1,0.5,0.1,0.8,0.1c0.3,0,0.6,0,0.8-0.1
			s0.5-0.2,0.6-0.4s0.3-0.4,0.4-0.7C15,2.1,15,1.8,15,1.5c0-0.2,0-0.3,0-0.5H14.2z"/>
	</g>
	<g>
		<path class="st8" d="M13.7,4c0,0-0.3,0.4-0.4,0.5c-0.2,0.1-0.3,0.3-0.5,0.4c-0.2,0.1-0.4,0.2-0.6,0.3c0,0-0.1,0-0.1,0.1v1
			c0,0,0,0,0.1,0c0.2-0.1,0.3-0.2,0.5-0.3c0.1-0.1,0.3-0.2,0.4-0.3C13,5.7,13,5.6,13,5.6V9h1V4H13.7z"/>
	</g>
	<g>
		<path class="st9" d="M14,10c-0.3,0-0.7,0.1-1,0.1v1c0.3-0.1,0.6-0.2,1-0.2c1.7,0,3,1.3,3,3s-1.3,3-3,3s-3-1.3-3-3h1v-1h-1v-1h-1v1
			H9v1h1c0,2.2,1.8,4,4,4c2.2,0,4-1.8,4-4C18,11.8,16.2,10,14,10z"/>
		<polygon class="st9" points="14.3,16.3 15,15.6 14,14.6 14,13 13,13 13,15 13,15 		"/>
	</g>
</g>
</svg>
