<svg id="Layer_1" data-name="Layer 1" xmlns="http://www.w3.org/2000/svg" viewBox="0 0 18 18"><defs><style>.cls-1{fill:#2f80d1;}.cls-2{fill:#47b747;}.cls-3{fill:none;}.cls-4{fill:#606060;}</style></defs><title>UpdateSalesforceRecord</title><rect class="cls-1" x="7" y="6" width="6" height="1"/><rect class="cls-1" x="7" y="9" width="3" height="1"/><path class="cls-2" d="M12,11a3.5,3.5,0,1,0,3.35-.91V11a2.63,2.63,0,1,1-3.5,2.47,2.59,2.59,0,0,1,.78-1.85l1.41,1.41V10H11Z"/><path class="cls-3" d="M15.53,8.27l-.77-.18V7.28a4.33,4.33,0,0,0-8.11-2L6.21,6l-.82-.35a1.28,1.28,0,0,0-.51-.1A1.26,1.26,0,0,0,3.62,6.67l-.1.73-.71.14A2.24,2.24,0,0,0,3.27,12H10V9h6.63A1.88,1.88,0,0,0,15.53,8.27Z"/><path class="cls-4" d="M3.27,12a2.24,2.24,0,0,1-.45-4.44l.71-.14.1-.73A1.26,1.26,0,0,1,4.87,5.59a1.28,1.28,0,0,1,.51.1L6.21,6l.44-.79a4.33,4.33,0,0,1,8.11,2v.81l.77.18a1.88,1.88,0,0,1,1.1.73h1.15a2.9,2.9,0,0,0-2-1.73,5.32,5.32,0,0,0-10-2.52A2.27,2.27,0,0,0,2.63,6.53,3.27,3.27,0,0,0,3.27,13H10V12Z"/></svg>